<?xml version="1.0" encoding="utf-8"?>
<!-- Generator: Adobe Illustrator 22.1.0, SVG Export Plug-In . SVG Version: 6.00 Build 0)  -->
<svg version="1.1" baseProfile="tiny" id="Layer_1" xmlns="http://www.w3.org/2000/svg" xmlns:xlink="http://www.w3.org/1999/xlink"
	 x="0px" y="0px" viewBox="0 0 512 512" xml:space="preserve">
<g>
	<path d="M258,1c9.7,12.3,19.7,24.3,29,36.8c26.6,35.6,52,71.9,70.9,112.5c21.6,46.6,4.8,92.3-21.9,119.2
		c-37.3,37.6-93.2,44.3-137.8,15.9c-32.6-20.8-49.5-51.2-51.9-89.6c-1-15.7,3.8-30.2,9.9-44.4c11.4-26.8,26.5-51.5,43.4-75
		c17.8-24.7,36.6-48.6,55-72.9c0.6-0.8,1-1.7,1.4-2.5C256.7,1,257.3,1,258,1z M256.9,38.8c-14.5,20-28.4,38.2-41.3,57.2
		c-15.9,23.4-30.7,47.6-39.9,74.5c-2.7,7.9-5,16.6-4.5,24.8c2.1,36.4,20.3,62.6,53.9,76.6c44.5,18.5,95.3-4,112.5-49.1
		c6.3-16.5,8.5-33.4,1.7-50.2c-5.5-13.5-11.3-27-18.3-39.8c-8.6-15.6-18-30.7-28.1-45.3C281.8,71.3,269.7,55.9,256.9,38.8z"/>
	<path d="M101,513c-7.7-2.7-15.7-4.5-22.9-8.1c-9.8-4.9-16.9-12.9-19.5-24c-0.4-1.6-0.5-3.2-0.8-5.5c8,0,15.4-0.1,22.9,0.1
		c1,0,2.3,1.1,3.1,2.1c11.5,13.8,37.2,13.8,48.3,0c0.9-1.1,2.6-2,4-2.1c3.3-0.3,6.7,0,10-0.1c5.9-0.2,10.7,0.4,15.8,5.3
		c12,11.7,34.1,9.1,45.2-3.7c0.8-0.9,2.5-1.5,3.8-1.5c3.3-0.2,6.7,0,10-0.1c5.9-0.2,10.6,0.4,15.7,5.4c11.9,11.7,34,9.1,45.2-3.8
		c0.7-0.8,2.2-1.4,3.3-1.5c3.3-0.2,6.7-0.1,10-0.1c6,0,11,0.1,16.3,5.4c11.9,11.8,33.6,9.1,45.1-3.9c0.8-0.9,2.5-1.4,3.9-1.4
		c3.5-0.2,7,0.1,10.5-0.1c5.7-0.3,10.1,0.6,14.8,5.2c11.9,11.6,34.5,9.4,45.3-3.3c0.7-0.9,2.1-1.7,3.2-1.8c7.1-0.2,14.3-0.1,23-0.1
		c-1.7,5.2-2.5,10-4.8,13.9c-7.6,13.5-20.4,19.5-34.9,22.6c-1.4,0.3-2.9,0.7-4.3,1.1c-4.3,0-8.7,0-13,0c-7.6-2.6-16-4-22.7-8.2
		c-6.4-4-10.4-3.7-16.7,0.1c-6.5,3.9-14.4,5.5-21.6,8c-4.7,0-9.3,0-14,0c-11-2.5-21.7-5.6-30.7-13.5c-8.8,8-19.5,10.8-30.3,13.5
		c-4.7,0-9.3,0-14,0c-10.8-2.7-21.5-5.6-30.2-13.5c-8.9,8.1-19.8,11-30.8,13.5c-4.3,0-8.7,0-13,0c-10.5-2.4-20.9-5.2-29.5-12.2
		c-0.5-0.4-2.1-0.5-2.6,0c-8.4,6.9-18.7,9.6-28.9,12.3C110.3,513,105.7,513,101,513z"/>
	<path d="M219.5,400.3c-20.6,16.4-51.3,17.7-74.2,0c-22.6,15.7-46.2,17.5-70.1,3.2c-11.1-6.6-17.5-18-16.8-28.3
		c7.4,0,14.8-0.1,22.3,0.1c0.9,0,2.2,0.9,2.7,1.8c8.8,14.6,40.5,14.6,49.1,0.1c0.6-1.1,2.6-1.8,4.1-1.9c3-0.3,6-0.1,9-0.1
		c6,0.1,10.9,0.1,16.1,5.5c11.5,12,35.2,9.2,45.5-3.7c0.8-1,2.4-1.6,3.7-1.7c3.1-0.2,6.3-0.1,9.5-0.1c5.9,0.1,10.8,0.1,16,5.6
		c11.3,12,35.8,9.1,45.5-3.8c0.7-1,2.3-1.7,3.6-1.7c6-0.2,12-0.2,18,0c1.4,0,3.2,0.9,4,2c10.1,15.3,42.1,13.4,49-0.4
		c0.5-1,2.4-1.6,3.7-1.7c6-0.2,12-0.2,18,0c1.3,0,3.1,0.7,3.7,1.6c4.1,6.2,10.1,9.1,17,10.3c12.6,2.1,24.3,0.8,32.6-10.7
		c0.5-0.8,1.9-1.2,2.9-1.3c7-0.1,13.9-0.1,21.2-0.1c1.4,5.6-0.6,10.2-3.2,14.4c-9.4,15.5-24.2,21.7-41.4,23.2
		c-15.4,1.3-29.3-3-41.8-12.8c-11,8.6-23.5,13-37.4,13c-13.8,0-26.2-4.2-36.9-12.8C269.8,417.4,244.9,417.5,219.5,400.3z"/>
	<path d="M256.7,253.1c-30.7,1.5-61.6-26.3-60.8-60.7c7.9,0,15.7,0,23.6,0c1.9,19.1,13.1,34.5,37.2,37
		C256.7,237.3,256.7,245.2,256.7,253.1z"/>
</g>
</svg>
