<?xml version="1.0" encoding="utf-8"?>
<!-- Generator: Adobe Illustrator 22.1.0, SVG Export Plug-In . SVG Version: 6.00 Build 0)  -->
<svg version="1.1" id="Слой_1" xmlns="http://www.w3.org/2000/svg" xmlns:xlink="http://www.w3.org/1999/xlink" x="0px" y="0px"
	 viewBox="0 0 725.7 725.7" style="enable-background:new 0 0 725.7 725.7;" xml:space="preserve">
<style type="text/css">
	.st0{fill:none;stroke:#000000;stroke-width:10;stroke-linecap:round;}
	.st1{fill:none;}
</style>
<g id="layer1" transform="translate(-272.74106,-333.45768)" inkscape:groupmode="layer" inkscape:label="Layer 1">
	<path id="path4136" inkscape:connector-curvature="0" class="st0" d="M298.7,575.7c194.8-163.5,478.9-163.5,673.8,0"/>
	<path id="path4138" inkscape:connector-curvature="0" class="st0" d="M359.9,648.7c159.4-133.8,391.9-133.8,551.3,0"/>
	<path id="path4140" inkscape:connector-curvature="0" class="st0" d="M425.7,727c121.4-101.9,298.4-101.9,419.8,0"/>
	<g>
		<path d="M585,896.9L585,896.9c-3.6,0-6.6-2.9-6.6-6.6V761.6c0-3.6,2.9-6.6,6.6-6.6l0,0c3.6,0,6.6,2.9,6.6,6.6v128.7
			C591.5,893.9,588.6,896.9,585,896.9z"/>
		<path d="M709.7,896.9c-2.4,0-4.7-1.4-5.8-3.5l-19.5-37.1c-2.1-4-4.2-7.4-6.1-10.1c-2-2.7-4-4.9-6.1-6.5c-2.1-1.6-4.4-2.8-6.8-3.5
			c-2.4-0.7-5.1-1-8.1-1h-9.1c-3.6,0-6.6,2.9-6.6,6.6v48.6c0,3.6-2.9,6.6-6.6,6.6l0,0c-3.6,0-6.6-2.9-6.6-6.6V761.6
			c0-3.6,2.9-6.6,6.6-6.6h34.3c5.3,0,10.5,0.8,15.5,2.4c5,1.6,9.4,3.9,13.3,7c3.9,3.1,7,7,9.3,11.7c2.3,4.7,3.5,10.1,3.5,16.3
			c0,5-0.8,9.6-2.3,13.8c-1.5,4.2-3.7,8-6.5,11.2c-2.8,3.3-6.2,6-10.2,8.3c-4,2.3-8.5,4-13.5,5.1v0.4c1.9,0.8,3.7,1.8,5.2,3.1
			s3.1,2.8,4.6,4.6c1.5,1.8,3,3.8,4.4,6.1c1.4,2.3,3,4.9,4.6,7.9l18.6,34.2c2.4,4.4-0.8,9.7-5.8,9.7H709.7z M641.6,773.7v44.5
			c0,2.7,2.2,4.9,4.9,4.9h18.6c4.7,0,9.1-0.7,13.1-2.1c4-1.4,7.3-3.4,10.1-5.9c2.8-2.6,5-5.7,6.5-9.3c1.5-3.6,2.3-7.7,2.3-12.3
			c0-8.2-2.7-14.7-8-19.4c-5.3-4.7-13-7.1-23-7.1h-18C644.6,767.1,641.6,770.1,641.6,773.7z"/>
	</g>
	<rect x="632.8" y="755" class="st1" width="4.5" height="1.5"/>
</g>
</svg>
