<?xml version="1.0" encoding="utf-8"?>
<!-- Generator: Adobe Illustrator 22.1.0, SVG Export Plug-In . SVG Version: 6.00 Build 0)  -->
<svg version="1.1" baseProfile="tiny" id="Слой_1"
	 xmlns="http://www.w3.org/2000/svg" xmlns:xlink="http://www.w3.org/1999/xlink" x="0px" y="0px" viewBox="0 0 671 682.5"
	 xml:space="preserve">
<g>
	<path d="M467.7,38.1c42.2,82.4,84.3,164.9,126.5,247.3c0.1,0.8,0.1,1.7,0.4,2.4c11.4,32.1,2.8,67-22.3,90c-3.5,3.2-7.2,6-10.9,9
		c-82.4,42.2-164.9,84.3-247.3,126.5c-0.8,0.1-1.7,0.1-2.4,0.4c-32.2,11.4-67.4,2.6-90.3-22.6c-3.1-3.4-5.8-7.1-8.7-10.6
		c-42.2-82.4-84.3-164.9-126.5-247.3c-0.1-0.8-0.1-1.7-0.4-2.4c-11.7-33.4-2.1-69.2,24.8-92.2c2.7-2.3,5.6-4.5,8.4-6.8
		C201.5,89.7,284,47.5,366.4,5.4c0.8-0.1,1.6-0.1,2.4-0.4c31.8-11.4,66.8-2.8,89.7,22C461.8,30.5,464.7,34.4,467.7,38.1z
		 M523.6,165.7c-19.6-38.4-39.2-76.7-58.9-115.1c-19.8-38.7-64.4-53.2-103-33.5c-76.9,39.3-153.7,78.6-230.5,118
		c-4.4,2.3-8.8,4.9-12.7,8c-29.2,23.2-37.4,61.5-20.4,94.7c39.2,76.7,78.5,153.5,117.7,230.2c19.8,38.6,64.4,53.2,103,33.4
		c76.9-39.3,153.7-78.6,230.5-118c4.3-2.2,8.6-4.7,12.4-7.7c29.4-23.1,37.8-61.6,20.7-95C562.9,242.4,543.2,204,523.6,165.7z"/>
	<g>
		<path d="M296.7,295.7c-9.3-4.8-13.5-12.2-11.7-22.7c-0.8-0.5-1.6-1.1-2.4-1.6c-7-4.4-10.4-10.7-9.7-19c0.2-2-0.3-3.1-2.1-4.2
			c-9.4-6-11.3-13.9-8.7-22.9c0.7-2.3,2.6-4.3,4.3-7.1c2.6,4.1,4.7,7,3.7,11.4c-1.2,5.3,1.5,9.4,6.5,11.8c3.9,1.9,6,5.9,5.3,9.9
			c-1.1,6.4,1.1,10.5,7.2,13.4c2.9,1.4,5.3,6.1,4.8,9.2c-1.2,7.1,0.6,10.7,7,13.8c2.9,1.4,5.4,6.1,4.8,9.2c-1.3,6.9,0.7,11,7,13.9
			c3.1,1.5,5.4,6,4.7,9.5c-1.1,5.6,0.5,10.3,5.3,12.4c4.1,1.8,5.5,5,7.6,9.7c-3.1-0.1-5.7,0.4-7.9-0.3c-7.6-2.4-14.6-8.6-13.9-19.8
			c0.2-2.7-0.6-4.2-2.9-5.6C297.5,312,295.5,304.6,296.7,295.7z"/>
		<path d="M349.1,177c11.3-4.6,22.3,7.4,21.3,22.9c9.3,4.7,13.4,12.3,11.6,23c9.4,4.8,13.5,12.2,11.8,22.6c2,1.6,4,3.1,6,4.6
			c5.4,4.1,6.3,9.9,6.1,16.1c-0.1,2.1,0.4,3.1,2.2,4.2c9.4,6,11.2,14,8.7,23c-0.7,2.3-2.6,4.3-4.3,7c-2.5-4.1-4.7-7-3.7-11.4
			c1.2-5.1-1.4-9.2-6.1-11.6c-4.5-2.3-6.3-5.7-5.6-10.5c0.9-5.9-1.4-10.3-6.9-12.9c-3.5-1.6-5.7-5.9-5-9.8c1.1-6.3-1-10.5-6.8-13.3
			c-3.5-1.7-5.7-6-5-9.7c1.1-6.1-1.1-10.7-6.7-13.3c-3.7-1.7-5.7-5.8-5-10.1c0.9-5.3-0.7-10-5.4-12
			C352.1,184.1,350.7,180.8,349.1,177z"/>
		<path d="M354.3,329.5c-6.4,1.9-10.9,0.1-14.7-3.4c-5-4.8-7.8-10.7-6.9-18c0.1-0.8-0.6-2.2-1.3-2.6c-7.5-4.7-11-11.4-10.5-20.2
			c0.1-1-0.7-2.4-1.5-2.9c-7.4-4.7-10.7-11.3-10.3-20c0-1.1-0.8-2.6-1.7-3.2c-7.1-4.7-10.4-11.2-10.1-19.7c0-1.1-0.9-2.8-1.9-3.4
			c-7.2-4.4-11.6-14.2-9.3-22.3c0.7-2.5,2.5-4.7,4.2-7.8c2.3,4.3,4.6,7.1,4,11.5c-0.6,4.8,2,8.9,6.2,11.5c3.5,2.1,5.9,6.5,5.4,10.5
			c-0.5,4.8,2.3,10.3,6.6,12.6c3.2,1.7,5.7,6.7,5.3,10.3c-0.6,5.1,2.2,10.4,6.7,12.9c2.8,1.5,5.5,6.8,5.1,10
			c-0.7,5.1,2.1,10.6,6.5,13c3,1.6,5.7,6.7,5.2,9.9c-0.7,5.4,2.3,10.3,6.7,13.4C350.5,323.3,352,326.5,354.3,329.5z"/>
		<path d="M387.7,311.5c-0.7-3.6-1.7-7.2-2.1-10.8c-0.6-5-2.9-8.5-6.8-11.8c-2.6-2.1-4.8-6.2-5-9.5c-0.3-5.7-2.5-10.1-7.1-13.6
			c-2.5-2-4.7-6-4.8-9.3c-0.2-6-2.4-10.2-6.9-13.8c-2.6-2.1-4.7-6.2-4.9-9.5c-0.3-5.4-2.6-10.1-6.8-13.5c-2.6-2.1-4.9-6.2-5-9.4
			c-0.3-5.7-2.3-10.4-7.1-13.6c-2.4-1.6-3.8-4.8-5.7-7.4c4.7-2.1,10.5-1.1,14,2.5c5,5,8.1,10.8,7.4,18.3c-0.1,0.9,0.7,2.4,1.5,2.9
			c7.4,4.6,10.6,11.3,10.4,19.9c0,1.1,0.8,2.6,1.7,3.2c7.1,4.7,10.4,11.2,10.2,19.7c0,1.1,0.6,2.7,1.5,3.3
			c7.2,4.8,10.7,11.3,10.2,20c-0.1,1,0.8,2.6,1.7,3.1c7.5,4.7,11.7,13.9,9.5,22.2c-0.7,2.6-2.5,4.9-3.9,7.4
			C389,311.6,388.3,311.5,387.7,311.5z"/>
	</g>
	<path d="M393.5,366.3c-1.9-1-4.3-1.5-5.4-3c-1.7-2.3-0.7-4.9,2-6.1c2.5-1.1,5-0.4,5.8,2.2c0.5,1.8-0.5,4.1-0.8,6.2
		C394.6,365.7,394,366,393.5,366.3z"/>
</g>
<path d="M620.7,165.6c8.9-10.7,16.4-19.7,23.8-28.8c1.7-2.1,3.3-4.3,5-6.3c5.2-5.9,12.3-7,17.3-2.5c5.6,5.1,5.3,11,0.9,16.8
	c-4.3,5.7-9,11.1-13.5,16.7c-11.3,13.8-22.7,27.6-34,41.5c-9.1,11.1-15.3,11.2-24.2,0.3c-15.1-18.4-30.1-36.9-45.2-55.3
	c-6.9-8.4-7.3-15.6-1.1-20.2c6-4.5,12.5-2.6,19,5.3c8.4,10.3,16.9,20.6,27.3,30.4c0.2-3,0.4-6.1,0.5-9.1c0-21.4,0-42.9,0-64.3
	c0-9.8,4-14.9,11.4-15c7.4-0.1,11.6,5,11.7,14.7c0.1,22.3,0,44.6,0.1,67C619.8,158.8,620.3,161,620.7,165.6z"/>
<path d="M500.1,560.5c8.9-10.7,16.4-19.7,23.8-28.8c1.7-2.1,3.3-4.3,5-6.3c5.2-5.9,12.3-7,17.3-2.5c5.6,5.1,5.3,11,0.9,16.8
	c-4.3,5.7-9,11.1-13.5,16.7c-11.3,13.8-22.7,27.6-34,41.5c-9.1,11.1-15.3,11.2-24.2,0.3c-15.1-18.4-30.1-36.9-45.2-55.3
	c-6.9-8.4-7.3-15.6-1.1-20.2c6-4.5,12.5-2.6,19,5.3c8.4,10.3,16.9,20.6,27.3,30.4c0.2-3,0.4-6.1,0.5-9.1c0-21.4,0-42.9,0-64.3
	c0-9.8,4-14.9,11.4-15s11.6,5,11.7,14.7c0.1,22.3,0,44.6,0.1,67C499.2,553.7,499.7,555.9,500.1,560.5z"/>
<path d="M265.1,636.7c8.9-10.7,16.4-19.7,23.8-28.8c1.7-2.1,3.3-4.3,5-6.3c5.2-5.9,12.3-7,17.3-2.5c5.6,5.1,5.3,11,0.9,16.8
	c-4.3,5.7-9,11.1-13.5,16.7c-11.3,13.8-22.7,27.6-34,41.5c-9.1,11.1-15.3,11.2-24.2,0.3c-15.1-18.4-30.1-36.9-45.2-55.3
	c-6.9-8.4-7.3-15.6-1.1-20.2c6-4.5,12.5-2.6,19,5.3c8.4,10.3,16.9,20.6,27.3,30.4c0.2-3,0.4-6.1,0.5-9.1c0-21.4,0-42.9,0-64.3
	c0-9.8,4-14.9,11.4-15c7.4-0.1,11.6,5,11.7,14.7c0.1,22.3,0,44.6,0.1,67C264.2,629.9,264.7,632.1,265.1,636.7z"/>
<path d="M75.4,420.8c8.9-10.7,16.4-19.7,23.8-28.8c1.7-2.1,3.3-4.3,5-6.3c5.2-5.9,12.3-7,17.3-2.5c5.6,5.1,5.3,11,0.9,16.8
	c-4.3,5.7-9,11.1-13.5,16.7c-11.3,13.8-22.7,27.6-34,41.5c-9.1,11.1-15.3,11.2-24.2,0.3c-15.1-18.4-30.1-36.9-45.2-55.3
	c-6.9-8.4-7.3-15.6-1.1-20.2c6-4.5,12.5-2.6,19,5.3c8.4,10.3,16.9,20.6,27.3,30.4c0.2-3,0.4-6.1,0.5-9.1c0-21.4,0-42.9,0-64.3
	c0-9.8,4-14.9,11.4-15s11.6,5,11.7,14.7c0.1,22.3,0,44.6,0.1,67C74.5,414,75,416.2,75.4,420.8z"/>
</svg>
