<?xml version="1.0" encoding="utf-8"?>
<!-- Generator: Adobe Illustrator 22.1.0, SVG Export Plug-In . SVG Version: 6.00 Build 0)  -->
<svg version="1.1" baseProfile="tiny" id="Слой_1"
	 xmlns="http://www.w3.org/2000/svg" xmlns:xlink="http://www.w3.org/1999/xlink" x="0px" y="0px" viewBox="0 0 603.9 604.2"
	 xml:space="preserve">
<g>
	<path d="M500,142.5c7.1,7.1,21.1,14.4,21.3,22c0.1,3.9-1.9,9-4.8,11.5c-19.7,16.8-39.9,33-60,49.4c-5.9,4.8-12,5.5-17.5-0.4
		c-4.8-5.1-3.5-12.1,3.2-17.8c10.9-9.2,21.9-18.1,34.3-28.3c-63.6-8.3-117.8,18.6-143.2,71.8C326.4,265,325,282,321,297.7
		c-1.2,4.7-0.2,9.3-1.4,13.4c0.8,2.8,0.6,5.9,0.1,8.7c-11.6,78-71.6,129.6-150.6,129.6c-7.4,0-14.8,0-24.7,0
		c3.7,3.5,5.6,5.5,7.7,7.2c9.4,7.8,18.9,15.4,28.3,23.3c5.7,4.8,6.6,10.8,1.8,16.5c-4.8,5.7-10.8,5.8-16.6,1.1
		c-20.3-16.5-40.7-33-60.9-49.8c-7.7-6.4-7.5-13.7,0.4-20.3c19.7-16.3,39.6-32.5,59.5-48.6c6.7-5.4,14-5.1,18.1,0.8
		c4.5,6.6,2.4,12.3-3.5,17.1c-11.1,9-22,18.1-33,27.2c0.2,1.1,0.4,2.1,0.6,3.2c16.9-1,34.1,0,50.5-3.4
		c60.7-12.7,99.5-61.1,100.4-123c1.1-78.5,66.4-144.2,145.1-145.9c10.5-0.2,21.1,0,31.6,0c0.2-0.7,3.8,1.2,4,0.4
		c-9.5-7.9-22.4-18.3-32-26.2c-2.1-1.7-4.3-3.3-6.2-5.1c-4.9-4.9-5.7-10.6-1.3-16c4.5-5.6,10.8-6.3,15.8-1.7"/>
	<path d="M162.3,138.9c-7.3,8.8-14.6,17.7-21.9,26.5c-1.9,2.3-3.7,4.7-5.6,6.9c-5.2,5.9-12.1,6.9-17.3,2.7
		c-5.2-4.2-5.7-11.1-0.6-17.5c12.1-15.1,24.5-30,36.7-45c4.1-5.1,8.2-10.3,12.4-15.2c6.4-7.4,13.5-7.7,19.6-0.4
		c16.8,20.2,33.3,40.5,49.8,60.9c4.9,6.1,4.3,13.8-1.2,17.4c-6.6,4.4-12.4,2.6-17.3-3.3c-9-11-18-22-27.9-32.6
		c-1.5,22.6-3,44.9,5.1,66.6c13.1,35.1,36.1,60.4,70.7,75.1c8.7,3.7,12,9.7,9.1,16.5c-2.8,6.6-9.2,8.3-18.3,4.9
		c-53.2-20.3-90.5-75.4-91.2-134.8c-0.1-9.4,0-18.8,0-28.2C163.8,139.4,163.1,139.2,162.3,138.9z"/>
	<path d="M409.5,439.2c7.2,8.7,14.5,17.3,23.1,27.6c2-28.4,1.5-54.3-9.8-79c-14.5-31.8-38.1-54.2-71.2-66.7
		c-0.7-0.3-1.4-0.5-2.1-0.9c-6.3-3.2-9.1-8.4-6.3-14.9c2.7-6.3,8-8.6,14.7-6.3c19.3,6.4,36.2,16.8,51,30.5
		c20.4,18.8,34.4,41.7,42,68.4c1,3.5,0,0,2.6,9.9c0.2,0.8,0.5,4,1,6.7c1.1,5.3,1,9.2,1.3,13.3c0.8,12.1,0.3,24.3,0.3,38.7
		c3.2-2.8,4.9-4,6.3-5.6c8-9.6,15.7-19.5,23.8-29c5.3-6.3,12.2-7.3,17.2-2.8c6,5.4,5.4,11.6,0.6,17.4
		c-16.3,20.1-32.6,40.3-49.2,60.2c-6.3,7.6-13.4,7.7-19.7,0.2c-17-20.4-33.8-40.9-50-61.9c-2.3-3-2.6-10.4-0.4-13.4
		c2.2-3,9.1-5,12.9-3.9"/>
	<path d="M314.4,558.4c8.9-10.7,16.4-19.7,23.8-28.8c1.7-2.1,3.3-4.3,5-6.3c5.2-5.9,12.3-7,17.3-2.5c5.6,5.1,5.3,11,0.9,16.8
		c-4.3,5.7-9,11.1-13.5,16.7c-11.3,13.8-22.7,27.6-34,41.5c-9.1,11.1-15.3,11.2-24.2,0.3c-15.1-18.4-30.1-36.9-45.2-55.3
		c-6.9-8.4-7.3-15.6-1.1-20.2c6-4.5,12.5-2.6,19,5.3c8.4,10.3,16.9,20.6,27.3,30.4c0.2-3,0.4-6.1,0.5-9.1c0-21.4,0-42.9,0-64.3
		c0-9.8,4-14.9,11.4-15c7.4-0.1,11.6,5,11.7,14.7c0.1,22.3,0,44.6,0.1,67C313.5,551.6,314,553.8,314.4,558.4z"/>
	<path d="M555.8,313.6c-4.6,0-9.3,0-13.9,0c-20.3,0-40.5,0.1-60.8-0.1c-8.9-0.1-14-4.6-13.5-11.9c0.6-8.2,5.8-11.2,13.4-11.2
		c21.8,0,43.5,0,65.3,0c3.1,0,6.3,0,9.4,0c0.3-0.7,0.6-1.5,0.9-2.2c-8.5-7.1-17-14.2-25.6-21.3c-2.8-2.3-5.7-4.4-8.3-6.8
		c-5.5-4.8-6.9-10.7-2.2-16.6c4.7-5.8,11-5.9,16.7-1.5c11,8.6,21.8,17.6,32.6,26.5c9.5,7.7,19,15.4,28.3,23.2
		c7.7,6.5,7.7,13.8-0.1,20.2c-20,16.5-40,32.9-60.2,49.2c-6.2,5-13.2,4.5-17.4-0.9c-4.2-5.4-3.3-12,2.9-17.2
		c10.9-9.1,22-18.1,33.1-27.1C556.2,315.4,556,314.5,555.8,313.6z"/>
	<path d="M313.3,66.7c0,20.3,0.3,39.8-0.1,59.4c-0.1,6.5-4.7,10.3-11.3,10.2c-7.1-0.1-11.2-4.3-11.3-11.2
		c-0.3-13.1-0.1-26.2-0.2-39.3c0-12.4,0-24.9,0-39.8c-3.3,3.2-5.2,4.7-6.8,6.5c-7.8,9.4-15.4,19-23.2,28.3
		c-5.1,6.1-12.2,7.1-17.2,2.5c-5.5-5.1-5.5-11.1-1-16.8c16.6-20.6,33.3-41.2,50.3-61.6c5.6-6.7,13.4-6.5,19.1,0.4
		c16.7,20.2,33.3,40.5,49.7,60.9c5,6.2,4.3,13.3-1.1,17.4c-5.3,4.1-12,3-17.2-3.2c-9.1-10.9-19.2-22.2-29.6-34.9"/>
	<path d="M76.1,291.1c16.1-0.4,32.1-0.6,48.2-0.5c7.3,0,12,4,11.9,11.6c-0.1,7.5-4.8,11.3-12.2,11.3c-22.6,0.1-45.3,0.2-67.9-0.3
		c-4.6-0.1-7.7-0.7-12.8-0.7c3.4,3.7,5.6,4.5,9.8,8.1c9,7.8,18.5,15,27.6,22.7c6.1,5.2,7,11.9,2.7,17.2c-4.3,5.2-11.2,5.6-17.4,0.7
		c-8.4-6.7-17.3-12.9-24.7-20.5C30.7,330.1,18,322.4,6.6,312.9c-8.6-7.2-8.8-14.4-0.3-21.4c19.3-15.9,38.7-31.7,58.1-47.5
		c7.3-6,14.3-6.1,18.9-0.6c4.9,5.8,3.2,12.6-4.7,19C68.1,271,55,282.6,45.3,290.5"/>
	<path d="M290.4,431.1c0-9,4-13.9,11.2-14.1c7.6-0.2,11.9,5,11.9,14.3c0,8.8-4.1,14-11.2,14.2C294.8,445.8,290.3,440.3,290.4,431.1z
		"/>
	<path d="M313.5,172.8c0,9.3-4.4,14.7-11.9,14.4c-7.2-0.2-11.2-5.3-11.2-14.2c0-9.1,4.6-14.8,11.9-14.5
		C309.3,158.7,313.5,164,313.5,172.8z"/>
	<path d="M172.8,313.6c-9.1,0-14.6-4.6-14.4-12c0.3-7.1,5.5-11.1,14.3-11.2c9,0,14,3.9,14.3,11.1
		C187.3,309.2,182.1,313.6,172.8,313.6z"/>
	<path d="M430.2,313.6c-8.7-0.2-13.6-4.6-13.4-11.9c0.2-7.5,5.5-11.4,15.1-11.2c8.5,0.2,13.8,4.9,13.5,11.9
		C445.1,309.8,439.7,313.9,430.2,313.6z"/>
</g>
</svg>
