<?xml version="1.0" encoding="utf-8"?>
<!-- Generator: Adobe Illustrator 22.1.0, SVG Export Plug-In . SVG Version: 6.00 Build 0)  -->
<svg version="1.1" baseProfile="tiny" id="Слой_1"
	 xmlns="http://www.w3.org/2000/svg" xmlns:xlink="http://www.w3.org/1999/xlink" x="0px" y="0px" viewBox="0 0 725.7 725.7"
	 xml:space="preserve">
<g>
	<path stroke="#000000" stroke-miterlimit="10" d="M256.3,483.9c1.3-0.8,3.1-1.5,3.1-1.9c-0.5-2.2-0.8-4.8-2.3-6.3
		c-9.3-9.8-18.8-19.5-28.4-29c-3.6-3.6-6-6.9-3.2-12c12.6-22.9,8.9-43.7-8.3-62.7c-6.3-6.9-5.8-13.5,0.3-20.2
		c16.8-18.7,20.6-39.3,8.1-61.9c-3-5.4-0.6-9,3.3-12.8c9.1-8.8,17.9-17.8,26.5-27c2-2.1,2.6-5.5,3.8-8.2c-3,1.2-6.6,1.7-8.8,3.8
		c-10.2,9.8-19.8,20.2-30,30c-3.8,3.7-5.4,7.5-2.8,12.1c13.7,24.1,8.1,45.3-9,65c-5.1,5.9-5.2,11.4-0.4,18.2
		c6.9,9.8,16.4,19.8,17.9,30.7c1.5,11.1-5.4,23.3-8.6,35c-0.1,0.3-0.2,0.6-0.2,0.9c0.7,3.3,0.4,7.5,2.3,9.6
		c10.4,11.3,21.4,22.1,32.3,33C253.2,481.5,254.7,482.6,256.3,483.9z M468.4,484c1.8-1.2,3.5-2,4.7-3.2
		c11.3-11.3,22.7-22.6,33.6-34.3c1.7-1.9,2.2-6.2,1.4-8.9c-2.5-9.5-6.2-18.6-8.5-28.2c-0.9-3.7-0.3-8.5,1.5-11.8
		c5.4-10,12.2-19.2,17.5-29.3c1.7-3.3,1.8-9,0.1-12.3c-4.9-9.6-10.7-18.7-16.8-27.5c-3.4-5-4.2-9.6-2.1-15.4
		c3.2-8.6,6.1-17.4,8.2-26.3c0.7-3.1-0.4-7.9-2.5-10.3c-10.2-11.1-20.9-21.7-31.7-32.2c-1.7-1.6-5-1.6-7.5-2.3
		c0.9,2.3,1.1,5.2,2.7,6.9c8.8,9.4,17.8,18.8,27.1,27.6c4.6,4.3,6.8,8.5,3.6,14.4c-11.3,21.2-9.5,40.7,7,58.6
		c7.7,8.2,7.9,16.6,0.1,24.9c-16.5,17.8-18.7,37.3-7.2,58.6c3.1,5.8,1.3,10.1-3.4,14.5c-9.6,9.1-18.7,18.7-27.8,28.2
		c-1.3,1.4-2,3.6-2.5,5.5C465.8,481.9,467.3,482.9,468.4,484z M172.3,441.5c1.4,2.1,2.6,4.8,4.6,6.9c10,10.4,20.1,20.8,30.4,30.8
		c1.9,1.9,5.5,2.1,8.2,3.1c-1-2.6-1.5-5.7-3.2-7.6c-9-9.6-18.2-19.1-27.7-28.3c-3.9-3.7-5.4-7.4-2.8-12.1c12.7-23,8.3-43.7-8.5-62.7
		c-5.9-6.7-5.4-13,0.2-19.5c16.5-18.8,21.1-39.1,8.4-61.9c-3-5.4-0.8-9.4,3.5-13.5c9.6-9.1,18.7-18.7,27.7-28.3
		c1.5-1.6,1.5-4.6,2.1-6.9c-2.3,0.7-5.4,0.7-6.9,2.3c-11,10.7-21.9,21.6-32.2,32.9c-2.1,2.4-2.9,7.4-2.2,10.6
		c2,8.6,4.9,17.1,8.1,25.4c2.1,5.7,1.6,10.3-1.8,15.4c-5.9,8.6-10.8,17.9-16.7,26.5c-3.8,5.4-3.4,9.7,0.2,15
		c6,8.9,11.8,18,16.8,27.5c1.9,3.5,2.5,8.7,1.5,12.6C179.6,420.2,175.9,430.3,172.3,441.5z M553.3,282.8c-0.9-1.7-1.7-4.1-3.3-5.7
		c-10.9-11.3-21.8-22.5-33-33.5c-1.5-1.4-4.6-1.2-6.9-1.8c0.8,2.3,1.1,5.2,2.6,6.9c9.3,9.8,18.7,19.6,28.4,29
		c3.9,3.7,5.4,7.4,2.8,12.1c-12.8,23-8.2,43.7,8.5,62.7c5.9,6.7,5.4,13.1-0.2,19.5c-16.5,18.8-21.1,39.1-8.4,61.9
		c3,5.4,0.7,9.4-3.6,13.5c-9.6,9.1-18.7,18.7-27.7,28.3c-1.5,1.6-1.4,4.6-2.1,6.9c2.3-0.7,5.4-0.7,6.9-2.3
		c11-10.7,21.9-21.6,32.2-32.9c2.1-2.4,2.9-7.4,2.2-10.6c-2.1-8.9-6-17.4-7.9-26.4c-0.9-4.2-0.4-9.6,1.6-13.4
		c4.9-9.5,10.7-18.6,16.8-27.5c3.8-5.4,3.4-9.7-0.2-15c-6-8.9-11.8-18-16.8-27.5c-1.9-3.5-2.5-8.7-1.5-12.6
		C546.1,304,549.8,293.9,553.3,282.8z"/>
	<path stroke="#000000" stroke-miterlimit="10" d="M451.6,362.2c0,50.2-38.6,88.6-88.8,88.6c-50.2,0-88.6-38.6-88.6-88.8
		c0-50.2,38.6-88.6,88.8-88.6C413.1,273.4,451.6,312,451.6,362.2z M442.1,362.6c0.2-43.3-35.5-79.6-78.7-79.8
		c-43.3-0.2-79.5,35.5-79.8,78.7c-0.2,43.3,35.5,79.5,78.7,79.8C405.6,441.6,441.9,405.8,442.1,362.6z"/>
	<path stroke="#000000" stroke-miterlimit="10" d="M256.3,483.9c-1.6-1.4-3.1-2.4-4.4-3.7c-10.8-10.9-21.8-21.7-32.3-33
		c-2-2.1-1.6-6.3-2.3-9.6c-0.1-0.3,0.1-0.6,0.2-0.9c3.2-11.7,10.1-23.9,8.6-35c-1.5-10.9-11-20.9-17.9-30.7
		c-4.8-6.7-4.7-12.3,0.4-18.2c17.1-19.7,22.8-41,9-65c-2.6-4.6-1.1-8.4,2.8-12.1c10.2-9.8,19.8-20.2,30-30c2.2-2.1,5.8-2.6,8.8-3.8
		c-1.2,2.8-1.9,6.1-3.8,8.2c-8.6,9.2-17.4,18.2-26.5,27c-3.9,3.8-6.3,7.4-3.3,12.8c12.4,22.6,8.7,43.1-8.1,61.9
		c-6,6.7-6.5,13.3-0.3,20.2c17.1,19,20.9,39.8,8.3,62.7c-2.8,5.1-0.5,8.4,3.2,12c9.7,9.5,19.1,19.1,28.4,29c1.4,1.5,1.8,4.1,2.3,6.3
		C259.5,482.4,257.6,483.1,256.3,483.9z"/>
	<path stroke="#000000" stroke-miterlimit="10" d="M468.4,484c-1.1-1.1-2.6-2.1-2.5-2.7c0.5-1.9,1.2-4.1,2.5-5.5
		c9.1-9.5,18.2-19.2,27.8-28.2c4.7-4.4,6.5-8.7,3.4-14.5c-11.5-21.2-9.2-40.8,7.2-58.6c7.8-8.4,7.5-16.7-0.1-24.9
		c-16.6-17.8-18.4-37.4-7-58.6c3.2-5.9,0.9-10.1-3.6-14.4c-9.4-8.9-18.3-18.2-27.1-27.6c-1.6-1.7-1.8-4.6-2.7-6.9
		c2.5,0.7,5.8,0.7,7.5,2.3c10.8,10.5,21.5,21.1,31.7,32.2c2.1,2.3,3.2,7.1,2.5,10.3c-2.1,8.9-5,17.7-8.2,26.3
		c-2.2,5.8-1.4,10.3,2.1,15.4c6,8.9,11.9,18,16.8,27.5c1.7,3.3,1.6,9-0.1,12.3c-5.2,10.1-12,19.3-17.5,29.3
		c-1.8,3.3-2.4,8.2-1.5,11.8c2.3,9.5,6,18.7,8.5,28.2c0.7,2.7,0.3,7-1.4,8.9c-10.9,11.7-22.3,23-33.6,34.3
		C471.9,482,470.2,482.8,468.4,484z"/>
	<path stroke="#000000" stroke-miterlimit="10" d="M172.3,441.5c3.5-11.2,7.2-21.4,9.7-31.7c0.9-3.9,0.3-9-1.5-12.6
		c-5-9.5-10.8-18.6-16.8-27.5c-3.6-5.3-4-9.5-0.2-15c5.9-8.6,10.8-17.9,16.7-26.5c3.5-5.1,4-9.7,1.8-15.4
		c-3.1-8.3-6.1-16.8-8.1-25.4c-0.8-3.3,0-8.3,2.2-10.6c10.3-11.4,21.2-22.2,32.2-32.9c1.6-1.5,4.6-1.5,6.9-2.3
		c-0.7,2.3-0.6,5.3-2.1,6.9c-9,9.6-18.2,19.2-27.7,28.3c-4.3,4.1-6.6,8.1-3.5,13.5c12.7,22.8,8,43.1-8.4,61.9
		c-5.7,6.4-6.2,12.8-0.2,19.5c16.8,19,21.2,39.6,8.5,62.7c-2.6,4.7-1,8.4,2.8,12.1c9.5,9.2,18.7,18.7,27.7,28.3
		c1.8,1.9,2.2,5,3.2,7.6c-2.8-1-6.3-1.2-8.2-3.1c-10.4-10-20.4-20.4-30.4-30.8C174.9,446.4,173.7,443.6,172.3,441.5z"/>
	<path stroke="#000000" stroke-miterlimit="10" d="M553.3,282.8c-3.5,11.1-7.2,21.2-9.7,31.6c-0.9,3.9-0.3,9,1.5,12.6
		c5,9.5,10.8,18.6,16.8,27.5c3.6,5.3,4,9.5,0.2,15c-6.1,8.8-11.9,18-16.8,27.5c-2,3.8-2.5,9.2-1.6,13.4c2,8.9,5.8,17.5,7.9,26.4
		c0.8,3.3,0,8.3-2.2,10.6c-10.3,11.4-21.2,22.2-32.2,32.9c-1.6,1.5-4.6,1.6-6.9,2.3c0.7-2.3,0.6-5.3,2.1-6.9
		c9-9.6,18.2-19.2,27.7-28.3c4.3-4.1,6.6-8.1,3.6-13.5c-12.7-22.8-8-43.1,8.4-61.9c5.6-6.4,6.2-12.8,0.2-19.5
		c-16.8-18.9-21.3-39.6-8.5-62.7c2.6-4.7,1-8.4-2.8-12.1c-9.7-9.4-19.1-19.1-28.4-29c-1.6-1.7-1.8-4.6-2.6-6.9
		c2.3,0.5,5.5,0.3,6.9,1.8c11.2,11,22.1,22.2,33,33.5C551.6,278.7,552.3,281.1,553.3,282.8z"/>
</g>
</svg>
