<?xml version="1.0" encoding="utf-8"?>
<!-- Generator: Adobe Illustrator 22.1.0, SVG Export Plug-In . SVG Version: 6.00 Build 0)  -->
<svg version="1.1" baseProfile="tiny" id="Слой_1"
	 xmlns="http://www.w3.org/2000/svg" xmlns:xlink="http://www.w3.org/1999/xlink" x="0px" y="0px" viewBox="0 0 725.7 725.7"
	 xml:space="preserve">
<path fill="none" stroke="#000000" stroke-width="10" stroke-miterlimit="10" d="M208.7,32.9c0-12.8,69-23.1,154.2-23.1
	S517,20.1,517,32.9"/>
<path fill="none" stroke="#000000" stroke-width="10" stroke-miterlimit="10" d="M517,694c0,12.8-69,23.1-154.2,23.1
	S208.7,706.7,208.7,694"/>
<path fill="none" stroke="#000000" stroke-width="10" stroke-miterlimit="10" d="M517,527.3c0,6.4-69,11.6-154.2,11.6
	s-154.2-5.2-154.2-11.6"/>
<line fill="none" stroke="#000000" stroke-width="10" stroke-miterlimit="10" x1="208.7" y1="32.9" x2="208.7" y2="694"/>
<line fill="none" stroke="#000000" stroke-width="10" stroke-miterlimit="10" x1="517" y1="32.9" x2="517" y2="694"/>
<polyline fill="none" stroke="#000000" stroke-width="10" stroke-miterlimit="10" points="362.3,654.3 362.3,627.5 407.3,606.7 
	407.3,636.1 384.8,647.4 "/>
<polyline fill="none" stroke="#000000" stroke-width="10" stroke-miterlimit="10" points="339,645.6 316.5,637.9 313,606.7 
	356.6,627.5 356.6,654.3 "/>
</svg>
