<?xml version="1.0" encoding="utf-8"?>
<!-- Generator: Adobe Illustrator 22.1.0, SVG Export Plug-In . SVG Version: 6.00 Build 0)  -->
<svg version="1.1" baseProfile="tiny" id="Слой_1"
	 xmlns="http://www.w3.org/2000/svg" xmlns:xlink="http://www.w3.org/1999/xlink" x="0px" y="0px" viewBox="0 0 725.7 725.7"
	 xml:space="preserve">
<g>
	<path fill="none" stroke="#000000" stroke-width="10" stroke-miterlimit="10" d="M605.7,709.7H132.9c-22.6,0-41-18.4-41-41V178.8
		c0-22.6,18.4-41,41-41h472.8c22.5,0,41,18.4,41,41v489.9C646.7,691.3,628.2,709.7,605.7,709.7z"/>
	<path fill="none" stroke="#000000" stroke-width="10" stroke-miterlimit="10" d="M93.9,166.1l19.3-77.7
		c5.7-36.9,30.9-69.8,68.6-69.8h376.6c37.7,0,61.6,39.2,68.6,69.8l19.7,90.5"/>
	<polygon fill="none" stroke="#000000" stroke-width="8" stroke-miterlimit="10" points="427.2,58.6 304.4,58.6 306.1,41.6 
		426.4,41.6 	"/>
	<path d="M289.1,306.5c0-4.4,0-7.9,0-11.7c10.3,0,20.3,0,30.8,0c0,30.5,0,61,0,91.8c-10,0-20,0-30.6,0c0-3.3,0-6.7,0-11
		c-6,0-11.4,0-16.8,0c-19.6-0.2-35.3-16.2-34.8-35.7c0.4-17.5,15.8-33,33.3-33.4C276.8,306.4,282.6,306.5,289.1,306.5z M299.9,319.4
		c-7.7,0-16.5,0.3-25.2-0.1c-13.1-0.5-23.6,8.6-23.9,21.1c-0.3,12.9,9.9,22.7,23.2,22.4c9.1-0.2,18.2,0,27.8,0c0,3.1,0.1,5.5,0,7.8
		c-0.2,4,1.8,4.2,4.8,3.2c0-22,0-43.9,0-66.1C298,308.4,304,315.5,299.9,319.4z"/>
	<path d="M444.9,294.9c0,3.6,0,7.1,0,11.6c5.3,0,10.4,0,15.4,0c16.6,0,28.9,8.7,34.3,24.1c7.4,21-9.1,44.4-31.7,45
		c-5.7,0.1-11.3,0-17.6,0c0,3.8,0,7.2,0,11c-10.6,0-20.6,0-31,0c0-30.3,0-60.8,0-91.7C424.3,294.9,434.4,294.9,444.9,294.9z
		 M433.9,362.8c8,0,16.9-0.2,25.9,0c13.5,0.3,23.7-9,23.7-21.9c-0.1-12.8-10.6-22.1-24-21.6c-8.9,0.3-17.8,0.1-26.5,0.1
		c-1.3-11.5-1.3-11.5-5.5-10.9c0,21.7,0,43.5,0,66.1C435.8,373.7,430.4,366.6,433.9,362.8z"/>
	<path d="M352.5,386.7c0-30.8,0-61.2,0-91.8c10.1,0,19.9,0,30.2,0c0,30.4,0,60.9,0,91.8C372.8,386.7,362.9,386.7,352.5,386.7z
		 M371.8,305.9c-3.1,0-5.6,0-8.1,0c0,23.5,0,46.7,0,69.8c2.9,0,5.4,0,8.1,0C371.8,352.3,371.8,329.2,371.8,305.9z"/>
	<path d="M333.6,515.7c-9.1,5.3-17.6,10.2-26.5,15.4c-15.5-26.6-30.8-52.8-46.3-79.5c8.9-5.2,17.5-10.2,26.5-15.5
		C302.7,462.8,318,489,333.6,515.7z M275.8,455.6c11.9,20.4,23.6,40.4,35.3,60.5c2.8-1.7,5-3,7.4-4.5
		c-11.9-20.4-23.5-40.3-35.2-60.4C280.5,452.8,278.5,454,275.8,455.6z"/>
	<path d="M422.4,527c-8.8-5.8-17-11.1-25.7-16.8c16.8-25.7,33.4-51.1,50.4-77c8.6,5.6,16.9,11,25.7,16.8
		C456,475.7,439.4,501,422.4,527z M419.2,511.7c12.9-19.7,25.5-39,38.3-58.6c-2.6-1.7-4.8-3.1-7.3-4.7c-12.9,19.7-25.5,39-38.3,58.6
		C414.4,508.6,416.5,510,419.2,511.7z"/>
	<ellipse fill="none" stroke="#000000" stroke-width="8" stroke-miterlimit="10" cx="362.8" cy="98.7" rx="57.4" ry="24"/>
	<ellipse fill="none" stroke="#000000" stroke-width="8" stroke-miterlimit="10" cx="362.8" cy="98.7" rx="29.2" ry="12.2"/>
	<line fill="none" stroke="#000000" stroke-width="8" stroke-miterlimit="10" x1="362.8" y1="98.7" x2="362.8" y2="110.9"/>
	<line fill="none" stroke="#000000" stroke-width="10" stroke-miterlimit="10" x1="343.5" y1="186.1" x2="388.1" y2="186.1"/>
</g>
</svg>
