<?xml version="1.0" encoding="utf-8"?>
<!-- Generator: Adobe Illustrator 22.1.0, SVG Export Plug-In . SVG Version: 6.00 Build 0)  -->
<svg version="1.1" id="Слой_1" xmlns="http://www.w3.org/2000/svg" xmlns:xlink="http://www.w3.org/1999/xlink" x="0px" y="0px"
	 viewBox="0 0 1451.3 1451.3" style="enable-background:new 0 0 1451.3 1451.3;" xml:space="preserve">
<style type="text/css">
	.st0{fill:none;stroke:#000000;stroke-width:20;stroke-miterlimit:10;}
	.st1{fill:none;stroke:#000000;stroke-width:12;stroke-miterlimit:10;}
	.st2{stroke:#000000;}
</style>
<path class="st0" d="M1330.3,1115.2H121c-58.7,0-106.7-48-106.7-106.7V442.9c0-58.7,48-106.7,106.7-106.7h1209.2
	c58.7,0,106.7,48,106.7,106.7v565.6C1437,1067.2,1389,1115.2,1330.3,1115.2z"/>
<path class="st1" d="M1311,999.7H131.9c-6.6,0-12-5.4-12-12V456.6c0-6.6,5.4-12,12-12H1311c6.6,0,12,5.4,12,12v531.1
	C1323,994.3,1317.6,999.7,1311,999.7z"/>
<g>
	<path class="st2" d="M244,621.8v-30h-51.2v-9.8l49.1-70.3H258v68.5h15.4v11.7H258v30H244z M244,580.1v-36.8
		c0-5.8,0.2-11.5,0.5-17.3H244c-3.4,6.4-6.1,11.2-9.2,16.3l-26.9,37.4v0.3H244z"/>
	<path class="st2" d="M350.5,524.1h-42l-4.2,28.3c2.5-0.3,4.9-0.7,9-0.7c8.5,0,16.9,1.9,23.7,5.9c8.6,4.9,15.8,14.4,15.8,28.3
		c0,21.5-17.1,37.6-41,37.6c-12,0-22.2-3.4-27.5-6.8l3.7-11.4c4.6,2.7,13.6,6.1,23.6,6.1c14.1,0,26.1-9.2,26.1-23.9
		c-0.2-14.2-9.7-24.4-31.7-24.4c-6.3,0-11.2,0.7-15.3,1.2l7.1-52.9h52.7V524.1z"/>
</g>
<line class="st1" x1="192.8" y1="648.1" x2="547.6" y2="648.1"/>
<g>
	<path class="st2" d="M370.1,575.7c3-0.5,7-0.9,12-0.9c6.2,0,10.7,1.4,13.6,4c2.7,2.3,4.2,5.8,4.2,10.2c0,4.4-1.3,7.8-3.7,10.4
		c-3.3,3.5-8.7,5.3-14.8,5.3c-1.9,0-3.6-0.1-5-0.4v19.4h-6.3V575.7z M376.3,599.1c1.4,0.4,3.1,0.5,5.2,0.5c7.6,0,12.2-3.7,12.2-10.4
		c0-6.4-4.5-9.5-11.4-9.5c-2.7,0-4.8,0.2-5.9,0.5V599.1z"/>
	<path class="st2" d="M448.4,602.3c-0.4-6.8-0.8-14.9-0.7-21h-0.2c-1.7,5.7-3.7,11.8-6.1,18.4l-8.6,23.5H428l-7.8-23.1
		c-2.3-6.8-4.2-13.1-5.6-18.9h-0.1c-0.1,6-0.5,14.2-0.9,21.5l-1.3,20.8h-6l3.4-48.5h8l8.3,23.5c2,6,3.7,11.3,4.9,16.3h0.2
		c1.2-4.9,3-10.2,5.1-16.3l8.6-23.5h8l3,48.5h-6.1L448.4,602.3z"/>
	<path class="st2" d="M463.2,623.6v-3.9l5-4.8c12-11.4,17.4-17.4,17.4-24.5c0-4.8-2.3-9.1-9.3-9.1c-4.2,0-7.8,2.2-9.9,4l-2-4.5
		c3.2-2.7,7.8-4.8,13.2-4.8c10.1,0,14.3,6.9,14.3,13.6c0,8.6-6.3,15.6-16.1,25.1l-3.7,3.5v0.1h21v5.3H463.2z"/>
	<path class="st2" d="M504.8,624.4c-2.4,0-4.2-1.9-4.2-4.5c0-2.7,1.8-4.5,4.3-4.5c2.5,0,4.2,1.9,4.2,4.5
		C509.2,622.5,507.5,624.4,504.8,624.4L504.8,624.4z"/>
	<path class="st2" d="M543,582.1h-17.9l-1.8,12c1.1-0.1,2.1-0.3,3.8-0.3c3.6,0,7.2,0.8,10.1,2.5c3.7,2.1,6.7,6.1,6.7,12
		c0,9.1-7.3,16-17.4,16c-5.1,0-9.4-1.4-11.7-2.9l1.6-4.8c1.9,1.2,5.8,2.6,10,2.6c6,0,11.1-3.9,11.1-10.2c-0.1-6-4.1-10.4-13.5-10.4
		c-2.7,0-4.8,0.3-6.5,0.5l3-22.5H543V582.1z"/>
</g>
<g>
	<path class="st2" d="M876.6,622.4v-8.8l11.2-10.9c27-25.7,39.2-39.4,39.4-55.3c0-10.7-5.2-20.7-21-20.7c-9.6,0-17.6,4.9-22.4,8.9
		l-4.6-10.1c7.3-6.2,17.7-10.7,29.9-10.7c22.8,0,32.4,15.6,32.4,30.7c0,19.5-14.2,35.3-36.4,56.8l-8.5,7.8v0.3h47.5v11.9H876.6z"/>
	<path class="st2" d="M963.4,606c4.1,2.6,13.5,6.7,23.4,6.7c18.4,0,24.1-11.7,23.9-20.5c-0.2-14.8-13.5-21.1-27.3-21.1h-8v-10.7h8
		c10.4,0,23.6-5.4,23.6-17.9c0-8.5-5.4-15.9-18.5-15.9c-8.5,0-16.6,3.7-21.1,7l-3.7-10.4c5.5-4.1,16.3-8.1,27.6-8.1
		c20.8,0,30.3,12.4,30.3,25.2c0,10.9-6.5,20.2-19.5,24.9v0.3c13,2.6,23.6,12.4,23.6,27.2c0,16.9-13.2,31.7-38.5,31.7
		c-11.9,0-22.3-3.7-27.5-7.2L963.4,606z"/>
	<path class="st2" d="M1089.6,516.5l-15.5,20.3v0.3l24.6-3.3V545l-24.6-2.9v0.3l15.6,19.5l-10.2,5.9l-9.8-22.8h-0.3l-10.6,22.9
		l-9.3-5.9l15.5-19.8v-0.3L1041,545v-11.1l23.9,3.1v-0.3l-15.3-19.8l9.9-5.7l10.1,22.6h0.3l9.9-22.8L1089.6,516.5z"/>
</g>
<line class="st1" x1="876.6" y1="648.1" x2="1275.1" y2="648.1"/>
<g>
	<path class="st2" d="M1117,581.2v8.4h9.1v4.8h-9.1v18.8c0,4.3,1.2,6.8,4.8,6.8c1.7,0,2.7-0.1,3.7-0.4l0.3,4.8
		c-1.2,0.5-3.2,0.9-5.6,0.9c-3,0-5.3-1-6.8-2.7c-1.8-1.9-2.4-5-2.4-9.1v-19h-5.4v-4.8h5.4v-6.4L1117,581.2z"/>
	<path class="st2" d="M1136.3,608.1c0.1,8.6,5.6,12.1,12,12.1c4.5,0,7.3-0.8,9.6-1.8l1.1,4.5c-2.2,1-6,2.2-11.6,2.2
		c-10.7,0-17.1-7.1-17.1-17.6c0-10.5,6.2-18.8,16.3-18.8c11.4,0,14.4,10,14.4,16.4c0,1.3-0.1,2.3-0.2,3H1136.3z M1154.8,603.6
		c0.1-4-1.7-10.3-8.8-10.3c-6.4,0-9.2,5.9-9.7,10.3H1154.8z"/>
	<path class="st2" d="M1168.8,599c0-3.6-0.1-6.6-0.3-9.4h5.5l0.3,5.6h0.2c1.9-3.3,5.2-6.4,10.9-6.4c4.8,0,8.4,2.9,9.9,7h0.1
		c1.1-1.9,2.4-3.5,3.9-4.5c2.1-1.6,4.4-2.4,7.7-2.4c4.6,0,11.4,3,11.4,15.1v20.5h-6.2v-19.7c0-6.7-2.4-10.7-7.6-10.7
		c-3.6,0-6.4,2.7-7.5,5.8c-0.3,0.9-0.5,2-0.5,3.2v21.5h-6.2v-20.9c0-5.5-2.4-9.6-7.3-9.6c-4,0-6.8,3.2-7.8,6.3
		c-0.4,0.9-0.5,2-0.5,3.1v21h-6.2V599z"/>
	<path class="st2" d="M1228.8,600.9c0-4.5-0.1-8.1-0.3-11.4h5.7l0.3,6h0.1c2.6-4.2,6.7-6.8,12.4-6.8c8.4,0,14.8,7.1,14.8,17.7
		c0,12.5-7.6,18.7-15.8,18.7c-4.6,0-8.6-2-10.7-5.5h-0.1v18.9h-6.3V600.9z M1235.1,610.2c0,0.9,0.1,1.8,0.3,2.6
		c1.2,4.4,5,7.4,9.5,7.4c6.7,0,10.6-5.5,10.6-13.5c0-7-3.7-13-10.4-13c-4.3,0-8.4,3.1-9.6,7.8c-0.2,0.8-0.4,1.7-0.4,2.6V610.2z"/>
</g>
</svg>
