<?xml version="1.0" encoding="utf-8"?>
<!-- Generator: Adobe Illustrator 22.1.0, SVG Export Plug-In . SVG Version: 6.00 Build 0)  -->
<svg version="1.1" baseProfile="tiny" id="Слой_1"
	 xmlns="http://www.w3.org/2000/svg" xmlns:xlink="http://www.w3.org/1999/xlink" x="0px" y="0px" viewBox="0 0 725.7 725.7"
	 xml:space="preserve">
<path fill="none" stroke="#000000" stroke-width="8" stroke-miterlimit="10" d="M362.4,238c73.8,0,142.4,6.2,199.4,16.8
	c0.4-1.1,0.7-2.3,0.7-3.4c0-23.3-92.3-42.2-206.2-42.2s-206.2,18.9-206.2,42.2c0,1.9,0.6,3.8,1.8,5.6C210.9,245,283.6,238,362.4,238
	z"/>
<path fill="none" stroke="#000000" stroke-width="8" stroke-miterlimit="10" d="M719,435c0-28.8,0-80.5,0-98.5
	c0-54.4-159.7-98.5-356.6-98.5S5.7,282.1,5.7,336.5c0,17.9,0.1,59.3,0.1,100.2"/>
<ellipse fill="none" stroke="#000000" stroke-width="8" stroke-miterlimit="10" cx="362.4" cy="435" rx="356.6" ry="98.5"/>
<ellipse fill="none" stroke="#000000" stroke-width="8" stroke-miterlimit="10" cx="362.4" cy="439.4" rx="337.3" ry="82.3"/>
</svg>
