<?xml version="1.0" encoding="utf-8"?>
<!-- Generator: Adobe Illustrator 22.1.0, SVG Export Plug-In . SVG Version: 6.00 Build 0)  -->
<svg version="1.1" baseProfile="tiny" id="Capa_1" xmlns="http://www.w3.org/2000/svg" xmlns:xlink="http://www.w3.org/1999/xlink"
	 x="0px" y="0px" viewBox="0 0 455.9 455.9" xml:space="preserve">
<g>
	<path d="M272.3,73.5c0,9.8-3.1,19-9,26.8c-9.9,13.1-15.1,28.4-15.1,44.2v17.1c0,7.6-6.2,13.8-13.8,13.8h-12.8
		c-7.6,0-13.8-6.2-13.8-13.8v-17.1c0-15.7-5.4-31.3-15.1-44.1c-6-7.9-9.1-17.3-9-27.2c0.1-11.6,4.7-22.5,12.9-30.8
		c8.2-8.3,19.2-12.9,30.8-13.1c12-0.2,23.2,4.4,31.8,12.8C267.6,50.3,272.3,61.6,272.3,73.5z M258.8,96.8c5.1-6.8,7.8-14.8,7.8-23.3
		c0-10.4-4.1-20.2-11.5-27.5c-7.4-7.3-17.3-11.3-27.7-11.1c-20.8,0.3-37.9,17.5-38.1,38.3c-0.1,8.7,2.6,16.9,7.9,23.8
		c10.3,13.5,16,30,16.3,46.5h29C242.7,126.7,248.3,110.6,258.8,96.8z M242.5,161.6v-0.9l-29-3.3v2.3l28.9,3.3
		C242.5,162.6,242.5,162.1,242.5,161.6z M242.5,155v-5.9h-29v2.6L242.5,155z M238.9,168.4l-24.5-2.8c1.4,2.5,4,4.2,7.1,4.2h12.8
		C236.1,169.7,237.7,169.2,238.9,168.4z"/>
	<path d="M262.1,73.5c0,1.1,0,2.1-0.1,3.2c-0.1,1.5-1.4,2.6-2.8,2.6c-0.1,0-0.2,0-0.3,0c-1.6-0.1-2.7-1.5-2.6-3.1
		c0.1-0.9,0.1-1.8,0.1-2.7c0-15.7-12.7-28.4-28.4-28.4c-1.6,0-2.8-1.3-2.8-2.8c0-1.6,1.3-2.8,2.8-2.8
		C246.8,39.4,262.1,54.7,262.1,73.5z"/>
	<path d="M249,107.8c2.1,0.3,3.8,2,3.8,3.6c0,0.3,0,0.6-0.2,0.9c-0.5,1.1-1.9,1.7-3.5,1.4c-12.5-2.1-24.8-2.5-36.6-1.3
		c-2.5,0.3-5,0.3-7.6,0.2c-2-0.1-4-1.5-4.4-3.2c-0.4-1.7,1-3,3-2.9c2.1,0.1,4.3,0,6.4-0.2C222.5,105.2,235.7,105.6,249,107.8z"/>
</g>
<text transform="matrix(1 0 0 1 8.8486 254.1604)" font-family="'MyriadPro-Regular'" font-size="132.3022px">C</text>
<text transform="matrix(1 0 0 1 84.1284 254.1604)" font-family="'MyriadPro-Regular'" font-size="132.3022px">o</text>
<text transform="matrix(1 0 0 1 156.7622 254.1604)" font-family="'MyriadPro-Regular'" font-size="132.3022px">m</text>
<text transform="matrix(1 0 0 1 267.1016 254.1604)" font-family="'MyriadPro-Regular'" font-size="132.3022px">i</text>
<text transform="matrix(1 0 0 1 298.0596 254.1604)" font-family="'MyriadPro-Regular'" font-size="132.3022px">n</text>
<text transform="matrix(1 0 0 1 371.4863 254.1604)" font-family="'MyriadPro-Regular'" font-size="132.3022px">g</text>
<text transform="matrix(1 0 0 1 8.8486 412.9231)" font-family="'MyriadPro-Regular'" font-size="132.3022px"> </text>
<text transform="matrix(1 0 0 1 36.8955 412.9231)" font-family="'MyriadPro-Regular'" font-size="132.3022px"> </text>
<text transform="matrix(1 0 0 1 64.9424 412.9231)" font-family="'MyriadPro-Regular'" font-size="132.3022px"> </text>
<text transform="matrix(1 0 0 1 92.9888 412.9231)" font-family="'MyriadPro-Regular'" font-size="132.3022px">s</text>
<text transform="matrix(1 0 0 1 145.3804 412.9231)" font-family="'MyriadPro-Regular'" font-size="132.3022px">o</text>
<text transform="matrix(1 0 0 1 218.0137 412.9231)" font-family="'MyriadPro-Regular'" font-size="132.3022px">o</text>
<text transform="matrix(1 0 0 1 290.6465 412.9231)" font-family="'MyriadPro-Regular'" font-size="132.3022px">n</text>
</svg>
