<?xml version="1.0" encoding="utf-8"?>
<!-- Generator: Adobe Illustrator 22.1.0, SVG Export Plug-In . SVG Version: 6.00 Build 0)  -->
<svg version="1.1" baseProfile="tiny" id="Слой_1"
	 xmlns="http://www.w3.org/2000/svg" xmlns:xlink="http://www.w3.org/1999/xlink" x="0px" y="0px" viewBox="0 0 725.7 725.7"
	 xml:space="preserve">
<g>
	<path d="M386.9,1.4c13.3,1.8,26.6,3.3,39.8,5.5C567.6,30.4,684.5,140,717,279.6c4.3,18.3,6,37.2,8.9,55.8c0.3,2.1,0.8,4.1,1.2,6.2
		c0,9,0,18,0,26.9c-14.8,0-29.7,0-44.9,0c0-4.4,0-8.3,0-13.1c10.1,0,20.1,0,30.8,0c-3.8-89.9-35.9-166.8-97.1-232.4
		c-7.1,7.6-13.7,14.6-20.1,21.5c-3.8-4.2-7.1-7.7-10.9-11.9c6.2-5.6,13.5-12.1,21.5-19.3c-67-62.4-144.4-94.4-234.7-97.9
		c0,10.5,0,20.5,0,30.9c-5.4,0-10.1,0-15.5,0c0-9.8,0-19.8,0-30.8C266,19.1,189,51.2,123,112.6c7.7,7.2,14.8,13.7,21.6,20
		c-4,4.1-7.4,7.6-11.4,11.7c-6.3-6.9-12.9-14.2-20-22c-61.8,66.2-93.9,143.1-97.6,233c5.6,0,10.5,0,15.4,0c4.9,0,9.9,0,15.3,0
		c0,4.3,0,8.2,0,13.1c-14.8,0-29.8,0-44.9,0c0-9,0-18,0-26.9c1.8-13.3,2.9-26.7,5.6-39.8C37.6,154.4,125,58.5,268.7,14.6
		c21.7-6.6,44.9-8.1,67.4-12c1.8-0.3,3.6-0.8,5.4-1.2C356.7,1.4,371.8,1.4,386.9,1.4z"/>
	<path d="M259.6,219.4c-7.6,7.7-14.5,15.3-22.2,22.1c-2,1.8-7,2.2-9.4,0.9c-1.9-1-3.2-5.9-2.5-8.4c8.2-30.2,4.1-60-2-89.7
		c-0.9-4.4-2-8.5,2.6-11.4c4.8-3,8,0.5,11.2,3.2c23.1,19.6,48.1,35.6,77.9,43.3c2.7,0.7,6.3,4.3,6.5,6.8c0.1,2.5-3,6.6-5.6,7.5
		c-9.9,3.6-20.1,6.2-30.6,9.3c0.6,1.1,1.6,3.2,2.7,5.1c23.9,39.9,47.9,79.7,71.8,119.6c2.1,3.5,4.2,5.3,8.7,5.5
		c16,0.6,27.2,15.3,26.8,34.4c-0.3,14-13.8,27.5-27.9,27.8c-17.4,0.4-29.3-6.5-33-21.4c-1.7-6.9,0.2-14.7,0.4-22.1
		c0.1-2.6,0.8-5.7-0.3-7.6c-24.7-41.6-49.7-83-74.7-124.4C259.7,219.5,259.3,219.2,259.6,219.4z M241.7,159.2c1,17.3,2,35.2,3,52.9
		c6.9-3.7,5.3-23.9,21.4-11.4c-2.5-9.9-0.6-12.4,9.6-13c4.3-0.3,8.6-0.5,13-0.7C272.7,177.4,257,168.2,241.7,159.2z M346.9,336.9
		c0.5-0.3,1-0.6,1.6-0.9c-11.4-18.9-22.8-37.9-34.2-56.8c-0.5,0.3-1,0.6-1.5,0.9C324.2,299,335.5,318,346.9,336.9z"/>
</g>
<g>
	<path d="M289.8,442.4l-26.9,98h-18.4l-18.7-68.6c-0.8-2.9-1.3-6.1-1.4-9.6h-0.3c-0.2,3.2-0.8,6.4-1.6,9.4l-18.7,68.7H185l-27.4-98
		h17.8l17.8,71.8c0.7,3,1.2,6.2,1.4,9.4h0.3c0.2-2.3,0.8-5.5,1.9-9.4l20.1-71.8h16.7l18.6,72.3c0.6,2.5,1.1,5.4,1.4,8.8h0.3
		c0.1-2.3,0.7-5.3,1.6-9l17.4-72.1H289.8z"/>
	<path d="M392.9,540.4h-17.8l-8.8-25h-38.6l-8.5,25h-17.8l36.7-98h18.3L392.9,540.4z M362,502.2l-13.6-39.1
		c-0.4-1.3-0.8-3.3-1.3-6.2h-0.3c-0.4,2.6-0.9,4.6-1.4,6.2l-13.5,39.1H362z"/>
	<path d="M473.4,456.2h-28.2v84.2h-16.3v-84.2h-28.1v-13.8h72.5V456.2z"/>
	<path d="M567.3,456.2h-28.2v84.2h-16.3v-84.2h-28.1v-13.8h72.5V456.2z"/>
	<path d="M235.5,708.4h-16.3v-42.5H173v42.5h-16.3v-98H173v41.2h46.1v-41.2h16.3V708.4z"/>
	<path d="M314.1,710.1c-14.1,0-25.4-4.6-33.9-13.7c-8.5-9.2-12.7-21.1-12.7-35.8c0-15.8,4.3-28.3,13-37.7
		c8.7-9.4,20.4-14.1,35.3-14.1c13.8,0,24.8,4.6,33.3,13.7c8.4,9.1,12.6,21,12.6,35.8c0,16-4.3,28.6-12.9,37.9
		S328.5,710.1,314.1,710.1z M314.9,623c-9,0-16.3,3.3-21.9,10c-5.6,6.7-8.4,15.5-8.4,26.5c0,10.9,2.7,19.7,8.2,26.3
		c5.5,6.7,12.6,10,21.5,10c9.4,0,16.8-3.2,22.2-9.5c5.4-6.3,8.1-15.2,8.1-26.6c0-11.7-2.6-20.8-7.9-27.1
		C331.4,626.2,324.1,623,314.9,623z"/>
	<path d="M468.9,668.8c0,27.5-13,41.3-39.1,41.3c-25,0-37.5-13.2-37.5-39.7v-60h16.3V667c0,19.2,7.5,28.8,22.4,28.8
		c14.4,0,21.6-9.3,21.6-27.8v-57.6h16.3V668.8z"/>
	<path d="M581.7,708.4h-19L547,682.2c-1.4-2.4-2.8-4.5-4.1-6.2c-1.3-1.7-2.7-3.1-4.1-4.2c-1.4-1.1-2.9-1.9-4.5-2.4
		c-1.6-0.5-3.5-0.8-5.5-0.8h-6.6v39.8H506v-98h32.3c4.6,0,8.8,0.5,12.7,1.6c3.9,1.1,7.2,2.7,10.1,5c2.9,2.2,5.1,5,6.7,8.3
		c1.6,3.3,2.4,7.2,2.4,11.6c0,3.5-0.5,6.6-1.5,9.5c-1,2.9-2.5,5.5-4.4,7.7c-1.9,2.3-4.2,4.2-6.8,5.8c-2.7,1.6-5.7,2.8-9,3.7v0.3
		c1.8,1,3.3,2.1,4.6,3.3c1.3,1.2,2.6,2.5,3.8,3.7c1.2,1.3,2.4,2.7,3.5,4.3c1.2,1.6,2.4,3.5,3.9,5.6L581.7,708.4z M522.2,623.6v31.9
		h13.5c2.5,0,4.8-0.4,6.9-1.2c2.1-0.8,4-1.9,5.5-3.3c1.5-1.5,2.8-3.2,3.6-5.3c0.9-2.1,1.3-4.4,1.3-7c0-4.7-1.5-8.4-4.4-11
		c-3-2.6-7.2-4-12.8-4H522.2z"/>
</g>
</svg>
