<?xml version="1.0" encoding="utf-8"?>
<!-- Generator: Adobe Illustrator 22.1.0, SVG Export Plug-In . SVG Version: 6.00 Build 0)  -->
<svg version="1.1" baseProfile="tiny" id="Слой_1"
	 xmlns="http://www.w3.org/2000/svg" xmlns:xlink="http://www.w3.org/1999/xlink" x="0px" y="0px" viewBox="0 0 1451.3 1451.3"
	 xml:space="preserve">
<g>
	<path fill="#010101" d="M138.9,691.1c0,211.6,0.1,423.3-0.3,634.9c0,12.6,3.2,15.1,15.3,15.1c420.9-0.4,841.8-0.3,1262.7-0.3
		c24.4,0,26.2,1.9,26.2,26.8c0,18.9-0.2,37.8,0.1,56.7c0.1,11.2-4,18.6-16.1,18.4c-11.3-0.2-15.3-7.3-15.2-17.9
		c0.2-13.7-0.7-27.5,0.3-41.1c0.8-10.5-3.3-12.2-12.7-12c-30.2,0.6-60.5,0.9-90.7-0.1c-11.9-0.4-14,3.9-13.3,14.2
		c0.8,12.2,0.1,24.6,0.2,36.8c0.1,10.8-4.7,17.3-15.9,17.2c-11.3-0.1-15.5-7.1-15.4-17.7c0.2-13.7-0.4-27.4,0.2-41.1
		c0.4-7.7-2.4-9.3-9.6-9.2c-31.6,0.3-63.3,0.4-94.9,0c-7.8-0.1-9.5,2.5-9.2,9.6c0.5,13.7,0.1,27.4,0.2,41.1
		c0.1,10.7-4.5,17.4-15.7,17.4c-11.2,0-15.7-6.9-15.6-17.5c0.1-14.2-0.3-28.4,0.2-42.5c0.2-6.2-1.6-8-7.9-8
		c-32.6,0.3-65.2,0.3-97.8,0c-6.2-0.1-8.1,1.7-8,7.9c0.4,15.1,0,30.2,0.2,45.3c0.1,10.7-4.3,17.5-15.5,17.6
		c-11.2,0.1-15.8-6.6-15.7-17.4c0.1-14.6-0.3-29.3,0.2-43.9c0.2-7-1.3-9.8-9.2-9.7c-31.6,0.5-63.3,0.4-94.9,0.1
		c-7.1-0.1-10,1.4-9.6,9.2c0.7,13.2,0,26.4,0.3,39.7c0.2,10.9-3.1,19-15.4,19.2c-12.1,0.2-16.1-7.4-15.9-18.6
		c0.2-13.2-0.2-26.5,0.2-39.7c0.2-6.7-0.7-10-8.9-9.9c-32.1,0.5-64.2,0.4-96.4,0c-7.3-0.1-8.5,2.7-8.3,9c0.4,13.7,0,27.4,0.2,41.1
		c0.1,10.6-3.9,17.7-15.2,17.9c-12.1,0.2-16.3-7.2-16.1-18.4c0.2-13.7-0.3-27.4,0.2-41.1c0.3-7-2.2-8.6-8.8-8.5
		c-32.1,0.3-64.2,0.4-96.4,0c-7-0.1-8.7,2.2-8.5,8.8c0.5,14.2,0.1,28.3,0.1,42.5c0,10.1-4.5,16.4-14.9,16.7
		c-11.1,0.3-16.3-5.9-16.3-16.8c0-14.2-0.3-28.4,0.1-42.5c0.2-6.7-1.7-8.8-8.6-8.7c-32.1,0.4-64.2,0.3-96.4,0
		c-6.8-0.1-9,1.8-8.7,8.6c0.5,14.2,0.1,28.3,0.2,42.5c0,10.8-5,17.2-16.2,16.9c-10.4-0.2-15-6.5-15-16.6c0-13.7-0.4-27.4,0.2-41.1
		c0.3-7.7-1.5-10.5-9.9-10.4c-31.2,0.5-62.4,0.4-93.5,0c-7.7-0.1-10.8,1.5-10.4,9.9c0.7,12.7-0.1,25.5,0.3,38.3
		c0.3,11.4-2.9,20.1-16,19.9c-12.3-0.2-15.5-8.3-15.3-19.2c0.3-13.2-0.2-26.5,0.2-39.7c0.2-6.2-0.7-9.2-8.2-9.1
		c-32.6,0.4-65.2,0.4-97.8,0c-6.6-0.1-7.8,2.5-7.6,8.3c0.3,14.2,0,28.3,0.1,42.5c0.1,10.8-4.6,17.4-15.8,17.3
		c-11.3-0.1-15.6-7-15.4-17.7c0.2-13.7-0.4-27.4,0.2-41.1c0.4-7.6-2.2-9.5-9.5-9.3c-21.7,0.4-43.5,0-65.2,0.2
		c-11,0.1-18.9-3.4-18.9-15.6c0-12.2,7.8-15.8,18.9-15.7c21.7,0.2,43.5-0.2,65.2,0.2c7.2,0.1,9.6-1.6,9.5-9.3
		c-0.4-32.6-0.4-65.2,0-97.8c0.1-7.2-1.7-10.2-9.3-9.5c-7,0.7-14.2,0.4-21.2,0.1c-9.6-0.4-14.8-5.7-14.9-15.3
		c-0.1-9.5,4.9-14.8,14.5-15.7c0.9-0.1,1.9,0,2.8-0.1c28-1.2,28-1.2,28-28.8c0-24.6-0.3-49.1,0.2-73.7c0.2-8.2-1.2-12.3-10.6-11.1
		c-6.5,0.9-13.2,0-19.8,0.2c-10.6,0.2-17.7-3.9-17.8-15.2c-0.2-12.1,7.3-15.9,18.5-16.1c29.6-0.5,29.6-0.7,29.6-29.9
		c0-25-0.5-50.1,0.3-75.1c0.3-9.8-3-11.6-11.9-11.3c-21.2,0.6-42.5,0.1-63.8,0.2c-10.5,0.1-17.8-3.7-18-15.1
		c-0.3-12.1,7.1-16.3,18.3-16.2c21.7,0.2,43.5-0.3,65.2,0.2c8.1,0.2,10.2-2.2,10.1-10.2c-0.5-30.2-0.5-60.5,0-90.7
		c0.1-8.1-2.2-10.7-10.2-10c-8.4,0.7-17,0.3-25.5,0.1c-10.3-0.3-15.7-5.9-15.4-16.2c0.3-9.6,5.8-14.5,15.3-14.9c1.9-0.1,3.8,0,5.7,0
		c29.9-0.3,29.9-0.3,29.9-29.6c0-25.5-0.3-51,0.2-76.5c0.1-7.8-1.7-11-10-10.2c-8,0.7-16.1,0.5-24.1,0c-9.6-0.6-14.4-6.4-14.2-15.9
		c0.2-8.9,5-13.9,13.8-15c2.8-0.3,5.7-0.1,8.5-0.1c25.9-0.1,25.9-0.1,25.9-26.6c0-24.6-0.5-49.1,0.2-73.7c0.3-10-1.4-14-12.7-13.4
		c-22.1,1.1-44.4,0.1-66.6,0.4c-11.4,0.2-20.2-2.8-20-16c0.2-13.3,9.4-15.5,20.6-15.4c22.7,0.3,45.4-0.2,68,0.2
		c7.3,0.1,10.9-0.7,10.7-9.6c-0.6-31.6-0.5-63.3,0-94.9c0.1-7.8-2.6-9.6-9.6-9.2c-8.9,0.5-18,0.4-26.9,0c-9.6-0.5-14.6-6-14.6-15.6
		c0.1-9.6,5.2-15,14.8-15.4c9.4-0.4,18.9-0.5,28.3,0c6.2,0.3,8-1.7,7.9-7.9c-0.3-33.5-0.3-67.1,0-100.6c0.1-6.3-1.8-8.2-8-7.9
		c-8.9,0.5-17.9,0.2-26.9,0.1c-10.2-0.1-16.1-5.2-16.1-15.5c0-10.3,5.8-15.4,16-15.7c0.5,0,0.9,0,1.4,0c10.7-0.3,25.4,3.5,31.2-2.1
		c7-6.6,2-21.3,2.2-32.5c0.3-22.7-0.3-45.4,0.3-68c0.2-8.5-1.6-11.4-10.7-11.1c-21.2,0.8-42.5,0.1-63.8,0.3
		c-10.9,0.1-19-3.1-19.1-15.4c-0.2-12.2,7.5-16,18.6-15.9c28.3,0.2,56.7,0,85,0.1c17.2,0,20.9,4,20.9,22.2c0,104.9,0,209.7,0,314.6
		C138.9,475.7,138.9,583.4,138.9,691.1z"/>
	<path fill="#060606" d="M566.3,142.1c79.2,2.2,149.7,25.8,202.1,88.4c48.8,58.3,61.9,126.9,50.4,200.7
		c-8.5,54.7-34.5,102.4-62.3,149.2c-21.9,36.8-45,73.1-57.8,114.6c-4.4,14.1-7,28.5-8.1,43c-0.6,8.2-4,10-11.5,9.7
		c-12.3-0.5-24.6-0.6-36.8,0.1c-9.2,0.5-11-3-10.4-11.6c3-41.1,14.9-79.4,33.3-116.1c22.6-45.2,52.2-86.4,73.7-132.2
		c22.1-47,31.9-95.9,19.2-147.2c-15.6-63.2-56.2-104.6-116.8-126c-65.9-23.3-130.3-18.3-190.4,18c-73.3,44.3-101.8,133.5-72.9,221.3
		c14.2,43,38.7,80.6,61.4,119.2c24.7,42,47.2,85,55.5,133.8c1.8,10.7,2.6,21.5,4.1,32.3c0.9,6.3-1.8,8.7-7.8,8.4
		c-0.9-0.1-1.9,0-2.8,0c-14.6-0.1-31.4,4.2-43.3-1.5c-12.9-6.2-6-25.3-9.5-38.4c-11.5-43.1-33.9-80.7-56.3-118.4
		c-27.8-46.7-55-93.6-65.8-147.8C286.1,304.7,358.5,172,516.9,146.3C533.3,143.6,549.6,142.3,566.3,142.1z"/>
	<path fill="#060606" d="M457.1,877.7c4.3-16.9,16-20.8,31.7-20.6c51.5,0.6,103,0.2,154.5,0.3c6,0,13.1-1.8,17.6,3.1
		c8.8,9.6,13.8,4.4,20.7-2.7c65.4-67.5,131.1-134.8,196.7-202.1c13.2-13.5,18.4-13.7,31.5-0.6c26.7,26.7,53.8,53.1,79.9,80.4
		c8.1,8.5,12.1,6.9,19.5-0.4c134.6-133.3,269.5-266.3,404.3-399.4c6.9-6.8,13.5-14.2,24.3-7c9.2,6.2,10.6,15.6,2.6,24
		c-11.7,12.3-24,24.1-36.1,36C1274.6,517,1144.8,645.1,1015,773.2c-13.4,13.2-18.4,13.2-31.6,0c-26.7-26.7-53.8-53.1-79.9-80.4
		c-7.8-8.1-11.4-6.6-18.4,0.6C785.4,796.1,685.5,898.5,585.5,1001c-18,18.5-23.6,18.6-43.1,0.5c-33.6-31.1-67.4-62.1-100.4-93.8
		c-7.5-7.2-11.2-7.2-18.6,0.3c-62.1,62.8-124.7,125.1-187.3,187.5c-4.6,4.6-8.7,10.4-16.3,9.9c-6.8-0.4-11.2-4.6-14.2-10.3
		c-2.7-5.2-1.8-10.2,1.7-14.5c2.7-3.3,5.8-6.2,8.8-9.2c66.5-66.5,133-132.9,199.5-199.4c18.9-18.9,21.4-18.6,37.3,3
		C453.5,876,455,876.5,457.1,877.7z M480.5,900.8c7.3,6.9,12.6,10.9,16.7,15.9c9.8,12,21.9,15.9,37.2,14.8
		c17.4-1.2,35.2-2.3,52.2,0.2c26.2,3.8,36.8-14.2,51.5-30.9C585.4,900.8,534.6,900.8,480.5,900.8z"/>
	<path fill="#060606" d="M618.1,296.9c-4.5,37.5-16.8,72.3-26.3,107.8c-0.8,3.2-1.5,6.4-2.8,9.5c-3.5,8.7,0.2,10.6,8.3,10.5
		c22.5-0.3,45.1-0.1,69.7-0.1c-44.5,65.2-87.7,128.4-130.9,191.7c-0.8-0.5-1.7-1.1-2.5-1.6c11.2-39.1,21.7-78.4,34-117.2
		c4.1-12.9-0.7-13.1-10.5-13c-23.8,0.4-47.6,0.1-74.2,0.1C529.2,420.5,573.7,358.7,618.1,296.9z"/>
	<path fill="#060606" d="M565.8,825.4c-28.3,0-56.7,0.1-85,0c-17.6-0.1-26.9-7.9-26.7-22.2c0.2-13.5,9.3-21.3,26.1-21.3
		c56.7-0.1,113.3-0.1,170,0c15.9,0,26.2,8.7,26.3,21.5c0.2,13.1-10.6,22-27.2,22C621.5,825.5,593.6,825.4,565.8,825.4z"/>
</g>
<g>
	<path d="M891.2,1203h-49.8l-51-76c-1-1.5-2.5-4.7-4.6-9.6h-0.6v85.7h-39.4v-175h39.4v82.8h0.6c1-2.3,2.6-5.5,4.9-9.8l48.3-73h47
		l-61,83.5L891.2,1203z"/>
	<path d="M1155.7,1028l-46.3,175h-43.7l-29.1-112.3c-1.5-5.9-2.5-12.4-2.8-19.7h-0.5c-0.7,8-1.8,14.5-3.2,19.7l-29.8,112.3h-45.5
		l-46-175h43.1l24.7,116.6c1.1,5,1.8,11.6,2.3,20h0.7c0.3-6.3,1.5-13.1,3.5-20.5l31.7-116.1h42.2l28.7,117.6
		c1.1,4.3,2,10.6,2.8,18.8h0.5c0.3-6.4,1.2-12.9,2.6-19.5l24.2-116.8H1155.7z"/>
	<path d="M1348.1,1203h-39.6v-71.3h-72.5v71.3h-39.4v-175h39.4v69.8h72.5V1028h39.6V1203z"/>
</g>
</svg>
