<?xml version="1.0" encoding="utf-8"?>
<!-- Generator: Adobe Illustrator 22.1.0, SVG Export Plug-In . SVG Version: 6.00 Build 0)  -->
<svg version="1.1" baseProfile="tiny" id="Слой_1"
	 xmlns="http://www.w3.org/2000/svg" xmlns:xlink="http://www.w3.org/1999/xlink" x="0px" y="0px" viewBox="0 0 704 704"
	 xml:space="preserve">
<g id="surface1">
	<path display="none" d="M109.3,600v93h485.4v-93H109.3z"/>
	<rect x="109.3" y="600" fill="none" stroke="#000000" stroke-width="10" stroke-miterlimit="10" width="485.4" height="93"/>
	<path fill="none" stroke="#000000" stroke-width="10" stroke-miterlimit="10" d="M352,276.9c-103.9,0-188.2,84.3-188.2,188.2v112.3
		h376.4V465.1C540.2,361.2,456,276.9,352,276.9z"/>
	<path fill="none" stroke="#000000" stroke-width="10" stroke-miterlimit="10" d="M352,316c80.5,0,145.8,65.3,145.8,145.8"/>
	<line fill="none" stroke="#000000" stroke-width="10" stroke-miterlimit="10" x1="149.6" y1="65.2" x2="253.8" y2="245.4"/>
	<line fill="none" stroke="#000000" stroke-width="10" stroke-miterlimit="10" x1="352" y1="11" x2="352" y2="219.1"/>
	<line fill="none" stroke="#000000" stroke-width="10" stroke-miterlimit="10" x1="554.3" y1="65.2" x2="451.2" y2="245.8"/>
	<line fill="none" stroke="#000000" stroke-width="10" stroke-miterlimit="10" x1="524.3" y1="320" x2="702.4" y2="213.1"/>
	<line fill="none" stroke="#000000" stroke-width="10" stroke-miterlimit="10" x1="181.8" y1="317.4" x2="1.5" y2="213.3"/>
</g>
<g>
	<path fill="none" stroke="#000000" stroke-width="10" stroke-miterlimit="10" d="M379,532.4c0-32.6,0-40.1,0-72.7
		c0-12.6-9-23.2-21.5-24.9c-4.4-0.6-8.8-0.4-13.3-0.4c-21.1,0-42.3,0-63.4,0c-2.8,0-3.1,0.3-3.1,3.1c0,39.7,0,54.3,0,94"/>
	<path fill="none" stroke="#000000" stroke-width="10" stroke-miterlimit="10" d="M426.3,434.4c0,25.6,0,20.7,0,46.3
		c0,25.4,0,25.8,0,51.2"/>
	<path fill="none" stroke="#000000" stroke-width="10" stroke-miterlimit="10" d="M328.4,466c0,15.3,0,30.7,0,46c0,0,0,0,0,0
		c0,15.2,0,5.4,0,20.7"/>
</g>
</svg>
