<?xml version="1.0" encoding="iso-8859-1"?>
<!-- Generator: Adobe Illustrator 19.0.0, SVG Export Plug-In . SVG Version: 6.00 Build 0)  -->
<svg version="1.1" id="Capa_1" xmlns="http://www.w3.org/2000/svg" xmlns:xlink="http://www.w3.org/1999/xlink" x="0px" y="0px"
	 viewBox="0 0 512 512" style="enable-background:new 0 0 512 512;" xml:space="preserve">
<g>
	<g>
		<path d="M32,181.333c-17.643,0-32,14.357-32,32c0,17.643,14.357,32,32,32s32-14.357,32-32C64,195.691,49.643,181.333,32,181.333z
			 M32,224c-5.867,0-10.667-4.779-10.667-10.667s4.8-10.667,10.667-10.667s10.667,4.779,10.667,10.667S37.867,224,32,224z"/>
	</g>
</g>
<g>
	<g>
		<path d="M32,96c-17.643,0-32,14.357-32,32c0,17.643,14.357,32,32,32s32-14.357,32-32C64,110.357,49.643,96,32,96z M32,138.667
			c-5.867,0-10.667-4.779-10.667-10.667c0-5.888,4.8-10.667,10.667-10.667S42.667,122.112,42.667,128
			C42.667,133.888,37.867,138.667,32,138.667z"/>
	</g>
</g>
<g>
	<g>
		<path d="M32,10.667c-17.643,0-32,14.357-32,32c0,17.643,14.357,32,32,32s32-14.357,32-32C64,25.024,49.643,10.667,32,10.667z
			 M32,53.333c-5.867,0-10.667-4.779-10.667-10.667S26.133,32,32,32s10.667,4.779,10.667,10.667S37.867,53.333,32,53.333z"/>
	</g>
</g>
<g>
	<g>
		<path d="M117.333,96c-17.643,0-32,14.357-32,32c0,17.643,14.357,32,32,32c17.643,0,32-14.357,32-32
			C149.333,110.357,134.976,96,117.333,96z M117.333,138.667c-5.867,0-10.667-4.779-10.667-10.667c0-5.888,4.8-10.667,10.667-10.667
			C123.2,117.333,128,122.112,128,128C128,133.888,123.2,138.667,117.333,138.667z"/>
	</g>
</g>
<g>
	<g>
		<path d="M117.333,10.667c-17.643,0-32,14.357-32,32c0,17.643,14.357,32,32,32c17.643,0,32-14.357,32-32
			C149.333,25.024,134.976,10.667,117.333,10.667z M117.333,53.333c-5.867,0-10.667-4.779-10.667-10.667S111.467,32,117.333,32
			C123.2,32,128,36.779,128,42.667S123.2,53.333,117.333,53.333z"/>
	</g>
</g>
<g>
	<g>
		<path d="M202.667,96c-17.643,0-32,14.357-32,32c0,17.643,14.357,32,32,32c17.643,0,32-14.357,32-32
			C234.667,110.357,220.309,96,202.667,96z M202.667,138.667C196.8,138.667,192,133.888,192,128c0-5.888,4.8-10.667,10.667-10.667
			c5.867,0,10.667,4.779,10.667,10.667C213.333,133.888,208.533,138.667,202.667,138.667z"/>
	</g>
</g>
<g>
	<g>
		<path d="M202.667,181.333c-17.643,0-32,14.357-32,32c0,17.643,14.357,32,32,32c17.643,0,32-14.357,32-32
			C234.667,195.691,220.309,181.333,202.667,181.333z M202.667,224C196.8,224,192,219.221,192,213.333s4.8-10.667,10.667-10.667
			c5.867,0,10.667,4.779,10.667,10.667S208.533,224,202.667,224z"/>
	</g>
</g>
<g>
	<g>
		<path d="M139.947,190.72c-12.459-12.48-32.789-12.48-45.248,0c-12.48,12.48-12.48,32.768,0,45.248
			c2.091,2.069,4.821,3.115,7.552,3.115s5.461-1.045,7.531-3.115c4.16-4.16,4.16-10.923,0-15.083c-4.16-4.16-4.16-10.923,0-15.083
			c4.16-4.16,10.923-4.16,15.083,0c4.16,4.16,10.923,4.16,15.083,0C144.107,201.643,144.107,194.88,139.947,190.72z"/>
	</g>
</g>
<g>
	<g>
		<path d="M202.667,10.667c-17.643,0-32,14.357-32,32c0,17.643,14.357,32,32,32c17.643,0,32-14.357,32-32
			C234.667,25.024,220.309,10.667,202.667,10.667z M202.667,53.333C196.8,53.333,192,48.555,192,42.667S196.8,32,202.667,32
			c5.867,0,10.667,4.779,10.667,10.667S208.533,53.333,202.667,53.333z"/>
	</g>
</g>
<g>
	<g>
		<path d="M481.493,271.659l-80.235-88.128c-15.381-15.424-42.091-15.531-57.749,0.128c-5.056,5.056-8.512,11.136-10.304,17.621
			c-15.573-11.947-39.339-10.645-53.696,3.712c-5.056,5.056-8.512,11.136-10.347,17.6c-15.531-11.947-39.317-10.603-53.653,3.733
			c-4.949,4.971-8.363,10.923-10.219,17.216l-37.803-37.803c-15.893-15.872-41.707-15.915-57.771,0.128
			c-15.893,15.872-15.893,41.728,0,57.621l145.237,145.237l-86.101,13.525C145.557,425.579,128,445.803,128,469.333
			c0,17.643,14.357,32,32,32h201.152c31.317,0,60.779-12.203,82.987-34.389l33.536-33.557C499.819,411.264,512,381.824,512,350.528
			C512,321.301,501.163,293.291,481.493,271.659z M462.592,418.325l-33.536,33.557C410.901,470.016,386.773,480,361.152,480H160
			c-5.867,0-10.667-4.779-10.667-10.667c0-12.971,9.685-24.128,22.656-26.005l106.987-16.811c3.968-0.619,7.232-3.413,8.491-7.232
			c1.237-3.797,0.235-8-2.603-10.837L124.8,248.384c-7.552-7.573-7.552-19.883,0.128-27.584c3.797-3.776,8.768-5.675,13.739-5.675
			c4.971,0,9.941,1.899,13.76,5.845l62.613,62.613c0.149,0.171,0.341,0.341,0.512,0.512l43.605,43.584
			c4.16,4.16,10.923,4.16,15.083,0c4.16-4.16,4.16-10.923,0-15.083l-43.968-43.968c-7.189-7.595-7.061-19.648,0.491-27.221
			c7.339-7.296,20.096-7.339,27.435,0l20.971,20.971c0.128,0.128,0.235,0.256,0.363,0.363l22.272,22.251
			c4.16,4.16,10.923,4.16,15.083,0c4.16-4.16,4.16-10.923,0-15.083l-22.528-22.507c-7.275-7.595-7.189-19.733,0.405-27.349
			c7.339-7.296,20.096-7.339,27.435,0l22.272,22.251c0.021,0.021,0.021,0.043,0.043,0.043l0.021,0.021
			c0.235,0.107,0.043,0.021,0.043,0.021c0,0.021,0.021,0.021,0.021,0.021h0.021c0,0,0,0.021,0.021,0.021
			c0.021,0.021,0.021,0.021,0.021,0.021l0.021,0.021h0.021c0.021,0,0.021,0,0.021,0c4.224,3.925,10.795,3.819,14.848-0.277
			c4.139-4.16,4.139-10.901-0.021-15.061l-1.28-1.28c-7.211-7.595-7.104-19.669,0.469-27.243c7.317-7.296,20.437-6.976,27.093-0.363
			l79.872,87.787c16.107,17.707,24.96,40.597,24.96,64.512C490.667,376.128,480.683,400.213,462.592,418.325z"/>
	</g>
</g>
<g>
</g>
<g>
</g>
<g>
</g>
<g>
</g>
<g>
</g>
<g>
</g>
<g>
</g>
<g>
</g>
<g>
</g>
<g>
</g>
<g>
</g>
<g>
</g>
<g>
</g>
<g>
</g>
<g>
</g>
</svg>
