<?xml version="1.0" encoding="utf-8"?>
<!-- Generator: Adobe Illustrator 22.1.0, SVG Export Plug-In . SVG Version: 6.00 Build 0)  -->
<svg version="1.1" baseProfile="tiny" id="Capa_1" xmlns="http://www.w3.org/2000/svg" xmlns:xlink="http://www.w3.org/1999/xlink"
	 x="0px" y="0px" viewBox="0 0 455.9 455.9" xml:space="preserve">
<g display="none">
	<path display="inline" d="M272.3,73.5c0,9.8-3.1,19-9,26.8c-9.9,13.1-15.1,28.4-15.1,44.2v17.1c0,7.6-6.2,13.8-13.8,13.8h-12.8
		c-7.6,0-13.8-6.2-13.8-13.8v-17.1c0-15.7-5.4-31.3-15.1-44.1c-6-7.9-9.1-17.3-9-27.2c0.1-11.6,4.7-22.5,12.9-30.8
		c8.2-8.3,19.2-12.9,30.8-13.1c12-0.2,23.2,4.4,31.8,12.8C267.6,50.3,272.3,61.6,272.3,73.5z M258.8,96.8c5.1-6.8,7.8-14.8,7.8-23.3
		c0-10.4-4.1-20.2-11.5-27.5c-7.4-7.3-17.3-11.3-27.7-11.1c-20.8,0.3-37.9,17.5-38.1,38.3c-0.1,8.7,2.6,16.9,7.9,23.8
		c10.3,13.5,16,30,16.3,46.5h29C242.7,126.7,248.3,110.6,258.8,96.8z M242.5,161.6v-0.9l-29-3.3v2.3l28.9,3.3
		C242.5,162.6,242.5,162.1,242.5,161.6z M242.5,155v-5.9h-29v2.6L242.5,155z M238.9,168.4l-24.5-2.8c1.4,2.5,4,4.2,7.1,4.2h12.8
		C236.1,169.7,237.7,169.2,238.9,168.4z"/>
	<path display="inline" d="M262.1,73.5c0,1.1,0,2.1-0.1,3.2c-0.1,1.5-1.4,2.6-2.8,2.6c-0.1,0-0.2,0-0.3,0c-1.6-0.1-2.7-1.5-2.6-3.1
		c0.1-0.9,0.1-1.8,0.1-2.7c0-15.7-12.7-28.4-28.4-28.4c-1.6,0-2.8-1.3-2.8-2.8c0-1.6,1.3-2.8,2.8-2.8
		C246.8,39.4,262.1,54.7,262.1,73.5z"/>
	<path display="inline" d="M249,107.8c2.1,0.3,3.8,2,3.8,3.6c0,0.3,0,0.6-0.2,0.9c-0.5,1.1-1.9,1.7-3.5,1.4
		c-12.5-2.1-24.8-2.5-36.6-1.3c-2.5,0.3-5,0.3-7.6,0.2c-2-0.1-4-1.5-4.4-3.2c-0.4-1.7,1-3,3-2.9c2.1,0.1,4.3,0,6.4-0.2
		C222.5,105.2,235.7,105.6,249,107.8z"/>
</g>
<text transform="matrix(1 0 0 1 8.8486 254.1604)" font-family="'MyriadPro-Regular'" font-size="132.3022px">C</text>
<text transform="matrix(1 0 0 1 84.1284 254.1604)" font-family="'MyriadPro-Regular'" font-size="132.3022px">o</text>
<text transform="matrix(1 0 0 1 156.7622 254.1604)" font-family="'MyriadPro-Regular'" font-size="132.3022px">m</text>
<text transform="matrix(1 0 0 1 267.1016 254.1604)" font-family="'MyriadPro-Regular'" font-size="132.3022px">i</text>
<text transform="matrix(1 0 0 1 298.0596 254.1604)" font-family="'MyriadPro-Regular'" font-size="132.3022px">n</text>
<text transform="matrix(1 0 0 1 371.4863 254.1604)" font-family="'MyriadPro-Regular'" font-size="132.3022px">g</text>
<text transform="matrix(1 0 0 1 8.8486 412.9231)" font-family="'MyriadPro-Regular'" font-size="132.3022px"> </text>
<text transform="matrix(1 0 0 1 36.8955 412.9231)" font-family="'MyriadPro-Regular'" font-size="132.3022px"> </text>
<text transform="matrix(1 0 0 1 64.9424 412.9231)" font-family="'MyriadPro-Regular'" font-size="132.3022px"> </text>
<text transform="matrix(1 0 0 1 92.9888 412.9231)" font-family="'MyriadPro-Regular'" font-size="132.3022px">s</text>
<text transform="matrix(1 0 0 1 145.3804 412.9231)" font-family="'MyriadPro-Regular'" font-size="132.3022px">o</text>
<text transform="matrix(1 0 0 1 218.0137 412.9231)" font-family="'MyriadPro-Regular'" font-size="132.3022px">o</text>
<text transform="matrix(1 0 0 1 290.6465 412.9231)" font-family="'MyriadPro-Regular'" font-size="132.3022px">n</text>
<g display="none">
	<path display="inline" d="M206.5,167.6c-10.5,0-21.1-0.2-31.6,0c-12,0.3-20.4-9.7-20.4-20.3c0.1-19.6,0-39.1,0.1-58.7
		c0-9.6,6.2-17.4,15.3-19.3c1.2-0.3,2.5-0.4,3.7-0.4c17.7,0,35.4,0,53.2,0c4.4,0,6.9,2.9,6.3,7.2c-0.4,2.8-2.4,4.8-5.3,5
		c-0.7,0.1-1.5,0-2.2,0c-16.9,0-33.8,0-50.8,0c-4.9,0-7.9,3-7.9,7.9c0,19.5,0,39,0,58.6c0,4.9,2.9,7.7,7.8,7.7
		c21.1,0,42.2-0.1,63.3,0.1c5.3,0,8.2-4,8.1-8.1c-0.1-16.1,0-32.1,0-48.2c0-0.8,0-1.7,0-2.5c0.3-3.3,2.5-5.4,5.8-5.5
		c3.3-0.1,5.9,2,6.3,5.2c0.1,0.6,0.1,1.3,0.1,1.9c0,16.4,0,32.7,0,49.1c0,8.2-3.4,14.5-10.8,18.4c-2.8,1.5-5.8,2-9,2
		C227.9,167.6,217.2,167.6,206.5,167.6z"/>
	<path display="inline" d="M288.4,79.1c0.6-20.4-14.8-36.5-33.7-39.2c-4.5-0.6-9.1-0.7-13.6,0.1c-1.7,0.3-3.3,0.2-4.8-0.7
		c-2.3-1.3-3.6-3.6-3.3-5.8c0.4-2.8,2.5-5.2,5.1-5.7c15.9-3.1,30.4-0.1,43.2,9.9c12.8,9.9,19.2,23.3,19.9,39.4
		c0.1,2.1-0.3,4.2-0.7,6.2c-0.5,2.7-2.3,4.6-5.1,5.1c-2.6,0.4-4.6-0.7-6.2-2.8c-1.1-1.4-0.9-3.1-0.8-4.8
		C288.5,80.3,288.4,79.7,288.4,79.1z"/>
	<path display="inline" d="M251.7,45c16.1,0.3,28.2,11.2,30.4,26.8c0.2,1.5,0.2,3.1,0.2,4.6c-0.2,3.1-2.5,5.2-5.6,5.3
		c-3.5,0.1-5.9-1.7-6.5-4.9c-0.3-1.6-0.1-3.2-0.5-4.8c-2.1-10.4-12.6-17-22.9-14.3c-3.2,0.8-6.6-1.2-7.5-4.5c-0.8-3,1-6.1,4.2-7
		C246.3,45.5,249.1,45,251.7,45z"/>
	<path display="inline" d="M214.2,134.4c0-0.9,0.6-2.3,1.7-3.4c3.3-3.3,6.5-6.6,9.8-9.9c1.8-1.8,5-1.8,7.3-0.2
		c2.3,1.6,3.2,4.6,2.2,7.1c-0.3,0.7-0.7,1.4-1.3,2c-3.1,3.1-6.2,6.2-9.3,9.3c-1.9,1.8-4.1,2.4-6.6,1.3
		C215.6,139.7,214.1,137.5,214.2,134.4z"/>
	<path display="inline" d="M177.3,125.4c0.3-2.2,1.4-4.1,3.7-5.1c2.3-1,4.6-0.6,6.4,1.1c3.4,3.2,6.7,6.5,9.9,9.8
		c2.2,2.3,2,5.8-0.2,8.1c-2.3,2.3-5.8,2.7-8.2,0.4c-3.5-3.2-6.8-6.6-10.1-10C177.7,128.6,177.3,127.2,177.3,125.4z"/>
	<path display="inline" d="M212.3,106.4c0,2,0,4,0,6c-0.1,3.8-2.5,6.2-6.2,6.2c-3.7,0-6-2.4-6.1-6.3c0-4,0-8,0-12
		c0-3.8,2.4-6.3,6.1-6.3c3.7,0,6.1,2.4,6.2,6.2C212.4,102.3,212.3,104.3,212.3,106.4z"/>
	<path display="inline" d="M252.9,82.4c-5.1,0-9.3-4.1-9.3-9.1c0-5,4.1-9.2,9.1-9.2c5.1,0,9.3,4.1,9.3,9.2
		C262.1,78.2,258,82.3,252.9,82.4z"/>
</g>
<g display="none">
	<path display="inline" d="M245,99c1.2,0,2,0,2.9,0c11.2,0,22.5,0,33.7,0c2,0,3.8,0.4,5.2,2c1.3,1.6,1.7,3.5,0.9,5.4
		c-0.7,1.9-2.2,2.9-4.2,3c-0.7,0.1-1.5,0.1-2.2,0.1c-10.9,0-21.9,0-32.8,0c-1,0-2,0-3.3,0c-0.1,1.1-0.1,1.9-0.1,2.8
		c0,15.5,0,31,0,46.5c0,6.8-3.3,12.1-8.9,14.3c-9.4,3.8-19.3-3-19.5-13.4c-0.1-5.2,0-10.3,0-15.5c0-34.3,0-68.6,0-102.8
		c0-7.5,4.2-13.3,10.9-14.9c9.3-2.3,17.6,4.6,17.6,14.7c0.1,18.2,0,36.5,0,54.7C245,96.8,245,97.7,245,99z M223.6,29.8
		c-4,2.6-5.4,6.4-5.4,10.9c0,14,0,27.9,0.1,41.9c0,10.3,0,20.6,0,30.9c0.5-23.7,0.6-47.4,0.5-71.1C218.8,37.4,219.8,33.1,223.6,29.8
		z M233.3,28.4c7.2,2.4,9.3,7.5,9.2,14.1c-0.2,17.4-0.2,34.9-0.3,52.3c0,1,0,2,0,3c0.3-0.4,0.4-0.7,0.4-1.1c0.1-8.5,0.2-17,0.3-25.5
		c0.1-10.9,0.4-21.9,0.3-32.8C243.2,33.6,238.9,28.8,233.3,28.4z M242.4,110.9c0,0-0.1,0.1-0.1,0.1c0,5.4,0,10.9,0,16.3
		c0,0,0.1,0,0.1,0C242.4,121.8,242.4,116.4,242.4,110.9z"/>
	<path fill="#FFFFFF" d="M223.6,29.8c-3.8,3.4-4.9,7.7-4.8,12.6c0.1,23.7,0,47.4-0.5,71.1c0-10.3,0-20.6,0-30.9
		c0-14,0-27.9-0.1-41.9C218.3,36.2,219.6,32.3,223.6,29.8z"/>
	<path fill="#FFFFFF" d="M233.3,28.4c5.6,0.4,9.9,5.2,9.9,10.1c0,10.9-0.2,21.9-0.3,32.8c-0.1,8.5-0.2,17-0.3,25.5
		c0,0.4,0,0.7-0.4,1.1c0-1,0-2,0-3c0.1-17.4,0.1-34.9,0.3-52.3C242.6,35.9,240.5,30.8,233.3,28.4z"/>
	<path fill="#FFFFFF" d="M242.4,110.9c0,5.5,0,10.9,0,16.4c0,0-0.1,0-0.1,0c0-5.4,0-10.9,0-16.3
		C242.3,110.9,242.4,110.9,242.4,110.9z"/>
</g>
<g>
	<path d="M350.5,59.9c1,0.5,1.2,1.5,1.3,2.5c0.5,3.3,0.9,6.6,1.4,10c-1.2,4.4-0.9,9-1.2,13.6c-0.4,5.9-0.5,5.2-5.7,7.2
		c-2.7,1-5.5,1-8.3,0.2c-1.7-0.5-3.5-0.3-4.9,1.1c-2.9-1.9-6-0.6-8.8-0.3c-2.6,0.3-4.7-1.5-7.3-0.6c-1.4,0.5-3.1,2-4.5-0.2
		c0-0.1-0.5,0-0.7,0.2c-1,1.2-2.2,0.8-3.6,0.8c-1.8-0.1-3.8-0.4-5.4-0.2c-2.7,0.3-5.4,0-8.1,0.6c-1.9,0.4-3.7-0.6-5.3-1
		c-2.5-0.7-4.7-0.9-7.1-0.3c-0.6,0.1-1.1,0.4-1.7,0.2c-2.8-0.6-5.7-0.4-8.6-0.4c-1.3,0-2.2,0.9-2.1,2.2c0.2,5.9-0.8,11.7-1.1,17.6
		c-0.1,2.5-0.1,4.9,0,7.4c0.1,1.8-0.3,2.5-2.3,2.4c-2.4-0.2-4.9-0.1-7.3-0.1c-14.4,0-28.7,0-43.1,0.1c-1,0-2,0-2.9,0.2
		c-1.5,0.4-3-0.2-4.6-0.1c-0.6,0-0.1-1.8-0.5-2.7c-0.2-0.5-0.6-0.5-1-0.5c-0.5-0.6-0.3-1.8-1.4-2c-0.5-2.3-2.2-2.3-3.8-1.7
		c-1.6,0.6-2.7,1.5-2.6,3.6c0.2,3.5,0.1,3.5-3.6,3.6c-3.8,0.1-7.5,0.1-11.3,0.6c-8.8,1-17.6,1.4-26.3,1.8
		c-6.1,0.3-12.2,0.8-18.4,0.7c0.1-2.6-0.9-5.1,0.3-7.8c1-2.5-0.1-5.5-0.4-8.2c-0.3-3.1,1.2-5.8,1.1-8.8c18.3-0.2,36.6-0.5,54.9-0.7
		c0.1,0.9,0.2,1.8,0.3,2.7c-1,1.6-0.3,3.2,0,4.8c0-1.6,0-3.2,0-4.8c0.7-0.1,1.4-0.2,2.1-0.3c0,1.5-0.2,3.1,0,4.6
		c0.2,2-0.7,4.1,0.5,6.1c3.2,1.1,6.6,0.2,9.9,0.5c1.1-0.2,3,0.6,3.2-0.9c0.3-3.3,0.9-6.7-0.3-10c-0.1-2.3,1.3-2.8,3.3-2.8
		c16.2-0.1,32.5-0.3,48.7-0.5c1.3,0,2.6,0,3.9,0c1,0,1.9-0.4,1.8-1.5c-0.5-4.1,1.1-8,0.9-12.1c-0.1-4.1,0.1-8.2,0-12.3
		c0-1.2,0.7-2.8-0.9-3.7c0.1-1.9,1.1-3.6,0.6-5.5c0.7,0,1.4-0.1,2.2-0.2c2.8-0.5,5.5-1,8.3-1.1c3.1,0,6.2,0,9.3-0.3
		c1.2-0.1,2.5-0.2,3.6-0.6c1.7-0.6,1.6,1.6,2,1.3c3-2.2,6,0.5,8.9-0.1c1.4-0.3,2.8-0.7,4.2,0.2c0.3,0.2,0.6,0.1,0.9-0.2
		c1.7-1.5,4-1.1,5.6-0.6c2.2,0.7,4.4,1.1,6.7,1.1c2,0,4.1-0.6,5.8-0.3c5.2,1,10.3,1,15.5,0.9c4-0.1,6.8-0.7,7.6-5
		C350.3,59.9,350.4,59.9,350.5,59.9z"/>
	<path d="M207.3,119.5c0.4,0,0.8,0,1,0.5c0.4,0.9-0.1,2.7,0.5,2.7c1.5-0.1,3,0.5,4.6,0.1c0.9-0.3,1.9-0.2,2.9-0.2
		c14.4,0,28.7,0,43.1-0.1c2.4,0,4.9-0.1,7.3,0.1c1.9,0.1,2.4-0.6,2.3-2.4c-0.1-2.5-0.2-4.9,0-7.4c0.3-5.9,1.3-11.7,1.1-17.6
		c0-1.3,0.8-2.2,2.1-2.2c2.9,0,5.8-0.3,8.6,0.4c0.6,0.1,1.1-0.1,1.7-0.2c2.4-0.6,4.6-0.4,7.1,0.3c1.5,0.4,3.4,1.4,5.3,1
		c2.6-0.5,5.4-0.3,8.1-0.6c1.6-0.2,3.5,0.2,5.4,0.2c1.4,0,2.5,0.4,3.6-0.8c0.1-0.1,0.6-0.2,0.7-0.2c1.4,2.3,3,0.7,4.5,0.2
		c2.5-0.8,4.7,0.9,7.3,0.6c2.9-0.3,6-1.6,8.8,0.3c1.4-1.4,3.2-1.6,4.9-1.1c2.8,0.8,5.6,0.8,8.3-0.2c5.2-2,5.3-1.3,5.7-7.2
		c0.3-4.5,0-9.1,1.2-13.6c0.7,7.4,0.8,14.8,0.6,22.1c-0.2,6.6-0.3,13.2-1.6,19.7c-0.3,1.8-1,3.7-1.6,5.5c-0.6,2-2.2,2.8-4.3,3
		c-8.7,0.7-17.4,0.3-26.1,0.4c-15.6,0.1-31.2,0-46.8,0.1c-2.4,0-4.1-0.2-3.9-3.2c0,2.4-0.1,4.7,0,7.1c0.1,1.8-0.8,2.4-2.3,2.3
		c-22.1-2-44.2-0.1-66.2-1c-4-0.3-7.9-0.7-11.9-0.8c-3.4-0.1-6.8,0.4-10.2,0.4c-5.6,0.1-11.1,0.2-16.7,0.1
		c-4.4-0.1-8.8,0.4-13.2-0.3c-1-0.2-2.7-0.5-3.3,1.2c-0.2,0-0.5,0.1-0.7,0.1c-3.9,1.1-4.2,0.9-5.1-2.9c6.1,0.1,12.3-0.4,18.4-0.7
		c8.8-0.4,17.6-0.7,26.3-1.8c3.7-0.4,7.5-0.5,11.3-0.6c3.6-0.1,3.8,0,3.6-3.6c-0.1-2.1,1-3.1,2.6-3.6c1.7-0.6,3.3-0.5,3.8,1.7
		c-0.5,0.8-1.1,1.2-2,1.7c-1,0.5-2.2,1.4-1.9,3c0.2,0.9,0.5,2.2,1.5,2.2c1.3,0,2.5-0.6,3.3-1.8C207.5,121.6,207.3,120.5,207.3,119.5
		z"/>
	<path d="M269.1,70.3c1.6,0.9,0.9,2.5,0.9,3.7c0.1,4.1-0.2,8.2,0,12.3c0.1,4.1-1.5,8-0.9,12.1c0.2,1.1-0.8,1.5-1.8,1.5
		c-1.3,0-2.6,0-3.9,0c-16.2,0.2-32.5,0.3-48.7,0.5c-2,0-3.4,0.5-3.3,2.8c-4.4,0.2-8.8,0.3-13.2-0.2c-0.7,0.1-1.4,0.2-2.1,0.3l0,0
		c-0.1-0.9-0.2-1.8-0.3-2.7c-18.3,0.2-36.6,0.5-54.9,0.7c-1.5-1.3-2-3-2.1-4.9c0.9,0,1.2-0.6,1.1-1.3c-0.4-2.1,1.3-2.4,2.5-3
		c1-0.4,2.2-0.5,3.3-0.6c7.6-0.5,15.3,0.8,22.8-1c2.3-0.6,4.5,0.3,6.8,0c6.2-0.9,12.4-0.4,18.6-0.3c1.6,0,1.6-0.6,1.5-1.6
		c-0.9-1.7,0.7-3.6-0.3-5.3c-3.5,0-7.1,0.3-10.5,0.3c-15,0-30,1-45,0.6c0.2-1.9,1-3.5,2.4-4.8c2.2,0.3,4.4,0.8,6.6,0.8
		c3.8-0.1,7.6-0.6,11.5-0.7c4.9-0.1,9.8,0.2,14.7,0.3c3.1,0.1,6.2-0.3,9.3-0.4c3.5-0.1,7,0.1,10.5-0.3c0.9-0.1,2.8-1.3,3.2,1.1
		c0-0.5,0-1.1,0-1.6c1.7-0.5,1.4-1.8,0.9-2.8c-1.3-2.3-0.7-4.9-0.9-7.3c-0.1-1,0.8-1.4,1.7-1.4c3.8,0,7.7,0,11.5-0.1
		c1.2,0,1.7,0.7,1.9,1.5c0.6,2.4,0.7,5.1-0.2,7.2c-0.8,2-0.4,3.7-0.7,5.5c-0.5,0.5,0,0.8,0.3,0.7c0.4,0,0.2-0.5,0.2-0.7
		c-0.2-2.5,0.7-3.4,3.4-3.4c16.6,0,33.1-0.3,49.7-0.4c3.5,0,3.5-0.1,3.6-3.5C269,72.6,269.1,71.5,269.1,70.3z M239.6,89.1
		C239.6,89.1,239.6,89.1,239.6,89.1c8.2,0,16.4,0,24.6,0c0.9,0,1.8,0,2.7-0.4c1.7-0.7,3.2-1.5,2.6-3.7c-0.5-2-1.7-2.5-3.7-2.6
		c-16.8-0.2-33.6,0.4-50.3,0.4c-2.5,0-4,1.2-5.4,2.7c-0.5,0.5-1.6,0.6-1.5,1.7c0.2,1.1,2.7,2.8,3.9,2.2c0.9-0.5,1.7-0.4,2.6-0.4
		C223.2,89.1,231.4,89.1,239.6,89.1z M198.6,68.4c0,0.1-0.1,0.2-0.1,0.3c4.3,0,8.7,0,13,0c0-0.1,0-0.2,0-0.3
		C207.2,68.4,202.9,68.4,198.6,68.4z M204.5,77.3c0,0.1,0,0.1,0,0.2c1.7,0,3.5,0,5.2,0c0-0.1,0-0.1,0-0.2
		C208,77.3,206.2,77.3,204.5,77.3z"/>
	<path d="M350.5,59.9c-0.1,0-0.2,0.1-0.2,0.1c-0.9,4.3-3.7,4.9-7.6,5c-5.2,0.1-10.3,0.1-15.5-0.9c-1.8-0.3-3.9,0.2-5.8,0.3
		c-2.3,0-4.4-0.4-6.7-1.1c-1.6-0.5-3.9-0.9-5.6,0.6c-0.3,0.2-0.6,0.4-0.9,0.2c-1.4-0.9-2.8-0.5-4.2-0.2c-2.9,0.6-5.9-2.1-8.9,0.1
		c-0.4,0.3-0.3-1.8-2-1.3c-1.1,0.4-2.4,0.5-3.6,0.6c-3.1,0.3-6.2,0.3-9.3,0.3c-2.8,0-5.6,0.6-8.3,1.1c-0.7,0.1-1.4,0.2-2.2,0.2
		c0.6-2.1,0.3-4.2,0.3-6.4c0-1.4,0.6-1.9,1.9-1.9c13.5,0.1,26.9-0.1,40.4,0.3c11,0.3,22,0.1,33,0.1
		C347.6,56.9,349.7,57.4,350.5,59.9z"/>
	<path d="M139.5,83.9c15,0.4,30-0.6,45-0.6c3.5,0,7-0.3,10.5-0.3c0,0.9-0.6,1-1.4,1c-3.5,0-7,0.2-10.5,0.4
		c-7.9,0.4-15.9,0.4-23.8,0.6c-0.3,0-0.7,0-1,0c-0.9,0.1-1.3,0.6-1.3,1.5c0,0.9,0.6,1.5,1.4,1.3c2.1-0.4,4.2,0.6,6.2,0.3
		c4.4-0.5,8.7,0.1,13,0.1c5.9,0,11.7,0.1,17.6,0.1c0,1.1,0.1,1.7-1.5,1.6c-6.2,0-12.4-0.6-18.6,0.3c-2.3,0.3-4.5-0.5-6.8,0
		c-7.5,1.9-15.2,0.5-22.8,1c-1.1,0.1-2.3,0.2-3.3,0.6c-1.2,0.5-2.9,0.9-2.5,3c0.1,0.7-0.2,1.3-1.1,1.3c-0.6-1.7-0.6-3.3,0.2-4.9
		c0.8-1.5,0.9-3.5,0.2-4.7C138.4,85.3,139.3,84.8,139.5,83.9z"/>
	<path fill="#959396" d="M198.6,113.6c2.7,0,5.4-0.1,8.1,0c0.6,0,1.3-0.3,1.7,0.5C205.1,113.8,201.8,114.7,198.6,113.6z"/>
	<path fill="#959396" d="M196.1,103.2c0,1.6,0,3.2,0,4.8C195.8,106.5,195.1,104.8,196.1,103.2C196.1,103.2,196.1,103.2,196.1,103.2z
		"/>
</g>
</svg>
