<?xml version="1.0" encoding="utf-8"?>
<!-- Generator: Adobe Illustrator 22.1.0, SVG Export Plug-In . SVG Version: 6.00 Build 0)  -->
<svg version="1.1" baseProfile="tiny" id="Layer_1" xmlns="http://www.w3.org/2000/svg" xmlns:xlink="http://www.w3.org/1999/xlink"
	 x="0px" y="0px" viewBox="0 0 1600 1600" xml:space="preserve">
<g>
	<path d="M889.9,794.5c0,221.1,0,442.3,0,663.4c0,17.2-9,29.8-24,33.7c-9,2.3-17.5-0.4-26.1-2.1c-64.5-12.8-129.1-25.8-193.6-38.7
		c-65.8-13.2-131.7-26.4-197.5-39.6c-24-4.8-47.9-9.6-71.9-14.3c-16-3.2-26.5-15.7-26.7-32.1c0-1.5,0-3,0-4.5
		c0-377.3,0.1-754.6-0.2-1131.9c0-20.2,11.5-33.3,30.1-37c121-23.8,241.9-48.2,362.8-72.4c35.6-7.1,71.2-14.1,106.7-21.3
		c20.2-4.1,36.6,6,39.9,25.4c0.5,2.9,0.4,6,0.4,9C889.9,352.9,889.9,573.7,889.9,794.5z M413.8,249c0,3.1,0,5.4,0,7.7
		c0,358.6,0,717.3,0,1075.9c0,1.3,0.1,2.7,0,4c-0.3,2.9,0.9,4,3.8,4.5c58.4,11.5,116.7,23.2,175.1,34.9
		c69.5,13.9,138.9,27.7,208.4,41.6c8.2,1.6,16.5,3.2,24.9,4.8c0-419,0-837.1,0-1255.7C688.4,194.2,551.3,221.6,413.8,249z"/>
	<path d="M922,1397.6c0-21.2,0-41.9,0-63.2c84.5,0,168.7,0,253.3,0c0-359.9,0-719.3,0-1079.3c-84.4,0-168.7,0-253.3,0
		c0-21.4,0-42.2,0-63.7c1.8,0,3.4,0,5,0c92.7,0,185.3,0,278,0c17.7,0,30.2,9.8,33.5,26.1c0.5,2.3,0.5,4.6,0.5,7
		c0,380.3,0,760.6,0,1140.8c0,18.2-13.4,32.4-31.5,32.5c-94.3,0.2-188.6,0.1-283,0.1C923.9,1397.9,923.2,1397.7,922,1397.6z"/>
	<path d="M1481.6,1156.5c-18.9-8.5-37.7-16.9-56.8-25.5c48.2-107.4,68.2-220.1,68.1-336.6c0-116.4-20-228.9-68.1-336.1
		c19-8.5,37.8-17,57.3-25.7c39,84.7,60.7,173.6,69.7,265.8C1571.5,899.4,1526.4,1065.1,1481.6,1156.5z"/>
	<path d="M107.5,432.7c19,8.5,37.8,17,57.1,25.6c-48.2,107.1-68.2,219.7-68.2,336c0,116.4,19.9,229.1,68.2,336.7
		c-19,8.5-38,17.1-57,25.6C13.1,962.1,3,652.9,107.5,432.7z"/>
	<path d="M218.9,480.4c1.4,0.4,2.2,0.6,2.9,0.9c18.4,8.1,36.8,16.2,55.8,24.6c-38.7,92.5-54.4,189.3-54.4,288.8
		c0,99.4,15.7,196.1,54.4,288.6c-19.5,8.6-38.7,17.1-58.4,25.7c-32.2-75.7-49.7-154.7-56.1-236.2C152.5,738,166.8,606.6,218.9,480.4
		z"/>
	<path d="M1370.3,1109.2c-19.9-8.8-39-17.2-57.4-25.3c71.6-192.9,71.6-385.2,0-578.5c18.2-8,37.4-16.5,57.2-25.2
		c31.7,74.4,49.1,151.8,55.8,231.6C1437.2,848.1,1423,981.1,1370.3,1109.2z"/>
	<path d="M762.9,889.3c0,21.5,0.1,43,0,64.5c-0.1,13.5-8.3,25.1-20.6,29.7c-12.4,4.7-26.1,1.2-35-8.8c-5.6-6.3-7.9-13.8-7.9-22
		c0-42.1-0.2-84.3,0.1-126.4c0.1-17.3,11.8-30,28.7-32.3c14.2-1.9,28.7,7.4,33.1,21.7c1.1,3.6,1.6,7.5,1.6,11.3
		C763,847.7,762.9,868.5,762.9,889.3z"/>
</g>
</svg>
