<?xml version="1.0" encoding="iso-8859-1"?>
<!-- Generator: Adobe Illustrator 17.1.0, SVG Export Plug-In . SVG Version: 6.00 Build 0)  -->
<!DOCTYPE svg PUBLIC "-//W3C//DTD SVG 1.1//EN" "http://www.w3.org/Graphics/SVG/1.1/DTD/svg11.dtd">
<svg version="1.1" id="Capa_1" xmlns="http://www.w3.org/2000/svg" xmlns:xlink="http://www.w3.org/1999/xlink" x="0px" y="0px"
	 viewBox="0 0 290.021 290.021" style="enable-background:new 0 0 290.021 290.021;" xml:space="preserve">
<g>
	<path style="fill:#000002;" d="M176.144,144.467c-4.143,0-7.5,3.358-7.5,7.5v39.444c0,4.142,3.357,7.5,7.5,7.5s7.5-3.358,7.5-7.5
		v-39.444C183.644,147.825,180.287,144.467,176.144,144.467z"/>
	<path style="fill:#000002;" d="M176.144,202.472c-4.143,0-7.5,3.358-7.5,7.5v2.701c0,4.142,3.357,7.5,7.5,7.5s7.5-3.358,7.5-7.5
		v-2.701C183.644,205.829,180.287,202.472,176.144,202.472z"/>
	<path style="fill:#000002;" d="M252.018,223.473l-64.481-117.146c-1.198-2.177-2.719-3.924-4.454-5.187V51.336
		c0-12.335-10.035-22.371-22.37-22.371h-10.186V13.5c0-7.444-6.056-13.5-13.5-13.5H82.03c-7.444,0-13.5,6.056-13.5,13.5v15.465
		H58.346C46.01,28.965,35.974,39,35.974,51.336v216.316c0,12.334,10.036,22.369,22.372,22.369h102.366
		c12.335,0,22.37-10.035,22.37-22.369V243.35h57.188c5.341,0,9.752-2.281,12.103-6.257
		C254.723,233.116,254.594,228.152,252.018,223.473z M83.53,15h51.997v13.965H83.53V15z M168.083,267.652
		c0,4.063-3.307,7.369-7.37,7.369H58.346c-4.065,0-7.372-3.306-7.372-7.369V51.336c0-4.064,3.307-7.371,7.372-7.371H82.03h54.997
		h23.686c4.063,0,7.37,3.307,7.37,7.371v50.717c-1.27,1.148-2.398,2.579-3.331,4.272L100.27,223.473
		c-2.576,4.679-2.705,9.643-0.354,13.62c2.351,3.977,6.762,6.257,12.103,6.257h56.064V267.652z M114.708,228.35l60.376-109.688
		c0.166,0.011,0.331,0.025,0.499,0.025c0.53,0,1.048-0.057,1.547-0.161l60.451,109.824H114.708z"/>
</g>
<g>
</g>
<g>
</g>
<g>
</g>
<g>
</g>
<g>
</g>
<g>
</g>
<g>
</g>
<g>
</g>
<g>
</g>
<g>
</g>
<g>
</g>
<g>
</g>
<g>
</g>
<g>
</g>
<g>
</g>
</svg>
