<?xml version="1.0" encoding="utf-8"?>
<!-- Generator: Adobe Illustrator 22.1.0, SVG Export Plug-In . SVG Version: 6.00 Build 0)  -->
<svg version="1.1" baseProfile="tiny" id="Layer_1" xmlns="http://www.w3.org/2000/svg" xmlns:xlink="http://www.w3.org/1999/xlink"
	 x="0px" y="0px" viewBox="0 0 512 512" xml:space="preserve">
<g>
	<path d="M446.5,255.5c0,66.5,0,132.9,0,199.4c0,9.5-3.1,13.1-12.6,14.6c-9,1.4-18.1,3.2-27.2,3.8c-3.4,0.2-7.1-1.9-10.4-3.5
		c-3.1-1.4-5.2-2.3-8.2,0.7c-3.9,3.8-8.8,2.8-13.4,0.4c-27.5-14.5-55.1-29-82.6-43.4c-24-12.6-48-25.3-72.1-37.7
		c-6.9-3.5-9.7-8.5-9.3-16c1.8-38.6,3.6-77.2,5.4-115.8c1.9-39.9,3.7-79.9,5.6-119.8c0.8-17.3,1.5-34.6,2.4-51.9
		c0.6-11.5,3.3-14.2,14.8-16.3C292.9,59.9,347,49.6,401.2,40c8.5-1.5,17.5,0.2,26.3,0.5c3,0.1,6,0.5,9,0.6c8.6,0.3,13.1,4.9,13,13.5
		c-0.5,67-1.1,133.9-1.6,200.9C447.5,255.5,447,255.5,446.5,255.5z M320.4,64.2c-1.3,22.7-2.6,44.8-3.7,67
		c-2.1,40.1-4.2,80.2-6.3,120.3c-3,55.2-5.9,110.5-9,165.7c-0.2,3.6,1,5.3,4,6.9c24.1,12.5,48.1,25.2,72.1,37.8
		c5.4,2.8,6,2.6,6.4-3.8c1.3-20.1,2.5-40.2,3.7-60.4c2.1-35.8,4.2-71.5,6.4-107.3c2.5-41.9,5.1-83.8,7.6-125.7
		c2.2-36.3,4.3-72.5,6.5-108.8c0.4-6.6-0.7-7.8-7.3-6.7c-6.7,1.2-13.4,2.5-20.1,3.8C360.8,56.7,340.8,60.4,320.4,64.2z M294.3,418
		c6.4-117.9,12.7-234.8,19-352c-1.4,0-2.3-0.1-3.1,0c-24,4.5-48.1,9-72.1,13.4c-3.6,0.7-4.5,2.4-4.7,5.7
		c-0.6,15.1-1.3,30.3-2.1,45.4c-3.8,81-7.6,162.1-11.5,243.1c-0.2,3.8,1.1,6.1,4.6,7.8c14.2,7.3,28.3,14.8,42.5,22.2
		C275.8,408.4,284.6,413,294.3,418z M410.7,464.4c7.8-1.1,14.8-2.4,21.9-3c4.1-0.4,5.1-2,5.1-5.9c0.7-133,1.6-266,2.4-398.9
		c0-1,0.2-2.1-0.1-3c-0.3-0.9-1.2-2.3-1.9-2.4c-6.1-0.5-12.1-0.8-18.6-1.2C416.6,188.3,413.6,325.9,410.7,464.4z M401.4,461.3
		c1.4-65.9,2.8-131.5,4.2-197c-1.6,15.1-2.4,30.2-3.4,45.4c-2.9,47.2-5.8,94.4-8.6,141.6C393.2,458.7,393.4,458.7,401.4,461.3z"/>
</g>
<g>
	<path d="M427.1,448.3l5.2,1.5v2l-16.5-5v-2.3l16.5-5v2l-5.2,1.6V448.3z M425.5,443.5l-4.8,1.4c-1.1,0.3-2.1,0.5-3,0.8v0
		c1,0.2,2,0.5,3,0.7l4.8,1.4V443.5z"/>
	<path d="M434.8,425.4c-0.6,2-1.3,3.9-1.9,5.7c-0.1,0.3-0.2,0.6-0.2,0.9c-0.1,3.5-3,6.5-8.4,6.5c-5.3,0-8.7-2.9-8.7-6.9
		c0-4,3.5-6.6,8.4-6.6c4.2,0,7,1.8,7.9,4.2h0.1c0.4-1.5,0.8-3.1,1.1-4.3L434.8,425.4z M430.9,431.8c0-3-3.1-4.7-6.9-4.7
		c-3.3,0-6.7,1.5-6.7,4.7c0,3.2,3.3,4.8,6.9,4.8C427.7,436.5,430.9,434.8,430.9,431.8L430.9,431.8z"/>
	<path d="M427.1,420.4l5.2,1.5v2l-16.5-5v-2.3l16.5-5v2l-5.2,1.6V420.4z M425.5,415.6l-4.8,1.4c-1.1,0.3-2.1,0.5-3,0.8v0
		c1,0.2,2,0.5,3,0.7l4.8,1.4V415.6z"/>
	<path d="M416,409.4c-0.2-1-0.3-2.3-0.3-3.7c0-2,0.4-3.4,1.3-4.3c0.7-0.7,1.9-1.2,3.1-1.2c2.2,0,3.6,1.2,4.2,2.8h0.1
		c0.4-1.1,1.6-1.8,3.3-2.2c2.3-0.5,3.9-0.8,4.5-1.1v2c-0.5,0.2-1.9,0.6-3.9,1c-2.3,0.4-3.1,1.2-3.2,3v1.8h7.2v1.9H416z M423.6,407.5
		v-2c0-2-1.3-3.3-3.1-3.3c-2.1,0-3.1,1.4-3.1,3.4c0,0.9,0.1,1.6,0.2,1.9H423.6z"/>
	<path d="M427.1,395.1l5.2,1.5v2l-16.5-5v-2.3l16.5-5v2l-5.2,1.6V395.1z M425.5,390.2l-4.8,1.4c-1.1,0.3-2.1,0.5-3,0.8v0
		c1,0.2,2,0.5,3,0.7l4.8,1.4V390.2z"/>
</g>
<g>
	<path d="M56.5,113.1h40.7v11.7H33.3v-4.8c0-3.3,0.8-6.2,2.5-8.8c1.6-2.6,3.7-4.9,6.2-7c2.5-2.1,5.2-3.9,8.2-5.5
		c3-1.6,5.8-3,8.5-4.3c2.8-1.3,5.3-2.6,7.4-3.8c2.1-1.2,3.9-2.4,5.4-3.6c1.4-1.2,2.5-2.4,3.2-3.7c0.7-1.2,1.1-2.5,1.1-3.9
		c0-2.7-1.2-4.8-3.5-6.2c-2.3-1.4-5.9-2.1-10.6-2.1c-8.3,0-16.1,2.2-23.7,6.6V65.1c8.3-3.6,17.8-5.4,28.2-5.4
		c4.9,0,9.2,0.4,13.1,1.3c3.9,0.8,7.1,2.1,9.8,3.6c2.7,1.6,4.7,3.5,6.1,5.7c1.4,2.2,2.1,4.8,2.1,7.5c0,2.9-0.7,5.6-2,7.9
		c-1.4,2.3-3.2,4.4-5.4,6.2c-2.3,1.9-4.9,3.6-7.8,5.2c-2.9,1.6-6,3.1-9.2,4.5c-2.1,1-4.2,2-6.2,3c-2,1-3.7,2-5.3,2.9
		c-1.5,1-2.7,1.9-3.6,2.8C56.9,111.4,56.5,112.2,56.5,113.1z"/>
	<path d="M66.6,235.5c-22.8,0-34.3-10.7-34.3-32.1c0-11.1,3.1-19.5,9.3-25.4c6.2-5.8,15.1-8.7,26.9-8.7c22.3,0,33.4,10.9,33.4,32.6
		c0,10.8-3,19.1-9.1,24.9C86.7,232.6,78,235.5,66.6,235.5z M67.6,180.1c-9.1,0-13.7,7.7-13.7,23c0,14.4,4.5,21.6,13.4,21.6
		c8.7,0,13.1-7.4,13.1-22.3C80.4,187.5,76.1,180.1,67.6,180.1z"/>
	<path d="M83.4,278.6V344H62.4v-49.5c-1.2,0.7-2.5,1.3-4.1,1.9c-1.6,0.6-3.3,1.2-5.1,1.7c-1.8,0.5-3.6,0.9-5.6,1.2
		c-1.9,0.3-3.8,0.6-5.7,0.7v-11.9c5.5-1.1,10.7-2.4,15.5-4.1c4.9-1.7,9.3-3.5,13.2-5.5H83.4z"/>
	<path d="M33.1,436.4c0-1.8,0.4-3.5,1.2-5.2c0.8-1.7,2-3.2,3.5-4.6c1.6-1.4,3.5-2.7,5.9-3.8c2.3-1.1,5.1-2,8.3-2.7
		c-4.9-1.6-8.6-3.7-11.3-6.2c-2.7-2.5-4-5.3-4-8.4c0-2.4,0.8-4.7,2.3-6.8c1.5-2.1,3.7-3.9,6.4-5.4c2.7-1.5,6-2.7,9.7-3.5
		c3.8-0.8,7.9-1.3,12.3-1.3c4.5,0,8.7,0.4,12.5,1.3c3.8,0.8,7.1,2,9.8,3.5c2.7,1.5,4.9,3.3,6.4,5.3c1.5,2.1,2.3,4.3,2.3,6.7
		c0,3-1.4,5.8-4.3,8.3c-2.9,2.5-6.8,4.5-11.8,6.1c3.1,0.7,5.9,1.6,8.2,2.7c2.4,1.1,4.3,2.4,6,3.8c1.6,1.4,2.8,3,3.6,4.7
		c0.8,1.7,1.2,3.4,1.2,5.2c0,2.7-0.8,5.2-2.5,7.5c-1.7,2.2-4,4.2-7,5.8s-6.6,2.9-10.8,3.8c-4.2,0.9-8.8,1.3-13.8,1.3
		c-5,0-9.5-0.4-13.7-1.3c-4.2-0.9-7.8-2.1-10.8-3.7c-3-1.6-5.4-3.5-7.1-5.8C34,441.6,33.1,439.1,33.1,436.4z M53.1,435.2
		c0,1.5,0.3,2.8,1,3.9c0.7,1.2,1.6,2.1,2.9,2.9c1.2,0.8,2.7,1.4,4.4,1.9c1.7,0.4,3.6,0.6,5.8,0.6c2.1,0,3.9-0.2,5.7-0.7
		c1.7-0.4,3.2-1.1,4.4-1.9c1.2-0.8,2.2-1.8,2.9-2.9c0.7-1.2,1.1-2.5,1.1-3.9c0-1.3-0.3-2.5-1-3.7s-1.6-2.2-2.9-3
		c-1.2-0.8-2.7-1.5-4.4-2c-1.7-0.5-3.6-0.8-5.8-0.8c-2,0-3.9,0.2-5.6,0.7c-1.7,0.5-3.2,1.1-4.5,2c-1.2,0.8-2.2,1.9-2.9,3
		C53.5,432.6,53.1,433.8,53.1,435.2z M56.1,406.9c0,1.1,0.3,2.2,0.9,3.2c0.6,1,1.4,1.9,2.4,2.6c1,0.7,2.2,1.3,3.6,1.7
		c1.4,0.4,2.9,0.6,4.4,0.6c1.6,0,3.1-0.2,4.5-0.6c1.4-0.4,2.6-1,3.6-1.7c1-0.7,1.9-1.6,2.5-2.6c0.6-1,0.9-2,0.9-3.2
		c0-1.2-0.3-2.2-0.9-3.2c-0.6-1-1.4-1.9-2.4-2.6c-1-0.7-2.3-1.3-3.7-1.7c-1.4-0.4-2.9-0.6-4.5-0.6c-1.7,0-3.2,0.2-4.6,0.6
		c-1.4,0.4-2.6,1-3.6,1.7c-1,0.7-1.8,1.6-2.3,2.6C56.3,404.7,56.1,405.7,56.1,406.9z"/>
</g>
</svg>
