<?xml version="1.0" encoding="utf-8"?>
<!-- Generator: Adobe Illustrator 22.1.0, SVG Export Plug-In . SVG Version: 6.00 Build 0)  -->
<svg version="1.1" baseProfile="tiny" id="Layer_1" xmlns="http://www.w3.org/2000/svg" xmlns:xlink="http://www.w3.org/1999/xlink"
	 x="0px" y="0px" viewBox="0 0 300 300" xml:space="preserve">
<g>
	<path d="M159.5,237.6c-1.5-10.5-0.5-19.8,2.8-28.5c2.7-7.2,6.7-14.1,10.8-20.6c4.4-7.1,7.2-14.3,5.6-22.6
		c-1.6-8.7-7.3-13.8-16.1-13.1c-7,0.6-14,2.6-20.7,5c-21.4,7.5-42.9-1.7-51.6-22.5c-4.3-10.4-3.8-20.3,3.8-29.5
		c7.5-9,20.2-19,31.5-23.6c-0.9,1.8-1.6,3-2.2,4.2c-3.6,6.9-7.9,13.6-10.6,20.9c-4.5,12,2.4,20.1,14.7,17.1
		c8.5-2.1,16.8-5.4,24.8-8.8c13.9-5.9,27.7-7.3,41.3,0.1c21.6,11.8,27.3,39.6,12.3,60.4c-2.7,3.8-5.9,7.2-9.3,10.4
		c-15.2,13.9-27.6,29.8-35.4,49C161.2,235.9,160.7,236.2,159.5,237.6z"/>
	<path d="M131.9,284.8c0.5-4.1,0.9-7.4,1.2-10.6c1.1-12.1-3.6-21.8-12.6-29.5c-10.2-8.9-14.3-19.8-11.6-33c0.6-3,1.7-6.2,3.3-8.8
		c8.4-12.8,21.6-18.5,36.7-23.9c-1.5,2.8-2.3,4.3-3.2,5.9c-6.1,11.3-10.4,23.1-9,36.2c0.7,7.1,3.4,13.5,8,19
		c6.8,8.1,7.2,16.9,2.7,26.1C143.9,273.3,138.8,279.3,131.9,284.8z"/>
	<path d="M112.8,18.1c0.6,1.2,1,1.7,1.1,2.3c1.6,10.9,10.4,14.4,20.1,12.5c5.2-1,10.4-2.2,15.7-2.7c22.8-2.2,37.4,17.3,28.4,38.4
		c-2.3,5.5-6.3,10.6-10.4,15c-7.7,8.1-22.6,16.3-31.7,18.2c1.7-2,2.7-3.3,3.8-4.6c7.4-9,14.9-18,17.5-29.8
		c2.3-10.2-2.3-15.5-12.7-15.4c-4.8,0-9.8,0.4-14.4-0.6C116.9,48.4,106.3,33.4,112.8,18.1z"/>
</g>
</svg>
