<?xml version="1.0" encoding="utf-8"?>
<!-- Generator: Adobe Illustrator 22.1.0, SVG Export Plug-In . SVG Version: 6.00 Build 0)  -->
<svg version="1.1" baseProfile="tiny" id="Слой_1"
	 xmlns="http://www.w3.org/2000/svg" xmlns:xlink="http://www.w3.org/1999/xlink" x="0px" y="0px" viewBox="0 0 410.7 410.7"
	 xml:space="preserve">
<g>
	<path fill="none" stroke="#000000" stroke-width="10" stroke-miterlimit="10" d="M291.6,101.5c-1.2,32.6-1.9,65.3-3.7,97.9
		c-1.1,20.1-9,38.1-21.6,53.8c-6.7,8.4-10.6,17.5-10.2,28.4c0.2,6.8,0,13.7,0.1,20.5c0.1,3.2-0.8,5.8-3.5,7.8
		c-3.7,2.7-5.8,7.2-10.7,8.6c-2,0.6-2.5,8.7-0.3,11c3.8,3.9-0.8,6.2-1,9.3c-0.2,3,5,5.4,1,9.2c-1.9,1.8-1.7,4.2,0.1,6.2
		c0.2,0.3,0.7,0.5,0.6,0.7c-0.6,5.5,0.9,11.3-0.3,16.3c-1.5,6.2-5.7,11.9-13.1,13.6c-1.7,0.4-2.4,2.2-3.2,3.7c-1,2-2.5,3.7-4.6,4.3
		c-3.6,1-6.6,2-8.6,5.9c-1.5,3-13.8,1.5-15.7-1.4c-0.4-0.6-0.7-1.5-1.1-1.6c-7.7-1.3-10.7-9.5-17.4-12c-6.7-2.6-7.9-8.9-11-14
		c-0.4-0.6,0-2.2,0.5-2.8c2.3-2.5,2.6-4.7,0.1-7.3c-1.4-1.5-1-3.4,0.4-5c2.1-2.3,2.2-4.7,0.1-7.1c-0.2-0.2-2.2-2-1.9-3.3
		c0.4-2.1,3.9-3.1,2.6-5.2c-1.1-1.8-1.6-4-0.3-9.1c0.6-2.4,0.6-3.9,1.1-6.7c0.5-3-1.5-3.5-3.6-4.8c-3.5-2.2-6.4-5.2-9.5-8
		c-2.6-2.4-2.5-5.7-2.5-8.8c0-9.1,0.7-18.3-0.9-27.4c-1.4-7.9-4.4-15.1-9.7-21.1c-14.8-16.8-21.5-36.3-22.2-58.4
		c-1.6-46.5-3.1-92.9-2.1-139.4c0.2-10.1,5.6-17.2,13.8-22.4c10.9-7,23.3-9.7,36-11c30.7-3.3,61.2-2.8,91.4,4.4
		c10.2,2.4,19.7,6.4,25,16.5c3.6,6.9,3.8,14.4,4.5,21.9C291.3,76.9,291.3,89.2,291.6,101.5z M176,115.9 M121.5,115.9
		c19-2.8,45.4-3.2,64.5-3.2c35.8,0,69.1-0.2,103.8,4.8 M241.1,321.2c-4.4-0.2-2.5-1.9-8.5-1.3c-5,0.5-9.9,0.8-14.9,1.2
		c-14,1.1-34,1.7-48,0"/>
	<path d="M213,158.4c-4.9,2.7-9.6,2.3-14.7,0c-6.2-2.8-12.8-4.9-19.3-7.4c-2.8,20.1-1.8,22.4,11.5,26.8c0.2,0.1,0.5,0.2,0.7,0.2
		c1.5,0.5,3.5,2,4.4-0.3c0.8-1.9,1.2-4.6-1.2-6c-2.1-1.2-4.5-2.1-6.7-3c-2.9-1.2-2.4-3.8-1.7-5.7c1-2.5,3-0.4,4.4,0
		c7.2,2.1,14.5,4.3,11.9,14.7c-0.6,2.3,0.1,4.3,3.3,4.4c3.6,0.1,4.5-1.9,3.9-4.6c-2.3-10.2,4.9-12.4,12.1-14.5
		c1.3-0.4,3.4-2.6,4.2,0.3c0.6,2,0.9,4.5-2,5.6c-2.1,0.8-4.1,1.7-6.1,2.6c-2.4,1-2.1,3.1-2,5.1c0,1,0.3,1.9,1.4,2.3
		c3.8,1.4,15.8-6.5,16.3-10.4c0.3-2.6,1.3-15.6-0.1-18.3c0-0.1-1.2,0.4-1.3,0.4"/>
</g>
<g>
	<path d="M172.2,86.1h-9l-3.9-16c-0.1-0.5-0.2-1.6-0.4-3.4h-0.1c-0.2,1.6-0.4,2.7-0.6,3.4l-4.2,16h-9.5l-6.7-28h9.3l2.3,16.5
		c0,0.2,0.1,0.8,0.2,1.8l0.1,1.6h0.1c0-0.3,0.1-0.9,0.2-1.7c0.1-0.8,0.3-1.4,0.4-1.8l4.3-16.4h9.2l3.6,16.6l0.3,1.7l0.2,1.6h0.1
		l0.1-0.7l0.3-2.7l2.4-16.5h8.3L172.2,86.1z"/>
	<path d="M200.6,86.1V75.7h-9.7v10.4h-8.4v-28h8.4v10.4h9.7V58.1h8.4v28H200.6z"/>
	<path d="M214.6,86.1v-28h8.4v28H214.6z"/>
	<path d="M242.7,64.7v21.4h-8.5V64.7h-7.8v-6.6h24.2v6.6H242.7z"/>
	<path d="M254,86.1v-28h17.4v6.6h-9v4.1h8.5v6.6h-8.5v4.1h9.6v6.6H254z"/>
</g>
<g display="none">
	<path display="inline" d="M163.1,84.8c-2.3,0.9-4.9,1.4-7.8,1.4c-2.9,0-5.4-0.6-7.5-1.9c-2.1-1.3-3.7-3.1-4.8-5.4
		c-1.1-2.3-1.7-5.1-1.7-8.1c0-3.3,0.6-6.2,1.9-8.8c1.2-2.6,3-4.6,5.3-6c2.3-1.4,4.9-2.1,7.8-2.1c2.4,0,4.6,0.3,6.8,1v8.7
		c-0.8-0.5-1.7-0.9-2.7-1.2c-1.1-0.3-2.1-0.4-3.2-0.4c-2.2,0-4,0.7-5.3,2.2c-1.3,1.5-1.9,3.5-1.9,6c0,2.5,0.6,4.5,1.9,5.9
		c1.3,1.4,3,2.2,5.2,2.2c2,0,4-0.6,6-1.7V84.8z"/>
	<path display="inline" d="M193.3,69.9c0,3.1-0.6,6-1.8,8.4s-2.8,4.4-4.9,5.8c-2.1,1.4-4.5,2.1-7.1,2.1c-2.6,0-4.9-0.7-7-2
		c-2.1-1.3-3.7-3.2-4.9-5.6c-1.2-2.4-1.7-5.1-1.7-8.2c0-3.2,0.6-6.1,1.8-8.6c1.2-2.5,2.8-4.5,5-5.9c2.1-1.4,4.5-2.1,7.3-2.1
		c2.6,0,4.9,0.7,7,2c2.1,1.3,3.6,3.2,4.8,5.7C192.7,63.9,193.3,66.7,193.3,69.9z M184.6,70.1c0-2.6-0.4-4.6-1.3-6.1
		c-0.9-1.5-2-2.2-3.5-2.2c-1.6,0-2.9,0.7-3.8,2.1c-0.9,1.4-1.4,3.4-1.4,6c0,2.5,0.5,4.5,1.4,6c0.9,1.4,2.1,2.1,3.7,2.1
		c0.9,0,1.8-0.3,2.6-1c0.8-0.6,1.3-1.6,1.8-2.8C184.4,73.2,184.6,71.8,184.6,70.1z"/>
	<path display="inline" d="M197.1,85.6V54.3h8.2v23.9h9.4v7.4H197.1z"/>
	<path display="inline" d="M244,69.9c0,3.1-0.6,6-1.8,8.4s-2.8,4.4-4.9,5.8c-2.1,1.4-4.5,2.1-7.1,2.1c-2.6,0-4.9-0.7-7-2
		c-2.1-1.3-3.7-3.2-4.9-5.6c-1.2-2.4-1.7-5.1-1.7-8.2c0-3.2,0.6-6.1,1.8-8.6c1.2-2.5,2.8-4.5,5-5.9c2.1-1.4,4.5-2.1,7.3-2.1
		c2.6,0,4.9,0.7,7,2c2.1,1.3,3.6,3.2,4.8,5.7C243.5,63.9,244,66.7,244,69.9z M235.3,70.1c0-2.6-0.4-4.6-1.3-6.1
		c-0.9-1.5-2-2.2-3.5-2.2c-1.6,0-2.9,0.7-3.8,2.1c-0.9,1.4-1.4,3.4-1.4,6c0,2.5,0.5,4.5,1.4,6c0.9,1.4,2.1,2.1,3.7,2.1
		c0.9,0,1.8-0.3,2.6-1c0.8-0.6,1.3-1.6,1.8-2.8C235.1,73.2,235.3,71.8,235.3,70.1z"/>
	<path display="inline" d="M262,85.6l-2-6.7c-0.4-1.3-0.9-2.4-1.5-3.1c-0.6-0.8-1.3-1.1-2-1.1h-0.3v11h-8.2V54.3h10.9
		c3.8,0,6.6,0.7,8.4,2.1c1.8,1.4,2.7,3.6,2.7,6.4c0,2.2-0.5,4-1.6,5.4c-1.1,1.5-2.6,2.5-4.7,3.2v0.1c1.2,0.4,2.1,1.1,2.9,2
		c0.8,0.9,1.5,2.3,2.1,4.1l2.7,8H262z M261.2,64.2c0-1-0.3-1.9-0.8-2.5c-0.6-0.6-1.4-0.9-2.6-0.9h-1.7V68h1.5c1.1,0,2-0.4,2.7-1.1
		C260.9,66.2,261.2,65.3,261.2,64.2z"/>
</g>
<path fill="none" stroke="#000000" stroke-width="6" stroke-miterlimit="10" d="M148.9,114.4c-0.9,11.8-0.1,51.3,0.8,73.3
	c1.2,26.7,14.5,36.4,21.7,61.6c8.3,29.1,7.7,40.7,7.1,69.8"/>
<path fill="none" stroke="#000000" stroke-width="6" stroke-miterlimit="10" d="M183.4,114.4c-0.1,12.3,0.2,53.2,1.1,75.2
	c1.2,26.7,1.1,34.5,8.3,59.7c8.3,29.1,7.7,41.3,7.1,70.5"/>
<path fill="none" stroke="#000000" stroke-width="7" stroke-miterlimit="10" d="M227.7,114.4c0,12.5-1.1,50.6-2.4,73.2
	c-1,17.3-5.5,26.8-8.7,62c-1.9,21.5,0.6,40.3,0,69.5"/>
<path fill="none" stroke="#000000" stroke-width="6" stroke-miterlimit="10" d="M264.4,117c0.1,13.5,0.2,49.1-3.2,72
	c-1.6,10.6-10.5,41.2-20.1,59c-6,11.2-9.2,42.1-7.1,71.6"/>
<path fill="none" stroke="#000000" stroke-width="7" stroke-miterlimit="10" d="M239.5,351.7c-20,0-49.8,11.8-69.8,11.8"/>
<path fill="none" stroke="#000000" stroke-width="7" stroke-miterlimit="10" d="M239.5,339c-20,0-50.2,9.8-70.2,9.8"/>
<path fill="none" stroke="#000000" stroke-width="7" stroke-miterlimit="10" d="M240.2,325c-20,0-50.9,9.3-70.9,9.3"/>
<path fill="none" stroke="#000000" stroke-width="7" stroke-miterlimit="10" d="M240.2,365.7c-19,0-48,12.7-67,12.7"/>
</svg>
