<?xml version="1.0" encoding="utf-8"?>
<!-- Generator: Adobe Illustrator 22.1.0, SVG Export Plug-In . SVG Version: 6.00 Build 0)  -->
<svg version="1.1" baseProfile="tiny" id="Layer_1" xmlns="http://www.w3.org/2000/svg" xmlns:xlink="http://www.w3.org/1999/xlink"
	 x="0px" y="0px" viewBox="0 0 1600 1600" xml:space="preserve">
<g>
	<path d="M1,592c2.9-9.6,4.9-19.7,9-28.8c12.1-27.2,33.1-46.4,57.9-61.8c33.1-20.7,69.7-32.1,107.6-39.8
		c40.3-8.2,81.1-11.5,122.2-12.4c2.3-0.1,4.7,0,7.1-0.4c-53.5-6-98.2-29-132.3-70.7c-34.2-41.9-48.5-90.3-42.1-144
		c11.7-98.2,96.4-170.5,193.3-169c96.3,1.6,174.2,73.8,187,164.3c7.7,54.3-5.7,103.6-39.8,146.6c-34.1,42.9-79.3,66.4-133.5,72.6
		c18.1,0.9,36.3,1.5,54.4,2.8c48.7,3.7,96.7,11.3,142.3,29.5c28.7,11.4,55.2,26.6,76.3,49.8c19.8,21.8,30.7,46.8,30.6,76.9
		c-0.3,116.7-0.1,233.3-0.1,350c0,42.4-23.9,77.9-62.1,92.7c-11.5,4.5-23.4,6.3-35.7,6.4c-9.8,0-19.6,0-30.2,0c0,2.4,0,4.5,0,6.6
		c0,125,0,250,0,375c0,41.7-23.6,76.6-62,91.8c-11.3,4.5-23.1,6.4-35.2,6.4c-63.2,0-126.3,0.1-189.5,0
		c-47.9-0.1-86.9-32.6-95.7-79.6c-1.1-6-1.4-12.3-1.4-18.4c-0.1-124.8-0.1-249.7-0.1-374.5c0-2.1,0-4.3,0-7.3c-2.5,0-4.8,0.1-7,0
		c-15.8-0.9-31.9,0.1-47.2-3C37,1045.9,6.9,1011.8,2,973.8c-0.2-1.3-0.6-2.5-1-3.8C1,844,1,718,1,592z M448.9,992.6
		c2.9,0,4.9,0,6.9,0c29.2,0,58.3,0.1,87.5,0c15.4-0.1,27-7.6,31.4-20.8c1.6-4.8,2-10.1,2-15.2c0.1-115.6-0.1-231.3,0.3-346.9
		c0-13.7-4.6-24.6-13.3-34.4c-14.9-17-34.2-27.2-54.9-35.2c-39.6-15.5-81.2-21.7-123.3-24.8c-55.1-4-110.2-3.4-165.1,3.9
		c-31.4,4.2-62.2,10.7-91.6,23c-19.9,8.3-38.3,18.7-52.2,35.7c-6.4,7.8-11.7,16.2-11.7,26.9c0,117.5,0,235,0.1,352.4
		c0,3.5,0.1,7,0.8,10.4c3.1,15.2,15.5,24.9,32.3,25c29.7,0.2,59.3,0,89,0.1c1.9,0,3.8,0.2,5.9,0.3c0,2.7,0,4.6,0,6.6
		c0,145,0,289.9,0,434.9c0,2.8-0.5,5.8,0.3,8.5c1.5,5.4,2.7,11.1,5.6,15.8c6.5,10.4,16.8,13.7,28.8,13.7
		c62.2-0.1,124.3-0.1,186.5-0.1c1.7,0,3.3,0,5-0.1c10.7-0.7,19-5.6,24.8-14.6c4.4-6.7,5-14.3,5-22.1c0-145.3,0-290.6,0-435.9
		C448.9,997.5,448.9,995.4,448.9,992.6z M448.8,257.1C448.7,186.3,393.3,130.6,324,129c-74.1-1.7-131.1,57.3-131.1,127.8
		c0,70.5,56.8,128.1,126.8,128.2C391.5,385.1,448.7,328.4,448.8,257.1z"/>
	<path d="M556,1c14.7,5.4,23.4,17.8,32.9,28.9c38.8,45.5,64.5,97.5,76.6,156.1c6.7,32.5,9.6,65.3,5.4,98.3c-3,24-9.7,47.2-17.3,70.1
		c-1.8,5.3-0.4,7.3,3.9,10c63.7,40,110.2,93.8,132.8,166.5c7.2,23.2,10.4,47.1,10.4,71.4c0,118.7,0.6,237.3-0.2,356
		c-0.6,94.3-43.3,165.9-121.6,217.1c-4.6,3-6.3,5.8-6.3,11.3c0.2,84,0.2,168,0.1,252c-0.1,53.6-15.1,102.7-45.7,146.9
		c-8.6,12.5-23.2,17.6-36.8,13.1c-13.4-4.4-23.1-17.7-21.9-31.8c0.5-5.9,2.6-12.3,5.9-17.1c20-29.7,31.7-62.2,34.1-97.9
		c0.3-5.1,0.3-10.3,0.3-15.5c0-96,0-192-0.1-288c0-4.5,1.3-6.8,5.4-8.7c20-9.3,39.3-19.7,56-34.5c42.1-37.3,66-83.9,66.4-140.2
		c0.9-122.5,0.4-245,0.2-367.5c0-10.3-1.4-20.7-3.4-30.7c-7.8-40.1-27.5-74.1-55.1-103.7c-20.8-22.2-44.9-40.1-71.9-54.1
		c-10-5.2-19.9-10.7-30.3-16.2c4.4-11,8.7-21.8,13-32.5c14.8-37.4,21.8-76.3,19.6-116.4c-3.8-71.7-30.5-133.9-80.1-186
		c-9.6-10.1-14.3-21.2-10.3-34.9c2.8-9.4,8.9-16.2,18.1-20c1.3-0.6,2.5-1.4,3.8-2C545.3,1,550.7,1,556,1z"/>
	<path d="M774,1601c-1.8-0.6-3.7-1.3-5.5-1.9c-17.1-5.4-26.7-23.2-21.2-40.1c7-21.5,13.9-43.1,16.9-65.6c2.2-16.5,4.3-33.1,4.5-49.7
		c0.5-68.7,0.2-137.3,0.1-206c0-3.8,0.9-6.4,3.9-9c29.6-25.8,55-55.2,75-89.1c23.6-39.9,39.2-82.7,45.1-128.7
		c2.5-19.6,3.8-39.5,3.9-59.2c0.4-115.5,0.1-231,0.2-346.4c0.1-79.2-24.8-150.1-71.3-213.6c-16.6-22.7-35.5-43.3-56.5-61.9
		c-3.8-3.4-5.2-6.4-4.5-11.9c3.2-24.4,4.9-49,4.1-73.7c-1.6-45.9-9.1-90.8-24.9-133.9c-7.6-20.6-17-40.5-26.2-60.4
		c-4.8-10.3-6.6-20.2-1.9-30.7C719.8,9.8,727.5,4.3,737,1c5,0,10,0,15,0c12.4,4.2,19.2,13.6,24.9,24.8
		c24.6,49.1,41.6,100.7,49.9,155c4.7,30.7,6.7,61.6,5.2,92.6c-0.4,7.5-1.1,14.9-2,22.4c-0.5,3.9,0.8,6.5,3.5,9.2
		c35.2,35.8,64.2,76.1,86.1,121.3c20.4,42.2,34,86.5,38.5,133.4c1.5,15.2,2.4,30.6,2.4,45.9c0.2,116.7,0,233.3,0.1,350
		c0.1,96.3-29.2,182.5-88.3,258.5c-11,14.2-23.6,27.1-35.8,40.3c-2.7,2.9-4,5.6-4,9.6c0.1,60.2,0.2,120.3-0.1,180.5
		c-0.2,42.7-7.6,84.3-20.4,125.1c-5,15.9-12.8,28-30.1,31.5C779.3,1601,776.7,1601,774,1601z"/>
	<path d="M1521.7,1058.8c-125.6,0-250.8,0-376.4,0c0-42.1,0-84,0-126.5c7.6,0,15.3,0,23.4,0c0-108.2,0-215.9,0-324.2
		c-7.7,0-15.4,0-23.4,0c0-21.5,0-42.4,0-63.7c125.3,0,250.7,0,376.4,0C1521.7,715.7,1521.7,887,1521.7,1058.8z M1236.1,611
		c0,106.6,0,212.7,0,318.9c73.2,0,146.1,0,218.9,0c0-106.5,0-212.6,0-318.9C1381.9,611,1309.1,611,1236.1,611z"/>
</g>
</svg>
