<?xml version="1.0" encoding="utf-8"?>
<!-- Generator: Adobe Illustrator 24.0.2, SVG Export Plug-In . SVG Version: 6.00 Build 0)  -->
<svg version="1.1" id="Слой_2" xmlns="http://www.w3.org/2000/svg" xmlns:xlink="http://www.w3.org/1999/xlink" x="0px" y="0px"
	 viewBox="0 0 256 256" style="enable-background:new 0 0 256 256;" xml:space="preserve">
<style type="text/css">
	.st0{fill:none;stroke:#000000;stroke-width:5;stroke-miterlimit:10;}
	.st1{fill:none;stroke:#000000;stroke-width:3;stroke-miterlimit:10;}
	.st2{fill:none;stroke:#000000;stroke-miterlimit:10;}
	.st3{fill:none;stroke:#000000;stroke-linecap:round;stroke-miterlimit:10;}
</style>
<circle class="st0" cx="126.86" cy="129.03" r="122.97"/>
<circle class="st1" cx="126.86" cy="129.03" r="114.24"/>
<path class="st2" d="M116.61,44.82c-3.06,0-5.54-2.48-5.54-5.54c0-3.06,2.48-5.54,5.54-5.54"/>
<path class="st2" d="M135.87,33.74c3.06,0,5.54,2.48,5.54,5.54c0,3.06-2.48,5.54-5.54,5.54"/>
<line class="st2" x1="116.61" y1="33.74" x2="135.87" y2="33.74"/>
<line class="st2" x1="116.61" y1="44.82" x2="135.87" y2="44.82"/>
<rect x="131.82" y="37.36" class="st2" width="4.11" height="3.83"/>
<line class="st0" x1="202.06" y1="16.22" x2="202.61" y2="32.15"/>
<line class="st0" x1="246.53" y1="49.74" x2="224.31" y2="53.63"/>
<circle class="st2" cx="117.78" cy="39.28" r="2.44"/>
<circle class="st2" cx="126.86" cy="107.89" r="32.82"/>
<circle class="st2" cx="126.86" cy="107.89" r="28.25"/>
<line class="st2" x1="155.11" y1="124.6" x2="241.03" y2="124.6"/>
<line class="st2" x1="98.61" y1="124.6" x2="12.62" y2="124.6"/>
<path class="st2" d="M12.62,124.6l14.76-12.94c2.78-2.43,6.34-3.77,10.03-3.77h56.62"/>
<path class="st2" d="M241.03,124.6l-18.46-13.59c-2.75-2.02-6.07-3.11-9.48-3.11h-53.41"/>
<path class="st3" d="M128.53,108.82l3.64,3.39c0.14,0.13,0.05,0.38-0.15,0.38h-9.05c-0.12,0-0.19-0.15-0.11-0.24l7.11-8.22
	c0.1-0.12,0.02-0.3-0.14-0.3h-5.69"/>
<g>
	<path d="M174.64,116.48c0-0.68-0.01-1.27-0.05-1.81h0.92l0.04,1.14h0.05c0.26-0.78,0.9-1.27,1.61-1.27c0.12,0,0.2,0.01,0.3,0.04v1
		c-0.11-0.02-0.22-0.04-0.36-0.04c-0.74,0-1.27,0.56-1.42,1.36c-0.02,0.14-0.05,0.31-0.05,0.49v3.09h-1.04V116.48z"/>
	<path d="M183.69,117.53c0,2.15-1.49,3.08-2.89,3.08c-1.57,0-2.78-1.15-2.78-2.99c0-1.94,1.27-3.08,2.88-3.08
		C182.57,114.54,183.69,115.75,183.69,117.53z M179.09,117.58c0,1.27,0.73,2.23,1.76,2.23c1.01,0,1.76-0.95,1.76-2.25
		c0-0.98-0.49-2.23-1.74-2.23C179.63,115.33,179.09,116.48,179.09,117.58z"/>
	<path d="M184.98,120.48c0.02-0.4,0.05-0.98,0.05-1.5v-7.02h1.04v3.65h0.02c0.37-0.65,1.04-1.07,1.98-1.07
		c1.44,0,2.46,1.2,2.45,2.96c0,2.07-1.31,3.11-2.6,3.11c-0.84,0-1.51-0.32-1.94-1.09h-0.04l-0.05,0.96H184.98z M186.07,118.15
		c0,0.13,0.02,0.26,0.05,0.38c0.2,0.73,0.82,1.24,1.58,1.24c1.1,0,1.76-0.9,1.76-2.23c0-1.16-0.6-2.16-1.73-2.16
		c-0.72,0-1.39,0.49-1.61,1.3c-0.02,0.12-0.06,0.26-0.06,0.43V118.15z"/>
	<path d="M197.11,117.53c0,2.15-1.49,3.08-2.89,3.08c-1.57,0-2.78-1.15-2.78-2.99c0-1.94,1.27-3.08,2.88-3.08
		C195.98,114.54,197.11,115.75,197.11,117.53z M192.5,117.58c0,1.27,0.73,2.23,1.76,2.23c1.01,0,1.76-0.95,1.76-2.25
		c0-0.98-0.49-2.23-1.74-2.23C193.04,115.33,192.5,116.48,192.5,117.58z"/>
	<path d="M198.44,116.48c0-0.68-0.01-1.27-0.05-1.81h0.92l0.04,1.14h0.05c0.26-0.78,0.9-1.27,1.61-1.27c0.12,0,0.2,0.01,0.3,0.04v1
		c-0.11-0.02-0.22-0.04-0.36-0.04c-0.74,0-1.27,0.56-1.42,1.36c-0.02,0.14-0.05,0.31-0.05,0.49v3.09h-1.04V116.48z"/>
	<path d="M207.5,117.53c0,2.15-1.49,3.08-2.89,3.08c-1.57,0-2.78-1.15-2.78-2.99c0-1.94,1.27-3.08,2.88-3.08
		C206.37,114.54,207.5,115.75,207.5,117.53z M202.9,117.58c0,1.27,0.73,2.23,1.76,2.23c1.01,0,1.76-0.95,1.76-2.25
		c0-0.98-0.49-2.23-1.74-2.23C203.43,115.33,202.9,116.48,202.9,117.58z"/>
	<path d="M212.97,120.26c-0.28,0.14-0.89,0.34-1.67,0.34c-1.75,0-2.89-1.19-2.89-2.96c0-1.79,1.22-3.08,3.12-3.08
		c0.62,0,1.17,0.16,1.46,0.3l-0.24,0.82c-0.25-0.14-0.65-0.28-1.22-0.28c-1.33,0-2.05,0.98-2.05,2.19c0,1.34,0.86,2.17,2.01,2.17
		c0.6,0,1-0.16,1.29-0.29L212.97,120.26z"/>
	<path d="M215.26,117.33h0.02c0.14-0.2,0.35-0.46,0.52-0.66l1.7-2h1.27l-2.24,2.39l2.55,3.42h-1.28l-2-2.78l-0.54,0.6v2.18h-1.04
		v-8.52h1.04V117.33z"/>
</g>
</svg>
