<svg height="474pt" viewBox="0 -22 474.94466 474" width="474pt" xmlns="http://www.w3.org/2000/svg"><path d="m467.617188 347.714844-181.472657-318.9375c-9.957031-17.5-28.539062-28.304688-48.671875-28.304688-20.132812 0-38.714844 10.804688-48.671875 28.304688l-181.472656 318.9375c-9.863281 17.332031-9.765625 38.609375.265625 55.847656 10.027344 17.242188 28.46875 27.847656 48.414062 27.847656h362.929688c19.945312 0 38.386719-10.605468 48.414062-27.847656 10.027344-17.238281 10.128907-38.515625.265626-55.847656zm-14.105469 47.804687c-7.105469 12.371094-20.308594 19.96875-34.574219 19.890625h-362.929688c-14.246093 0-27.417968-7.578125-34.582031-19.890625-7.160156-12.316406-7.230469-27.511719-.183593-39.894531l181.460937-318.9375c7.113281-12.5 20.386719-20.21875 34.769531-20.21875 14.382813 0 27.65625 7.71875 34.769532 20.21875l181.460937 318.9375c7.128906 12.363281 7.058594 27.601562-.191406 39.894531zm0 0"/><path d="m297.289062 159.410156h-97.847656l-36.578125 128h56.847657l-20.636719 103.304688 118.863281-151.304688h-52.648438zm-12.28125 96-57.136718 72.695313 11.359375-56.695313h-55.148438l27.421875-96h62.152344l-32 80zm0 0"/></svg>