<?xml version="1.0" encoding="utf-8"?>
<!-- Generator: Adobe Illustrator 22.1.0, SVG Export Plug-In . SVG Version: 6.00 Build 0)  -->
<svg version="1.1" baseProfile="tiny" id="Layer_1" xmlns="http://www.w3.org/2000/svg" xmlns:xlink="http://www.w3.org/1999/xlink"
	 x="0px" y="0px" viewBox="0 0 512 512" xml:space="preserve">
<g>
	<path d="M1,241c1.3-9.4,2-18.9,3.9-28.1C26.5,109,88.2,41.3,189.6,10.3c15.3-4.7,31.7-5.7,47.6-8.4c1.3-0.2,2.6-0.6,3.8-0.8
		c10.7,0,21.3,0,32,0c9.4,1.3,18.8,2.3,28.1,3.9C400.5,21.4,483,98.8,505.8,197.3c3,12.9,4.2,26.2,6.3,39.4c0.2,1.5,0.6,2.9,0.9,4.4
		c0,6.3,0,12.7,0,19c-10.5,0-20.9,0-31.7,0c0-3.1,0-5.8,0-9.2c7.1,0,14.2,0,21.7,0c-2.7-63.5-25.3-117.7-68.5-164
		c-5,5.3-9.6,10.3-14.2,15.2c-2.7-2.9-5.1-5.4-7.7-8.2c4.4-4.1,9.5-8.8,15-13.9C380.5,35.9,325.9,13.3,262,10.9c0,3.9,0,7.5,0,11.1
		c0,3.5,0,6.9,0,10.7c-3.7,0-6.9,0-10.8,0c0-6.9,0-14,0-20.9C210.5,4.6,114,44.7,87.3,79.9c4.9,4.6,9.8,9.3,14.6,13.8
		c-2.8,2.7-5.2,5.1-8.1,7.9c-4.3-4.7-8.9-9.8-13.9-15.3c-43.6,46.7-66.2,101-68.9,164.2c7.4,0,14.4,0,21.7,0c0,3.2,0,6,0,9.4
		c-10.5,0-21,0-31.6,0C1,253.7,1,247.3,1,241z"/>
	<path d="M183.2,154.9c-5.6,5.6-10.7,11-16.2,15.9c-1.3,1.1-4.7,1.2-6.2,0.3c-1.3-0.7-2.2-3.9-1.7-5.5c5.8-21.3,3-42.3-1.2-63.3
		c-0.6-3.2-1.7-6.3,1.8-8.5c3.4-2,5.6,0.4,7.9,2.4c16.3,13.8,34,25.1,55,30.5c1.9,0.5,4.4,3.1,4.5,4.8c0.1,1.8-2.2,4.6-4.1,5.3
		c-7,2.5-14.2,4.3-21.5,6.5c0.5,0.9,1.2,2.3,2,3.7c16.9,28.1,33.8,56.2,50.6,84.4c1.5,2.5,3,3.7,6.2,3.8
		c11.2,0.4,19.2,10.9,18.8,24.3c-0.3,9.9-9.9,18.7-19.7,19.7c-16.5,1.6-29.4-14-22.7-31.4c0.5-1.3,0.5-3.3-0.2-4.5
		c-17.7-29.6-35.5-59.1-53.3-88.6C183,154.6,182.8,154.5,183.2,154.9z M170.6,112.3c0.7,12.3,1.4,24.9,2.2,38.2
		c1.4-2.5,2.5-4.5,3.6-6.5c3.6-6.4,5.7-6.9,11.3-2.4c-1.5-7.2-0.4-8.7,7.2-9.1c2.9-0.2,5.9-0.3,9-0.5
		C192.3,125.2,181.4,118.7,170.6,112.3z M244.8,237.8c0.4-0.2,0.7-0.4,1.1-0.7c-9-15-18.1-30.1-27.1-45.1c-0.4,0.2-0.7,0.4-1.1,0.7
		C226.7,207.7,235.8,222.7,244.8,237.8z"/>
</g>
<g>
	<path d="M203.3,312.3l-17.7,66.8H169l-11.1-42.9c-0.6-2.2-0.9-4.7-1.1-7.5h-0.2c-0.3,3-0.7,5.5-1.2,7.5L144,379.1h-17.4l-17.6-66.8
		h16.5l9.4,44.5c0.4,1.9,0.7,4.4,0.9,7.6h0.3c0.1-2.4,0.6-5,1.4-7.8l12.1-44.3h16.1l11,44.9c0.4,1.6,0.8,4,1.1,7.2h0.2
		c0.1-2.5,0.4-4.9,1-7.5l9.2-44.6H203.3z"/>
	<path d="M274.4,379.1H258l-4.8-14.9h-23.8l-4.7,14.9h-16.3l24.3-66.8h17.9L274.4,379.1z M249.8,352.7l-7.2-22.5
		c-0.5-1.7-0.9-3.7-1.1-6h-0.4c-0.2,2-0.5,3.9-1.2,5.8l-7.3,22.7H249.8z"/>
	<path d="M330.1,324.6h-19.1v54.6H296v-54.6h-19v-12.3h53.1V324.6z"/>
	<path d="M395.1,324.6h-19.1v54.6H361v-54.6h-19v-12.3h53.1V324.6z"/>
	<path d="M168.7,493.7h-15.1v-27.2h-27.7v27.2h-15.1v-66.8h15.1v26.7h27.7v-26.7h15.1V493.7z"/>
	<path d="M219.4,494.8c-9.6,0-17.4-3.1-23.4-9.3c-6-6.2-9-14.3-9-24.4c0-10.6,3.1-19.1,9.2-25.6c6.1-6.5,14.2-9.8,24.3-9.8
		c9.5,0,17.3,3.1,23.1,9.4c5.9,6.2,8.8,14.5,8.8,24.7c0,10.5-3.1,19-9.2,25.4C237.2,491.6,229.2,494.8,219.4,494.8z M220,438.7
		c-5.3,0-9.5,2-12.6,5.9c-3.1,4-4.7,9.2-4.7,15.7c0,6.6,1.6,11.9,4.7,15.7c3.1,3.9,7.2,5.8,12.2,5.8c5.2,0,9.3-1.9,12.4-5.6
		c3-3.7,4.6-8.9,4.6-15.6c0-6.9-1.5-12.3-4.4-16.2C229.2,440.6,225.2,438.7,220,438.7z"/>
	<path d="M325.2,464.7c0,20.1-9.4,30.1-28.1,30.1c-18.1,0-27.2-9.8-27.2-29.4v-38.6H285v38.8c0,10.8,4.2,16.2,12.7,16.2
		c8.3,0,12.4-5.2,12.4-15.7v-39.3h15.1V464.7z"/>
	<path d="M402.9,493.7h-17.3l-10.4-17.2c-0.8-1.3-1.5-2.5-2.2-3.5c-0.7-1-1.4-1.9-2.2-2.6c-0.7-0.7-1.5-1.3-2.3-1.7
		c-0.8-0.4-1.7-0.6-2.6-0.6h-4.1v25.6h-15.1v-66.8h23.9c16.2,0,24.3,6.1,24.3,18.2c0,2.3-0.4,4.5-1.1,6.5c-0.7,2-1.7,3.8-3,5.3
		c-1.3,1.6-2.9,3-4.7,4.1c-1.8,1.1-3.9,2.1-6.2,2.7v0.2c1,0.3,2,0.8,2.9,1.5s1.8,1.5,2.7,2.4c0.9,0.9,1.7,1.9,2.5,3
		c0.8,1.1,1.5,2.1,2.2,3.1L402.9,493.7z M361.9,438.1v18.6h6.5c3.2,0,5.8-0.9,7.8-2.8c2-1.9,3-4.2,3-7c0-5.8-3.5-8.8-10.5-8.8H361.9
		z"/>
</g>
</svg>
