<?xml version="1.0" encoding="utf-8"?>
<!-- Generator: Adobe Illustrator 22.1.0, SVG Export Plug-In . SVG Version: 6.00 Build 0)  -->
<svg version="1.1" id="Слой_2_1_" xmlns="http://www.w3.org/2000/svg" xmlns:xlink="http://www.w3.org/1999/xlink" x="0px"
	 y="0px" viewBox="0 0 725.7 725.7" style="enable-background:new 0 0 725.7 725.7;" xml:space="preserve">
<style type="text/css">
	.st0{fill:none;stroke:#000000;stroke-width:5;stroke-miterlimit:10;}
	.st1{fill:none;stroke:#000000;stroke-width:10;stroke-miterlimit:10;}
	.st2{fill:none;stroke:#000000;stroke-width:5;stroke-linecap:round;stroke-miterlimit:10;}
	.st3{fill:none;stroke:#000000;stroke-width:10;stroke-linecap:round;stroke-miterlimit:10;}
</style>
<path class="st0" d="M463,47.9L231,205.1c-7,5-16.3,4.2-20.5-1.8l-1.3-1.8c-4.2-6-1.9-14.9,5.1-19.9l232-157.2
	c7-5,16.3-4.2,20.5,1.8l1.3,1.8C472.4,34,470.1,43,463,47.9z"/>
<path class="st0" d="M208.2,199.4l-3.1-14.7c-0.7-5.9-2.4-10.3,4.7-15.3L444,10.7c7.9-3.3,16.6-2.6,20.6,1.7l1.3,1.8l4.3,19"/>
<path class="st1" d="M631.6,495L129.9,712.2c-13.1,5.9-21.9,7.5-39.6,2.1l0,0c-14.6-7-1.2-15.5,8.8-20.3l503.5-226.6
	c13.1-5.9,38.3-4.6,43.3,11.9l0,0C646.2,485.8,643.5,488.9,631.6,495z"/>
<g>
	<path class="st1" d="M645.8,481.4l-3.9-35.9l0,0c-6.5-15.1-26.3-17.8-39.4-11.9L99,662.8c-8.6,3.4-15.2,8.9-15.2,18"/>
</g>
<polyline class="st1" points="83.8,708.6 83.8,681.6 83.8,680.2 "/>
<line class="st2" x1="225.2" y1="194.6" x2="216.4" y2="609.4"/>
<line class="st2" x1="451.9" y1="40.4" x2="464.1" y2="496.6"/>
<line class="st3" x1="433.6" y1="49.6" x2="441.7" y2="506.8"/>
</svg>
