<?xml version="1.0" encoding="utf-8"?>
<!-- Generator: Adobe Illustrator 22.1.0, SVG Export Plug-In . SVG Version: 6.00 Build 0)  -->
<svg version="1.1" baseProfile="tiny" id="Слой_1"
	 xmlns="http://www.w3.org/2000/svg" xmlns:xlink="http://www.w3.org/1999/xlink" x="0px" y="0px" viewBox="0 0 1451.3 1451.3"
	 xml:space="preserve">
<g>
	<path d="M773.9,1454.2c-30.2,0-60.5,0-90.7,0c-3.6-0.8-7.2-1.8-10.9-2.4c-37.7-5.9-76-9.3-113-17.9
		c-279-64.7-498.7-298.9-545.3-580.3c-4.4-26.5-7.4-53.1-11-79.7c0-30.2,0-60.5,0-90.7c0.8-4.1,1.8-8.2,2.5-12.4
		c5.8-37.2,9.3-75,17.8-111.6C87.7,280.4,322.3,60.4,603.5,13.9c26.4-4.4,53.1-7.4,79.7-11c30.2,0,60.5,0,90.7,0
		c4.1,0.8,8.2,1.8,12.3,2.5c37.2,5.8,75,9.3,111.6,17.8c279,64.8,498.5,298.8,545.3,580.3c4.4,26.5,7.4,53.1,11,79.7
		c0,30.2,0,60.5,0,90.7c-0.8,4.1-1.8,8.2-2.5,12.4c-5.8,37.2-9.3,75-17.8,111.6c-64.6,278.9-298.8,498.5-580.4,545.3
		C827.1,1447.5,800.4,1450.5,773.9,1454.2z M728.1,31.2C342.7,31.4,30.9,343.6,31.2,728.9c0.2,385.4,312.4,697.1,697.7,696.9
		c385.3-0.2,697.1-312.4,696.9-697.7C1425.6,342.8,1113.4,30.9,728.1,31.2z"/>
	<path d="M577.9,260.3c-2.8,7-4,18-8.9,20.1c-5.8,2.5-14.9-2.7-22.5-4.6c0.1-1.6,0.2-3.2,0.3-4.7c-25,12-50,23.9-75,35.9
		c1.4,0.8,2.8,1.6,4.1,2.3c-2.9,7.3-4,18.3-9.2,20.9c-5.3,2.6-14.6-3.3-22.2-5.4c0.2-1.6,0.3-3.3,0.5-4.9
		c-31.8,15.2-63.6,30.4-98.9,47.3c6.7,0.7,9.9,1.3,13.1,1.3c40.2,0.1,80.3,0.4,120.4-0.2c9.5-0.1,18.9-3.4,28.4-4.9
		c3.2-0.5,6.5-0.6,9.7-0.2c10.9,1.6,21.8,5,32.7,5.1c122.3,0.4,244.7,0.3,367,0c7.1,0,14.2-3.2,21.3-4.7c3.2-0.7,7.1-2.4,9.5-1.2
		c26.6,12.6,54.7,4.5,82.1,5.8c30.6,1.4,61.3,0.3,88.4,0.3c2.7-9.6,3.9-18,7.7-25c1-1.8,13.1-1.1,14.5,1.5c3.3,6,3.1,13.9,4.8,23.5
		c15,0,33.6,0.3,52.2-0.3c2.7-0.1,5.8-3.5,7.7-6.1c7.7-10.2,16.3-10.2,24.4-1.1c3.4,3.8,9.2,6.1,14.3,7.3c5.4,1.3,11.3,0,16.9,0.6
		c13.4,1.3,24.3,11.3,25.3,24.6c1.8,23.9,3.7,47.8,3.5,71.7c-0.4,55.1-2.3,110.2-3.1,165.3c-0.5,36.6-0.4,73.2,0.1,109.8
		c0.1,8.1,3.3,16,4.7,24.1c0.6,3.6,0.8,7.4,0.3,11c-1.5,9.5-5,18.9-5,28.3c-0.4,86.4-0.2,172.9-0.2,259.3c0,27.3-9.5,36.9-36.3,36.9
		c-9,0-17.9,0-24.9,3c-6.1,5.6-11.9,14.9-18.6,15.5c-5.2,0.5-11.5-9.7-17.3-15.1c0.8-1,1.5-2,2.3-3c-94.4,0-188.8,0-280.1,0
		c-3.8,8.5-6.1,16-10.6,22c-1.5,2-10.9,1.6-12.6-0.7c-3.9-5.3-5.3-12.4-8.5-20.8c-98.8,0-201,0-300.3,0c-2.8,7.9-4.1,15.6-8.2,21.3
		c-1.7,2.3-12,2.4-13.6,0.1c-4-5.7-5.3-13.3-8.4-22.2c-43.4,0-90.1-0.1-136.8,0.3c-2.8,0-6.2,4.1-8.1,7.1
		c-6.9,10.6-19.6,11.3-24.4-0.2c-3.4-8.3-8.5-7.2-14.4-7.2c-54.8,0-109.6,0-164.4,0c-24.3,0-34.6-10.2-34.7-34.3
		c-0.1-20.3,0.3-40.6-0.2-60.9c-0.1-6.4-2.3-12.7-3.6-19c-0.5-2.3-1.8-4.8-1.2-6.8c10.7-37.1,3.3-74.9,4.7-112.3
		c1.3-35.9,0.5-71.8,0.1-107.7c-0.1-8.7-3.5-17.4-3.6-26.1c-0.1-7.7,3.3-15.3,3.6-23c0.6-17,0.2-34,0.2-51c0-37.3,0-74.6,0-108.2
		c-9.4-2-17.7-2.6-24.6-6c-2.1-1-2.2-13.2,0.1-14.6c6.2-3.6,14.2-4.1,21.5-5.8c0.7,1.3,1.4,2.6,2.2,3.9c0.3-3.9,0.8-7.8,0.8-11.7
		c0.1-38.3-0.1-76.5,0.1-114.8c0.1-22.3,10.6-32.7,33.1-33c15.6-0.1,31.4-1.7,46.7,0.3c38.1,5.1,69.7-10.6,98.7-27.4
		c-1.3-8.4-3.9-16-2.8-23c0.4-2.8,10.5-7.4,13.5-5.9c5.7,2.9,9.5,9.6,16,16.8c89.8-43,182.7-87.4,276.3-132.3
		c-4.9-9.6-9.9-19.8,2.6-25.7c11.5-5.5,17.2,2.6,21,13.4c4.3-1.7,8.1-3,11.8-4.7c39.6-18.9,79.2-37.8,118.7-56.9
		c7.7-3.7,15.8-7.3,20.8,2.5c5.1,10.1-3.1,14.3-10.6,17.9c-18.3,8.8-36.9,17-54.7,26.6c-6.9,3.7-12,10.7-18.5,15.5
		c-3.9,2.9-8.6,5.1-13.3,6.3c-7.8,2-16.6,1.3-23.7,4.6c-39,18-77.5,36.9-116.2,55.5c-4.2,2-8.3,4.2-12.4,6.3
		C575.5,258.9,576.7,259.6,577.9,260.3z M1257.6,1070.8c0-225.1,0-449.2,0-673c-354.5,0-708,0-1061.3,0c0,224.9,0,448.6,0,673
		C550.2,1070.8,903.4,1070.8,1257.6,1070.8z"/>
	<path d="M745.8,318.7c-5.6,3.5-11.8,10.3-16.7,9.6c-5.4-0.8-12.7-8.2-13.7-13.8c-1.6-8.9,5.6-15.8,14.8-13.9
		c5.8,1.2,10.6,7.6,15.9,11.6C746,314.4,745.9,316.6,745.8,318.7z"/>
	<path d="M549.6,193.6c3.7,5.1,10.6,10.4,10.2,15.1c-0.4,5-7.7,12.8-12.2,13c-4.5,0.2-12.3-7.2-13-12.1c-0.7-4.7,5.8-10.4,9.2-15.7
		C545.6,193.8,547.6,193.7,549.6,193.6z"/>
	<path d="M950.7,1306.1c-5.3,3.2-11.2,9.6-15.9,8.8c-5-0.8-8.8-8.4-13.2-13c4.7-4.3,9.1-11.5,14.2-11.9c4.7-0.4,10.1,6.4,15.1,10
		C950.9,1302,950.8,1304,950.7,1306.1z"/>
	<path d="M744.1,243.5c-5.1,3.7-10.5,10.6-15.2,10.1c-5-0.5-12.9-7.8-13-12.3c-0.1-4.5,7.3-12.3,12.3-13c4.7-0.7,10.4,5.9,15.7,9.3
		C744,239.5,744.1,241.5,744.1,243.5z"/>
	<path d="M688.7,247c-5.1,3.6-10.5,10.4-15.1,9.9c-5-0.5-12.6-7.9-12.7-12.5c-0.1-4.5,7.3-12.2,12.3-12.9c4.6-0.7,10.3,6,15.5,9.4
		C688.7,243,688.7,245,688.7,247z"/>
	<path d="M1053.4,1256.6c-5,3.7-10.4,10.5-15.1,10.1c-5-0.4-9.5-7.7-14.2-11.9c4.3-4.6,8.2-12.2,13.1-13c4.7-0.8,10.6,5.6,15.9,8.8
		C1053.3,1252.5,1053.4,1254.6,1053.4,1256.6z"/>
	<path d="M408,1239.3c-5.3,3.3-11.1,9.8-15.7,9.1c-4.9-0.8-12.2-8.7-12-13.2c0.2-4.5,8-11.7,13-12.2c4.6-0.4,9.9,6.6,14.9,10.3
		C408.2,1235.3,408.1,1237.3,408,1239.3z"/>
	<path d="M1132.9,1172.5c3.3,5.3,9.8,11,9.2,15.7c-0.7,5-8.2,9-12.7,13.5c-4.4-4.6-11.7-8.9-12.2-13.9c-0.5-4.7,6.2-10.2,9.7-15.3
		C1128.8,1172.4,1130.8,1172.4,1132.9,1172.5z"/>
	<path d="M1139.9,299.1c-3.6-5.1-10.5-10.5-10.1-15.2c0.5-5,7.9-9.3,12.3-13.9c4.6,4.4,12.2,8.3,13,13.3c0.7,4.7-5.9,10.4-9.3,15.7
		C1143.8,299,1141.8,299.1,1139.9,299.1z"/>
	<path d="M944.6,307.5c-3.5-5.2-10.2-10.7-9.6-15.4c0.6-5,7.9-9.2,12.3-13.8c4.5,4.5,12.1,8.5,12.7,13.5c0.6,4.7-6,10.3-9.4,15.6
		C948.7,307.5,946.7,307.5,944.6,307.5z"/>
	<path d="M556.8,1254.5c-5.2,3.4-10.9,10-15.6,9.4c-5-0.6-9.1-8.1-13.6-12.6c4.6-4.4,8.8-11.8,13.8-12.4c4.7-0.5,10.3,6.1,15.5,9.5
		C556.9,1250.5,556.9,1252.5,556.8,1254.5z"/>
	<path d="M603.5,1215.7c-5.2,3.5-10.7,10.2-15.3,9.6c-4.9-0.6-12.5-8.2-12.4-12.7c0-4.5,7.6-12,12.5-12.6c4.6-0.6,10.2,6.2,15.3,9.7
		C603.5,1211.6,603.5,1213.6,603.5,1215.7z"/>
	<path d="M984.9,1207.6c3.3,5.3,9.8,11.1,9,15.7c-0.8,4.9-8.6,12.1-13.2,12c-4.5-0.1-11.7-8-12.1-13c-0.4-4.6,6.5-9.9,10.2-14.9
		C980.9,1207.5,982.9,1207.6,984.9,1207.6z"/>
	<path d="M538,167.4c-3.5-5.1-10.2-10.7-9.6-15.3c0.7-5,8.2-12.5,12.7-12.5c4.5,0,12,7.6,12.6,12.5c0.6,4.6-6.1,10.2-9.6,15.3
		C542,167.4,540,167.4,538,167.4z"/>
	<path d="M878.2,1248.3c3.7,5.1,10.7,10.4,10.3,15.1c-0.4,5-7.7,12.9-12.2,13.1c-4.5,0.2-12.3-7.2-13.1-12.2
		c-0.7-4.7,5.8-10.5,9.2-15.8C874.3,1248.5,876.2,1248.4,878.2,1248.3z"/>
	<path d="M507.5,1293.3c-5.3,3.3-11,9.9-15.6,9.1c-4.9-0.8-12.2-8.6-12.1-13.1c0.2-4.5,8-11.7,13-12.2c4.6-0.4,9.9,6.5,14.9,10.2
		C507.6,1289.2,507.6,1291.3,507.5,1293.3z"/>
	<path d="M964.4,227c-5,3.7-10.3,10.6-15,10.2c-5-0.4-9.4-7.8-14.1-12.1c4.3-4.7,8.1-12.2,13.1-13.1c4.6-0.8,10.4,5.7,15.7,8.9
		C964.3,223,964.4,225,964.4,227z"/>
	<path d="M124.9,663c-3.6-5.1-10.4-10.6-9.9-15.2c0.6-4.9,8.1-12.5,12.6-12.6c4.5-0.1,12.2,7.4,12.8,12.3c0.6,4.6-6.1,10.2-9.6,15.4
		C128.8,662.9,126.8,663,124.9,663z"/>
	<path d="M728.1,1340.2c-5.1,3.6-10.6,10.3-15.2,9.8c-4.9-0.5-12.6-8-12.6-12.5c0-4.5,7.4-12.1,12.3-12.8c4.6-0.6,10.3,6,15.5,9.5
		C728.1,1336.2,728.1,1338.2,728.1,1340.2z"/>
	<path d="M141.1,857c3.8,5,10.8,10.3,10.4,15c-0.4,5-7.6,12.9-12.1,13.1c-4.5,0.2-12.4-7.1-13.2-12c-0.7-4.7,5.7-10.6,9.1-15.9
		C137.2,857.1,139.1,857,141.1,857z"/>
	<path d="M749.4,120.9c-8.8,6.9-13.2,12.9-18.6,14c-8.5,1.7-15.3-4.4-13.6-13c1-5.2,7.6-12.1,12.5-12.8
		C734.4,108.5,740,114.9,749.4,120.9z"/>
	<path d="M365,1136.5c-5.2,3.4-10.8,10-15.5,9.4c-4.9-0.7-12.4-8.3-12.3-12.8c0.1-4.5,7.7-12,12.6-12.5c4.7-0.5,10.1,6.3,15.2,9.9
		C365.1,1132.6,365,1134.5,365,1136.5z"/>
	<path d="M278.8,343.2c-5.1,3.6-10.6,10.4-15.3,9.9c-5-0.5-9.2-8-13.8-12.4c4.4-4.6,8.4-12.1,13.4-12.8c4.6-0.7,10.3,5.9,15.6,9.3
		C278.7,339.2,278.7,341.2,278.8,343.2z"/>
	<path d="M666.5,1281c-5,3.7-10.3,10.6-14.9,10.2c-5-0.5-12.8-7.7-13-12.2c-0.1-4.5,7.1-12.3,12.1-13.1c4.6-0.8,10.4,5.8,15.7,9.1
		C666.4,1277,666.5,1279,666.5,1281z"/>
	<path d="M340,276.1c-3.3-5.3-9.7-11.1-9-15.8c0.8-5,8.4-8.8,13-13.2c4.3,4.7,11.7,9.1,12.1,14.1c0.4,4.7-6.5,10.1-10.2,15.1
		C344,276.2,342,276.2,340,276.1z"/>
	<path d="M1046.1,337.8c3.3,5.3,9.7,11.1,8.9,15.7c-0.8,4.9-8.6,12.3-13,12.1c-4.5-0.2-11.7-8.1-12.2-13.1c-0.4-4.7,6.5-10,10.2-15
		C1042.1,337.6,1044.1,337.7,1046.1,337.8z"/>
	<path d="M857.6,332.4c-5,3.7-10.4,10.5-15.1,10.1c-5-0.4-9.5-7.7-14.2-11.9c4.3-4.6,8.2-12.2,13.1-13c4.7-0.8,10.5,5.6,15.9,8.8
		C857.5,328.4,857.6,330.4,857.6,332.4z"/>
	<path d="M302.1,1180c-3.5-5.1-10.3-10.5-9.8-15.2c0.5-5,7.8-9.3,12.2-13.9c4.6,4.4,12.1,8.3,12.8,13.3c0.7,4.7-5.7,10.4-9.1,15.7
		C306.2,1179.9,304.1,1179.9,302.1,1180z"/>
	<path d="M436.9,1218.1c-3.8-5-10.7-10.3-10.4-15c0.4-5,7.6-12.9,12.1-13.1c4.5-0.2,12.4,7.1,13.2,12c0.8,4.7-5.7,10.5-9,15.8
		C440.8,1217.9,438.9,1218,436.9,1218.1z"/>
	<path d="M1049.8,264.3c3.7,5,10.5,10.3,10.2,15c-0.4,5-7.6,9.5-11.8,14.2c-4.7-4.3-12.3-8-13.1-12.9c-0.8-4.7,5.5-10.5,8.7-15.9
		C1045.8,264.5,1047.8,264.4,1049.8,264.3z"/>
	<path d="M667.1,129.4c-5,3.7-10.3,10.6-15,10.2c-5-0.4-9.4-7.7-14.1-12c4.3-4.7,8.1-12.4,13.1-13.2c4.6-0.8,10.5,5.7,15.8,9
		C666.9,125.4,667,127.4,667.1,129.4z"/>
	<path d="M858.1,136.1c-5.3,3.2-11.1,9.6-15.8,8.9c-4.9-0.8-12.3-8.6-12-13c0.2-4.5,8.1-11.7,13-12.1c4.7-0.4,10,6.5,15,10.2
		C858.3,132.1,858.2,134.1,858.1,136.1z"/>
	<path d="M924,1178.8c3.5,5.1,10.3,10.6,9.7,15.2c-0.6,5-8.1,12.6-12.5,12.6c-4.5,0-12.1-7.5-12.7-12.5c-0.6-4.6,6.1-10.2,9.5-15.4
		C919.9,1178.8,921.9,1178.8,924,1178.8z"/>
	<path d="M1313,585.9c-3.2-5.3-9.6-11.1-8.8-15.8c0.8-4.9,8.4-8.8,13-13.1c4.3,4.7,11.6,9.1,12,14c0.4,4.7-6.5,10-10.1,15.1
		C1317,586.1,1315,586,1313,585.9z"/>
	<path d="M460.1,259.6c-5,3.6-10.4,10.4-15.1,9.9c-5-0.5-9.4-7.7-14-12c4.3-4.6,8.2-12.2,13.2-13c4.7-0.7,10.4,5.7,15.7,9
		C460,255.5,460.1,257.6,460.1,259.6z"/>
	<path d="M1314.2,890.5c3.7,5,10.6,10.2,10.3,14.9c-0.4,4.9-7.5,12.8-12,13c-4.5,0.2-12.4-7-13.2-11.9c-0.8-4.7,5.7-10.5,9-15.8
		C1310.2,890.6,1312.2,890.5,1314.2,890.5z"/>
	<path d="M615.4,1327.7c-5.3,3.2-11.2,9.7-15.8,8.9c-4.9-0.9-12.2-8.7-11.9-13.2c0.2-4.5,8.2-11.6,13.2-12
		c4.6-0.4,9.9,6.6,14.8,10.4C615.6,1323.7,615.5,1325.7,615.4,1327.7z"/>
	<path d="M856.5,192.9c-5,3.7-10.4,10.5-15,10.1c-5-0.5-12.8-7.8-12.9-12.3c-0.1-4.5,7.2-12.2,12.2-13c4.6-0.7,10.3,5.8,15.6,9.1
		C856.4,188.8,856.4,190.8,856.5,192.9z"/>
	<path d="M966.8,166.6c-5.1,3.5-10.6,10.2-15.2,9.6c-5-0.6-12.6-8-12.6-12.4c0-4.5,7.5-12.1,12.4-12.7c4.6-0.6,10.2,6,15.4,9.5
		C966.8,162.6,966.8,164.6,966.8,166.6z"/>
	<path d="M421.6,194.7c5-3.7,10.2-10.5,14.9-10.2c5,0.4,9.5,7.6,14.2,11.8c-4.3,4.7-8,12.3-12.9,13.2c-4.6,0.8-10.5-5.5-15.9-8.6
		C421.8,198.9,421.7,196.8,421.6,194.7z"/>
	<path d="M1351.4,685.2c-5.2,3.4-10.9,9.9-15.5,9.2c-4.9-0.7-9-8.1-13.4-12.6c4.5-4.4,8.7-11.8,13.7-12.4c4.7-0.5,10.2,6.2,15.3,9.7
		C1351.5,681.1,1351.5,683.1,1351.4,685.2z"/>
	<path d="M714.9,1235.4c-5.2,3.3-10.9,9.8-15.5,9.1c-5-0.7-9-8.2-13.4-12.7c4.6-4.4,8.8-11.8,13.8-12.3c4.7-0.5,10.1,6.2,15.2,9.8
		C714.9,1231.3,714.9,1233.4,714.9,1235.4z"/>
	<path d="M1338,779.9c3.2,5.3,9.6,11.1,8.8,15.7c-0.9,4.9-8.6,12.2-13.1,12c-4.5-0.2-11.7-8.1-12.1-13c-0.4-4.7,6.5-9.9,10.3-15
		C1334,779.7,1336,779.8,1338,779.9z"/>
	<path d="M670.2,1156.6c-3.3-5.3-9.7-11.1-8.9-15.7c0.9-4.9,8.6-12.1,13.2-12c4.4,0.2,11.5,8.1,12,13.1c0.4,4.6-6.5,9.9-10.1,14.9
		C674.3,1156.8,672.3,1156.7,670.2,1156.6z"/>
	<path d="M822.3,1345.8c-3.4-5.2-9.9-10.9-9.2-15.6c0.7-4.9,8.4-12.4,12.8-12.2c4.5,0.1,11.9,7.8,12.4,12.7
		c0.5,4.7-6.4,10.1-10,15.2C826.3,1345.9,824.3,1345.8,822.3,1345.8z"/>
	<path d="M481.4,1184.2c-3.7-5-10.5-10.4-10.1-15.1c0.4-5,7.8-9.3,12.1-13.9c4.6,4.3,12.2,8.2,12.9,13.1c0.7,4.7-5.7,10.4-8.9,15.7
		C485.4,1184.1,483.4,1184.2,481.4,1184.2z"/>
	<path d="M138.2,764.2c-5.3,3.3-11.1,9.7-15.7,9c-4.9-0.8-12.1-8.5-12-13c0.1-4.4,8-11.6,13-12c4.7-0.4,10,6.4,15,10
		C138.4,760.2,138.3,762.2,138.2,764.2z"/>
	<path d="M784,1156.6c-3.5-5.1-10.1-10.7-9.5-15.3c0.6-5,8.1-12.5,12.6-12.6c4.4,0,11.9,7.6,12.5,12.5c0.6,4.6-6,10.2-9.4,15.3
		C788,1156.6,786,1156.6,784,1156.6z"/>
	<path d="M1016.6,1154c-3.5-5.1-10.2-10.6-9.6-15.3c0.6-5,8-9.1,12.5-13.6c4.5,4.5,11.9,8.5,12.6,13.5c0.6,4.6-5.9,10.2-9.3,15.4
		C1020.7,1154,1018.6,1154,1016.6,1154z"/>
	<path d="M1049.9,230c-3.5-5.1-10.2-10.5-9.7-15.2c0.5-5,7.9-9.2,12.2-13.8c4.6,4.4,12.1,8.3,12.8,13.3c0.7,4.6-5.9,10.3-9.2,15.5
		C1054,229.9,1051.9,230,1049.9,230z"/>
	<path d="M632.3,332.7c-5,3.6-10.3,10.5-14.9,10.1c-5-0.4-9.4-7.7-14-11.9c4.3-4.7,8-12.3,13-13.1c4.6-0.8,10.5,5.6,15.8,8.8
		C632.1,328.6,632.2,330.7,632.3,332.7z"/>
	<path d="M827.8,1229.2c-5.2,3.3-10.9,9.8-15.6,9.1c-4.9-0.7-8.9-8.3-13.2-12.8c4.6-4.4,8.8-11.7,13.8-12.2
		c4.6-0.5,10.1,6.2,15.1,9.8C827.9,1225.1,827.8,1227.2,827.8,1229.2z"/>
	<path d="M856.2,257.5c-5.3,3.3-11,9.7-15.6,9c-4.9-0.8-8.8-8.3-13.1-12.9c4.6-4.3,8.9-11.6,13.9-12.1c4.6-0.5,10,6.3,15,9.9
		C856.3,253.4,856.2,255.4,856.2,257.5z"/>
	<path d="M767.3,1267.4c3.4,5.2,10,10.8,9.3,15.4c-0.7,5-8.1,9-12.6,13.4c-4.4-4.5-11.9-8.7-12.4-13.6c-0.5-4.7,6.1-10.1,9.7-15.3
		C763.3,1267.4,765.3,1267.4,767.3,1267.4z"/>
	<path d="M1091.3,1164.4c-5.2,3.3-10.9,9.8-15.6,9.1c-4.9-0.8-8.9-8.3-13.2-12.8c4.6-4.4,8.8-11.7,13.8-12.2
		c4.6-0.5,10,6.3,15.1,9.8C1091.4,1160.3,1091.4,1162.4,1091.3,1164.4z"/>
	<path d="M776.7,734.1c0,135.4-113.1,246.7-250.7,246.7c-136.2,0-248.2-112.6-248.2-249.5c0-137,111.8-249.4,248.1-249.4
		C666,481.9,776.7,593.2,776.7,734.1z M748.3,731.8c0.2-121.9-98.4-221.3-219.8-221.6c-122.8-0.3-222.2,98.2-222.4,220.5
		C306,852.6,404.5,951.9,526,952.4C648.5,952.9,748.1,854,748.3,731.8z"/>
	<path d="M927,588c0.2-59.1,46.4-106.1,104.3-106.1c58.4,0,105.5,46.9,105.4,105c-0.1,58.1-47.4,104.9-105.8,104.7
		C974.4,691.4,926.8,643.9,927,588z M1031.6,510.2c-42.2,0.1-76.4,34.4-76.4,76.6c0.1,41.5,34.1,76.1,75.2,76.4
		c43.1,0.3,77.9-33.9,77.8-76.6C1108.3,544.6,1073.8,510.2,1031.6,510.2z"/>
	<path d="M1036.1,978c-27.3,0-54.7-0.2-82,0.1c-11.1,0.1-20.1-2.5-21.3-15.2c-1-10.1,7.3-16,21.8-16c54.2-0.1,108.4-0.1,162.7,0
		c14.6,0,22.9,5.7,22,15.8c-1.2,13.7-11.1,15.5-22.5,15.4C1089.9,977.8,1063,978,1036.1,978z"/>
	<path d="M1036.1,898.6c-26.9,0-53.7-0.2-80.6,0.1c-11.4,0.1-21.3-1.6-22.6-15.3c-0.9-10.1,7.3-15.9,21.9-15.9
		c54.2-0.1,108.4-0.1,162.7,0c14.6,0,22.8,5.8,21.9,15.9c-1.3,13.7-11.2,15.5-22.6,15.3C1089.8,898.4,1062.9,898.6,1036.1,898.6z"/>
	<path d="M1034.6,819.2c-26.9,0-53.7-0.2-80.6,0.1c-11.2,0.1-20.7-2.7-20.9-15.4c-0.2-12.6,9-16,20.4-15.9
		c55.2,0.2,110.3,0.2,165.5,0c11.4,0,20.5,3.5,20.2,16.1c-0.3,12.7-9.9,15.3-21.1,15.2C1090.2,819,1062.4,819.2,1034.6,819.2z"/>
	<path d="M527,847.5c-65.3,0.2-118.5-53.1-118.7-119c-0.3-65.3,53.3-119.2,118.5-119.1c66.1,0.1,119.3,52.7,119.6,118.2
		C646.6,793.9,593.4,847.3,527,847.5z M617.9,729.4c0.3-50.3-40-91.2-90.1-91.6c-50-0.4-91.2,40.4-91.3,90.4
		c-0.1,49.6,40.1,90.4,89.4,90.9C576.2,819.6,617.6,779.2,617.9,729.4z"/>
</g>
</svg>
