<svg height="480pt" viewBox="0 0 480 480" width="480pt" xmlns="http://www.w3.org/2000/svg"><path d="m240 0c-132.546875 0-240 107.453125-240 240s107.453125 240 240 240 240-107.453125 240-240c-.148438-132.484375-107.515625-239.851562-240-240zm0 464c-123.710938 0-224-100.289062-224-224s100.289062-224 224-224 224 100.289062 224 224c-.140625 123.652344-100.347656 223.859375-224 224zm0 0"/><path d="m340.199219 137.191406c-2.355469-1.453125-5.296875-1.589844-7.773438-.351562l-188.425781 94.214844v-87.054688c0-4.417969-3.582031-8-8-8s-8 3.582031-8 8v192c0 4.417969 3.582031 8 8 8s8-3.582031 8-8v-87.054688l188.425781 94.253907c2.484375 1.242187 5.4375 1.105469 7.800781-.363281 2.359376-1.46875 3.789063-4.054688 3.773438-6.835938v-192c0-2.773438-1.4375-5.351562-3.800781-6.808594zm-12.199219 185.863282-166.113281-83.054688 166.113281-83.054688zm0 0"/></svg>