<?xml version="1.0" encoding="utf-8"?>
<!-- Generator: Adobe Illustrator 22.1.0, SVG Export Plug-In . SVG Version: 6.00 Build 0)  -->
<svg version="1.1" id="Слой_1" xmlns="http://www.w3.org/2000/svg" xmlns:xlink="http://www.w3.org/1999/xlink" x="0px" y="0px"
	 viewBox="0 0 725.7 725.7" style="enable-background:new 0 0 725.7 725.7;" xml:space="preserve">
<style type="text/css">
	.st0{fill:none;stroke:#000000;stroke-width:10;stroke-miterlimit:10;}
</style>
<ellipse class="st0" cx="366.3" cy="445.6" rx="299.3" ry="173.7"/>
<ellipse class="st0" cx="366.3" cy="456.4" rx="221.8" ry="125.1"/>
<path class="st0" d="M567.2,316.8l-7.4-51.1c-0.7-4.5-4.5-7.8-9.1-7.8h-10.3c-5.3,0-9.7-4.3-9.7-9.7v-40.2
	c0-56.9-70.8-103.1-158.2-103.1s-158.2,46.2-158.2,103.1L195,264.9c-1.4,4.1-5.3,6.9-9.7,6.9h-10.7c-4,0-7.5,2.7-8.4,6.6l-10.5,43.6
	"/>
<path class="st0" d="M665,456.4l47.5,53.4c3,3.4,8.7,1.2,8.6-3.4l-1.4-44.7c-0.1-3.5-1.5-6.8-3.8-9.3l-153-165.1"/>
<path class="st0" d="M562.9,265.8c8.9,0,16.2,7.3,16.2,16.2c0,8.9-7.3,16.2-16.2,16.2"/>
<path class="st0" d="M562.9,271.9c8.9,0,20.5,7.3,20.5,16.2c0,8.9-7.3,16.2-16.2,16.2"/>
<path class="st0" d="M73.1,480.6l-38,48.3c-4.1,5.2-12.3,3.7-14.3-2.5L8.5,488.6c-1.9-5.9-0.7-12.4,3.2-17.3l153.5-188.7"/>
<line class="st0" x1="214.4" y1="208.1" x2="214.1" y2="296"/>
<line class="st0" x1="529.4" y1="195" x2="530.5" y2="300.3"/>
</svg>
