<?xml version="1.0" encoding="utf-8"?>
<!-- Generator: Adobe Illustrator 22.1.0, SVG Export Plug-In . SVG Version: 6.00 Build 0)  -->
<svg version="1.1" id="Слой_1" xmlns="http://www.w3.org/2000/svg" xmlns:xlink="http://www.w3.org/1999/xlink" x="0px" y="0px"
	 viewBox="0 0 725.7 725.7" style="enable-background:new 0 0 725.7 725.7;" xml:space="preserve">
<style type="text/css">
	.st0{fill:none;stroke:#000000;stroke-width:10;stroke-miterlimit:10;}
</style>
<image style="display:none;overflow:visible;enable-background:new    ;" width="464" height="464" xlink:href="64CDFF1A.jpg"  transform="matrix(1.5639 0 0 1.5639 0 -2.018484e-05)">
</image>
<path class="st0" d="M720,356.5c0,41.5-159.3,75.2-355.9,75.2S8.2,398.1,8.2,356.5"/>
<path class="st0" d="M8.2,363.1c0-35.1,159.3-63.7,355.9-63.7S720,328,720,363.1"/>
<path class="st0" d="M18.3,285.8c0-34.3,155.5-62.2,347.4-62.2s347.4,27.8,347.4,62.2"/>
<path class="st0" d="M720,356.5v-43.9c0-35.1-159.3-63.7-355.9-63.7S8.2,277.4,8.2,312.6v43.9"/>
<g>
	<path d="M269.9,630.2c0,10.4-1.7,20-5.1,28.8c-3.4,8.8-8.1,16.3-14,22.7c-6,6.4-13.1,11.3-21.3,14.8c-8.3,3.5-17.2,5.3-26.9,5.3
		c-10.7,0-20.4-2.2-28.9-6.7c-8.5-4.5-15.7-10.9-21.6-19.3c-5.9-8.4-10.4-18.7-13.5-30.8c-3.1-12.1-4.6-25.8-4.6-41
		c0-18.6,2.1-35.5,6.2-50.7c4.1-15.2,10-28.1,17.6-38.9c7.6-10.8,16.8-19.1,27.5-25c10.7-5.9,22.7-8.8,36-8.8
		c14.7,0,26.6,2,35.5,6.1v23.1c-11-5.7-22.7-8.5-34.9-8.5c-9.5,0-18.2,2.1-25.8,6.4c-7.7,4.3-14.2,10.3-19.7,18.1
		c-5.5,7.8-9.7,17.2-12.6,28.3c-2.9,11-4.4,23.3-4.4,36.9h0.6c9.8-17.8,26.1-26.7,48.8-26.7c9.3,0,17.8,1.6,25.3,4.8
		c7.5,3.2,13.9,7.7,19.2,13.5c5.3,5.8,9.4,12.8,12.3,20.8C268.4,611.4,269.9,620.4,269.9,630.2z M244.8,633.4
		c0-7.5-0.9-14.2-2.8-20.1c-1.9-6-4.6-11-8.1-15.2c-3.5-4.2-7.9-7.4-13.1-9.6c-5.2-2.2-11-3.4-17.6-3.4c-6.1,0-11.7,1.1-16.9,3.4
		c-5.2,2.3-9.6,5.4-13.4,9.3c-3.8,3.9-6.7,8.5-8.9,13.7c-2.1,5.2-3.2,10.8-3.2,16.6c0,7.4,1,14.2,3.1,20.7c2.1,6.4,5,12,8.8,16.8
		c3.8,4.8,8.3,8.5,13.5,11.3c5.2,2.7,11,4.1,17.4,4.1c6.2,0,11.8-1.2,16.9-3.5c5.1-2.3,9.4-5.6,13-9.8s6.4-9.2,8.4-15
		C243.8,646.9,244.8,640.4,244.8,633.4z"/>
	<path d="M426.7,632.8c0,10.4-1.8,19.9-5.4,28.3c-3.6,8.5-8.7,15.7-15.3,21.8c-6.6,6.1-14.6,10.7-23.9,14
		c-9.4,3.3-19.7,4.9-31.2,4.9c-19.9,0-34.7-3-44.3-9v-26c14.5,9.3,29.4,14,44.6,14c7.8,0,14.7-1.1,21-3.4c6.2-2.3,11.5-5.5,15.9-9.5
		c4.4-4.1,7.7-9,10.1-14.8c2.3-5.8,3.5-12.1,3.5-18.9c0-13.9-4.7-24.8-14-32.7c-9.4-7.9-22.9-11.9-40.7-11.9c-2.9,0-5.9,0.1-9.1,0.1
		c-3.2,0.1-6.4,0.2-9.5,0.4c-3.2,0.1-6.3,0.3-9.3,0.5c-3,0.2-5.8,0.4-8.3,0.7l7.3-107.3h98.9v22.1h-77.7l-4.3,62.8
		c3.2-0.2,6.6-0.4,10.1-0.5c3.6-0.1,6.8-0.2,9.5-0.2c11.3,0,21.5,1.5,30.4,4.5c9,3,16.5,7.2,22.8,12.8c6.2,5.5,10.9,12.3,14.2,20.3
		C425.1,613.9,426.7,622.8,426.7,632.8z"/>
	<path d="M599,590.3c0,17.9-1.6,33.8-4.8,47.6c-3.2,13.8-7.9,25.5-14,35c-6.1,9.5-13.6,16.7-22.5,21.6c-8.9,4.9-19,7.4-30.4,7.4
		c-10.7,0-20.3-2.4-28.7-7.1c-8.4-4.7-15.5-11.6-21.3-20.7c-5.8-9-10.1-20.2-13.1-33.3c-3-13.2-4.5-28.3-4.5-45.3
		c0-18.7,1.6-35.2,4.7-49.5s7.7-26.3,13.8-36c6.1-9.7,13.6-17,22.6-21.9c9-4.9,19.3-7.4,31-7.4C576.6,480.6,599,517.2,599,590.3z
		 M573.9,592.6c0-60.9-14.5-91.3-43.4-91.3c-30.5,0-45.8,31-45.8,92.9c0,57.8,15,86.7,44.9,86.7C559.2,681,573.9,651.5,573.9,592.6z
		"/>
</g>
<line class="st0" x1="18.3" y1="285.8" x2="15.7" y2="299.5"/>
<line class="st0" x1="713.1" y1="285.8" x2="715.7" y2="302.7"/>
</svg>
