<?xml version="1.0" encoding="utf-8"?>
<!-- Generator: Adobe Illustrator 22.1.0, SVG Export Plug-In . SVG Version: 6.00 Build 0)  -->
<svg version="1.1" baseProfile="tiny" id="Слой_1"
	 xmlns="http://www.w3.org/2000/svg" xmlns:xlink="http://www.w3.org/1999/xlink" x="0px" y="0px" viewBox="0 0 725.7 725.7"
	 xml:space="preserve">
<g>
	<path fill="none" stroke="#000000" stroke-width="10" stroke-miterlimit="10" d="M92.9,635.9v18.8c0,12.7,48,23,107.3,23
		s107.3-10.3,107.3-23v-18.8"/>
	<ellipse fill="none" stroke="#000000" stroke-width="10" stroke-miterlimit="10" cx="244.4" cy="635.9" rx="14" ry="2.8"/>
	<ellipse fill="none" stroke="#000000" stroke-width="10" stroke-miterlimit="10" cx="244.4" cy="633.1" rx="14" ry="2.8"/>
	<path fill="none" stroke="#000000" stroke-width="10" stroke-miterlimit="10" d="M200.2,612.9c-11.4,0-22.5,0.4-32.8,1.1V75.4h-27
		v541.4c-28.6,4.1-47.5,11.1-47.5,19.1c0,12.7,48,23,107.3,23c59.3,0,107.3-10.3,107.3-23C307.5,623.2,259.5,612.9,200.2,612.9z"/>
	<polyline fill="none" stroke="#000000" stroke-width="10" stroke-miterlimit="10" points="140.4,616.8 140.4,635.9 167.4,635.9 
		167.4,614 	"/>
	<path fill="none" stroke="#000000" stroke-width="10" stroke-miterlimit="10" d="M696,61.5H63c0-2.1,0-4.2,0-6.4c0,0,0-0.1,0-0.1
		c0-2.3,0-4.7,0-7c211,0,422,0,633,0V61.5z"/>
	<line fill="none" stroke="#000000" stroke-width="10" stroke-miterlimit="10" x1="145.4" y1="61.5" x2="145.4" y2="75.4"/>
	<line fill="none" stroke="#000000" stroke-width="10" stroke-miterlimit="10" x1="162.4" y1="61.5" x2="162.4" y2="75.4"/>
	<path fill="none" stroke="#000000" stroke-width="10" stroke-miterlimit="10" d="M92.8,127.3c5.1-3.1,28.9-24.1,46.9-26.6"/>
	<path fill="none" stroke="#000000" stroke-width="10" stroke-miterlimit="10" d="M60.8,54.2c-27.4,12.2-37.5,44-27.1,61.8
		c12.3,21,48,18.3,59.1,11.3"/>
</g>
</svg>
