<?xml version="1.0" encoding="utf-8"?>
<!-- Generator: Adobe Illustrator 22.1.0, SVG Export Plug-In . SVG Version: 6.00 Build 0)  -->
<svg version="1.1" id="Слой_1" xmlns="http://www.w3.org/2000/svg" xmlns:xlink="http://www.w3.org/1999/xlink" x="0px" y="0px"
	 viewBox="0 0 725.7 725.7" style="enable-background:new 0 0 725.7 725.7;" xml:space="preserve">
<style type="text/css">
	.st0{fill:none;stroke:#000000;stroke-width:10;stroke-miterlimit:10;}
	.st1{fill:none;stroke:#000000;stroke-width:5;stroke-miterlimit:10;}
</style>
<image style="display:none;overflow:visible;" width="500" height="500" xlink:href="5D433076.jpg"  transform="matrix(2.0967 0 0 2.0967 -147.0488 -159.3307)">
</image>
<path class="st0" d="M580.2,652c0,11.6-7.7,21.7-18.8,25c-59.3,17.2-120.3,17.2-181.4,17.2c-63.3,0-128.4,0-192.3-17.7
	c-10.9-3-18.5-12.9-18.5-24.2V52.2c0-11.9,8.2-22.2,19.8-25C251.5,12.1,312.2,9,374.7,9c63.6,0,130.3,3.1,192.4,18.8
	c7.7,1.9,13,8.8,13,16.7V652z"/>
<path class="st0" d="M374.7,410L374.7,410c-2.4,0-4.4-2-4.4-4.4V118.4c0-2.4,2-4.4,4.4-4.4h0c2.4,0,4.4,2,4.4,4.4v287.2
	C379.1,408,377.1,410,374.7,410z"/>
<path class="st0" d="M169.2,510.2c71,17.5,345.1,19.8,410.9,0"/>
<g>
	<g>
		<path d="M375.8,547c0.9,0,3.1-1.4,1.2-1.4C376.1,545.6,373.9,547,375.8,547L375.8,547z"/>
	</g>
</g>
<g>
	<g>
		<path d="M375.3,548.2c3.9,0,3.9-6,0-6C371.4,542.2,371.4,548.2,375.3,548.2L375.3,548.2z"/>
	</g>
</g>
<g>
	<g>
		<path d="M375.3,572.6c3.9,0,3.9-6,0-6C371.4,566.6,371.4,572.6,375.3,572.6L375.3,572.6z"/>
	</g>
</g>
<g>
	<g>
		<path d="M374.4,592.2c3.9,0,3.9-6,0-6C370.5,586.2,370.5,592.2,374.4,592.2L374.4,592.2z"/>
	</g>
</g>
<g>
	<g>
		<path d="M374.4,613.5c3.9,0,3.9-6,0-6C370.5,607.5,370.5,613.5,374.4,613.5L374.4,613.5z"/>
	</g>
</g>
<circle class="st1" cx="373.1" cy="648.1" r="17.1"/>
<path class="st0" d="M187.7,676.5c0,14.6-0.2,31.5,66.4,36.6c40.8,3.1,50.3,4.9,119.9,4.9c43.6,0,87.5-2.9,130.9-6.2
	c16.3-1.2,42.2-4.5,52.2-17.2c3.9-5,4.3-11.4,4.3-17.6"/>
</svg>
