<?xml version="1.0" encoding="utf-8"?>
<!-- Generator: Adobe Illustrator 22.1.0, SVG Export Plug-In . SVG Version: 6.00 Build 0)  -->
<svg version="1.1" baseProfile="tiny" id="Layer_1" xmlns="http://www.w3.org/2000/svg" xmlns:xlink="http://www.w3.org/1999/xlink"
	 x="0px" y="0px" viewBox="0 0 1600 1600" xml:space="preserve">
<g>
	<path d="M677,1c6.6,4.9,13.7,9.3,19.7,14.8c88.6,81.9,175.8,165.3,259.1,252.7c75.9,79.5,148.3,162,212.4,251.4
		c54.2,75.6,101.4,155.2,136.2,241.8c25.4,63.1,43.4,128.3,53.3,195.6c7,47.6,10.9,95.5,9,143.5c-6.3,161.7-71,294.7-198.6,395.3
		c-62.4,49.2-133.7,79.3-212.2,91.7c-22.3,3.5-40.5-11.4-39.8-32.7c0.4-10.6,5-19.3,13.7-25.4c45.4-31.8,80.6-73,109.2-120
		c32-52.6,53.2-109.4,64.1-170c8.8-48.9,10.4-98,4.6-147.3c-7.4-63.5-25.5-124.1-51.2-182.4c-33.3-75.3-77.3-144-129.1-207.7
		C907,677.2,885,653.4,863.8,629c-0.9-1-1.4-2.2-2.1-3.3c-0.4,0.3-0.8,0.5-1.3,0.8c-0.1,1.2-0.3,2.4-0.2,3.7
		c2,54.1-1.2,107.9-8,161.6c-14.2,111.3-42.9,218.6-86.3,322.1c-1.9,4.4-3.8,8.9-5.9,13.2c-6.5,13-20.6,20.3-34.4,17.8
		c-14.3-2.5-24.8-13.5-26.8-27.9c-9.5-68.6-34.2-131.1-75.7-186.8c-1.3-1.7-2.7-3.4-4-5.1c-0.2-0.2-0.5-0.3-1.1-0.5
		c-3.8,11.4-7.2,22.9-11.5,34c-19.1,49.7-38.4,99.3-57.9,148.8c-15.6,39.4-28.4,79.6-33.9,121.8c-3.6,27.1-5.8,54.4-4.1,81.8
		c1.9,30.1,12.2,57.9,25.8,84.4c25.6,49.8,59,93.4,102.9,128.6c13.6,10.9,16.3,30,6.5,43.9c-10,14.3-28.6,17.9-43.8,8.7
		c-2.4-1.4-5-2.6-7.7-3.5c-64.9-23.9-125.8-55.3-180.8-97.6c-65.3-50.3-116.8-111.6-150.6-187.3c-19.1-42.9-31.3-87.7-36.7-134.3
		c-10.7-93.3,1.8-184,30.5-272.9c20.3-62.9,47.6-122.9,79.1-180.9c35.4-65.1,72-129.5,108-194.2c40.5-72.7,79-146.5,111.3-223.3
		c34.9-82.9,62.2-168.2,80.8-256.2C638.4,13.9,646,6.1,657,1C663.7,1,670.3,1,677,1z M1067.1,1481.2c2.1-1,3.5-1.8,5-2.5
		c51.8-28.1,96.2-65.1,132.8-111.3c60.3-76.2,92-163.2,96.2-260.2c1.9-44.7-1-89.3-6.8-133.6c-8.1-61.3-23.5-120.8-45.8-178.5
		c-30.5-78.9-72.3-151.7-120.6-220.8c-60-85.8-128.7-164.5-200.5-240.5C850.2,252,769.5,173.9,687.5,97.1c-0.8-0.8-1.7-1.4-2.9-2.3
		c-0.6,1.9-1.1,3.2-1.4,4.6c-22.4,87.2-53,171.6-89.8,253.7c-36.2,80.7-78.3,158.4-121.8,235.4c-34.7,61.4-70.1,122.5-101,186.1
		c-33.4,68.6-60.9,139.3-74,215c-10.4,59.9-12.3,119.9-2.4,180c9,54.2,27.9,104.7,57.9,150.9c35.2,54.2,81.7,96.8,135.9,131.3
		c0.8,0.5,1.6,0.8,3.3,1.7c-4.6-8.5-8.8-15.9-12.7-23.6c-17.9-35-30.6-71.7-33.2-111.2c-2.5-38.6,0.8-76.9,7.3-115
		c8.1-47,23.2-91.9,41.8-135.7c30.2-71.4,60.1-142.9,78.6-218.6c5.8-23.6,33.9-31.7,52.2-15.7c11.5,10.1,22.5,20.9,32.7,32.2
		c34.2,37.8,58.7,81.4,76.9,128.8c0.6,1.6,1.3,3.2,2.2,5.4c0.6-1,0.9-1.4,1.1-1.8c4.9-13.1,9.9-26.1,14.5-39.3
		c30.7-87.3,48.6-177.1,51-269.8c1.2-48.1-2.1-95.9-8.8-143.5c-2-14.1,4.8-27,17.1-33.3c12.4-6.4,27-4.3,37.5,5.5
		c4.5,4.2,8.9,8.5,13.4,12.8c78.9,75.7,149,158.5,204.8,252.8c38.5,65.1,68.8,133.7,88,207c19.9,76.4,26.6,153.8,16.3,232.3
		c-9.9,75.8-34.8,146.5-74.4,211.8C1088,1450.2,1077.5,1465.3,1067.1,1481.2z"/>
</g>
</svg>
