<?xml version="1.0" encoding="utf-8"?>
<!-- Generator: Adobe Illustrator 22.1.0, SVG Export Plug-In . SVG Version: 6.00 Build 0)  -->
<svg version="1.1" baseProfile="tiny" id="Слой_1"
	 xmlns="http://www.w3.org/2000/svg" xmlns:xlink="http://www.w3.org/1999/xlink" x="0px" y="0px" viewBox="0 0 725.7 725.7"
	 xml:space="preserve">
<path fill="none" stroke="#000000" stroke-width="10" stroke-miterlimit="10" d="M669.6,481.1H125.2c-25.2,0-45.9-20.6-45.9-45.9
	V298.1c0-25.2,20.6-45.9,45.9-45.9h544.3c25.2,0,45.9,20.6,45.9,45.9v137.1C715.5,460.5,694.8,481.1,669.6,481.1z"/>
<rect x="29.9" y="350.2" fill="none" stroke="#000000" stroke-width="10" stroke-miterlimit="10" width="49.5" height="30.9"/>
<rect x="5.3" y="362.8" fill="none" stroke="#000000" stroke-width="10" stroke-miterlimit="10" width="24.6" height="8"/>
<circle fill="none" stroke="#000000" stroke-width="10" stroke-miterlimit="10" cx="135.5" cy="424.5" r="20.3"/>
<circle fill="none" stroke="#000000" stroke-width="10" stroke-miterlimit="10" cx="180.2" cy="416.2" r="2.2"/>
<circle fill="none" stroke="#000000" stroke-width="10" stroke-miterlimit="10" cx="180.2" cy="437.4" r="2.2"/>
<path d="M274.7,377.4c0-1.6,0-2.9,0-4.2c3.8,0,7.4,0,11.2,0c0,11.1,0,22.2,0,33.4c-3.6,0-7.3,0-11.1,0c0-1.2,0-2.4,0-4
	c-2.2,0-4.2,0-6.1,0c-7.1-0.1-12.8-5.9-12.7-13c0.1-6.4,5.7-12,12.1-12.1C270.2,377.4,272.3,377.4,274.7,377.4z M278.6,382.1
	c-2.8,0-6,0.1-9.2,0c-4.8-0.2-8.6,3.1-8.7,7.7c-0.1,4.7,3.6,8.2,8.4,8.2c3.3-0.1,6.6,0,10.1,0c0,1.1,0,2,0,2.8
	c-0.1,1.4,0.7,1.5,1.8,1.2c0-8,0-16,0-24.1C277.9,378.1,280.1,380.7,278.6,382.1z"/>
<path d="M331.3,373.2c0,1.3,0,2.6,0,4.2c1.9,0,3.8,0,5.6,0c6,0,10.5,3.2,12.5,8.8c2.7,7.6-3.3,16.2-11.5,16.4c-2.1,0.1-4.1,0-6.4,0
	c0,1.4,0,2.6,0,4c-3.8,0-7.5,0-11.3,0c0-11,0-22.1,0-33.4C323.8,373.2,327.5,373.2,331.3,373.2z M327.3,397.9c2.9,0,6.2-0.1,9.4,0
	c4.9,0.1,8.6-3.3,8.6-8c0-4.7-3.9-8.1-8.7-7.9c-3.2,0.1-6.5,0-9.7,0c-0.5-4.2-0.5-4.2-2-4c0,7.9,0,15.8,0,24
	C328,401.9,326.1,399.3,327.3,397.9z"/>
<path d="M297.7,406.6c0-11.2,0-22.3,0-33.4c3.7,0,7.2,0,11,0c0,11.1,0,22.2,0,33.4C305.1,406.6,301.5,406.6,297.7,406.6z
	 M304.7,377.2c-1.1,0-2,0-2.9,0c0,8.6,0,17,0,25.4c1.1,0,2,0,2.9,0C304.7,394.1,304.7,385.7,304.7,377.2z"/>
<path d="M290.8,453.5c-3.3,1.9-6.4,3.7-9.7,5.6c-5.6-9.7-11.2-19.2-16.9-28.9c3.2-1.9,6.4-3.7,9.6-5.6
	C279.6,434.3,285.2,443.8,290.8,453.5z M269.8,431.7c4.3,7.4,8.6,14.7,12.8,22c1-0.6,1.8-1.1,2.7-1.6c-4.3-7.4-8.6-14.7-12.8-22
	C271.5,430.7,270.8,431.1,269.8,431.7z"/>
<path d="M323.2,457.6c-3.2-2.1-6.2-4.1-9.3-6.1c6.1-9.4,12.2-18.6,18.3-28c3.1,2,6.2,4,9.4,6.1C335.4,439,329.3,448.2,323.2,457.6z
	 M322,452.1c4.7-7.2,9.3-14.2,13.9-21.3c-0.9-0.6-1.7-1.1-2.6-1.7c-4.7,7.2-9.3,14.2-13.9,21.3C320.3,450.9,321,451.4,322,452.1z"/>
<path d="M428.4,379.6c0-1.6,0-2.9,0-4.2c3.8,0,7.4,0,11.2,0c0,11.1,0,22.2,0,33.4c-3.6,0-7.3,0-11.1,0c0-1.2,0-2.4,0-4
	c-2.2,0-4.2,0-6.1,0c-7.1-0.1-12.8-5.9-12.7-13c0.1-6.4,5.7-12,12.1-12.1C423.8,379.6,426,379.6,428.4,379.6z M432.3,384.3
	c-2.8,0-6,0.1-9.2,0c-4.8-0.2-8.6,3.1-8.7,7.7c-0.1,4.7,3.6,8.2,8.4,8.2c3.3-0.1,6.6,0,10.1,0c0,1.1,0,2,0,2.8
	c-0.1,1.4,0.7,1.5,1.8,1.2c0-8,0-16,0-24.1C431.6,380.3,433.8,382.8,432.3,384.3z"/>
<path d="M485,375.4c0,1.3,0,2.6,0,4.2c1.9,0,3.8,0,5.6,0c6,0,10.5,3.2,12.5,8.8c2.7,7.6-3.3,16.2-11.5,16.4c-2.1,0.1-4.1,0-6.4,0
	c0,1.4,0,2.6,0,4c-3.8,0-7.5,0-11.3,0c0-11,0-22.1,0-33.4C477.5,375.4,481.2,375.4,485,375.4z M481,400.1c2.9,0,6.2-0.1,9.4,0
	c4.9,0.1,8.6-3.3,8.6-8c0-4.7-3.9-8.1-8.7-7.9c-3.2,0.1-6.5,0-9.7,0c-0.5-4.2-0.5-4.2-2-4c0,7.9,0,15.8,0,24
	C481.7,404,479.7,401.4,481,400.1z"/>
<path d="M451.4,408.8c0-11.2,0-22.3,0-33.4c3.7,0,7.2,0,11,0c0,11.1,0,22.2,0,33.4C458.8,408.8,455.2,408.8,451.4,408.8z
	 M458.4,379.4c-1.1,0-2,0-2.9,0c0,8.6,0,17,0,25.4c1.1,0,2,0,2.9,0C458.4,396.3,458.4,387.9,458.4,379.4z"/>
<path d="M444.5,455.7c-3.3,1.9-6.4,3.7-9.7,5.6c-5.6-9.7-11.2-19.2-16.9-28.9c3.2-1.9,6.4-3.7,9.6-5.6
	C433.3,436.4,438.9,446,444.5,455.7z M423.5,433.8c4.3,7.4,8.6,14.7,12.8,22c1-0.6,1.8-1.1,2.7-1.6c-4.3-7.4-8.6-14.7-12.8-22
	C425.2,432.8,424.5,433.3,423.5,433.8z"/>
<path d="M476.8,459.8c-3.2-2.1-6.2-4.1-9.3-6.1c6.1-9.4,12.2-18.6,18.3-28c3.1,2,6.2,4,9.4,6.1C489.1,441.1,483,450.4,476.8,459.8z
	 M475.7,454.3c4.7-7.2,9.3-14.2,13.9-21.3c-0.9-0.6-1.7-1.1-2.6-1.7c-4.7,7.2-9.3,14.2-13.9,21.3
	C473.9,453.1,474.7,453.6,475.7,454.3z"/>
<path d="M583,377.4c0-1.6,0-2.9,0-4.2c3.8,0,7.4,0,11.2,0c0,11.1,0,22.2,0,33.4c-3.6,0-7.3,0-11.1,0c0-1.2,0-2.4,0-4
	c-2.2,0-4.2,0-6.1,0c-7.1-0.1-12.8-5.9-12.7-13c0.1-6.4,5.7-12,12.1-12.1C578.5,377.4,580.6,377.4,583,377.4z M586.9,382.1
	c-2.8,0-6,0.1-9.2,0c-4.8-0.2-8.6,3.1-8.7,7.7c-0.1,4.7,3.6,8.2,8.4,8.2c3.3-0.1,6.6,0,10.1,0c0,1.1,0,2,0,2.8
	c-0.1,1.4,0.7,1.5,1.8,1.2c0-8,0-16,0-24.1C586.2,378.1,588.4,380.7,586.9,382.1z"/>
<path d="M639.7,373.2c0,1.3,0,2.6,0,4.2c1.9,0,3.8,0,5.6,0c6,0,10.5,3.2,12.5,8.8c2.7,7.6-3.3,16.2-11.5,16.4c-2.1,0.1-4.1,0-6.4,0
	c0,1.4,0,2.6,0,4c-3.8,0-7.5,0-11.3,0c0-11,0-22.1,0-33.4C632.2,373.2,635.9,373.2,639.7,373.2z M635.7,397.9c2.9,0,6.2-0.1,9.4,0
	c4.9,0.1,8.6-3.3,8.6-8c0-4.7-3.9-8.1-8.7-7.9c-3.2,0.1-6.5,0-9.7,0c-0.5-4.2-0.5-4.2-2-4c0,7.9,0,15.8,0,24
	C636.4,401.9,634.4,399.3,635.7,397.9z"/>
<path d="M581.8,280.7c0-1.6,0-2.9,0-4.2c3.8,0,7.4,0,11.2,0c0,11.1,0,22.2,0,33.4c-3.6,0-7.3,0-11.1,0c0-1.2,0-2.4,0-4
	c-2.2,0-4.2,0-6.1,0c-7.1-0.1-12.8-5.9-12.7-13c0.1-6.4,5.7-12,12.1-12.1C577.3,280.6,579.4,280.7,581.8,280.7z M585.7,285.4
	c-2.8,0-6,0.1-9.2,0c-4.8-0.2-8.6,3.1-8.7,7.7c-0.1,4.7,3.6,8.2,8.4,8.2c3.3-0.1,6.6,0,10.1,0c0,1.1,0,2,0,2.8
	c-0.1,1.4,0.7,1.5,1.8,1.2c0-8,0-16,0-24.1C585,281.4,587.2,283.9,585.7,285.4z"/>
<path d="M638.5,276.5c0,1.3,0,2.6,0,4.2c1.9,0,3.8,0,5.6,0c6,0,10.5,3.2,12.5,8.8c2.7,7.6-3.3,16.2-11.5,16.4c-2.1,0.1-4.1,0-6.4,0
	c0,1.4,0,2.6,0,4c-3.8,0-7.5,0-11.3,0c0-11,0-22.1,0-33.4C631,276.5,634.7,276.5,638.5,276.5z M634.4,301.1c2.9,0,6.2-0.1,9.4,0
	c4.9,0.1,8.6-3.3,8.6-8c0-4.7-3.9-8.1-8.7-7.9c-3.2,0.1-6.5,0-9.7,0c-0.5-4.2-0.5-4.2-2-4c0,7.9,0,15.8,0,24
	C635.1,305.1,633.2,302.5,634.4,301.1z"/>
<path d="M428.5,280.7c0-1.6,0-2.9,0-4.2c3.8,0,7.4,0,11.2,0c0,11.1,0,22.2,0,33.4c-3.6,0-7.3,0-11.1,0c0-1.2,0-2.4,0-4
	c-2.2,0-4.2,0-6.1,0c-7.1-0.1-12.8-5.9-12.7-13c0.1-6.4,5.7-12,12.1-12.1C424,280.6,426.1,280.7,428.5,280.7z M432.5,285.4
	c-2.8,0-6,0.1-9.2,0c-4.8-0.2-8.6,3.1-8.7,7.7c-0.1,4.7,3.6,8.2,8.4,8.2c3.3-0.1,6.6,0,10.1,0c0,1.1,0,2,0,2.8
	c-0.1,1.4,0.7,1.5,1.8,1.2c0-8,0-16,0-24.1C431.8,281.4,433.9,283.9,432.5,285.4z"/>
<path d="M485.2,276.5c0,1.3,0,2.6,0,4.2c1.9,0,3.8,0,5.6,0c6,0,10.5,3.2,12.5,8.8c2.7,7.6-3.3,16.2-11.5,16.4c-2.1,0.1-4.1,0-6.4,0
	c0,1.4,0,2.6,0,4c-3.8,0-7.5,0-11.3,0c0-11,0-22.1,0-33.4C477.7,276.5,481.4,276.5,485.2,276.5z M481.2,301.1c2.9,0,6.2-0.1,9.4,0
	c4.9,0.1,8.6-3.3,8.6-8c0-4.7-3.9-8.1-8.7-7.9c-3.2,0.1-6.5,0-9.7,0c-0.5-4.2-0.5-4.2-2-4c0,7.9,0,15.8,0,24
	C481.9,305.1,479.9,302.5,481.2,301.1z"/>
<path d="M274.9,280.7c0-1.6,0-2.9,0-4.2c3.8,0,7.4,0,11.2,0c0,11.1,0,22.2,0,33.4c-3.6,0-7.3,0-11.1,0c0-1.2,0-2.4,0-4
	c-2.2,0-4.2,0-6.1,0c-7.1-0.1-12.8-5.9-12.7-13c0.1-6.4,5.7-12,12.1-12.1C270.4,280.6,272.5,280.7,274.9,280.7z M278.8,285.4
	c-2.8,0-6,0.1-9.2,0c-4.8-0.2-8.6,3.1-8.7,7.7c-0.1,4.7,3.6,8.2,8.4,8.2c3.3-0.1,6.6,0,10.1,0c0,1.1,0,2,0,2.8
	c-0.1,1.4,0.7,1.5,1.8,1.2c0-8,0-16,0-24.1C278.1,281.4,280.3,283.9,278.8,285.4z"/>
<path d="M331.6,276.5c0,1.3,0,2.6,0,4.2c1.9,0,3.8,0,5.6,0c6,0,10.5,3.2,12.5,8.8c2.7,7.6-3.3,16.2-11.5,16.4c-2.1,0.1-4.1,0-6.4,0
	c0,1.4,0,2.6,0,4c-3.8,0-7.5,0-11.3,0c0-11,0-22.1,0-33.4C324.1,276.5,327.8,276.5,331.6,276.5z M327.6,301.1c2.9,0,6.2-0.1,9.4,0
	c4.9,0.1,8.6-3.3,8.6-8c0-4.7-3.9-8.1-8.7-7.9c-3.2,0.1-6.5,0-9.7,0c-0.5-4.2-0.5-4.2-2-4c0,7.9,0,15.8,0,24
	C328.3,305.1,326.3,302.5,327.6,301.1z"/>
<path d="M606.1,406.6c0-11.2,0-22.3,0-33.4c3.7,0,7.2,0,11,0c0,11.1,0,22.2,0,33.4C613.5,406.6,609.8,406.6,606.1,406.6z
	 M613.1,377.2c-1.1,0-2,0-2.9,0c0,8.6,0,17,0,25.4c1.1,0,2,0,2.9,0C613.1,394.1,613.1,385.7,613.1,377.2z"/>
<path d="M599.2,453.5c-3.3,1.9-6.4,3.7-9.7,5.6c-5.6-9.7-11.2-19.2-16.9-28.9c3.2-1.9,6.4-3.7,9.6-5.6
	C588,434.3,593.5,443.8,599.2,453.5z M578.2,431.7c4.3,7.4,8.6,14.7,12.8,22c1-0.6,1.8-1.1,2.7-1.6c-4.3-7.4-8.6-14.7-12.8-22
	C579.9,430.7,579.1,431.1,578.2,431.7z"/>
<path d="M631.5,457.6c-3.2-2.1-6.2-4.1-9.3-6.1c6.1-9.4,12.2-18.6,18.3-28c3.1,2,6.2,4,9.4,6.1C643.7,439,637.7,448.2,631.5,457.6z
	 M630.3,452.1c4.7-7.2,9.3-14.2,13.9-21.3c-0.9-0.6-1.7-1.1-2.6-1.7c-4.7,7.2-9.3,14.2-13.9,21.3
	C628.6,450.9,629.4,451.4,630.3,452.1z"/>
</svg>
