<?xml version="1.0" standalone="no"?>
<!DOCTYPE svg PUBLIC "-//W3C//DTD SVG 20010904//EN"
 "http://www.w3.org/TR/2001/REC-SVG-20010904/DTD/svg10.dtd">
<svg version="1.0" xmlns="http://www.w3.org/2000/svg"
 width="498.000000pt" height="496.000000pt" viewBox="0 0 498.000000 496.000000"
 preserveAspectRatio="xMidYMid meet">
<metadata>
Created by potrace 1.15, written by Peter Selinger 2001-2017
</metadata>
<g transform="translate(0.000000,496.000000) scale(0.100000,-0.100000)"
fill="#000000" stroke="none">
<path d="M370 2510 l0 -730 180 0 180 0 0 570 0 570 368 0 367 0 50 -28 c39
-21 57 -40 80 -82 l30 -55 3 -488 3 -487 177 2 177 3 3 525 c4 617 2 629 -80
752 -44 66 -86 102 -165 143 l-58 30 -657 3 -658 2 0 -730z"/>
<path d="M2240 2510 l0 -730 180 0 180 0 0 730 0 730 -180 0 -180 0 0 -730z"/>
<path d="M3250 2760 c0 -297 4 -480 10 -480 5 0 46 16 92 36 46 19 100 42 120
51 l38 16 2 283 3 283 199 -85 c189 -80 240 -95 261 -76 6 5 62 30 125 57 63
26 144 60 180 76 l65 28 3 -105 c1 -57 4 -104 5 -104 1 0 58 24 127 54 l125
54 3 197 2 197 -137 -4 -138 -3 -110 -48 c-60 -27 -151 -66 -201 -88 l-91 -39
-134 56 c-320 134 -284 124 -424 124 l-125 0 0 -480z"/>
<path d="M995 2658 c-3 -13 -4 -214 -3 -448 l3 -425 180 0 180 0 0 445 0 445
-177 3 c-177 2 -178 2 -183 -20z"/>
<path d="M4468 2617 l-118 -52 0 -110 c0 -67 -6 -134 -15 -170 -60 -229 -298
-365 -521 -297 -111 34 -209 111 -252 200 -9 17 -19 32 -24 32 -8 0 -214 -86
-230 -96 -17 -10 59 -131 126 -201 131 -139 271 -203 463 -211 214 -9 367 50
513 197 97 97 151 188 181 305 23 89 28 457 7 455 -7 0 -66 -24 -130 -52z"/>
<path d="M904 1256 c-43 -19 -100 -90 -113 -141 -35 -140 11 -261 116 -301 53
-20 162 -15 211 10 l33 17 -3 127 -3 127 -100 0 -100 0 -3 -62 -3 -63 36 0
c28 0 35 -4 35 -20 0 -47 -76 1 -86 55 -8 44 12 102 42 122 24 15 75 14 132
-3 21 -6 22 -4 22 64 0 64 -2 70 -22 76 -41 10 -162 6 -194 -8z"/>
<path d="M1395 1258 c-17 -51 -125 -430 -125 -438 0 -15 140 -13 144 3 3 6 7
24 10 40 6 24 11 27 50 27 44 0 44 0 51 -40 l7 -40 75 0 c67 0 75 2 70 18 -2
9 -31 113 -63 230 l-58 212 -78 0 c-54 0 -80 -4 -83 -12z"/>
<path d="M1790 1205 l0 -65 50 0 50 0 0 -165 0 -165 70 0 70 0 0 165 0 165 50
0 50 0 0 65 0 65 -170 0 -170 0 0 -65z"/>
<path d="M2277 1263 c-4 -3 -7 -107 -7 -230 l0 -223 130 0 130 0 0 65 0 65
-60 0 c-46 0 -60 3 -60 14 0 11 15 16 53 18 l52 3 0 60 0 60 -52 3 c-45 3 -53
6 -53 23 0 16 7 19 55 19 l55 0 0 65 0 65 -118 0 c-65 0 -122 -3 -125 -7z"/>
<path d="M2650 1253 c0 -10 20 -112 43 -228 l43 -210 75 -3 75 -3 24 117 25
116 12 -63 c7 -35 18 -88 24 -117 l11 -53 71 3 70 3 48 220 c26 121 45 223 42
228 -2 4 -32 7 -67 7 l-63 0 -14 -112 -14 -113 -20 113 -19 112 -72 0 -71 0
-24 -110 c-13 -60 -25 -108 -26 -106 -2 1 -8 41 -13 87 -18 140 -10 129 -90
129 -60 0 -70 -2 -70 -17z"/>
<path d="M3441 1238 c-25 -78 -121 -412 -121 -420 0 -5 32 -8 72 -6 l72 3 9
38 c9 36 10 37 53 37 43 0 44 0 50 -40 l7 -40 74 0 c67 0 75 2 71 18 -3 9 -31
113 -63 230 l-59 212 -77 0 -77 0 -11 -32z"/>
<path d="M3835 1260 c-3 -5 19 -73 50 -151 50 -129 55 -147 55 -220 l0 -79 70
0 70 0 0 78 c0 73 4 88 60 223 33 79 56 147 51 152 -4 4 -37 7 -72 5 l-64 -3
-15 -57 c-8 -32 -17 -58 -20 -58 -4 0 -14 27 -23 60 l-17 60 -69 0 c-39 0 -73
-4 -76 -10z"/>
</g>
</svg>
