<?xml version="1.0" encoding="utf-8"?>
<!-- Generator: Adobe Illustrator 22.1.0, SVG Export Plug-In . SVG Version: 6.00 Build 0)  -->
<svg version="1.1" baseProfile="tiny" id="Layer_1" xmlns="http://www.w3.org/2000/svg" xmlns:xlink="http://www.w3.org/1999/xlink"
	 x="0px" y="0px" viewBox="0 0 512 512" xml:space="preserve">
<g>
	<path d="M513,272c-1.3,9.5-2.3,19.1-3.9,28.6c-16.3,98.8-93.5,181.1-191.6,204.4c-139,32.9-276.9-52.5-309.1-191.5
		c-32.5-140,58.5-280,200.1-307.6C219.5,3.7,230.8,2.6,242,1c10.3,0,20.7,0,31,0c1.5,0.3,2.9,0.6,4.4,0.8
		c14.6,2.4,29.4,3.8,43.7,7.3C417.4,33,493,115,509.1,212.5c1.6,9.5,2.6,19,3.9,28.5C513,251.3,513,261.7,513,272z M257.5,21
		C127.3,21,22,126.4,22,256.5C22,386.7,127.4,492,257.5,492C387.7,492,493,386.6,493,256.5C493,126.3,387.6,21,257.5,21z"/>
	<path d="M144.9,256.9c0-22.3,0.1-44.6-0.1-67c-0.1-4.8,1.6-5.8,6-5.8c37.1,0.2,74.3,0.1,111.4,0.1c26.4,0,44.3,17.8,44.4,44.2
		c0.1,32,0,64,0.1,96c0,4.2-1.4,5.5-5.5,5.3c-8-0.3-16-0.3-24,0c-4.2,0.2-5-1.6-5-5.3c0.1-28.5,0-57,0.1-85.5c0-13.8-9.2-24-23-24.2
		c-21.8-0.3-43.6,0-65.5-0.2c-4.1,0-4.5,1.9-4.5,5.2c0.1,34.5,0.1,69,0.1,103.4c0,6.4,0,6.3-6.2,6.3c-7.5,0-15-0.2-22.5,0.1
		c-4.5,0.2-6-1.1-6-5.8C145.1,301.6,144.9,279.3,144.9,256.9z"/>
	<path d="M369.1,257c0,22.3-0.1,44.6,0.1,66.9c0,4.6-1.3,6.1-5.9,5.9c-8.1-0.3-16.3-0.2-24.5-0.1c-2.8,0-4.3-0.7-4.3-3.9
		c0.1-19.8,0-39.6-0.1-59.3c0-19.4-0.1-38.9,0-58.3c0-6.6,0.2-13.3,0.1-19.9c0-2.7,0.8-4,3.7-4c9,0.1,18,0.1,27,0
		c4.1-0.1,3.9,2.5,3.9,5.3C369.1,212,369.1,234.5,369.1,257z"/>
	<path d="M208.4,285c0-13.2,0.1-26.3-0.1-39.5c0-3.4,1-4.8,4.6-4.7c8.5,0.2,17,0.2,25.5,0c3.3-0.1,4.4,1.1,4.4,4.4
		c-0.1,26.8-0.1,53.6,0,80.5c0,3-1.1,4.1-4.1,4.1c-8.5-0.1-17-0.2-25.5,0c-3.7,0.1-5-1.1-4.9-4.8C208.5,311.6,208.4,298.3,208.4,285
		C208.4,285,208.4,285,208.4,285z"/>
	<path d="M473.3,213.7c-4-0.1-7.2-3.4-7.1-7.4c0.1-4,3.4-7.2,7.4-7.1c4,0.1,7.2,3.4,7.1,7.4C480.7,210.6,477.3,213.8,473.3,213.7z"
		/>
	<path d="M441.8,255.3c0.1,3.9-3.2,7.4-7.2,7.5c-3.7,0.1-7.1-3-7.3-6.8c-0.3-3.9,3-7.5,6.9-7.7C438.1,248.1,441.7,251.3,441.8,255.3
		z"/>
	<path d="M267.8,435.6c0,4-3.3,7.2-7.3,7.2c-3.9,0-7.2-3.4-7.2-7.3c0-3.9,3.4-7.3,7.3-7.2C264.6,428.3,267.9,431.6,267.8,435.6z"/>
	<path d="M115.4,359.2c4-0.1,7.4,3.2,7.4,7.2c0,4-3.4,7.3-7.3,7.3c-3.7,0-7-3.2-7.2-7C108.2,362.8,111.5,359.3,115.4,359.2z"/>
	<path d="M115.7,158.5c0,3.9-3.4,7.4-7.3,7.3c-3.8-0.1-7-3.2-7.2-7c-0.2-4,3.1-7.4,7.1-7.5C112.3,151.2,115.7,154.5,115.7,158.5z"/>
	<path d="M53.7,342.3c4,0.1,7.1,3.4,7,7.5c-0.1,4-3.4,7.1-7.4,7c-3.9-0.1-7.2-3.5-7-7.5C46.3,345.3,49.7,342.1,53.7,342.3z"/>
	<path d="M315.5,49.9c-4,0-7.2-3.3-7.2-7.3c0-4.1,3.3-7.2,7.3-7.2c4,0,7.2,3.3,7.2,7.3C322.8,46.6,319.5,49.9,315.5,49.9z"/>
	<path d="M349.8,437.6c-0.1,4-3.4,7.2-7.4,7.1c-4-0.1-7.2-3.4-7.1-7.4c0.1-4,3.5-7.2,7.4-7.1C346.7,430.3,349.9,433.6,349.8,437.6z"
		/>
	<path d="M335.6,468.3c0.1,4-3,7.4-7,7.5c-4,0.2-7.3-2.9-7.5-7c-0.2-4,3-7.4,7-7.5C332.1,461.1,335.5,464.3,335.6,468.3z"/>
	<path d="M105.7,428.8c-4.1,0-7.3-3.2-7.3-7.2c0-4,3.2-7.3,7.2-7.3c4,0,7.3,3.2,7.3,7.2C112.9,425.6,109.7,428.8,105.7,428.8z"/>
	<path d="M36.3,285.2c4,0,7.3,3.2,7.3,7.2c0,4-3.1,7.3-7.2,7.3c-4,0.1-7.3-3.2-7.3-7.2C29.1,288.6,32.4,285.2,36.3,285.2z"/>
	<path d="M90.7,356.6c0,4-3.3,7.2-7.3,7.2c-3.9,0-7.2-3.3-7.2-7.3c0-3.9,3.4-7.3,7.3-7.2C87.4,349.3,90.7,352.7,90.7,356.6z"/>
	<path d="M70.3,322.4c4.1-0.1,7.3,3,7.4,7.1c0.1,4-3,7.3-7.1,7.4c-4,0.1-7.3-3.1-7.4-7.1C63.2,325.8,66.3,322.5,70.3,322.4z"/>
	<path d="M375.7,422.8c-0.1,4-3.5,7.2-7.4,7c-4-0.1-7.1-3.5-7-7.5c0.1-3.9,3.5-7.2,7.5-7.1C372.6,415.4,375.8,418.8,375.7,422.8z"/>
	<path d="M217.8,475.9c-0.1,3.9-3.5,7.1-7.5,7c-4-0.1-7.2-3.5-7-7.5c0.1-4,3.5-7.1,7.5-7C214.8,468.5,217.9,471.9,217.8,475.9z"/>
	<path d="M256.3,27.4c3.9-0.1,7.4,3.2,7.5,7.2c0,3.7-3.1,7.1-6.8,7.3c-3.9,0.3-7.5-2.9-7.7-6.9C249.1,31,252.3,27.5,256.3,27.4z"/>
	<path d="M414.5,182.7c-4,0-7.3-3.5-7.2-7.4c0.1-4,3.6-7.2,7.5-7.1c3.7,0.1,6.9,3.4,7,7.2C421.8,179.2,418.4,182.7,414.5,182.7z"/>
	<path d="M350.9,52.2c0.1,4-3.1,7.3-7.1,7.4c-4,0.1-7.3-3.1-7.4-7.1c-0.1-3.9,3.1-7.3,7.1-7.4C347.5,45,350.9,48.2,350.9,52.2z"/>
	<path d="M340.2,421.9c-3.9-0.1-7.2-3.5-7.1-7.4c0.1-4,3.5-7.2,7.4-7.1c4,0.1,7.1,3.4,7.1,7.4C347.5,418.8,344.2,422,340.2,421.9z"
		/>
	<path d="M64.8,271.6c0,4-3.3,7.3-7.2,7.3c-4,0-7.2-3.2-7.3-7.2c0-4,3.2-7.2,7.2-7.3C61.6,264.4,64.8,267.6,64.8,271.6z"/>
	<path d="M85.9,263.6c0,4-3.2,7.3-7.2,7.3c-4,0-7.2-3.2-7.3-7.2c0-4,3.2-7.3,7.2-7.3C82.5,256.3,85.8,259.6,85.9,263.6z"/>
	<path d="M154.3,448.5c4-0.1,7.3,3.1,7.4,7.1c0.1,4-3.1,7.3-7.1,7.4c-4.1,0.1-7.3-3.1-7.4-7.1C147.1,451.8,150.3,448.5,154.3,448.5z
		"/>
	<path d="M100.2,350.5c-4-0.1-7.1-3.4-7-7.5c0.1-4,3.5-7.1,7.5-7c4.1,0.1,7.2,3.4,7,7.5C107.5,347.6,104.3,350.6,100.2,350.5z"/>
	<path d="M207.7,41.6c0.1,4-3,7.3-7.1,7.4c-4.1,0.1-7.3-3-7.5-7c-0.1-4.1,3-7.3,7-7.4C204.3,34.4,207.5,37.5,207.7,41.6z"/>
	<path d="M47.5,203.5c0.1,4-3.2,7.3-7.2,7.3c-4,0-7.3-3.2-7.3-7.2c0-4.1,3.1-7.3,7.2-7.3C44.2,196.3,47.4,199.4,47.5,203.5z"/>
	<path d="M426.4,303c4-0.1,7.4,3,7.5,7c0.1,4.1-3,7.4-7,7.5c-4.1,0.1-7.3-2.9-7.5-7C419.2,306.5,422.3,303.1,426.4,303z"/>
	<path d="M412.8,126.1c4,0.1,7.2,3.5,7,7.5c-0.1,4-3.5,7.1-7.5,7c-4.1-0.1-7.1-3.4-7-7.5C405.4,129.1,408.7,126,412.8,126.1z"/>
	<path d="M391.8,396.8c4.1,0,7.2,3.2,7.2,7.2c-0.1,4.1-3.2,7.2-7.3,7.2c-4,0-7.2-3.2-7.2-7.3C384.5,400,387.7,396.8,391.8,396.8z"/>
	<path d="M125.6,129.5c4-0.1,7.3,3.1,7.3,7.1c0.1,4-3.1,7.3-7.1,7.4c-4.1,0.1-7.3-3.1-7.3-7.1C118.4,132.8,121.5,129.6,125.6,129.5z
		"/>
	<path d="M442,323.5c4.1,0,7.2,3.1,7.3,7.2c0.1,4.1-3.1,7.3-7.2,7.3c-4.1,0-7.3-3.1-7.3-7.2C434.8,326.7,437.9,323.5,442,323.5z"/>
	<path d="M299.6,469c4,0,7.2,3.3,7.2,7.3c0,4-3.3,7.2-7.3,7.2c-4,0-7.2-3.3-7.2-7.3C292.3,472.2,295.5,469,299.6,469z"/>
	<path d="M101.2,125.2c4,0,7.3,3.2,7.3,7.2c0,4.1-3.1,7.2-7.2,7.3c-4,0.1-7.2-3.1-7.3-7.2C94,128.5,97.2,125.2,101.2,125.2z"/>
	<path d="M426.1,395c4,0.1,7.2,3.4,7.1,7.5c-0.1,3.9-3.2,6.9-7.1,6.9c-4.1,0.1-7.3-3.1-7.3-7.2C418.8,398.2,422.1,395,426.1,395z"/>
	<path d="M425.6,208.2c-4.1,0.1-7.3-2.9-7.5-7c-0.1-4.1,2.9-7.3,7-7.5c4.1-0.1,7.4,2.9,7.5,7C432.8,204.7,429.7,208,425.6,208.2z"/>
	<path d="M127.7,403c0.1,4-3,7.3-7.1,7.4c-4.1,0.1-7.3-3-7.5-7c-0.1-4,3-7.3,7-7.4C124.2,395.9,127.6,399,127.7,403z"/>
	<path d="M237,36.3c-0.1,4.1-3.2,7.2-7.3,7.1c-4,0-7.2-3.2-7.2-7.3c0-4,3.3-7.2,7.3-7.1C233.8,29,237,32.3,237,36.3z"/>
	<path d="M67.7,368.5c4,0.1,7.2,3.3,7.2,7.3c0,4-3.3,7.2-7.3,7.2c-4,0-7.2-3.3-7.2-7.3C60.4,371.7,63.7,368.5,67.7,368.5z"/>
	<path d="M84.4,164.2c-4,0.1-7.3-3.1-7.3-7.1c0-4.1,3.1-7.3,7.1-7.3c4.1,0,7.2,3,7.3,7.1C91.6,161,88.5,164.1,84.4,164.2z"/>
	<path d="M121.9,117.9c-4,0.1-7.4-3-7.5-7c-0.1-4,2.9-7.3,7-7.5c4-0.1,7.4,2.9,7.5,7C129,114.4,125.9,117.8,121.9,117.9z"/>
	<path d="M429.5,165.2c-4.1,0.1-7.4-3-7.5-7.1c0-4,3.2-7.3,7.3-7.3c3.8,0,7,3,7.2,6.8C436.7,161.6,433.6,165,429.5,165.2z"/>
	<path d="M443.6,371.1c4-0.1,7.3,3,7.4,7.1c0.1,4-3.1,7.4-7.1,7.4c-4.1,0.1-7.3-3.1-7.4-7.1C436.5,374.4,439.6,371.2,443.6,371.1z"
		/>
	<path d="M100.2,374.1c4,0.1,7.2,3.3,7.1,7.3c0,4-3.3,7.2-7.3,7.2c-4,0-7.2-3.3-7.1-7.3C93,377.2,96.2,374,100.2,374.1z"/>
	<path d="M476.2,288.2c4,0,7.2,3.3,7.1,7.3c-0.1,4.1-3.3,7.2-7.3,7.2c-4.1-0.1-7.2-3.3-7.1-7.3C468.9,291.3,472.1,288.2,476.2,288.2
		z"/>
	<path d="M363.7,392.5c4-0.1,7.3,3.1,7.3,7.1c0.1,4-3.2,7.3-7.1,7.3c-4,0-7.3-3.1-7.3-7.1C356.5,395.7,359.6,392.6,363.7,392.5z"/>
	<path d="M128.9,447.5c-4,0-7.1-3.2-7.1-7.3c0-4.1,3.2-7.2,7.2-7.2c4,0.1,7.2,3.3,7.1,7.3C136.1,444.4,132.9,447.6,128.9,447.5z"/>
	<path d="M292.9,454.9c-0.1,4-3.4,7.2-7.4,7.1c-4-0.1-7.1-3.3-7.1-7.4c0.1-4,3.3-7.2,7.3-7.1C289.8,447.6,293,451,292.9,454.9z"/>
	<path d="M85.8,123.5c-0.1,3.9-3.5,7.2-7.4,7.1c-4-0.1-7.1-3.5-7-7.4c0.1-4,3.4-7.1,7.4-7C82.8,116.1,85.9,119.5,85.8,123.5z"/>
	<path d="M178.1,77.6c-0.1,4-3.4,7.2-7.4,7c-4-0.1-7.1-3.4-7-7.5c0.1-4,3.4-7.1,7.4-7C175.1,70.2,178.2,73.6,178.1,77.6z"/>
	<path d="M198.9,59.4c4,0.1,7.2,3.4,7.1,7.3c-0.1,4-3.4,7.2-7.4,7.1c-3.9-0.1-7.2-3.4-7.1-7.4C191.5,62.6,194.9,59.4,198.9,59.4z"/>
	<path d="M322.2,425.7c0.1,4.1-3.1,7.3-7.1,7.3c-4.1,0-7.3-3.1-7.3-7.1c0-4.1,3-7.2,7.1-7.3C319,418.5,322.2,421.6,322.2,425.7z"/>
	<path d="M168.9,95.2c4-0.1,7.3,3.1,7.3,7.2c0,4.1-3.1,7.3-7.2,7.3c-4.1,0-7.3-3.1-7.3-7.2C161.7,98.5,164.9,95.2,168.9,95.2z"/>
	<path d="M424.2,102.9c0,4.1-3.3,7.3-7.3,7.2c-4.1-0.1-7.2-3.4-7.1-7.5c0.1-3.9,3.2-6.9,7.1-7C420.9,95.6,424.2,98.8,424.2,102.9z"
		/>
	<path d="M399.5,111.5c0,4-3.3,7.2-7.3,7.2c-4,0-7.2-3.3-7.2-7.3c0-4,3.3-7.2,7.3-7.2C396.2,104.3,399.5,107.5,399.5,111.5z"/>
	<path d="M436,118.5c4.1-0.1,7.3,2.9,7.4,7c0.1,4-2.9,7.3-7,7.5c-4,0.1-7.3-3-7.4-7C428.9,121.9,431.9,118.6,436,118.5z"/>
	<path d="M388.9,131.1c-0.1,4-3.5,7.2-7.5,7c-4.1-0.2-7.1-3.5-6.9-7.7c0.2-3.9,3.3-6.8,7.3-6.8C385.8,123.7,389.1,127.1,388.9,131.1
		z"/>
	<path d="M69.5,148.2c0,4.1-3.2,7.3-7.3,7.2c-4.1-0.1-7.3-3.4-7.1-7.4c0.1-3.8,3.3-6.9,7.1-7C66.1,140.9,69.5,144.2,69.5,148.2z"/>
	<path d="M95.1,175.5c4,0.1,7.1,3.4,7,7.4c-0.1,4-3.4,7.2-7.3,7.1c-4-0.1-7.1-3.4-7-7.4C87.8,178.6,91.1,175.4,95.1,175.5z"/>
	<path d="M449.5,184.8c0,4-3.2,7.2-7.2,7.2c-4.1,0-7.2-3.1-7.3-7.2c0-4.1,3.1-7.2,7.2-7.2C446.3,177.6,449.5,180.8,449.5,184.8z"/>
	<path d="M69.5,212.1c0.1,4.1-3.1,7.4-7.2,7.4c-4.1,0-7.3-3.3-7.3-7.3c0-3.8,3.2-7,7-7.1C66,204.9,69.4,208.1,69.5,212.1z"/>
	<path d="M478.3,243.1c-4.1,0-7.4-3.3-7.3-7.3c0.1-4.1,3.4-7.2,7.4-7.2c3.8,0.1,6.9,3.1,7,7.1C485.6,239.8,482.4,243.1,478.3,243.1z
		"/>
	<path d="M462.6,243.1c-0.1,4-3.3,7.2-7.4,7.1c-4-0.1-7.2-3.3-7.1-7.4c0-4,3.3-7.2,7.4-7.1C459.6,235.8,462.7,239,462.6,243.1z"/>
	<path d="M41,262.5c0.1,4-3.1,7.4-7.1,7.5c-4.1,0.1-7.3-3.1-7.3-7.3c0-3.9,3-7.1,6.8-7.2C37.4,255.3,40.9,258.5,41,262.5z"/>
	<path d="M479,273c-4-0.1-7.2-3.3-7.1-7.3c0.1-4,3.3-7.2,7.3-7.1c4,0,7.1,3.2,7.1,7.3C486.3,269.9,483,273,479,273z"/>
	<path d="M455.3,280c-4,0-7.2-3.3-7.2-7.3c0-4,3.2-7.2,7.3-7.1c4.1,0,7.2,3.2,7.2,7.3C462.5,276.8,459.3,280,455.3,280z"/>
	<path d="M88.9,291c0.1,4-3.1,7.4-7.1,7.4c-4.1,0.1-7.4-3.2-7.3-7.2c0-3.8,3.1-7,6.9-7.2C85.3,283.8,88.8,287,88.9,291z"/>
	<path d="M476.4,324.6c-0.1,4-3.3,7.2-7.4,7.1c-4-0.1-7.1-3.4-7.1-7.4c0.1-4,3.4-7.2,7.4-7.1C473.3,317.3,476.5,320.6,476.4,324.6z"
		/>
	<path d="M423.6,336.1c0,4-3.4,7.2-7.5,7.1c-3.8-0.1-7-3.3-7-7c-0.1-4,3.2-7.3,7.2-7.4C420.3,328.8,423.7,332.1,423.6,336.1z"/>
	<path d="M465.5,352.4c-0.1,4-3.5,7.1-7.6,6.9c-3.9-0.2-6.9-3.3-6.9-7.2c0-4,3.3-7.3,7.4-7.2C462.4,345,465.6,348.4,465.5,352.4z"/>
	<path d="M384.7,374c4,0.1,7.2,3.6,7,7.6c-0.2,4-3.7,7.1-7.7,6.9c-3.8-0.2-6.8-3.5-6.8-7.3C377.4,377.2,380.8,373.9,384.7,374z"/>
	<path d="M179.7,425.5c-4.1-0.1-7.2-3.5-7-7.6c0.2-3.8,3.4-6.9,7.2-6.9c4,0,7.3,3.3,7.3,7.3C187.1,422.4,183.8,425.6,179.7,425.5z"
		/>
	<path d="M286.3,29.4c4,0,7.2,3.4,7.1,7.5c-0.1,3.9-3.2,7-7,7.1c-4,0.1-7.4-3.2-7.4-7.2C279,32.7,282.3,29.4,286.3,29.4z"/>
	<path d="M412.3,423.4c0.1,4.1-3,7.3-7,7.4c-4,0.1-7.3-3-7.4-7.1c-0.1-4,3-7.4,7-7.4C409,416.2,412.3,419.4,412.3,423.4z"/>
	<path d="M370.2,58.7c4.1,0,7.3,3.2,7.3,7.2c0,4.1-3.3,7.3-7.4,7.2c-3.8-0.1-6.9-3.2-7-7C362.9,62.1,366.2,58.7,370.2,58.7z"/>
	<path d="M213,428.1c0.1,4-3.1,7.3-7.1,7.4c-4,0.1-7.3-3.1-7.3-7.1c-0.1-4.1,3-7.3,7-7.4C209.6,420.9,212.9,424.1,213,428.1z"/>
	<path d="M134.5,379.8c4.1,0.1,7.2,3.3,7.1,7.4c-0.1,4.1-3.3,7.1-7.4,7c-4-0.1-7.1-3.4-7.1-7.4C127.1,382.8,130.4,379.7,134.5,379.8
		z"/>
	<path d="M322.6,66.8c0.1,4-3.1,7.3-7.1,7.4c-4,0.1-7.3-3-7.4-7c-0.1-4,3-7.3,7.1-7.4C319.2,59.7,322.5,62.8,322.6,66.8z"/>
	<path d="M220.7,90.2c-4.1-0.1-7.2-3.3-7.1-7.4c0.1-4.1,3.4-7.1,7.5-7C225,76,228,79.1,228,83C228,87.1,224.8,90.3,220.7,90.2z"/>
	<path d="M204.4,447.8c0.1,4.1-3,7.3-7.2,7.4c-3.9,0-7.1-2.9-7.3-6.8c-0.2-4.1,2.9-7.5,6.9-7.6C201,440.6,204.3,443.7,204.4,447.8z"
		/>
	<path d="M322,448.2c0.1,4.1-3.2,7.3-7.2,7.3c-3.9,0-7-3-7.2-6.9c-0.2-4.1,2.9-7.4,7-7.6C318.6,440.9,321.9,444.1,322,448.2z"/>
	<path d="M226.4,447.3c4,0.1,7.1,3.4,7,7.5c-0.1,4-3.4,7.2-7.4,7.1c-4-0.1-7.1-3.4-7-7.5C219.1,450.4,222.5,447.2,226.4,447.3z"/>
	<path d="M318.4,88c0,4.1-3.1,7.2-7.2,7.3c-4.1,0-7.2-3.1-7.2-7.2c0-4.1,3.1-7.2,7.2-7.2C315.2,80.8,318.4,83.9,318.4,88z"/>
	<path d="M194.2,97.9c-4,0-7.2-3.2-7.2-7.2c0-4.1,3.2-7.3,7.2-7.3c4.1,0,7.2,3.2,7.2,7.2C201.4,94.7,198.2,97.9,194.2,97.9z"/>
	<path d="M181.7,460.3c4-0.1,7.4,3.2,7.4,7.2c0,4-3.3,7.3-7.4,7.3c-3.8-0.1-6.9-3.1-7.1-7C174.5,463.8,177.7,460.4,181.7,460.3z"/>
	<path d="M152.2,92.2c0,4.1-3.2,7.3-7.3,7.2c-3.9-0.1-6.9-3.1-7.1-7c-0.1-4.1,3-7.4,7.1-7.5C149,84.9,152.2,88.1,152.2,92.2z"/>
	<path d="M368.6,100c-4.1-0.2-7.1-3.6-6.8-7.7c0.3-3.9,3.3-6.8,7.3-6.7c4.1,0.1,7.2,3.3,7.1,7.4C376,97.1,372.6,100.2,368.6,100z"/>
	<path d="M105.4,100.6c0.1,4.1-3.1,7.4-7.2,7.4c-4,0-7.3-3.3-7.2-7.4c0-3.8,3.1-7,6.9-7.1C101.9,93.4,105.3,96.5,105.4,100.6z"/>
	<path d="M451.1,206.1c4,0.1,7.2,3.4,7.1,7.3c-0.1,4-3.3,7.2-7.3,7.1c-4,0-7.1-3.2-7.1-7.3C443.8,209.3,447.1,206,451.1,206.1z"/>
	<path d="M336.7,105.8c-4-0.1-7.1-3.5-7-7.6c0.2-3.8,3.3-6.9,7.1-6.9c4,0,7.3,3.4,7.3,7.3C344,102.6,340.6,105.9,336.7,105.8z"/>
	<path d="M35.7,321.4c0.1-4,3.5-7.2,7.5-7c3.8,0.1,6.9,3.3,6.9,7.2c0,4-3.3,7.4-7.3,7.3C38.8,328.8,35.6,325.4,35.7,321.4z"/>
	<path d="M284,88.9c-4-0.1-7.2-3.5-7-7.5c0.2-4,3.6-7.1,7.6-6.9c3.8,0.2,6.8,3.4,6.8,7.3C291.3,85.7,287.9,89,284,88.9z"/>
	<path d="M120.6,73.8c4,0.1,7.2,3.3,7.2,7.3c-0.1,4-3.3,7.1-7.4,7.1c-4-0.1-7.2-3.3-7.1-7.3C113.3,76.8,116.6,73.7,120.6,73.8z"/>
	<path d="M152.5,64.5c-0.1,4-3.5,7.2-7.6,7c-3.8-0.2-6.9-3.4-6.9-7.2c0-4,3.4-7.3,7.3-7.3C149.3,57.1,152.6,60.5,152.5,64.5z"/>
	<path d="M169.2,444.2c-4-0.1-7.1-3.4-7-7.4c0.1-4,3.4-7.1,7.5-7c4,0.1,7.2,3.4,7,7.4C176.5,441.2,173.2,444.3,169.2,444.2z"/>
	<path d="M240.1,433.9c0.1,4-3,7.3-7,7.4c-4.1,0.1-7.3-2.9-7.5-6.9c-0.1-4,3-7.3,7-7.4C236.7,426.8,240,429.8,240.1,433.9z"/>
	<path d="M343.3,85.1c-4,0.1-7.3-3-7.4-7c-0.1-4.1,3-7.3,7-7.4c4.1-0.1,7.3,2.9,7.4,7C350.5,81.7,347.4,84.9,343.3,85.1z"/>
	<path d="M61.9,308.3c-4.1,0-7.3-3.3-7.1-7.4c0.1-4.1,3.4-7.2,7.5-7.1c3.8,0.1,6.8,3.3,6.9,7.2C69.2,305.1,66,308.3,61.9,308.3z"/>
	<path d="M143.5,414.8c4-0.1,7.4,3.2,7.4,7.2c0,4-3.3,7.3-7.3,7.2c-3.8-0.1-6.9-3.1-7.1-7C136.2,418.2,139.4,414.8,143.5,414.8z"/>
	<path d="M293.4,60.4c0,4-3.3,7.3-7.3,7.2c-3.8-0.1-7-3.2-7.1-7c-0.1-4,3.1-7.4,7.1-7.5C290.1,53,293.4,56.3,293.4,60.4z"/>
	<path d="M85.1,201.6c4.1-0.1,7.4,3.1,7.4,7.2c0,4.1-3.2,7.3-7.3,7.3c-3.8,0-7-3.1-7.1-6.9C77.8,205,81,201.6,85.1,201.6z"/>
	<path d="M228,52.9c4.1,0.1,7.2,3.4,7.2,7.4c-0.1,4-3.5,7.2-7.5,7c-3.9-0.1-6.9-3.3-6.9-7.2C220.7,56.1,223.9,52.9,228,52.9z"/>
	<path d="M263.7,58.1c0,4-3.4,7.3-7.4,7.2c-3.8-0.1-7-3.2-7.1-7c-0.1-4,3.1-7.4,7.2-7.4C260.4,50.8,263.8,54.1,263.7,58.1z"/>
	<path d="M78.4,183.6c0.1,4.1-2.9,7.3-7,7.5c-4,0.1-7.3-2.9-7.5-7c-0.1-4.1,2.9-7.4,7-7.5C75,176.5,78.3,179.5,78.4,183.6z"/>
	<path d="M388.9,442c0,4-3.3,7.2-7.3,7.2c-4.1,0-7.2-3.2-7.2-7.3c0-4.1,3.2-7.2,7.3-7.2C385.7,434.8,388.9,438,388.9,442z"/>
	<path d="M49.2,167.9c4-0.1,7.4,3.1,7.4,7.1c0.1,3.8-2.9,7-6.8,7.3c-4,0.2-7.5-2.8-7.7-6.8C42,171.5,45.2,168,49.2,167.9z"/>
	<path d="M400,159.1c-4.1,0.1-7.3-3-7.4-7.2c0-4.1,3.1-7.3,7.2-7.3c3.8,0,7,3.1,7.2,6.9C407.2,155.6,404.1,159,400,159.1z"/>
	<path d="M356,464.3c-4,0.1-7.2-3.1-7.3-7.2c0-4.1,3.1-7.3,7.1-7.3c4,0,7.3,3.1,7.3,7.2C363.2,461,360,464.2,356,464.3z"/>
	<path d="M65,241.7c0.1,4-3.2,7.4-7.2,7.4c-4.1,0-7.3-3.3-7.2-7.4c0-3.9,3.1-6.9,7-7.1C61.6,234.5,64.9,237.6,65,241.7z"/>
	<path d="M360.6,120.2c-4,0.1-7.3-3.1-7.4-7.1c-0.1-4,3.1-7.3,7.1-7.3c4-0.1,7.3,3.1,7.4,7.1C367.8,116.9,364.6,120.1,360.6,120.2z"
		/>
	<path d="M429,364.8c-4,0-7.2-3.2-7.2-7.2c0-4,3.2-7.2,7.2-7.3c4,0,7.2,3.2,7.2,7.3C436.2,361.6,433,364.8,429,364.8z"/>
	<path d="M239.6,487c-4-0.3-7-3.8-6.7-7.8c0.3-4,3.8-7,7.9-6.6c3.8,0.3,6.7,3.6,6.5,7.5C247.1,484.2,243.6,487.3,239.6,487z"/>
	<path d="M79.8,228.7c4,0,7.2,3.3,7.2,7.4c-0.1,4-3.5,7.2-7.5,7.1c-3.9-0.1-6.9-3.2-6.9-7.1C72.6,231.9,75.7,228.7,79.8,228.7z"/>
	<path d="M409.4,359.7c0.1,4.1-3.1,7.4-7.2,7.4c-4,0-7.3-3.3-7.2-7.3c0-3.9,3.1-7,6.9-7.1C406,352.5,409.3,355.6,409.4,359.7z"/>
	<path d="M432.9,290.4c-4.1,0.1-7.3-3.1-7.3-7.2c0-3.9,3-7,6.8-7.2c4-0.2,7.4,2.9,7.6,7C440.1,287,436.9,290.3,432.9,290.4z"/>
	<path d="M432,235.1c-4,0-7.2-3.3-7.2-7.4c0.1-4,3.4-7.2,7.5-7.1c3.9,0.1,6.9,3.2,6.9,7.1C439.2,231.9,436,235.2,432,235.1z"/>
	<path d="M452,158.1c-4-0.1-7.1-3.4-7-7.4c0.1-4,3.3-7.2,7.4-7.1c4.1,0.1,7.1,3.3,7,7.4C459.3,155.1,456.1,158.2,452,158.1z"/>
	<path d="M42.2,233.1c-0.1,4-3.3,7.1-7.4,7.1c-4-0.1-7.1-3.3-7-7.4c0.1-4.1,3.3-7.2,7.3-7.1C39.3,225.8,42.3,229,42.2,233.1z"/>
	<path d="M172.1,58.4c-4.1,0-7.3-3.2-7.2-7.3c0-4,3.4-7.2,7.5-7.1c3.8,0.1,6.9,3.2,7,7.1C179.3,55.2,176.2,58.4,172.1,58.4z"/>
	<path d="M262.7,479.6c0.2-4,3.7-7.1,7.7-6.8c4,0.3,7,3.8,6.6,7.9c-0.3,3.8-3.6,6.7-7.5,6.5C265.5,487.1,262.5,483.7,262.7,479.6z"
		/>
	<path d="M472,177.9c0,4-3.3,7.3-7.3,7.3c-4,0-7.2-3.3-7.1-7.4c0.1-3.9,3.1-6.9,7-7C468.6,170.7,472,173.9,472,177.9z"/>
	<path d="M92.3,400.2c-0.1,4.1-3.5,7.1-7.6,6.9c-3.9-0.2-6.9-3.3-6.8-7.2c0-4.1,3.3-7.3,7.3-7.2C89.3,392.9,92.5,396.1,92.3,400.2z"
		/>
	<path d="M263.1,457c0,4.1-3.2,7.3-7.3,7.2c-4.1-0.1-7.2-3.4-7-7.5c0.1-3.9,3.2-6.9,7.1-7C259.9,449.7,263.1,452.9,263.1,457z"/>
	<path d="M295.3,432.6c0.1,4-3.1,7.4-7.1,7.5c-4,0-7.3-3.3-7.3-7.2c0-3.8,3-7,6.9-7.2C291.9,425.4,295.2,428.5,295.3,432.6z"/>
	<path d="M458.1,302.1c0.1,4-3.2,7.3-7.2,7.3c-3.9,0-7-3-7.2-6.9c-0.2-4.1,3-7.5,7-7.6C454.6,294.9,458,298.1,458.1,302.1z"/>
	<path d="M412.4,374.9c4,0.1,7.1,3.5,7,7.6c-0.2,3.9-3.3,6.8-7.2,6.8c-4.1,0-7.3-3.3-7.2-7.3C405,378,408.3,374.8,412.4,374.9z"/>
	<path d="M96.2,318.2c-0.1,4-3.4,7.1-7.5,6.9c-4.1-0.1-7.1-3.4-7-7.5c0.2-4.1,3.4-7.1,7.5-6.9C93.2,310.9,96.3,314.2,96.2,318.2z"/>
	<path d="M395,90.1c-4.1,0.1-7.4-3-7.4-7.1c-0.1-4.1,3.1-7.3,7.3-7.3c3.9,0,7,3,7.2,6.8C402.2,86.6,399,90,395,90.1z"/>
	<path d="M146.4,110.7c4.1,0.2,7.1,3.7,6.8,7.7c-0.3,4-3.8,7-7.8,6.7c-3.8-0.3-6.7-3.6-6.5-7.5C139,113.6,142.4,110.5,146.4,110.7z"
		/>
	<path d="M263.7,79.3c0.1,3.7-3.4,7.4-6.8,7.3c-3.3-0.1-6.7-3.6-6.4-7c0.3-3.6,1.3-7.1,5.8-7.4C260.2,71.9,263.7,75.4,263.7,79.3z"
		/>
</g>
</svg>
