<?xml version="1.0" encoding="utf-8"?>
<!-- Generator: Adobe Illustrator 22.1.0, SVG Export Plug-In . SVG Version: 6.00 Build 0)  -->
<svg version="1.1" id="Слой_1" xmlns="http://www.w3.org/2000/svg" xmlns:xlink="http://www.w3.org/1999/xlink" x="0px" y="0px"
	 viewBox="0 0 725.7 725.7" style="enable-background:new 0 0 725.7 725.7;" xml:space="preserve">
<style type="text/css">
	.st0{fill:none;stroke:#000000;stroke-width:10;stroke-miterlimit:10;}
	.st1{fill:none;stroke:#000000;stroke-width:5;stroke-miterlimit:10;}
	.st2{fill:none;stroke:#000000;stroke-miterlimit:10;}
	.st3{fill:none;stroke:#000000;stroke-width:3;stroke-miterlimit:10;}
</style>
<g id="S51">
	<ellipse class="st0" cx="370.4" cy="314.9" rx="336.2" ry="157.7"/>
	<path class="st0" d="M706.5,405.7c7,13,14,30.4,14,44.4c0,90.7-156.7,164.3-350.1,164.3S20.2,540.8,20.2,450.1
		c0-13.6,6.9-30.5,13.5-43.2"/>
	<path class="st0" d="M34.2,314.9l-0.4,111.8c0,87.1,150.5,157.7,336.2,157.7s336.2-70.6,336.2-157.7l0.4-111.8"/>
	<path class="st0" d="M414.5,535.3h-87.9c-4.9,0-8.8-4-8.8-8.8V526c0-4.9,4-8.8,8.8-8.8h87.9c4.9,0,8.8,4,8.8,8.8v0.4
		C423.4,531.3,419.4,535.3,414.5,535.3z"/>
	<ellipse class="st1" cx="371.1" cy="305.6" rx="312" ry="147.5"/>
	<line class="st1" x1="41.7" y1="281.5" x2="62.8" y2="282.9"/>
	<line class="st1" x1="679" y1="281.7" x2="697.3" y2="278"/>
	<path class="st1" d="M451.9,303.2c13.3,7.6,23.7,17.9,23.7,28.2c0,24.9-46.6,45.1-104,45.1s-104-20.2-104-45.1
		c0-9.9,9.3-19.9,21.7-27.4"/>
	<ellipse class="st1" cx="370.6" cy="296.6" rx="80" ry="34.7"/>
	<path class="st1" d="M450.3,313.6c0,19.1-35.8,34.7-80,34.7s-80-15.5-80-34.7"/>
	<path class="st1" d="M290.4,313.6l-6.4,19.8c0,19.1,39,34.7,87.1,34.7s87.1-15.5,87.1-34.7l-7.9-19.8"/>
	<line class="st1" x1="370.4" y1="348.3" x2="369.9" y2="368.1"/>
	<line class="st1" x1="450.3" y1="313.6" x2="450.6" y2="296.6"/>
	<line class="st1" x1="290.4" y1="313.6" x2="290.6" y2="296.6"/>
	<ellipse class="st1" cx="371.4" cy="423.9" rx="21.3" ry="13.1"/>
	<ellipse class="st1" cx="444.6" cy="419.9" rx="14" ry="8.6"/>
	<ellipse class="st1" cx="295.1" cy="419.9" rx="14" ry="8.6"/>
	<line class="st1" x1="267.6" y1="331.4" x2="284" y2="333.4"/>
	<line class="st1" x1="458.2" y1="333.4" x2="475.6" y2="331.4"/>
	<line class="st0" x1="142.5" y1="593.1" x2="140.6" y2="573.6"/>
	<line class="st0" x1="44.6" y1="548.2" x2="65" y2="532.6"/>
	<line class="st2" x1="140.2" y1="592.7" x2="146.7" y2="633.9"/>
	<line class="st2" x1="149.5" y1="633.1" x2="141.2" y2="591.3"/>
	<line class="st2" x1="151.9" y1="631.9" x2="142.4" y2="591.6"/>
	<line class="st2" x1="153.9" y1="630.1" x2="143.5" y2="590.9"/>
	<line class="st2" x1="155.7" y1="629.4" x2="145.5" y2="592.3"/>
	<path class="st2" d="M44.6,546c0,1-18,7.8-41.2,2"/>
	<path class="st2" d="M44.4,544.9c0,1-17.7,7.1-41,1.3"/>
	<path class="st2" d="M45,546.9c0,1-18.3,9-41.6,3.3"/>
	<path class="st2" d="M46.4,549.3c0,1-19.8,10.6-43,4.8"/>
	<path class="st2" d="M46.1,547.8c0,1-19.5,10.2-42.7,4.6"/>
	<polyline class="st3" points="367.2,293.2 360.6,285.8 360.6,285.8 382.8,286.4 365.7,300.6 377.4,300.6 	"/>
</g>
</svg>
