<?xml version="1.0" encoding="utf-8"?>
<!-- Generator: Adobe Illustrator 22.1.0, SVG Export Plug-In . SVG Version: 6.00 Build 0)  -->
<svg version="1.1" id="Слой_1" xmlns="http://www.w3.org/2000/svg" xmlns:xlink="http://www.w3.org/1999/xlink" x="0px" y="0px"
	 viewBox="0 0 725.7 725.7" style="enable-background:new 0 0 725.7 725.7;" xml:space="preserve">
<style type="text/css">
	.st0{fill:none;stroke:#000000;stroke-width:10;stroke-miterlimit:10;}
</style>
<image style="display:none;overflow:visible;" width="500" height="500" xlink:href="EA41CE55.jpg"  transform="matrix(1.4513 0 0 1.4513 0 0)">
</image>
<line class="st0" x1="246" y1="350" x2="475" y2="350"/>
<path class="st0" d="M246,350c-5.9-103.7,32.3-272.4,111.5-336.8c3-2.4,7.4-2.3,10.2,0.4C482.8,125.6,475,292.8,475,350
	c1.5,35.5-6,159-66,219v39h-95v-39C269,527,242.3,440,246,350"/>
<line class="st0" x1="314" y1="569" x2="409" y2="569"/>
<polyline class="st0" points="323.5,608 323.5,636.2 329.5,645.5 323.5,653.8 331,662.5 323.5,669.2 331,676.8 323.5,685.8 
	330,692.3 323.5,699.5 "/>
<path class="st0" d="M323.5,625.7"/>
<path class="st0" d="M326.5,695.2"/>
<polyline class="st0" points="402.5,608 402.5,643.3 396,652.7 402.5,660.9 394.4,669.7 402.5,676.3 394.4,684 402.5,693 
	392.5,699.5 "/>
<path class="st0" d="M395.2,695.2"/>
<line class="st0" x1="323.5" y1="699.5" x2="395.2" y2="699.5"/>
<polyline class="st0" points="336.5,699.5 346,717 376.5,717.2 386,699.5 "/>
<line class="st0" x1="330" y1="692.3" x2="394.4" y2="684"/>
<line class="st0" x1="331" y1="676.8" x2="394.4" y2="669.7"/>
<line class="st0" x1="331" y1="662.5" x2="396" y2="652.7"/>
<line class="st0" x1="329.5" y1="645.5" x2="402.5" y2="634.7"/>
<g>
	<path d="M304.8,395.6v10h-3.1v-26.6h7.3c2.8,0,5,0.7,6.6,2.1s2.3,3.3,2.3,5.9c0,2.5-0.9,4.6-2.6,6.2c-1.7,1.6-4.1,2.4-7,2.4H304.8z
		 M304.8,381.9v10.9h3.3c2.1,0,3.8-0.5,4.9-1.5c1.1-1,1.7-2.4,1.7-4.2c0-3.5-2.1-5.3-6.2-5.3H304.8z"/>
	<path d="M342.9,405.6h-3.1v-12.1H326v12.1h-3.1v-26.6h3.1v11.7h13.7v-11.7h3.1V405.6z"/>
	<path d="M353,405.6h-3.1v-26.6h3.1V405.6z"/>
	<path d="M373.7,405.6h-13.8v-26.6h3.1v23.7h10.7V405.6z"/>
	<path d="M380.9,405.6h-3.1v-26.6h3.1V405.6z"/>
	<path d="M391,395.6v10h-3.1v-26.6h7.3c2.8,0,5,0.7,6.6,2.1s2.3,3.3,2.3,5.9c0,2.5-0.9,4.6-2.6,6.2c-1.7,1.6-4.1,2.4-7,2.4H391z
		 M391,381.9v10.9h3.3c2.1,0,3.8-0.5,4.9-1.5c1.1-1,1.7-2.4,1.7-4.2c0-3.5-2.1-5.3-6.2-5.3H391z"/>
	<path d="M407.9,404.6v-3.7c0.4,0.4,0.9,0.7,1.5,1s1.2,0.5,1.9,0.8c0.6,0.2,1.3,0.4,2,0.5c0.7,0.1,1.3,0.2,1.8,0.2
		c1.9,0,3.3-0.4,4.3-1.1s1.4-1.7,1.4-3.1c0-0.7-0.2-1.3-0.5-1.9c-0.3-0.5-0.8-1-1.3-1.5c-0.6-0.4-1.2-0.9-2-1.3s-1.6-0.8-2.5-1.3
		c-0.9-0.5-1.8-0.9-2.6-1.4c-0.8-0.5-1.5-1-2.1-1.6s-1.1-1.2-1.4-2s-0.5-1.6-0.5-2.6c0-1.2,0.3-2.3,0.8-3.2c0.5-0.9,1.2-1.6,2.1-2.2
		s1.8-1,3-1.3c1.1-0.3,2.2-0.4,3.4-0.4c2.6,0,4.5,0.3,5.7,0.9v3.5c-1.6-1.1-3.6-1.6-6-1.6c-0.7,0-1.4,0.1-2,0.2
		c-0.7,0.1-1.3,0.4-1.8,0.7c-0.5,0.3-1,0.7-1.3,1.2c-0.3,0.5-0.5,1.1-0.5,1.9c0,0.7,0.1,1.3,0.4,1.8c0.3,0.5,0.6,0.9,1.1,1.4
		c0.5,0.4,1.1,0.8,1.8,1.2c0.7,0.4,1.5,0.8,2.5,1.3c1,0.5,1.9,1,2.7,1.5c0.9,0.5,1.6,1.1,2.2,1.7c0.6,0.6,1.2,1.3,1.5,2.1
		c0.4,0.8,0.6,1.6,0.6,2.6c0,1.3-0.3,2.4-0.8,3.3s-1.2,1.6-2.1,2.2c-0.9,0.6-1.9,1-3,1.2c-1.1,0.3-2.3,0.4-3.6,0.4
		c-0.4,0-0.9,0-1.6-0.1c-0.6-0.1-1.2-0.2-1.9-0.3c-0.6-0.1-1.3-0.3-1.8-0.5S408.2,404.8,407.9,404.6z"/>
</g>
</svg>
