<?xml version="1.0" encoding="utf-8"?>
<!-- Generator: Adobe Illustrator 22.1.0, SVG Export Plug-In . SVG Version: 6.00 Build 0)  -->
<svg version="1.1" baseProfile="tiny" id="Слой_1"
	 xmlns="http://www.w3.org/2000/svg" xmlns:xlink="http://www.w3.org/1999/xlink" x="0px" y="0px" viewBox="0 0 725.7 725.7"
	 xml:space="preserve">
<g>
	<path fill="none" stroke="#000000" stroke-width="10" stroke-miterlimit="10" d="M359.8,125.7"/>
	<path fill="none" stroke="#000000" stroke-width="10" stroke-miterlimit="10" d="M46.2,395.6c-3.9-0.4-2.8-4.2-2.8-6.7
		c-0.9-46.4,6.4-91.3,23.5-134.6c18.6-47,46.7-87.5,84.3-121.1C200.5,89,258,61.4,323.9,51.7c9.9-1.5,19.9-2.7,29.9-3.1
		c11.6-0.8,23.2-0.9,34.7,0c4.9,0.1,9.8,0.3,14.6,0.4c18,3,36.1,5.4,53.7,10.3c88.4,24.6,155.8,76.3,201.4,156
		c24.6,42.9,38.1,89.2,39.7,138.8c0.1,2-0.2,4.1,1.1,5.8c0,4.8,0,9.6,0,14.5c-2.3,13.1-2,26.4-4.1,39.5
		c-9.2,57.3-31.6,108.5-69,152.9c-45.1,53.6-102,88.1-170.2,104c-17.4,4.1-34.9,6.9-52.8,7.2c-2.5,0-5.1-0.4-7.3,1.2
		c-5.8,0-11.6,0-17.4,0c-12.3-2.4-24.8-2.1-37.2-3.9c-53.7-8-102.3-28.1-145.1-61.3C134.7,566.5,95.5,504.8,81.2,428.4
		C70,368,78,309.6,103.3,253.6c0.6-1.4,1.1-2.8,1.6-4.2c2.2-3.9,5-7.6,6-12.1c15.9-28.3,34.9-54.3,58.8-76.5
		c27.5-25.5,58.6-45.2,93.3-59.1c1.1-0.5,2.2-1.1,3.3-1.7c27.8-10.3,56.4-16.4,86-18.3c12.6-0.9,25.1-0.8,37.7,0
		c65,4.6,122.9,27.1,172.8,69.3c54.8,46.4,89.3,104.8,99.6,175.9c11.1,75.9-7,145.4-52.5,207.3c-24.4,33.2-55.7,58.9-91.6,78.8
		c-5,2.5-10.1,5-15.1,7.5c-25.9,11.1-52.5,19.2-80.6,23c-47.3,6.4-92.9,0.1-137.3-16.6c-10.4-3.9-20.7-8.3-31-12.5
		c-0.5-3.1-3.5-3.3-5.5-4.5C174.6,566,127,502.6,113,417.2c-12.8-77.9,7.3-148.4,58-209.3c43.4-52.1,99.4-82.7,166.7-91.4
		c75.1-9.7,142.3,9.9,201,57.4c49.7,40.3,80.4,92.4,90.7,155.7c7.7,47.5,1,93.4-18.4,137.5c-0.8,1.8-1.5,3.7-2.2,5.5
		c-1.5,3-3,6-4.5,9.1C591,505.6,575,527.2,555,545.9c-37.4,34.9-81.3,56.3-131.8,64.2c-51.2,8-100.3,0.4-146.2-22.9
		c-70.9-36-116.5-93.1-130.7-171.8c-12.4-68.3,5-130.3,48.5-184.6c18.9-23.6,42.3-41.9,68.5-56.7c4-2,8.1-4,12.1-6
		c20.5-8.8,41.6-15.4,63.8-18.6c43.8-6.3,85.7-0.1,126.1,17.5c6.2,2.7,12.2,5.7,18.3,8.6c20.1,12,38.7,25.9,54.9,43
		c34.5,36.6,55.6,79.5,59.9,129.9c5.2,61.2-12.6,115-53.5,160.8c-36.1,40.4-81.5,63.2-135.4,69.3c-98.4,11.1-193.8-47.9-223.9-141.9
		c-23.5-73.3-7.6-139.8,45.2-196.4c30.2-32.4,67.9-51.7,111.4-57.9c59.8-8.6,113.5,6.8,159.4,46.5c34.5,29.8,56.2,67.4,62.8,112.5
		c7.7,52.9-6.1,100.6-40.3,141.8c-28.2,34-64.8,54.6-108.1,61.5c-51,8.2-97.7-3.5-139.1-34.7c-21.9-16.6-39.2-37.2-51.3-62
		c-0.9-1.8-2-3.4-3-5.1c-9.9-24.2-15.2-49.2-13.6-75.6c2.2-36.2,14.6-68.5,38.1-96.1c27.8-32.8,63.4-52.5,106.1-57.1
		c46.7-5,89,7.4,125.2,38.2c28,23.9,46.4,53.8,52.7,90.3c7.6,44.3-3.4,84.1-31.9,118.8c-24.3,29.7-56.2,46.9-93.9,51.5
		c-42.5,5.2-81.1-5.8-114.2-33.9c-23.6-20.1-40-45-46.3-75.5c-8.4-41.2,0.3-78.9,27.7-111.2c29.8-35.1,68.5-49.5,114-45.6
		c57.6,4.9,106.8,51.9,113.3,109.4c3.8,33.6-6.8,63.4-29.4,88.7c-0.7,0.7-1.2,1.6-1.8,2.4c-18.1,16.6-38.7,28-63.1,32.7
		c-39.9,7.6-87.6-11.3-110.5-44.8"/>
</g>
<rect x="17.5" y="397.3" fill="none" stroke="#000000" stroke-width="10" stroke-miterlimit="10" width="39.8" height="156.8"/>
<rect x="20.5" y="550.9" fill="none" stroke="#000000" stroke-width="10" stroke-miterlimit="10" width="33.1" height="58.4"/>
<rect x="274.5" y="401.8" transform="matrix(0.8072 -0.5903 0.5903 0.8072 -193.3334 249.9543)" fill="none" stroke="#000000" stroke-width="10" stroke-miterlimit="10" width="22.9" height="38.2"/>
</svg>
