<?xml version="1.0" encoding="utf-8"?>
<!-- Generator: Adobe Illustrator 22.1.0, SVG Export Plug-In . SVG Version: 6.00 Build 0)  -->
<svg version="1.1" baseProfile="tiny" id="Layer_1" xmlns="http://www.w3.org/2000/svg" xmlns:xlink="http://www.w3.org/1999/xlink"
	 x="0px" y="0px" viewBox="0 0 1600 1600" xml:space="preserve">
<g>
	<path d="M709,1c7.8,0.6,15.5,1.3,23.3,1.9c55.4,3.8,109.4,14.4,162.2,31.7c81.9,26.7,156.1,67.7,222.5,122.5
		c66.8,55.1,121.3,120.5,163.4,196.1c34.1,61.2,58.2,126.1,72.1,194.7c11.4,56.4,16.1,113.4,12.4,170.9c-1,15-2.9,29.8-4,44.8
		c-0.2,2.5,0.4,5.7,1.9,7.7c31.8,45.2,62.6,91.1,91.2,138.4c31.7,52.4,61.7,105.7,86.5,161.7c18.2,41.3,33.6,83.6,42,128.1
		c12.8,67.6,4.6,133-22.8,195.8c-24.9,57-63,103.5-114.4,138.9c-39.6,27.2-83,45.1-130.8,50.9c-116.1,14.3-211.4-25.1-286.1-114.2
		c-38.2-45.6-60.9-98.8-70.4-157.5c-0.1-0.6-0.4-1.2-0.8-2.4c-7.3,3-14.4,5.9-21.6,8.7c-44.9,17.6-91.2,30-138.8,37.6
		c-51,8.1-102.3,10.9-153.9,7.8c-81.2-4.9-159-23.6-233.4-56.5c-57.6-25.4-110.7-58.1-159.2-98.2C183.4,1155,128.9,1089.6,86.7,1014
		c-37-66.4-62.4-137-75.2-211.9C6.8,774,5.1,745.3,2,716.8c-0.3-2.6-0.7-5.2-1-7.8c0-16.7,0-33.3,0-50c0.3-2.1,0.6-4.2,0.8-6.4
		c2.1-22.9,3.4-45.8,6.6-68.6c9-63.4,27.1-124.3,53.8-182.5c41.4-90.5,99.8-168.4,175-233.6c69.5-60.3,147.9-104.8,235.4-133.4
		C525.3,17.3,579.3,6.7,634.6,2.9c8.1-0.6,16.2-1.2,24.4-1.9C675.7,1,692.3,1,709,1z M683.6,1175.7c34.8-0.2,69.2-3.8,103.1-11.2
		c83.9-18.5,158.3-56,222.8-112.8c1.6-1.4,2.8-3.2,3.8-5.1c5.5-11,10.8-22.1,16.4-33.1c38-74,81.6-144.5,129-212.7
		c1.8-2.6,3.5-5.8,3.9-9c4-25.3,8.7-50.5,11.2-76c4.4-44.1,0.5-87.9-8.3-131.2c-13.8-67.5-40.7-129.5-80.7-185.7
		c-45-63.2-101.7-113.3-170.2-149.8c-61.8-33-127.7-51.8-197.6-56.4c-44.6-3-88.9-0.2-132.7,8.8c-66.4,13.7-127.4,39.9-182.8,78.8
		c-63.8,44.8-114.4,101.4-151.4,170c-36.9,68.4-56.3,141.5-58.5,219.2c-1.5,54.6,5.5,108,21.8,160c26.3,83.9,71.6,156.1,136.5,215.5
		C444.3,1131.4,556,1174.1,683.6,1175.7z M1270.9,755c-1.6,1.9-2.7,3.3-3.9,4.7c-22,27.2-41.9,55.8-61.6,84.6
		c-53.7,78.4-103.2,159.3-141.4,246.6c-11.8,27-22.2,54.8-31.7,82.8c-13.9,41-19.5,83-12.6,126.4c7.7,49.1,26.1,93.5,57.8,131.8
		c46.2,55.8,105.4,87.4,178.2,92.3c41,2.8,80.3-4.4,117.5-21.8c61.6-28.7,104.9-75.4,130.6-138c21.5-52.3,27.2-106.3,13.5-161.8
		c-10.3-41.8-25.8-81.7-43.7-120.7c-39.6-86.7-89.6-167.3-142.2-246.5c-11.1-16.7-25.7-30.6-36-48
		C1288.9,776,1279.6,766.2,1270.9,755z M968.4,1160.3c-95,55.6-197.3,82.7-307.3,78.2c-110.1-4.5-210.4-39-300-103.2
		c-89.5-64.1-155.1-147.4-195-250c-119-305.8,49.4-643.1,362-734.8c150.8-44.2,295.7-25.2,432.8,51.9
		c181.3,111.1,272.4,273.9,279.4,484.7c9.6-12.4,19.9-25.6,30.4-39.3c10.5,13.4,20.7,26.4,31.6,40.3c0.1-2.4,0.3-3.5,0.2-4.7
		c-1.5-24.3-2.1-48.6-4.6-72.8c-5.1-49.7-17.2-97.9-34.9-144.6c-42.7-112.7-112.3-205.5-208.5-277.8
		C956.5,114.6,845.7,73.8,723,65.9c-56.8-3.7-113.2,0.2-168.8,12.3c-113.6,24.6-212.7,77.1-297,157
		c-62.8,59.6-111,129.4-144.6,209.2c-26.9,64-42.5,130.8-46.8,200.1c-2.4,38.7-1.4,77.3,3.4,115.7c6,48.4,17.6,95.4,34.8,141
		c26.9,71.1,65.5,135.2,115.9,192.1c61.5,69.3,134.7,122.5,219.8,159.2c68.4,29.5,139.9,45.8,214.2,49.3c48.6,2.3,96.8-1,144.7-9.8
		c52.4-9.7,102.7-25.7,150.9-48.5c4-1.9,5.1-4.3,5.5-8.3c1-9.8,1.9-19.6,3.7-29.2C961.6,1190.9,965.1,1175.8,968.4,1160.3z"/>
	<path d="M959.5,398.7c8.9-7.1,17.8-13.9,26.4-20.9c16.4-13.3,35.1-10.4,46.5,7.6c3.7,5.9,4.5,12.6,2,18.7
		c-2.6,6.5-6.1,13-10.6,18.3c-6.9,8.1-14.9,15.2-22.7,23c4,5.7,7.9,11.2,11.7,16.8c31.7,47,52.8,98.4,61.9,154.3
		c17.7,109.4-6,209.5-70.6,299.7C988.4,938,970.5,958,950.6,976c-17.4,15.8-42.9,10.6-51.9-10.3c-5.4-12.6-2.2-26.6,8.4-36.4
		c32.9-30.4,59.5-65.5,78.6-106.1c23.6-50.2,33.8-103.1,30.6-158.6c-3.5-61.6-22.5-117.9-56.9-169.1c-0.9-1.4-1.9-2.7-3.1-4.5
		c-5.9,5.9-11.5,11.5-17.1,17.2c-57.7,58.3-115.3,116.6-172.9,175c-1.8,1.8-3.1,4.7-3.4,7.2c-4.7,36.8-28.9,63.7-64.4,71
		c-43.8,9.1-88.6-23.3-93.4-67.6c-4.7-43.3,21.7-79.7,64.5-88.3c7.1-1.4,14.6-0.5,21.8-1c2.5-0.2,5.4-0.6,7.2-2
		c69.5-54.2,138.8-108.5,208.2-162.7c0.9-0.7,1.7-1.5,3.6-3.4c-14.9-11.1-29-22.6-44-32.5c-47.5-31.3-99.9-49-156.6-52.8
		c-95.2-6.4-179.7,20.8-251,84.8c-52.2,46.8-85.5,105.3-100.5,173.9c-13.7,62.8-10.3,124.7,11.6,185.3c18.8,51.9,49.2,96,89.6,133.4
		c9.7,9,13.9,19.9,10.4,32.9c-3.2,12-11.3,19.9-23.5,22.8c-10.3,2.5-20,0.4-28-6.8c-41.7-37.7-74.1-82.2-97.2-133.5
		c-15.4-34.2-25.7-69.8-30.8-107c-4.7-34.3-4.8-68.7-0.5-103.1c5.9-48.1,19.6-93.8,42.7-136.2c56.5-103.7,142.1-170.8,256.8-199.8
		c49.7-12.5,100-14.5,150.7-7.2c83.1,12.1,154.8,47.6,216,104.8C957.1,396.7,958.3,397.7,959.5,398.7z"/>
	<path d="M1080.1,1270c0.7-40.6,11.7-78.8,26.3-116.2c18.7-48.1,42.8-93.6,67.7-138.8c3.2-5.8,6.2-11.7,9.4-17.6
		c8.2-15,25.6-20.5,41.3-13.2c15.1,7,22.6,25.2,15.5,40.4c-7.1,15.2-15.4,29.8-23.4,44.6c-23.9,44.4-46.6,89.3-61.3,137.8
		c-6.5,21.5-12.1,43.3-11.5,66.1c0.8,27.4,10.8,51.5,26.9,73.3c5.2,7,11.3,13.6,17.8,19.5c13.5,12.2,15.4,31.7,3.8,45.2
		c-11.7,13.6-32,14.9-45.5,2.6c-36.7-33.4-59.5-74.2-65.5-123.8C1080.7,1283.4,1080.5,1276.7,1080.1,1270z"/>
</g>
</svg>
