<?xml version="1.0" encoding="utf-8"?>
<!-- Generator: Adobe Illustrator 22.1.0, SVG Export Plug-In . SVG Version: 6.00 Build 0)  -->
<svg version="1.1" baseProfile="tiny" id="Layer_1" xmlns="http://www.w3.org/2000/svg" xmlns:xlink="http://www.w3.org/1999/xlink"
	 x="0px" y="0px" viewBox="0 0 1600 1600" xml:space="preserve">
<g>
	<path d="M794.4,1524.9c-402.6-0.3-730.5-328.2-729.9-730.1C65.1,391.2,390.9,65.3,794.7,64.5c401.8-0.8,730.3,327.7,730.2,730.4
		C1524.8,1197.4,1196.9,1525.2,794.4,1524.9z M1461.2,794.6c0.2-365.1-292.4-661.1-655.7-666.5c-374-5.6-670.8,291.6-677.4,653.3
		c-6.9,379.1,297.9,679.9,666.5,679.9C1162.7,1461.4,1461.1,1163.4,1461.2,794.6z"/>
	<path d="M1080.3,508.9c-11,52.4-21.7,104.1-32.5,155.4c-13.2-12.5-26.3-24.9-39.6-37.5c-0.8,0.7-2,1.8-3.1,3
		c-40.5,40.5-81.1,81.1-121.7,121.5c-2.5,2.5-3.4,4.2-1.7,7.9c25.5,55.9-13,118.1-68.9,128.8c-19.2,3.7-37.4,1.4-55.1-6.5
		c-3-1.3-4.6-0.9-6.8,1.3c-30,30.1-60,60.2-90.2,90.1c-2.4,2.4-2.8,4.2-1.5,7.3c7.3,16.9,9.5,34.5,6.7,52.7
		c-2.7,17.1-18.1,29.4-34.3,27.4c-18.4-2.2-30.2-16.6-28.9-34.9c0.4-5.4,0.6-10.9,0.2-16.3c-0.2-2-2.3-4-3.8-5.7
		c-4-4.5-8.2-8.9-12.5-13.2c-1.6-1.6-3.6-3.9-5.6-4c-5.7-0.3-11.6-0.3-17.3,0.6c-16.6,2.6-32.7-8.7-36.4-26.1
		c-3.3-15.4,7.2-33.2,22.4-36.4c20.2-4.3,40.4-3.8,59.8,4.5c3.3,1.4,5.2,1.2,7.7-1.4c29.5-29.7,59.1-59.2,88.7-88.7
		c2.5-2.5,2.9-4.3,1.4-7.6c-24.4-55.5,11-120.1,70.9-130.2c18.2-3,35.4-0.6,52.1,6.8c2.5,1.1,4.2,1.4,6.5-0.9
		c41.5-41.7,83.1-83.3,124.7-124.9c0.5-0.5,0.9-1,0.9-1.1c-12.5-13.2-25-26.3-37.5-39.5C976.3,530.7,1027.8,519.9,1080.3,508.9z
		 M826.3,794.8c0.1-18.4-12.8-31.7-31.1-31.8c-18.1-0.1-32.1,13.3-32.2,30.9c-0.2,18.6,13.4,32.5,31.7,32.5
		C812.6,826.3,826.2,812.7,826.3,794.8z"/>
	<path d="M1153.6,1122c18.1-0.1,32.2,13.7,32.3,31.6c0.1,18-14.2,32.3-32.2,32.3c-17.6,0-31.7-14-31.9-31.5
		C1121.6,1135.9,1135.1,1122.1,1153.6,1122z"/>
	<path d="M435.6,1122c18.2,0,32.1,13.8,32.1,31.7c0,18-14.5,32.3-32.4,32.2c-17.7-0.1-32.1-14.6-31.8-32.2
		C403.6,1135.5,417.3,1122,435.6,1122z"/>
	<path d="M1121.8,435.8c-0.1-18.3,13.3-31.7,31.9-31.9c18.3-0.1,32.2,13.4,32.3,31.5c0.1,17.7-14.1,32-32,32.2
		C1136.2,467.9,1121.9,453.7,1121.8,435.8z"/>
	<path d="M435.5,403.9c18.3,0,32.2,13.6,32.2,31.6c0,17.6-14.4,32.1-32.1,32.1c-17.8,0-32-14.2-32.2-32
		C403.3,417.6,417.1,403.9,435.5,403.9z"/>
	<path d="M1021,1263.8c0,17.5-14.3,32-31.5,32.1c-17.5,0.1-32.4-14.5-32.4-31.9c0-17.6,14.4-32.1,31.6-32
		C1006.6,1232.2,1021,1246.3,1021,1263.8z"/>
	<path d="M1263.7,632.2c-17.9-0.1-31.9-14.6-31.7-32.8c0.1-16.9,14.5-31,31.5-30.9c17.9,0.1,32.6,14.5,32.5,31.7
		C1295.9,617.8,1281.2,632.3,1263.7,632.2z"/>
	<path d="M632.2,325.4c-0.2,17.8-14.6,32.2-32.1,32c-17.6-0.2-32.2-15-32-32.3c0.2-17.2,14.6-31.5,31.6-31.3
		C617.9,293.9,632.3,307.9,632.2,325.4z"/>
	<path d="M325.3,632.2c-17.2,0.1-31.8-14.3-32.1-31.7c-0.3-17.2,14.4-31.8,32.3-32c17.3-0.2,31.7,14.1,31.9,31.6
		C357.6,617.6,343.1,632,325.3,632.2z"/>
	<path d="M632.2,1264.1c0,17.5-14.6,31.9-32.3,31.9c-17.1,0-31-14.4-30.9-31.9c0.1-17.8,14.6-32.1,32.2-32
		C618.2,1232.2,632.2,1246.7,632.2,1264.1z"/>
	<path d="M325,1020.2c-17.5,0.1-31.8-13.9-31.7-31c0.1-17.4,14.5-32,31.6-31.9c17.7,0.1,32.2,14.1,32.5,31.2
		C357.7,1005.7,342.9,1020.1,325,1020.2z"/>
	<path d="M1020.2,324.7c0.1,17.8-14.2,32.7-31.4,32.7c-17.2,0-31.7-14.6-31.8-31.9c-0.1-17.4,14.4-31.7,32.3-31.8
		C1006.8,293.7,1020.1,307.1,1020.2,324.7z"/>
	<path d="M1263.8,1020.2c-18.4-0.4-32.2-14.8-31.8-33.1c0.3-16.1,15.7-30,32.8-29.8c17.4,0.2,31.6,15.2,31.2,32.9
		C1295.5,1007.2,1281.2,1020.6,1263.8,1020.2z"/>
	<path d="M826.3,286.4c0.1,17.6-13.9,31.9-31.4,32c-17.3,0.1-31.7-13.9-31.9-31.1c-0.1-17.7,13.8-32.1,31.2-32.3
		C811.8,254.8,826.2,268.9,826.3,286.4z"/>
	<path d="M286.8,826.3c-17.6,0.1-31.8-14.1-31.8-31.7c0-17.3,14.1-31.5,31.3-31.6c17.7-0.1,31.9,13.9,32,31.4
		C318.4,812.1,304.4,826.2,286.8,826.3z"/>
	<path d="M1334.2,795.3c-0.4,17.7-14.8,31.4-32.4,31c-18-0.5-31.3-14.9-30.8-33.5c0.4-16.7,15.5-30.2,33.1-29.7
		C1320.8,763.4,1334.6,778.2,1334.2,795.3z"/>
</g>
</svg>
