<?xml version="1.0" encoding="utf-8"?>
<!-- Generator: Adobe Illustrator 22.1.0, SVG Export Plug-In . SVG Version: 6.00 Build 0)  -->
<svg version="1.1" baseProfile="tiny" id="Layer_1" xmlns="http://www.w3.org/2000/svg" xmlns:xlink="http://www.w3.org/1999/xlink"
	 x="0px" y="0px" viewBox="0 0 1600 1600" xml:space="preserve">
<g>
	<path d="M782,1601c-8.6-1-17.1-2-25.7-3c-33.8-4-66.2-13.1-97.1-27.2c-68.9-31.4-122.8-79.7-161.1-144.9
		c-36.1-61.4-51-128.1-46.2-199.1c5-74.5,31.5-140.6,78.9-198.2c17.3-21,37-39.7,58.8-56c8.1-6,11.4-13.6,11.4-23.6
		c-0.1-248.3,0-496.5-0.1-744.8c0-56.3,19.1-104.9,59-144.8C694.3,25.2,735.8,6.2,784.1,2c1.6-0.1,3.2-0.6,4.9-1c8.7,0,17.3,0,26,0
		c9.6,1.6,19.4,2.8,28.9,5c40.1,9.2,73.8,29.7,101.6,59.9c28.9,31.5,46.6,68.6,53,110.9c1.7,11.5,2.4,23.2,2.4,34.8
		c0.1,245.6,0.1,491.2,0,736.8c0,10.5,3.8,18.3,12.2,24.7c68.4,52.7,113.3,121,130.3,205.8c21.3,106.1-1.4,203.1-67.9,288.7
		c-49.6,63.9-114.9,104.8-193.5,123.5c-19,4.5-38.7,6.1-58.1,9c-1.6,0.2-3.2,0.6-4.8,0.9C806.7,1601,794.3,1601,782,1601z
		 M651.2,951c2,0,3.8,0,5.6,0c39,0,78,0,117,0c15.4,0,26.2,10,26.2,24.1c0,14.3-11.1,24.9-26.2,24.9c-43.3,0-86.7,0.1-130-0.1
		c-7.1,0-12.9,0.8-17.4,6.8c-1.6,2.2-4.2,3.8-6.5,5.5c-17,12.9-32.8,27.3-46.6,43.7c-60.8,72.1-83.1,155-67.7,247.6
		c11.5,69.3,45.4,127.1,98.2,173.2c64.7,56.4,140.4,80.3,225.7,73.2c44.4-3.7,85.7-17.7,124.1-40.4
		c105.3-62,163.2-185.2,143.4-305.6c-12.9-78.7-51.4-142.2-114.3-190.8c-21.5-16.6-32-37.9-32-64.9c0.1-147.1,0.1-294.3,0.1-441.4
		c0-2.1,0-4.2,0-6.2c-100.4,0-200.1,0-299.8,0c0,25.3,0,50.2,0,75.6c2,0,3.8,0,5.6,0c22.5,0,45-0.1,67.5,0
		c14.9,0,25.7,10.3,25.6,24.2c-0.1,14-11.3,24.7-25.9,24.7c-22.5,0-45,0-67.5,0c-1.8,0-3.5,0-5.3,0c0,25.7,0,50.7,0,76
		c2.4,0,4.3,0,6.3,0c38.8,0,77.7,0,116.5,0c15,0,25.8,10.2,25.8,24c0,14.2-11.2,24.9-26.2,24.9c-39,0-78,0-117,0c-1.8,0-3.6,0-5.5,0
		c0,25.5,0,50.6,0,76c2.1,0,3.9,0,5.7,0c22.7,0,45.3-0.1,68,0c14.4,0.1,25.1,10.6,25,24.3c-0.1,13.8-11.3,24.6-25.5,24.6
		c-22.7,0-45.3,0-68,0c-1.8,0-3.5,0-5.3,0C651.2,900.6,651.2,925.6,651.2,951z M951,450.9c0-2.4,0-4.3,0-6.3c0-78.5,0-157,0-235.5
		c0-34.1-9.7-65.2-29.1-93.3C883.6,60.4,816.3,37,753,59.1c-55.7,19.4-88.6,59.7-99.8,117.5c-1.5,7.9-1.7,16-2.5,24.3
		c9.6,0,18.1,0,26.6,0c32.5,0,65,0,97.5,0c11.8,0,21.2,6.7,24.3,17.1c4.8,16.2-7.2,31.8-24.6,31.8c-39,0.1-78,0-117,0
		c-2,0-3.9,0-6,0c0,25.5,0,50.6,0,76c2.1,0,3.9,0,5.7,0c22.7,0,45.3-0.1,68,0c14.4,0.1,25.1,10.6,25,24.3
		c-0.1,13.8-11.3,24.6-25.5,24.6c-22.7,0-45.3,0-68,0c-1.8,0-3.5,0-5.1,0c0,25.7,0,50.8,0,75.9C751.3,450.9,850.7,450.9,951,450.9z"
		/>
	<path d="M1026.1,1248.3c-0.4,43.8-10.6,81.9-31.3,117.1c-6.1,10.4-16.8,15.4-27.3,13c-11.2-2.5-19.4-11.2-19.6-22.7
		c-0.1-5.2,1.5-11,4-15.5c10-18,17.4-36.9,21.2-57.2c4.2-22.2,3.5-44.3-0.3-66.5c-2.3-13.5,6.9-26.2,19.9-28.3
		c14.3-2.3,26.9,6.5,29.3,20.6c1.1,6.6,2.2,13.1,2.9,19.7C1025.6,1236,1025.8,1243.7,1026.1,1248.3z"/>
	<path d="M911.2,1057.8c4.4,1.7,9.2,2.8,13.2,5.2c15.3,9.6,29,21.3,41.2,34.6c9.8,10.6,9.4,26-0.6,35.5c-10.2,9.6-24.7,8.8-35.5-1
		c-10.7-9.7-21.9-18.9-33.2-27.9c-9-7.1-12.9-17.8-9.4-28.3C890.3,1065.5,899.8,1058.8,911.2,1057.8z"/>
</g>
</svg>
