<?xml version="1.0" encoding="utf-8"?>
<!-- Generator: Adobe Illustrator 21.1.0, SVG Export Plug-In . SVG Version: 6.00 Build 0)  -->
<svg version="1.1" id="Layer_1" xmlns="http://www.w3.org/2000/svg" xmlns:xlink="http://www.w3.org/1999/xlink" x="0px" y="0px"
	 viewBox="0 0 792.7 1522.4" style="enable-background:new 0 0 792.7 1522.4;" xml:space="preserve">
<style type="text/css">
	.st0{fill:#010101;}
</style>
<path class="st0" d="M757.6,246.6c-19.7-46.7-48-88.6-84-124.6S595.7,57.7,549,38C500.6,17.5,449.3,7.2,396.3,7.2
	C343.4,7.2,292,17.6,243.7,38c-46.7,19.7-88.6,48-124.6,84s-64.3,77.9-84,124.6C14.6,295,4.3,346.3,4.3,399.3
	c0,18.9,1.4,38,4.1,56.7l0.1,0.7v0.1c1.6,11,4,22.9,6.9,35.5c5.5,22.5,13,44.7,22.4,65.9l6.5-2.9l-6.4,3c0.9,1.8,2.1,4.5,3.7,7.8
	c60.2,127.2,97.2,222.4,109.9,282.9c10,47.8,19.2,103.8,21.2,262.7c0.1,7.1,2.9,15.3,8.6,24.9c6.6,11.3,13,21.4,18.9,29.9
	c0.3,8.8,1.1,15.6,4,21.2c1.1,2.3,3.3,4.2,6.8,6.7c0.3,0.3,0.6,0.7,0.9,1v0.1c1,1.1,1.8,2,2.4,2.8c3.1,3.8,6,8,8.2,12.1
	c2,3.6,3.4,7.4,4.2,10.9l0.1,0.4l0.1,0.3c2.6,7.4,5,16.9,6.8,28.1c2.2,12.4,3.8,26.5,5.1,41.6c1.3,16.5,2.2,33.8,2.6,50.8
	c0.5,18.9,0.6,37.5,0.2,54.2l-0.1,5.8l0.8,0.1l45.5,49.2h-0.4l15.5,13.5l39.9,34.8l0.1,0.1l1,0.8c7.2,6.3,14.6,12.5,52.2,13.9h0.6
	c37.7-1.4,45-7.6,52.2-13.9l1-0.8l0.1-0.1l39.9-34.8l15.5-13.5h-0.2l46.7-49.3h-0.6l-0.1-5.8c-0.4-16.7-0.4-35.3,0.2-54.2
	c0.4-16.9,1.3-34.2,2.6-50.8c1.3-15.1,2.9-29.2,5.1-41.6c1.9-11.2,4.1-20.8,6.8-28.1l0.1-0.3l0.1-0.4c0.8-3.6,2.3-7.3,4.1-10.9
	c2.2-4.2,5.2-8.3,8.3-12.1c0.7-0.8,1.5-1.8,2.5-2.9c0.3-0.3,0.6-0.7,0.8-1c3.5-2.5,5.6-4.4,6.8-6.7c2.9-5.6,3.7-12.3,4-21.2
	c5.9-8.6,12.2-18.6,18.9-29.9c5.7-9.7,8.5-17.8,8.6-24.9c1.1-90.7,3.6-179,21.2-262.7C654,788.5,691,693.3,751.2,566.1
	c1.6-3.3,2.8-5.9,3.6-7.7l0,0c22.3-50.2,33.7-103.8,33.7-159.2C788.4,346.3,778.1,295,757.6,246.6z M439.6,1491.5l-1,0.8
	c-5.3,4.5-10.5,9.1-42.3,10.3c-31.8-1.2-37-5.8-42.3-10.3l-1-0.8l-25.7-22.4c4,0.2,8.3,0.3,12.9,0.5c8.1,0.3,17.1,0.4,26.7,0.5
	c9.4,0.1,19.3,0.2,29.3,0.2c10.1,0,20-0.1,29.3-0.2c9.6-0.1,18.6-0.3,26.7-0.5c4.6-0.2,8.9-0.3,12.8-0.5L439.6,1491.5z M553.8,1207
	c-2.3,4.3-4,8.7-5.1,13.2c-2.7,7.9-5.2,17.8-7.1,29.2c-2.1,12.5-3.7,26.7-5,41.8c-1.4,15.9-2.2,33.1-2.6,50.3
	c-0.5,16.5-0.6,32.9-0.3,48l-6.1,0.4c-4.9,0.3-9.4,0.7-13.7,0.9c-6,0.3-11.7,0.7-17.3,0.9c-6.3,0.3-12.3,0.6-18.2,0.8
	c-6.8,0.3-13.4,0.4-19.8,0.7c-6.9,0.2-13.8,0.3-20.3,0.5c-7.2,0.2-14.3,0.3-21,0.3c-7.1,0.1-14.2,0.2-20.9,0.2
	c-6.7,0-13.8-0.1-20.9-0.2c-6.8-0.1-13.8-0.2-21-0.3c-6.7-0.2-13.4-0.3-20.3-0.5c-6.4-0.3-13-0.4-19.8-0.7
	c-5.9-0.3-11.9-0.5-18.2-0.8c-5.6-0.3-11.3-0.6-17.4-0.9c-4.2-0.3-8.8-0.6-13.6-0.9l-6.1-0.4c0.1-10.5,0.2-21.5,0-32.8
	c16.3,1.4,34.2,2.5,52.7,3.3c33.7,1.5,68.8,2.2,99.1,2.2v-9.8c-30.6,0-65.6-0.6-98.7-2.1c-18.6-0.8-36.7-2-53.3-3.4
	c0-1.8-0.1-3.5-0.1-5.3c-0.2-8.1-0.5-16.2-0.9-24.1c16.7,1.5,35,2.6,54,3.5c33.7,1.5,68.8,2.2,99.1,2.2v-9.8
	c-30.6,0-65.6-0.6-98.7-2.1c-19.2-0.9-37.9-2-54.9-3.6c-0.3-5.6-0.7-11.1-1.1-16.4c-0.4-4.5-0.8-8.8-1.2-13.1
	c17.4,1.6,36.9,2.8,56.9,3.7c33.7,1.5,68.8,2.2,99.1,2.2v-9.8c-30.6,0-65.6-0.6-98.7-2.1c-20.6-0.9-40.5-2.2-58.4-3.9
	c-0.8-6.6-1.7-12.9-2.7-18.7c-0.7-3.9-1.4-7.5-2.1-11c18.9,1.9,40.5,3.3,62.8,4.3c33.7,1.5,68.8,2.2,99.1,2.2v-9.8
	c-30.6,0-65.6-0.6-98.7-2.1c-23.4-1.1-46-2.6-65.7-4.6c-0.8-2.9-1.7-5.6-2.6-8.1c-1-4.5-2.7-8.9-5-13.2c-1.5-2.7-3.2-5.4-5-8.1
	l5.6,0.6c8.7,0.8,17.8,1.6,27.3,2.2c18.4,1.3,38.8,2.2,59.9,2.9c23.4,0.8,47.1,1.2,69.2,1.3h0.1c22.1-0.1,46-0.5,69.3-1.3
	c20.9-0.7,41.5-1.6,59.9-2.9c9.7-0.6,19.1-1.4,27.8-2.3l6-0.6C557,1201.5,555.3,1204.2,553.8,1207z M576.2,1181
	c-0.4,0.4-1.2,1-2.2,1.7c-6,0.8-12.5,1.6-19.6,2.3c-8.6,0.8-18,1.6-27.9,2.3c-19.2,1.4-39.8,2.3-60.4,3c-23.9,0.8-47.9,1.1-70.1,1.3
	c-22.2-0.2-46.4-0.5-70.2-1.3c-20.6-0.7-41.3-1.6-60.4-3c-9.8-0.7-19-1.4-27.3-2.2c-6.9-0.7-13.3-1.4-19.2-2.2
	c-1-0.7-1.9-1.4-2.4-1.9c-0.6-1.4-1.1-3.1-1.4-5c18.1,1.4,61,3.9,179.7,3.9l0,0c0.3,0,0.5,0,0.8,0s0.5,0,0.8,0l0,0
	c122.3,0,164.1-2.7,181.3-4.1C577.3,1177.8,576.8,1179.6,576.2,1181z M579.7,1160.3l-1.2,1.8v2.2c0,1.6-0.1,3-0.1,4.4
	c-16.3,1.4-57,4.1-182.8,4.2c-121.8,0-163.9-2.6-181.2-4c-0.1-1.4-0.1-3-0.1-4.6v-2.2l-1.2-1.8c-2.1-3-4.3-6.3-6.6-9.8
	c6.9,0.5,18.3,1.2,34.6,1.9c29,1.3,79.2,2.8,153.7,2.8l0,0c0.3,0,0.5,0,0.8,0s0.5,0,0.8,0l0,0c74.5,0,124.7-1.5,153.7-2.8
	c16.8-0.7,28.4-1.5,35.2-1.9c0.4,0,0.8-0.1,1.2-0.1C584.1,1153.9,581.9,1157.2,579.7,1160.3z M627.3,846.2
	c-8.2,39.3-13.9,82.6-17.2,132.3c-3,45.5-3.8,90.7-4.3,133.2c-0.1,4.5-2.3,10.5-6.6,17.9c-2.7,4.7-5.4,9.1-8.1,13.4
	c-15.4,1.3-73.5,5.2-195.6,5.2c-118,0-176.3-3.7-193.9-5.1c-2.7-4.3-5.4-8.8-8.2-13.5c-4.3-7.4-6.6-13.4-6.6-17.9
	c-1.2-91.4-3.7-180.5-21.5-265.4c-11.2-53.5-40.9-133.1-88.2-237c99.1-17.9,212.7-36.5,319.2-36.5c0.1,0,0.1,0,0.2,0
	c100.9,0,207.7,17.9,302,33.8c5.7,1,11.3,1.9,16.9,2.8C668.2,713.1,638.6,792.7,627.3,846.2z M741.9,552.4c-0.8,1.8-2.1,4.4-3.6,7.6
	c-6.9,14.6-13.5,28.7-19.8,42.5c-6.2-1-12.5-2.1-18.8-3.2c-94.5-15.9-201.6-33.9-303.2-33.9c-0.1,0-0.1,0-0.2,0
	c-107.6,0-222.4,18.9-322.2,37c-6.3-13.7-12.9-27.9-19.8-42.4c-1.6-3.3-2.8-5.9-3.6-7.7c-9-20.3-16.3-41.7-21.5-63.3
	c-2.9-12.4-5.2-24.1-6.8-34.9l-0.1-0.7l0,0c-2.5-17.8-3.8-36-3.8-54.1c0-51,10-100.5,29.7-147.1c19-45,46.3-85.4,81-120.1
	s75.1-62,120.1-81c46.6-19.7,96.1-29.7,147.1-29.7s100.5,10,147.1,29.7c45,19,85.4,46.3,120.1,81c34.7,34.7,62,75.1,81,120.1
	c19.7,46.6,29.7,96.1,29.7,147.1C774.3,452.6,763.4,504.1,741.9,552.4z"/>
</svg>
