<?xml version="1.0" encoding="utf-8"?>
<!-- Generator: Adobe Illustrator 22.1.0, SVG Export Plug-In . SVG Version: 6.00 Build 0)  -->
<svg version="1.1" id="Слой_1" xmlns="http://www.w3.org/2000/svg" xmlns:xlink="http://www.w3.org/1999/xlink" x="0px" y="0px"
	 viewBox="0 0 725.7 725.7" style="enable-background:new 0 0 725.7 725.7;" xml:space="preserve">
<style type="text/css">
	.st0{fill:none;stroke:#000000;stroke-width:10;stroke-miterlimit:10;}
</style>
<path class="st0" d="M720,356.5c0,41.5-159.3,75.2-355.9,75.2S8.2,398.1,8.2,356.5"/>
<path class="st0" d="M8.2,363.1c0-35.1,159.3-63.7,355.9-63.7S720,328,720,363.1"/>
<path class="st0" d="M18.3,285.8c0-34.3,155.5-62.2,347.4-62.2s347.4,27.8,347.4,62.2"/>
<path class="st0" d="M720,356.5v-43.9c0-35.1-159.3-63.7-355.9-63.7S8.2,277.4,8.2,312.6v43.9"/>
<line class="st0" x1="18.3" y1="285.8" x2="15.7" y2="299.5"/>
<line class="st0" x1="713.1" y1="285.8" x2="715.7" y2="302.7"/>
<g>
	<path d="M209.5,695.3v-58.2h-99.2v-19l95.3-136.3h31.2v132.7h29.9v22.7h-29.9v58.2H209.5z M209.5,614.5v-71.3
		c0-11.2,0.3-22.3,1-33.5h-1c-6.6,12.5-11.8,21.7-17.7,31.5l-52.2,72.6v0.7H209.5z"/>
	<path d="M416.2,506h-81.5l-8.2,54.9c4.9-0.7,9.5-1.3,17.4-1.3c16.4,0,32.8,3.6,46,11.5c16.7,9.5,30.5,27.9,30.5,54.9
		c0,41.7-33.2,72.9-79.5,72.9c-23.3,0-43-6.6-53.2-13.1l7.2-22c8.9,5.3,26.3,11.8,45.7,11.8c27.3,0,50.6-17.7,50.6-46.3
		c-0.3-27.6-18.7-47.3-61.4-47.3c-12.2,0-21.7,1.3-29.6,2.3L314,481.7h102.2V506z"/>
	<path d="M599.2,586.2c0,72.6-26.9,112.7-74.2,112.7c-41.7,0-70-39.1-70.6-109.7c0-71.6,30.9-111,74.2-111
		C573.6,478.1,599.2,518.2,599.2,586.2z M483.3,589.5c0,55.5,17.1,87.1,43.4,87.1c29.6,0,43.7-34.5,43.7-89
		c0-52.6-13.5-87.1-43.4-87.1C501.7,500.4,483.3,531.3,483.3,589.5z"/>
</g>
</svg>
