<?xml version="1.0" encoding="utf-8"?>
<!-- Generator: Adobe Illustrator 22.1.0, SVG Export Plug-In . SVG Version: 6.00 Build 0)  -->
<svg version="1.1" xmlns="http://www.w3.org/2000/svg" xmlns:xlink="http://www.w3.org/1999/xlink" x="0px" y="0px"
	 viewBox="0 0 256 256" style="enable-background:new 0 0 256 256;" xml:space="preserve">
<style type="text/css">
	.st0{display:none;}
	.st1{fill:none;stroke:#000000;stroke-width:3;stroke-miterlimit:10;}
	.st2{fill:none;stroke:#000000;stroke-miterlimit:10;}
</style>
<g id="Слой_2" class="st0">
	
		<image style="display:inline;overflow:visible;" width="800" height="800" xlink:href="855D73E3.jpg"  transform="matrix(0.32 0 0 0.32 0 0)">
	</image>
</g>
<g id="Слой_3">
	<path class="st1" d="M130.4,42c-3.2,0.7-6.6,0.7-9.8,0L36.4,24.2c-3.6-1.1-2.7-3.4,0.7-4L118.7,4c5.8-1.2,11.8-1.1,17.7,0
		l83.5,16.7c1.6,0.3,1.6,2.6,0,2.9L130.4,42z"/>
	<path class="st1" d="M221,23.1l-2,194.7c0,1.9-1.2,3.6-3.1,4.3l-80.6,28.7c-3.2,0.7-6.6,0.7-9.8,0L39,223.9c-1.8-0.5-3-2.2-3-4
		L34,22.6"/>
	<line class="st2" x1="145.4" y1="39" x2="145.4" y2="246.8"/>
	<path class="st2" d="M220,137.4l-68.7,21.4c-15.5,4.8-32.1,4.9-47.7,0.1L34,137.4"/>
	<path class="st1" d="M62.9,231.4c0,1.4-0.8,2.2-3,2.5c-3.6,0.5-6.2-3.2-5-5"/>
	<path class="st1" d="M133.5,251.8c0,1.1-2.7,2-6,2c-3.3,0-6-2.9-6-4"/>
	<path class="st1" d="M207,225.9c0,0.5-1.6,3-3.5,3c-1.9,0-3.5-0.4-3.5-1"/>
	<path class="st2" d="M126.5,40"/>
	<path class="st2" d="M179.6,30.4c0.4-0.1,0.4-0.6,0-0.7l-77.4-16.5c-3.6-0.7-7.4-0.7-11,0l-48,9.4c-2.4,0-1.3,2.2,0.8,2.4"/>
	<path class="st2" d="M126.5,41"/>
	<path class="st2" d="M151.4,38l-47.7-10.3c-2-0.4-4.1-0.4-6,0.1L75.8,32"/>
	<line class="st2" x1="95.7" y1="28.1" x2="145.4" y2="39"/>
	<path class="st2" d="M140.4,40l-7.5-0.8c-7.6-0.8-15-2.6-22-5.5l-1.8-0.7c-1.6-0.7-3.3-1.2-5-1.5l-12.3-2.5"/>
	<path class="st2" d="M132.5,41l-9.1-1.2c-3.9-0.5-7.7-1.5-11.4-2.8l-13.8-4.7c-0.4-0.1-0.8-0.2-1.2-0.3l-10.3-1.9"/>
	<path class="st2" d="M99.7,37l-5.8-3.3c-0.8-0.4-1.6-0.8-2.5-0.9l-8.6-1.7"/>
	<ellipse class="st2" cx="127" cy="9.7" rx="3.5" ry="0.5"/>
	<ellipse class="st2" cx="196.1" cy="23.1" rx="4" ry="1"/>
	<line class="st2" x1="214" y1="25.1" x2="212" y2="223"/>
	<g>
		<path d="M74.5,92.6c0.1,0.2,0.4,0.3,0.6,0.4c0.4,0.1,0.7-0.1,0.7-0.4c0.1-0.3-0.1-0.5-0.4-0.7c-0.4-0.3-0.7-0.6-0.6-1.1
			c0.1-0.5,0.6-0.8,1.2-0.6c0.3,0.1,0.5,0.2,0.6,0.3l-0.2,0.3c-0.1-0.1-0.3-0.2-0.5-0.3c-0.4-0.1-0.6,0.1-0.7,0.3
			c-0.1,0.3,0.1,0.5,0.5,0.7c0.5,0.3,0.7,0.6,0.6,1.1c-0.1,0.5-0.5,0.8-1.2,0.7c-0.3-0.1-0.6-0.2-0.7-0.4L74.5,92.6z"/>
		<path d="M79.4,92.8c0.1-0.4,0.2-1,0.3-1.4l0,0c-0.2,0.3-0.4,0.7-0.6,1.1l-0.9,1.4l-0.3-0.1l-0.2-1.6c0-0.5-0.1-0.9-0.1-1.3l0,0
			c-0.1,0.4-0.2,0.9-0.4,1.4l-0.4,1.3l-0.4-0.1l0.9-3.1l0.5,0.1l0.2,1.6c0,0.4,0.1,0.8,0.1,1.1l0,0c0.1-0.3,0.3-0.6,0.5-1l0.9-1.4
			l0.5,0.1l-0.5,3.2l-0.4-0.1L79.4,92.8z"/>
		<path d="M80.8,93.5l-0.5,0.9l-0.4-0.1l1.7-2.9l0.5,0.1l0.3,3.4L82,94.8l-0.1-1.1L80.8,93.5z M81.9,93.4l-0.1-1c0-0.2,0-0.4,0-0.6
			l0,0c-0.1,0.2-0.2,0.4-0.3,0.5L81,93.2L81.9,93.4z"/>
		<path d="M83.5,91.9c0.2,0,0.5,0,0.8,0.1c0.4,0.1,0.7,0.2,0.8,0.4c0.1,0.2,0.2,0.4,0.1,0.6c-0.1,0.4-0.4,0.6-0.7,0.7l0,0
			c0.2,0.1,0.3,0.4,0.3,0.7c0,0.5,0,0.8,0,0.9l-0.4-0.1c0-0.1,0-0.4,0-0.8c0-0.5-0.1-0.6-0.5-0.7l-0.4-0.1L83.2,95l-0.4-0.1
			L83.5,91.9z M83.6,93.4l0.4,0.1c0.4,0.1,0.7-0.1,0.8-0.4c0.1-0.4-0.1-0.6-0.6-0.7c-0.2,0-0.3-0.1-0.4,0L83.6,93.4z"/>
		<path d="M86.4,92.8l-0.9-0.2l0.1-0.3l2.2,0.5l-0.1,0.3l-0.9-0.2l-0.6,2.8l-0.4-0.1L86.4,92.8z"/>
		<path d="M90.2,95.2c0.1-0.4,0.2-1,0.3-1.4l0,0c-0.2,0.3-0.4,0.7-0.6,1.1L89,96.3l-0.3-0.1l-0.2-1.6c0-0.5-0.1-0.9-0.1-1.3l0,0
			c-0.1,0.4-0.2,0.9-0.4,1.4L87.7,96L87.3,96l0.9-3.1l0.5,0.1l0.2,1.6c0,0.4,0.1,0.8,0.1,1.1l0,0c0.1-0.3,0.3-0.6,0.5-1l0.9-1.4
			l0.5,0.1l-0.5,3.2L90,96.5L90.2,95.2z"/>
		<path d="M92,93.7l-0.7,3.1L91,96.8l0.7-3.1L92,93.7z"/>
	</g>
</g>
</svg>
