<?xml version="1.0" encoding="utf-8"?>
<!-- Generator: Adobe Illustrator 22.1.0, SVG Export Plug-In . SVG Version: 6.00 Build 0)  -->
<svg version="1.1" baseProfile="tiny" id="Layer_1" xmlns="http://www.w3.org/2000/svg" xmlns:xlink="http://www.w3.org/1999/xlink"
	 x="0px" y="0px" viewBox="0 0 512 512" xml:space="preserve">
<g>
	<path d="M446,484.2c-13.5,0-26.5,0-40,0c0,5.8-0.1,11.4,0,17c0.1,3.9-1.1,6.7-5.5,6.8c-4.3,0-5.6-2.7-5.6-6.6c0.1-5.5,0-11,0-16.9
		c-13.2,0-26.3,0-40,0c0,5.6-0.1,11.4,0,17.1c0.1,3.9-0.6,7.1-5.3,7.4c-3.9,0.2-5.7-2.2-5.7-7.5c0-5.6,0-11.3,0-17.2
		c-13.4,0-26.3,0-40,0c0,5.3,0,10.7,0,16.1c0,5.4-1.8,7.8-5.7,7.5c-4.7-0.3-5.4-3.5-5.3-7.4c0.1-5.3,0-10.6,0-16.2
		c-13.4,0-26.4,0-40,0c0,5.7-0.1,11.4,0,17c0.1,3.9-1.3,6.7-5.6,6.6c-4.3,0-5.5-2.9-5.5-6.7c0.1-5.5,0-11,0-16.8
		c-13.3,0-26.3,0-40,0c0,5.6-0.1,11.2,0,16.8c0.1,3.9-1.1,6.7-5.4,6.8c-4.3,0-5.6-2.7-5.6-6.6c0.1-5.6,0-11.2,0-17.1
		c-13.4,0-26.4,0-40,0c0,5.6-0.1,11.2,0,16.8c0.1,3.8-1,6.8-5.3,6.9c-4.6,0.1-5.8-2.9-5.7-7c0.1-5.5,0-10.9,0-16.7
		c-13.3,0-26.3,0-40,0c0,5.3,0,10.7,0,16.1c0,5.4-1.8,7.8-5.7,7.6c-4.7-0.3-5.4-3.5-5.4-7.4c0.1-5.3,0-10.6,0-16.2
		c-13.4,0-26.4,0-40,0c0,5.7-0.1,11.3,0,16.9c0.1,3.9-1.3,6.7-5.5,6.7c-4.3,0-5.5-2.9-5.5-6.7c0.1-5.5,0-11,0-17.2
		c-7.6,0-15.1,0-22.5,0c-1.7,0-3.3,0-5,0c-3.6-0.2-5.6-2.1-5.5-5.7c0.1-3.4,2.1-5.2,5.4-5.2c7.2-0.1,14.3,0,21.5,0
		c1.8,0,3.6,0,5.7,0c0-13.8,0-27.1,0-41c-3.3,0-6.4,0-9.5,0c-3.8,0-6.2-1.6-6.1-5.6c0.1-4,2.6-5.5,6.3-5.4c3,0,6,0,9.3,0
		c0-13.3,0-26.4,0-40c-3.6,0-7.2,0-10.9,0c-3.6,0-5.7-1.8-5.7-5.4c0-3.6,2.1-5.5,5.7-5.5c3.5,0,7,0,10.9,0c0-13.6,0-27,0-41
		c-8.7,0-17.4,0-26.2,0c-3.7,0-6.3-1.4-6.4-5.3c-0.1-4.3,2.6-5.7,6.5-5.7c8.6,0.1,17.3,0,26.1,0c0-13,0-25.6,0-39
		c-3.7,0-7.4,0-11.2,0c-3.9,0.1-6.6-1.4-6.5-5.7c0.1-4,2.7-5.4,6.4-5.3c3.6,0.1,7.3,0,11.2,0c0-13.7,0-27.1,0-41c-3.8,0-7.4,0-11,0
		c-3.6-0.1-5.7-1.9-5.6-5.5c0-3.7,2.2-5.4,5.8-5.4c3.5,0,7,0,10.8,0c0-13.3,0-26.4,0-40c-9.5,0-18.9,0-28.3,0
		c-3.7,0-6.2-1.5-6.3-5.5c0-4,2.4-5.6,6.1-5.6c9.3,0,18.7,0,28.4,0c0-13.2,0-26.3,0-40c-3.6,0-7.4,0-11.2,0
		c-3.7,0.1-6.3-1.3-6.4-5.3c-0.1-4.3,2.6-5.8,6.5-5.7c3.6,0.1,7.3,0,11.1,0c0-13.7,0-27,0-41c-3.7,0-7.4-0.1-11.2,0
		c-3.9,0.1-6.6-1.4-6.5-5.7c0.1-4,2.7-5.4,6.4-5.3c3.6,0.1,7.3,0,11.2,0c0-13.4,0-26.4,0-40c-8.9,0-17.7,0-26.5,0
		c-4.1,0-6.4-1.9-6.1-6c0.2-3.4,2.4-4.9,5.7-4.9c10.8,0,21.7,0,32.5,0c3.6,0,5.5,1.9,5.7,5.6c0.1,1.5,0,3,0,4.5
		c0,148.3,0,296.6,0,445c0,2.1,0,4.3,0,7c2.5,0,4.6,0,6.7,0c147.8,0,295.6,0,443.5,0c9.3,0,9.8,0.5,9.8,9.9c0,6.5,0,13,0,19.5
		c0,3.9-1.4,6.6-5.7,6.5c-4-0.1-5.3-2.7-5.3-6.4c0.1-6,0-11.9,0-18.2c-13.7,0-27.1,0-41,0c0,5.8-0.1,11.4,0,17
		c0.1,3.9-1.3,6.7-5.6,6.6c-4.3,0-5.5-2.9-5.4-6.8C446.1,495.7,446,490.2,446,484.2z"/>
	<path d="M241.9,263.5c-5.8,0-12.1,0-18.9,0c-0.3-9.8,0.9-19.4,4.8-27.9c6.9-15.1,14.6-29.9,22.6-44.4c7.6-13.9,15.2-27.7,18-43.6
		c5.9-34-15.1-66-48.9-74c-18.6-4.4-36.8-3.3-54.1,5c-29.3,14.1-42.6,46-33.2,78.5c4.8,16.6,14.2,30.8,22.7,45.4
		c8.6,14.7,16.5,29.7,19.4,46.8c0.8,4.5,1.1,9.2,1.8,14.5c-6.6,0-12.6,0.1-18.5-0.1c-0.9,0-2.5-1.4-2.5-2.3
		c-1.4-22.9-14.3-40.9-25.2-59.7c-8.4-14.5-16.1-29.2-19.5-45.7c-9.7-48.5,16-95.3,71.8-104.2c27-4.3,52.3,0.2,74.6,16.5
		c26.2,19.2,35.2,46.3,32.7,77.8c-1.6,19.9-10.3,37.3-20.1,54.4c-6.9,12-13.9,23.9-19.7,36.4C246.1,244.9,244.6,254.1,241.9,263.5z"
		/>
	<path d="M152.5,317.2c-16.7,16.7-32.9,32.9-49.1,49.2c-6.9,7-13.9,13.9-20.8,20.9c-2.7,2.7-5.5,4-8.6,0.9c-3.1-3-2.1-5.8,0.7-8.6
		c24.7-24.6,49.3-49.2,73.9-73.8c4-4,7-3.6,10.1,1c0.6,0.9,1.3,1.8,2.5,3.5c1.7-7,6.3-8,11.9-7.9c17.8,0.2,35.7,0,53.5,0.2
		c3.4,0,6.8,1.5,10.2,2.3c0.3,0.7,0.6,1.5,0.9,2.2c1-1.5,1.8-3.3,3-4.6c23.1-23.8,46.2-47.5,69.4-71.3c4.6-4.7,6.4-4.7,11.1,0
		c10.4,10.3,20.7,20.7,31.4,31.3c1.5-1.4,2.8-2.6,4.1-3.9c47.1-46.5,94.2-92.9,141.3-139.4c1.3-1.3,2.6-3.2,4.1-3.5
		c2-0.4,4.9-0.1,6.1,1.2c1.2,1.3,1.5,4.2,1,6.1c-0.5,1.7-2.5,3-3.9,4.4c-48.8,48.2-97.7,96.4-146.6,144.7c-5.4,5.3-6.7,5.3-12.2-0.2
		c-10.1-10.1-20.2-20.3-31.6-31.7c-1.3,2-2.1,3.9-3.5,5.3c-35.1,36.1-70.2,72.1-105.3,108.1c-5.4,5.5-7.9,5.6-13.8,0.1
		C179,341.9,166,329.7,152.5,317.2z M224.7,318c-18.3,0-36,0-54.5,0c5.9,6.6,11.2,12.2,20.6,10.6c4.5-0.8,9.4-0.7,13.9,0
		C213.9,330.1,219.6,325.6,224.7,318z"/>
	<path d="M188.3,217.2c4.3-15.1,8.7-30.2,13.3-46.2c-10.5,0-20.1,0-31.2,0c16.7-23.3,32.7-45.4,48.6-67.6c0.3,0.1,0.6,0.2,0.9,0.3
		c-4.3,14.9-8.5,29.9-13,45.8c9.5,0,18.5,0,28.6,0c-16,23.5-31.2,45.8-46.4,68.1C188.8,217.5,188.5,217.4,188.3,217.2z"/>
	<path d="M199.5,291.2c-10,0-19.9,0-29.9,0c-6.2,0-9.5-2.8-9.4-7.8c0.1-4.7,3.3-7.4,9.3-7.4c19.9-0.1,39.9-0.1,59.8,0
		c5.6,0,9.2,3.1,9.2,7.6c0,4.7-3.7,7.7-9.6,7.7C219.2,291.2,209.4,291.2,199.5,291.2z"/>
</g>
<g>
	<path d="M296.7,439.5h-21l-21.5-34.7c-0.4-0.7-1.1-2.1-2-4.4h-0.3v39.1h-16.6v-79.8h16.6v37.7h0.3c0.4-1,1.1-2.5,2.1-4.5l20.3-33.3
		h19.8l-25.7,38.1L296.7,439.5z"/>
	<path d="M408,359.7l-19.5,79.8h-18.4l-12.2-51.2c-0.7-2.7-1-5.7-1.2-9h-0.2c-0.3,3.6-0.8,6.6-1.3,9l-12.5,51.2h-19.2l-19.4-79.8
		h18.1l10.4,53.1c0.4,2.3,0.8,5.3,1,9.1h0.3c0.1-2.9,0.6-6,1.5-9.3l13.4-52.9h17.8l12.1,53.6c0.4,2,0.8,4.8,1.2,8.6h0.2
		c0.1-2.9,0.5-5.9,1.1-8.9l10.2-53.2H408z"/>
	<path d="M489,439.5h-16.6V407h-30.5v32.5h-16.6v-79.8h16.6v31.8h30.5v-31.8H489V439.5z"/>
</g>
</svg>
