<?xml version="1.0" encoding="utf-8"?>
<!-- Generator: Adobe Illustrator 22.1.0, SVG Export Plug-In . SVG Version: 6.00 Build 0)  -->
<svg version="1.1" baseProfile="tiny" id="Слой_1"
	 xmlns="http://www.w3.org/2000/svg" xmlns:xlink="http://www.w3.org/1999/xlink" x="0px" y="0px" viewBox="0 0 725.7 725.7"
	 xml:space="preserve">
<circle fill="none" stroke="#000000" stroke-width="10" stroke-miterlimit="10" cx="363.4" cy="365.1" r="354.1"/>
<circle fill="none" stroke="#000000" stroke-width="10" stroke-miterlimit="10" cx="362.8" cy="362.8" r="130.4"/>
<g>
	<path d="M274.7,336c2.5-0.4,6.1-0.8,11.1-0.8c5,0,8.6,1,11.1,2.9c2.3,1.8,3.9,4.8,3.9,8.4s-1.2,6.5-3.3,8.6
		c-2.8,2.6-6.9,3.8-11.8,3.8c-1.1,0-2-0.1-2.8-0.2v12.9h-8.1V336z M282.8,352.4c0.7,0.2,1.6,0.2,2.7,0.2c4.3,0,7-2.2,7-5.9
		c0-3.3-2.3-5.3-6.4-5.3c-1.7,0-2.8,0.2-3.4,0.3V352.4z"/>
	<path d="M314,335.5v13.9h13.5v-13.9h8.2v36.2h-8.2v-15.1H314v15.1h-8.2v-36.2H314z"/>
	<path d="M351,335.5v36.2h-8.2v-36.2H351z"/>
	<path d="M358.1,335.5h8.2v29.3h14.4v6.9h-22.6V335.5z"/>
	<path d="M393.7,335.5v36.2h-8.2v-36.2H393.7z"/>
	<path d="M400.8,336c2.5-0.4,6.1-0.8,11.1-0.8c5,0,8.6,1,11.1,2.9c2.3,1.8,3.9,4.8,3.9,8.4s-1.2,6.5-3.3,8.6
		c-2.8,2.6-6.9,3.8-11.8,3.8c-1.1,0-2-0.1-2.8-0.2v12.9h-8.1V336z M408.9,352.4c0.7,0.2,1.6,0.2,2.7,0.2c4.3,0,7-2.2,7-5.9
		c0-3.3-2.3-5.3-6.4-5.3c-1.7,0-2.8,0.2-3.4,0.3V352.4z"/>
	<path d="M432.3,363.3c2.2,1.1,5.6,2.3,9.1,2.3c3.8,0,5.7-1.6,5.7-3.9c0-2.3-1.7-3.5-6.1-5.1c-6-2.1-9.9-5.4-9.9-10.7
		c0-6.2,5.2-10.9,13.7-10.9c4.1,0,7.1,0.9,9.2,1.8l-1.8,6.6c-1.4-0.7-4-1.7-7.6-1.7s-5.3,1.6-5.3,3.5c0,2.3,2,3.3,6.7,5.1
		c6.4,2.4,9.4,5.7,9.4,10.8c0,6.1-4.7,11.3-14.6,11.3c-4.1,0-8.2-1.1-10.3-2.3L432.3,363.3z"/>
</g>
<circle fill="none" stroke="#000000" stroke-width="10" stroke-miterlimit="10" cx="362.7" cy="437.8" r="6"/>
</svg>
