<?xml version="1.0" encoding="utf-8"?>
<!-- Generator: Adobe Illustrator 22.1.0, SVG Export Plug-In . SVG Version: 6.00 Build 0)  -->
<svg version="1.1" baseProfile="tiny" id="Слой_1"
	 xmlns="http://www.w3.org/2000/svg" xmlns:xlink="http://www.w3.org/1999/xlink" x="0px" y="0px" viewBox="0 0 725.7 725.7"
	 xml:space="preserve">
<g>
	<path d="M727.1,341.6c0,15.1,0,30.2,0,45.4c-0.4,2.1-0.9,4.1-1.2,6.2c-2.9,18.6-4.7,37.5-8.9,55.8
		c-32.3,139.4-149.4,249.3-290.2,272.6c-13.2,2.2-26.5,3.7-39.8,5.5c-15.1,0-30.2,0-45.4,0c-1.8-0.4-3.6-0.9-5.4-1.2
		c-18.9-2.9-38-4.7-56.5-9C140.1,684.6,30.3,567.5,6.9,426.8c-2.2-13.2-3.7-26.6-5.5-39.9c0-15.1,0-30.2,0-45.4
		c0.4-2.1,0.9-4.1,1.2-6.2c2.9-18.6,4.7-37.5,8.9-55.8C43.8,140.2,161.1,30.2,301.7,6.9c13.2-2.2,26.6-3.7,39.8-5.5
		c15.1,0,30.2,0,45.4,0c2.1,0.4,4.1,0.9,6.2,1.2c18.6,2.9,37.5,4.6,55.8,8.9c139.5,32.4,249.3,149.4,272.7,290.2
		C723.8,314.9,725.3,328.3,727.1,341.6z M712.9,364.3c0-192.7-156-348.7-348.6-348.7c-192.7,0-348.7,156-348.7,348.6
		c0,192.7,156,348.7,348.6,348.7C556.9,712.9,712.9,557,712.9,364.3z"/>
	<path d="M398.5,325.3c3.3,19.1,2.5,20.8-11.4,24.5c-0.2-2.8-0.4-5.6-0.7-10.1c-14.1,9.8-28.1,11.9-43.2-1.6c0,9.1,0,15.2,0,21.4
		c0,11-0.4,11.5-12.4,13.7c0-15.3,0-30.6,0-47.9c6.2,1.2,12.8,1,18,3.7c11.2,5.8,21.3,6.3,32.5,0
		C386.2,326.4,392.7,326.5,398.5,325.3z"/>
	<path d="M398.9,356.1c3.7,24-5.3,41-24.7,46.6c-16,4.7-33.4-3.5-40.7-19.8c3.5-1.6,7-3.2,10.9-5c1,1.3,1.9,2.3,2.7,3.4
		c6.1,8.3,15.2,11.7,24.1,8.8c9.4-3,15.4-11.1,15.6-21.3C387,358.8,387.8,357.9,398.9,356.1z"/>
	<path d="M362.4,209.8c-2.3-2.6-6-5-6.6-8c-1-5.1,3.1-7.4,7.9-7.5c4.7-0.2,8.6,1.7,8.7,7C372.4,206.5,368.5,208.1,362.4,209.8z"/>
	<path d="M366,148.9c1.9,2.7,5.5,5.5,5.4,8c-0.2,2.7-3.6,6.6-6.3,7.4c-4.5,1.2-8-2.3-7.5-6.8c0.3-3,3.3-5.6,5.1-8.4
		C363.9,148.9,364.9,148.9,366,148.9z"/>
	<path d="M611.5,554.8c-2.7,1.6-5.6,4.9-7.9,4.5c-2.5-0.4-4.4-4.3-6.5-6.6c2.4-2.1,4.6-5.8,7.1-6c2.4-0.2,5,3.3,7.5,5.1
		C611.6,552.9,611.6,553.9,611.5,554.8z"/>
	<path d="M469,643.5c1.8,2.5,5.2,5.3,5,7.6c-0.3,2.5-4,6.3-6.2,6.3c-2.3,0-6.1-3.7-6.5-6.1c-0.3-2.3,3-5.1,4.7-7.7
		C467,643.5,468,643.5,469,643.5z"/>
	<path d="M579.9,533c1.7,2.6,4.9,5.5,4.5,7.8c-0.4,2.5-4.3,6.1-6.6,6c-2.2-0.1-5.9-4-6.1-6.5c-0.2-2.3,3.3-5,5.1-7.5
		C577.9,532.9,578.9,532.9,579.9,533z"/>
	<path d="M356.5,87.6c2.6-1.7,5.5-5,7.9-4.6c2.5,0.4,4.5,4.2,6.6,6.5c-2.3,2.2-4.5,5.9-7,6.1c-2.4,0.2-5.1-3.2-7.6-5.1
		C356.4,89.6,356.5,88.6,356.5,87.6z"/>
	<path d="M579,143.4c-2.6,1.7-5.5,5-7.8,4.7c-2.5-0.4-6.2-4.2-6.2-6.5c0.1-2.3,4-5.9,6.5-6.2c2.4-0.2,5.1,3.2,7.6,5
		C579,141.4,579,142.4,579,143.4z"/>
	<path d="M314.6,213.8c-2.6,1.8-5.3,5.1-7.6,4.9c-2.5-0.3-6.3-4-6.3-6.3c0-2.3,3.7-6.1,6.2-6.4c2.3-0.3,5.1,3,7.7,4.8
		C314.6,211.8,314.6,212.8,314.6,213.8z"/>
	<path d="M526.6,628.9c-2.7,1.6-5.6,4.8-7.9,4.5c-2.5-0.4-4.4-4.2-6.6-6.5c2.3-2.1,4.5-5.8,7-6c2.4-0.2,5.1,3.2,7.6,5
		C526.7,626.9,526.7,627.9,526.6,628.9z"/>
	<path d="M281.3,106.2c-2.6,1.7-5.5,5-7.8,4.7c-2.5-0.3-4.5-4.1-6.7-6.4c2.3-2.2,4.4-5.9,6.9-6.2c2.3-0.2,5.1,3.1,7.6,4.9
		C281.4,104.3,281.3,105.2,281.3,106.2z"/>
	<path d="M524.8,343c-1.9-2.5-5.3-5.1-5.1-7.5c0.2-2.5,3.8-6.4,6.1-6.5c2.3-0.1,6.2,3.5,6.6,6c0.4,2.3-2.9,5.2-4.5,7.9
		C526.8,342.9,525.8,342.9,524.8,343z"/>
	<path d="M637.1,240c-1.8-2.6-5.1-5.3-4.9-7.6c0.3-2.5,3.9-4.7,6.1-7c2.3,2.2,6,4.2,6.4,6.7c0.3,2.3-2.9,5.2-4.5,7.9
		C639.2,239.9,638.2,240,637.1,240z"/>
	<path d="M372.1,121.7c-2.5,1.8-5.2,5.3-7.6,5.1c-2.5-0.2-6.4-3.9-6.5-6.2c-0.1-2.3,3.7-6.1,6.2-6.5c2.3-0.3,5.2,2.9,7.9,4.6
		C372,119.8,372,120.8,372.1,121.7z"/>
	<path d="M344.4,123.5c-2.5,1.8-5.3,5.2-7.6,4.9c-2.5-0.3-6.3-4-6.3-6.3c0-2.3,3.7-6.1,6.2-6.4c2.3-0.3,5.1,3,7.7,4.7
		C344.3,121.5,344.3,122.5,344.4,123.5z"/>
	<path d="M204,619.8c-2.7,1.6-5.6,4.8-7.9,4.4c-2.5-0.4-6-4.4-5.9-6.7c0.1-2.2,4.1-5.8,6.6-6c2.3-0.2,4.9,3.3,7.4,5.2
		C204.1,617.8,204,618.8,204,619.8z"/>
	<path d="M194.1,492.8c-1.8-2.6-5.2-5.3-4.9-7.7c0.3-2.5,4-6.3,6.3-6.3c2.3,0,6.1,3.8,6.4,6.2c0.3,2.4-3.1,5.2-4.8,7.8
		C196.1,492.8,195.1,492.8,194.1,492.8z"/>
	<path d="M205.9,330.8c1.8,2.5,5.2,5.2,5.1,7.5c-0.2,2.5-3.8,4.7-6,7.1c-2.3-2.2-6.1-4.1-6.5-6.6c-0.4-2.3,2.8-5.3,4.4-7.9
		C203.9,330.9,204.9,330.8,205.9,330.8z"/>
	<path d="M169.4,324.5c-2.5,1.8-5.3,5.3-7.6,5c-2.5-0.2-6.4-3.9-6.5-6.2c-0.1-2.3,3.7-6.1,6.2-6.5c2.3-0.3,5.2,3,7.8,4.7
		C169.3,322.5,169.4,323.5,169.4,324.5z"/>
	<path d="M475.2,138.2c1.7,2.6,5.1,5.4,4.8,7.7c-0.3,2.5-4,4.6-6.3,6.8c-2.2-2.3-5.9-4.3-6.3-6.8c-0.3-2.3,3-5.1,4.7-7.7
		C473.2,138.2,474.2,138.2,475.2,138.2z"/>
	<path d="M286.7,441.9c-2.6,1.6-5.5,4.8-7.9,4.5c-2.5-0.4-4.5-4.1-6.7-6.4c2.3-2.2,4.5-5.8,7-6.1c2.4-0.2,5.1,3.1,7.6,4.9
		C286.8,439.8,286.8,440.9,286.7,441.9z"/>
	<path d="M566.6,330.2c-1.7-2.6-5.1-5.4-4.8-7.7c0.3-2.5,4.2-6.2,6.4-6.2c2.3,0,6,3.8,6.3,6.3c0.3,2.3-3.1,5.1-4.9,7.6
		C568.6,330.3,567.6,330.3,566.6,330.2z"/>
	<path d="M623.3,281.3c-1.8-2.6-5.1-5.4-4.8-7.7c0.3-2.5,4-4.6,6.3-6.8c2.2,2.3,6,4.3,6.3,6.8c0.3,2.3-3,5.1-4.7,7.7
		C625.3,281.3,624.3,281.3,623.3,281.3z"/>
	<path d="M168.3,442.7c-1.8-2.5-5.3-5.1-5.1-7.5c0.2-2.5,3.8-4.8,5.9-7.1c2.3,2.1,6.1,4,6.6,6.5c0.4,2.3-2.7,5.3-4.3,8
		C170.3,442.6,169.3,442.7,168.3,442.7z"/>
	<path d="M84.5,269.9c-2.5,1.8-5.2,5.2-7.6,5c-2.5-0.2-4.7-3.9-7.1-6c2.2-2.3,4.1-6.1,6.6-6.5c2.3-0.4,5.3,2.8,7.9,4.5
		C84.5,267.8,84.5,268.8,84.5,269.9z"/>
	<path d="M574,179c-2.6,1.7-5.5,5-7.7,4.7c-2.5-0.4-6.2-4.2-6.1-6.5c0-2.3,3.9-5.9,6.4-6.2c2.3-0.2,5,3.2,7.5,5
		C574,177,574,178,574,179z"/>
	<path d="M563.5,601.9c-1.8-2.5-5.2-5.2-5-7.6c0.2-2.5,3.8-4.7,6-7.1c2.3,2.2,6.1,4.1,6.5,6.6c0.4,2.3-2.8,5.3-4.4,7.9
		C565.6,601.8,564.5,601.8,563.5,601.9z"/>
	<path d="M467,302.5c-2.5,1.8-5.1,5.2-7.5,5.1c-2.5-0.2-4.8-3.8-7.1-5.9c2.1-2.3,4-6.2,6.5-6.6c2.3-0.4,5.3,2.8,8,4.4
		C466.9,300.5,466.9,301.5,467,302.5z"/>
	<path d="M253.8,646.2c-2.5,1.8-5.2,5.2-7.6,5c-2.5-0.3-6.4-4-6.4-6.2c0-2.3,3.7-6.1,6.1-6.5c2.3-0.3,5.1,3,7.8,4.7
		C253.8,644.2,253.8,645.2,253.8,646.2z"/>
	<path d="M327.1,99.3c-1.7-2.6-5.1-5.4-4.8-7.7c0.3-2.5,4.1-6.2,6.4-6.2c2.2,0,6,3.8,6.3,6.3c0.3,2.3-3.1,5.1-4.8,7.6
		C329.1,99.3,328.1,99.3,327.1,99.3z"/>
	<path d="M445.7,633.3c-2.6,1.8-5.3,5.2-7.6,5c-2.5-0.3-4.6-4-6.9-6.2c2.2-2.3,4.2-6.1,6.7-6.5c2.3-0.3,5.2,3,7.8,4.7
		C445.7,631.3,445.7,632.3,445.7,633.3z"/>
	<path d="M278.5,626.9c-2.5,1.8-5.2,5.2-7.6,5c-2.5-0.2-4.7-3.9-7.1-6c2.2-2.3,4.1-6.1,6.6-6.5c2.3-0.4,5.3,2.8,7.9,4.4
		C278.4,624.9,278.4,625.9,278.5,626.9z"/>
	<path d="M482.1,114c-2.6,1.7-5.5,5-7.8,4.6c-2.5-0.4-4.4-4.2-6.6-6.5c2.3-2.2,4.5-5.8,6.9-6.1c2.3-0.2,5,3.2,7.6,4.9
		C482.2,112,482.2,113,482.1,114z"/>
	<path d="M165.6,381.1c-2.6,1.7-5.4,5.1-7.7,4.8c-2.5-0.3-6.2-4.1-6.2-6.3c0-2.3,3.8-6,6.3-6.3c2.3-0.3,5.1,3.1,7.6,4.9
		C165.6,379.1,165.6,380.1,165.6,381.1z"/>
	<path d="M289.1,136.5c-2.6,1.7-5.5,4.9-7.8,4.5c-2.5-0.4-6.1-4.3-6-6.6c0.1-2.2,4-5.9,6.5-6.1c2.3-0.2,5,3.3,7.5,5.1
		C289.2,134.5,289.2,135.5,289.1,136.5z"/>
	<path d="M488.9,619.1c-1.7-2.6-5-5.5-4.6-7.8c0.4-2.5,4.2-6.1,6.5-6.1c2.3,0.1,5.9,3.9,6.2,6.4c0.2,2.3-3.2,5-5,7.5
		C490.9,619.2,489.9,619.2,488.9,619.1z"/>
	<path d="M301.8,607.6c-2.5,1.8-5.2,5.3-7.5,5c-2.5-0.2-6.4-3.9-6.4-6.1c-0.1-2.3,3.6-6.1,6-6.5c2.3-0.4,5.2,2.9,7.8,4.6
		C301.8,605.6,301.8,606.6,301.8,607.6z"/>
	<path d="M71.7,324.9c-2.5,1.9-5.1,5.3-7.5,5.1c-2.5-0.2-4.8-3.8-7.1-5.9c2.1-2.3,4-6.1,6.5-6.6c2.3-0.4,5.3,2.7,8,4.3
		C71.6,322.9,71.7,323.9,71.7,324.9z"/>
	<path d="M357.8,660.9c1.7,2.6,5.1,5.3,4.8,7.7c-0.3,2.5-4,4.6-6.2,6.9c-2.2-2.2-6-4.3-6.3-6.8c-0.3-2.3,3-5.2,4.7-7.8
		C355.8,660.9,356.8,660.9,357.8,660.9z"/>
	<path d="M264.4,189.4c-2.6,1.7-5.4,5-7.8,4.7c-2.5-0.3-4.6-4-6.8-6.3c2.3-2.2,4.4-5.9,6.9-6.2c2.4-0.3,5.1,3,7.7,4.8
		C264.4,187.4,264.4,188.4,264.4,189.4z"/>
	<path d="M639.2,320.7c1.9,2.5,5.4,5.1,5.2,7.4c-0.2,2.5-3.7,6.5-6,6.6c-2.2,0.1-6.2-3.5-6.6-5.9c-0.4-2.3,2.8-5.3,4.4-8
		C637.2,320.7,638.2,320.7,639.2,320.7z"/>
	<path d="M280.8,563.3c-1.6-2.7-4.8-5.6-4.4-7.9c0.4-2.5,4.2-4.4,6.5-6.6c2.1,2.3,5.8,4.6,6,7.1c0.2,2.4-3.2,5-5,7.5
		C282.8,563.4,281.8,563.3,280.8,563.3z"/>
	<path d="M327.2,463.4c1.8,2.6,5.2,5.3,4.9,7.6c-0.3,2.5-4,6.3-6.3,6.3c-2.3,0-6.1-3.7-6.4-6.2c-0.3-2.3,3-5.1,4.8-7.7
		C325.2,463.4,326.2,463.4,327.2,463.4z"/>
	<path d="M98.1,224.6c-1.8-2.6-5.1-5.3-4.9-7.7c0.3-2.5,4-4.6,6.2-6.9c2.3,2.2,6.1,4.2,6.4,6.7c0.3,2.3-3,5.2-4.7,7.8
		C100.1,224.6,99.1,224.6,98.1,224.6z"/>
	<path d="M515.1,446.2c-2.6,1.7-5.4,5-7.7,4.7c-2.5-0.3-4.6-4-6.8-6.2c2.3-2.2,4.3-6,6.8-6.3c2.3-0.3,5.1,3,7.7,4.8
		C515.1,444.1,515.1,445.2,515.1,446.2z"/>
	<path d="M628.7,448.6c-1.7-2.6-5.1-5.4-4.8-7.7c0.3-2.5,4-4.6,6.2-6.9c2.2,2.2,5.9,4.3,6.3,6.8c0.3,2.4-3,5.2-4.7,7.8
		C630.7,448.6,629.7,448.6,628.7,448.6z"/>
	<path d="M503.9,527.5c-2.6,1.7-5.4,5.1-7.8,4.7c-2.5-0.3-6.2-4.1-6.2-6.4c0-2.3,3.9-6,6.4-6.2c2.3-0.3,5.1,3.2,7.7,4.9
		C504,525.5,504,526.5,503.9,527.5z"/>
	<path d="M95.7,365.7c-2.6,1.7-5.4,5-7.8,4.7c-2.5-0.3-4.5-4.1-6.7-6.4c2.3-2.2,4.4-6,6.9-6.2c2.3-0.3,5.1,3.1,7.7,4.9
		C95.7,363.7,95.7,364.7,95.7,365.7z"/>
	<path d="M278.3,77.3c-2.5,1.8-5.2,5.2-7.6,4.9c-2.5-0.2-4.7-3.9-7-6c2.2-2.3,4.1-6.1,6.6-6.5c2.3-0.4,5.2,2.9,7.9,4.5
		C278.3,75.3,278.3,76.3,278.3,77.3z"/>
	<path d="M547.8,277.2c-1.7-2.6-5.1-5.3-4.8-7.7c0.3-2.5,4-4.6,6.2-6.9c2.2,2.2,6,4.3,6.3,6.8c0.3,2.4-2.9,5.2-4.6,7.8
		C549.9,277.2,548.9,277.2,547.8,277.2z"/>
	<path d="M70.5,428.5c1.9,2.5,5.4,5.1,5.2,7.5c-0.2,2.5-3.8,6.5-6,6.6c-2.2,0.1-6.2-3.5-6.6-6c-0.4-2.3,2.9-5.3,4.5-7.9
		C68.6,428.6,69.5,428.5,70.5,428.5z"/>
	<path d="M138.9,516.1c1.9,2.5,5.3,5.1,5.2,7.5c-0.2,2.5-3.8,6.4-6.1,6.5c-2.2,0.1-6.2-3.5-6.5-6c-0.4-2.3,2.9-5.2,4.5-7.9
		C136.9,516.2,137.9,516.2,138.9,516.1z"/>
	<path d="M368.9,519.4c1.8,2.6,5.1,5.4,4.8,7.7c-0.3,2.5-4,4.6-6.3,6.8c-2.2-2.2-6-4.3-6.3-6.8c-0.3-2.3,3-5.1,4.7-7.7
		C366.9,519.4,367.9,519.4,368.9,519.4z"/>
	<path d="M101.1,422.2c-2.6,1.6-5.5,4.8-7.9,4.5c-2.5-0.4-4.4-4.1-6.6-6.4c2.3-2.2,4.5-5.8,7-6.1c2.4-0.2,5.1,3.2,7.6,5
		C101.2,420.2,101.1,421.2,101.1,422.2z"/>
	<path d="M469.6,402.1c1.6,2.7,4.9,5.6,4.5,7.9c-0.4,2.5-4.3,6.1-6.6,6c-2.2-0.1-5.8-4.1-6-6.6c-0.2-2.4,3.3-5,5.2-7.5
		C467.6,402,468.6,402,469.6,402.1z"/>
	<path d="M288.2,287.3c-2.7,1.6-5.6,4.8-7.9,4.5c-2.5-0.4-4.4-4.2-6.6-6.5c2.3-2.1,4.5-5.8,7-6c2.4-0.2,5,3.2,7.6,5
		C288.2,285.2,288.2,286.2,288.2,287.3z"/>
	<path d="M89.1,482.1c1.8,2.5,5.3,5.2,5.1,7.5c-0.2,2.5-3.9,6.3-6.2,6.4c-2.3,0.1-6.1-3.6-6.5-6c-0.3-2.3,2.9-5.2,4.6-7.8
		C87.1,482.1,88.1,482.1,89.1,482.1z"/>
	<path d="M366.3,53.1c1.8,2.5,4.6,4.9,5.1,7.6c0.8,4.3-2.4,7.6-6.6,6.7c-2.5-0.6-5.8-4.1-6.1-6.6c-0.2-2.4,3-5.1,4.7-7.7
		C364.4,53.1,365.4,53.1,366.3,53.1z"/>
	<path d="M333.3,640.4c-2.5,1.9-5.1,5.4-7.4,5.2c-2.5-0.2-6.5-3.8-6.5-6c-0.1-2.3,3.5-6.2,6-6.6c2.3-0.4,5.2,2.8,7.9,4.5
		C333.2,638.4,333.2,639.4,333.3,640.4z"/>
	<path d="M173.3,122.5c1.8,2.6,5.1,5.4,4.9,7.7c-0.3,2.5-4,4.6-6.3,6.8c-2.2-2.2-6-4.3-6.3-6.8c-0.3-2.3,3-5.1,4.7-7.8
		C171.3,122.5,172.3,122.5,173.3,122.5z"/>
	<path d="M525,132.2c1.8,2.5,5.2,5.2,5,7.5c-0.2,2.5-3.8,4.7-6,7c-2.3-2.2-6.1-4.1-6.5-6.5c-0.4-2.3,2.8-5.2,4.4-7.9
		C523,132.2,524,132.2,525,132.2z"/>
	<path d="M175.6,170.2c-1.8-2.5-5.2-5.3-4.9-7.6c0.3-2.5,4-6.3,6.3-6.3c2.3,0,6,3.7,6.4,6.2c0.3,2.3-3,5.1-4.7,7.7
		C177.6,170.2,176.6,170.2,175.6,170.2z"/>
	<path d="M428.8,166.2c-2.5,1.8-5.2,5.3-7.5,5.1c-2.5-0.2-4.7-3.8-7.1-5.9c2.2-2.3,4.1-6.1,6.6-6.5c2.3-0.4,5.3,2.8,8,4.4
		C428.7,164.2,428.8,165.2,428.8,166.2z"/>
	<path d="M130.1,178c-1.8-2.6-5.1-5.4-4.8-7.7c0.3-2.5,4-6.3,6.3-6.3c2.2,0,6,3.8,6.3,6.3c0.3,2.3-3.1,5.1-4.8,7.7
		C132.1,178,131.1,178,130.1,178z"/>
	<path d="M522.7,168.8c1.7,2.6,5.1,5.3,4.8,7.7c-0.3,2.5-4.1,6.2-6.3,6.2c-2.3,0-6-3.8-6.3-6.2c-0.3-2.3,3.1-5.1,4.8-7.7
		C520.7,168.8,521.7,168.8,522.7,168.8z"/>
	<path d="M429,212.6c-2.6,1.8-5.4,5.1-7.7,4.8c-2.5-0.3-6.3-4.1-6.3-6.3c0-2.3,3.8-6,6.3-6.3c2.4-0.3,5.1,3.1,7.7,4.9
		C429,210.6,429,211.6,429,212.6z"/>
	<path d="M211.3,231.3c-1.7-2.6-5-5.4-4.7-7.7c0.3-2.5,4.1-4.5,6.3-6.7c2.2,2.3,5.9,4.4,6.2,6.9c0.3,2.3-3.1,5.1-4.9,7.7
		C213.3,231.4,212.3,231.4,211.3,231.3z"/>
	<path d="M371.3,250.8c-2.5,1.8-5.3,5.2-7.6,5c-2.5-0.3-6.3-4-6.3-6.3c0-2.3,3.7-6.1,6.1-6.5c2.3-0.3,5.1,3,7.7,4.8
		C371.3,248.8,371.3,249.8,371.3,250.8z"/>
	<path d="M591.4,257.9c1.8,2.6,5.1,5.3,4.9,7.6c-0.3,2.5-4,6.3-6.3,6.3c-2.2,0-6-3.7-6.4-6.2c-0.3-2.3,3-5.1,4.7-7.7
		C589.3,257.9,590.4,257.9,591.4,257.9z"/>
	<path d="M255.2,326.8c1.6,2.7,4.7,5.7,4.3,8c-0.4,2.5-4.3,4.3-6.6,6.4c-2.1-2.4-5.7-4.7-5.9-7.2c-0.2-2.4,3.3-5,5.2-7.4
		C253.2,326.7,254.2,326.8,255.2,326.8z"/>
	<path d="M478.4,346.6c1.8,2.5,5.2,5.2,4.9,7.6c-0.2,2.5-3.9,4.7-6,7c-2.3-2.2-6.1-4.1-6.5-6.6c-0.4-2.3,2.9-5.2,4.5-7.9
		C476.4,346.7,477.4,346.7,478.4,346.6z"/>
	<path d="M619.8,376.9c-2.5,1.9-5.1,5.3-7.5,5.1c-2.5-0.2-4.7-3.9-7.1-6c2.2-2.3,4.1-6.2,6.5-6.6c2.3-0.4,5.2,2.8,7.9,4.5
		C619.7,374.9,619.8,375.9,619.8,376.9z"/>
	<path d="M218.1,446.4c2.5-1.8,5.2-5.3,7.5-5c2.5,0.3,6.4,3.9,6.4,6.2c0.1,2.3-3.6,6.1-6.1,6.5c-2.3,0.4-5.2-2.9-7.8-4.6
		C218.1,448.4,218.1,447.4,218.1,446.4z"/>
	<path d="M109,482.2c-1.9-2.5-5.3-5.1-5.1-7.5c0.2-2.5,3.9-4.7,6-7.1c2.3,2.1,6.1,4,6.6,6.5c0.4,2.3-2.8,5.2-4.4,7.9
		C111.1,482.1,110,482.2,109,482.2z"/>
	<path d="M389.4,477.7c-2.6,1.7-5.4,5-7.8,4.7c-2.4-0.3-6.2-4.2-6.1-6.4c0-2.3,3.9-6,6.3-6.2c2.3-0.2,5.1,3.2,7.6,5
		C389.4,475.7,389.4,476.7,389.4,477.7z"/>
	<path d="M542.5,485.9c-2.6,1.8-5.3,5.2-7.6,4.9c-2.5-0.3-6.3-4-6.3-6.2c0-2.3,3.7-6.1,6.1-6.4c2.3-0.3,5.2,3,7.8,4.7
		C542.5,483.9,542.5,484.9,542.5,485.9z"/>
	<path d="M270.4,491.8c-2.6,1.8-5.3,5.2-7.6,5c-2.5-0.3-6.3-4-6.3-6.2c0-2.3,3.7-6.1,6.1-6.4c2.3-0.3,5.2,3,7.8,4.8
		C270.4,489.8,270.4,490.8,270.4,491.8z"/>
	<path d="M607.7,501.2c-1.7-2.6-5-5.4-4.7-7.8c0.3-2.5,4.2-6.2,6.4-6.2c2.2,0,6,3.9,6.2,6.4c0.2,2.4-3.2,5.1-5,7.6
		C609.7,501.2,608.7,501.2,607.7,501.2z"/>
	<path d="M313.1,510.3c1.8,2.5,5.3,5.2,5,7.5c-0.2,2.5-3.9,6.3-6.2,6.4c-2.3,0.1-6.1-3.6-6.5-6.1c-0.4-2.3,3-5.2,4.7-7.8
		C311.1,510.3,312.1,510.3,313.1,510.3z"/>
	<path d="M549.9,538.7c-1.7-2.6-5-5.4-4.7-7.7c0.4-2.5,4.2-6.2,6.4-6.2c2.3,0,5.9,3.9,6.2,6.4c0.3,2.3-3.1,5-4.9,7.6
		C551.9,538.7,550.9,538.7,549.9,538.7z"/>
	<path d="M446.4,563c-1.7-2.6-5.1-5.4-4.8-7.7c0.3-2.5,4.1-6.3,6.3-6.3c2.3,0,6,3.8,6.3,6.3c0.3,2.3-3.1,5.1-4.8,7.7
		C448.4,563,447.4,563,446.4,563z"/>
	<path d="M176.6,559c1.6,2.6,4.9,5.5,4.5,7.9c-0.4,2.5-4.2,4.4-6.5,6.5c-2.1-2.3-5.8-4.5-6-7c-0.2-2.4,3.2-5,5-7.5
		C174.6,558.9,175.6,558.9,176.6,559z"/>
	<path d="M160.1,583.7c-2.6,1.7-5.3,5.1-7.7,4.8c-2.5-0.3-6.3-4.1-6.3-6.3c0-2.3,3.8-6,6.2-6.3c2.3-0.3,5.1,3.1,7.7,4.8
		C160.1,581.7,160.1,582.7,160.1,583.7z"/>
	<path d="M227.4,602.7c-2.6,1.7-5.4,5.1-7.7,4.8c-2.5-0.3-4.6-4.1-6.8-6.3c2.3-2.2,4.3-6,6.8-6.3c2.3-0.3,5.1,3,7.7,4.8
		C227.4,600.7,227.4,601.7,227.4,602.7z"/>
	<path d="M333.4,65.3c-2.6,1.7-5.5,4.9-7.8,4.5c-2.5-0.4-4.4-4.2-6.6-6.5c2.3-2.2,4.5-5.9,7-6.1c2.3-0.2,5,3.2,7.5,5
		C333.5,63.3,333.4,64.3,333.4,65.3z"/>
	<path d="M101.8,309.5c-2.6,1.7-5.4,5-7.7,4.7c-2.5-0.3-6.2-4.1-6.1-6.4c0-2.2,3.8-5.9,6.3-6.2c2.3-0.3,5.1,3.1,7.6,4.9
		C101.8,307.5,101.8,308.5,101.8,309.5z"/>
	<path d="M666.1,286.5c-2.5,1.8-5.2,5.3-7.5,5c-2.5-0.2-6.4-3.9-6.4-6.1c-0.1-2.2,3.6-6.1,6.1-6.5c2.3-0.4,5.2,2.9,7.8,4.5
		C666,284.5,666,285.5,666.1,286.5z"/>
	<path d="M599.4,230.2c-1.8-2.5-5.3-5.2-5.1-7.5c0.2-2.5,3.9-4.7,6-7.1c2.3,2.2,6.1,4.1,6.5,6.5c0.4,2.3-2.8,5.2-4.4,7.9
		C601.4,230.1,600.4,230.1,599.4,230.2z"/>
	<path d="M507.7,274.5c1.8,2.5,5.3,5.1,5.1,7.5c-0.2,2.5-3.8,4.7-6,7.1c-2.3-2.1-6.1-4-6.5-6.5c-0.4-2.3,2.8-5.3,4.3-7.9
		C505.6,274.6,506.6,274.6,507.7,274.5z"/>
	<path d="M581.9,492.1c-1.7-2.6-5-5.4-4.7-7.7c0.3-2.5,4-4.5,6.3-6.8c2.2,2.3,5.9,4.3,6.2,6.8c0.3,2.3-3,5.1-4.7,7.7
		C583.9,492.1,582.9,492.1,581.9,492.1z"/>
	<path d="M307.8,663c-2.5,1.9-5.1,5.4-7.4,5.2c-2.5-0.2-6.5-3.7-6.6-6c-0.1-2.3,3.5-6.2,5.9-6.6c2.3-0.4,5.3,2.8,7.9,4.4
		C307.7,661,307.8,662,307.8,663z"/>
	<path d="M416.6,271.1c-1.8-2.5-5.3-5.2-5-7.5c0.3-2.5,3.9-6.4,6.1-6.5c2.2-0.1,6.1,3.6,6.5,6.1c0.4,2.3-2.9,5.2-4.6,7.8
		C418.6,271,417.6,271,416.6,271.1z"/>
	<path d="M335.5,256.9c-2.6,1.7-5.4,5.1-7.7,4.7c-2.4-0.3-6.2-4.1-6.1-6.4c0-2.2,3.9-6,6.3-6.2c2.4-0.2,5.1,3.1,7.6,4.9
		C335.6,254.9,335.5,255.9,335.5,256.9z"/>
	<path d="M188.6,187.6c1.6,2.7,4.9,5.6,4.5,7.9c-0.4,2.5-4.3,6.1-6.5,6c-2.3-0.1-5.9-4-6.1-6.5c-0.2-2.4,3.3-5,5.1-7.5
		C186.6,187.5,187.6,187.5,188.6,187.6z"/>
	<path d="M429.1,67.7c-2.6,1.7-5.4,5-7.7,4.8c-2.5-0.3-6.3-4-6.3-6.3c0-2.3,3.8-6,6.3-6.3c2.4-0.3,5.1,3.1,7.7,4.8
		C429.1,65.7,429.1,66.7,429.1,67.7z"/>
	<path d="M419.2,103c-1.8-2.5-5.2-5.2-5-7.6c0.2-2.5,3.9-4.7,6.1-7c2.3,2.2,6.1,4.2,6.4,6.6c0.3,2.4-2.9,5.2-4.5,7.9
		C421.2,102.9,420.2,102.9,419.2,103z"/>
	<path d="M663.7,454.7c-2.6,1.7-5.5,4.9-7.8,4.6c-2.5-0.4-4.5-4.1-6.7-6.3c2.3-2.2,4.4-5.9,6.9-6.2c2.3-0.3,5.1,3.1,7.6,4.9
		C663.7,452.7,663.7,453.7,663.7,454.7z"/>
	<path d="M131.6,465.9c-1.8-2.6-5.2-5.3-4.9-7.6c0.3-2.5,4-6.3,6.2-6.4c2.2,0,6,3.7,6.4,6.2c0.3,2.4-3,5.2-4.7,7.8
		C133.6,465.9,132.6,465.9,131.6,465.9z"/>
	<path d="M230.1,129.9c-2.5,1.8-5.2,5.1-7.6,4.9c-2.5-0.3-4.7-3.9-7-6.1c2.2-2.3,4.2-6.1,6.6-6.4c2.3-0.4,5.2,2.9,7.8,4.6
		C230,127.8,230,128.9,230.1,129.9z"/>
	<path d="M468.3,598.8c-2.6,1.7-5.5,5-7.8,4.6c-2.5-0.4-4.5-4.1-6.7-6.4c2.3-2.2,4.4-5.8,6.9-6.1c2.4-0.2,5.1,3.1,7.6,4.9
		C468.3,596.8,468.3,597.8,468.3,598.8z"/>
	<path d="M213.5,396.6c-2.6,1.7-5.4,4.9-7.8,4.6c-2.5-0.3-4.5-4.1-6.7-6.3c2.3-2.2,4.4-5.9,6.9-6.2c2.3-0.3,5.1,3.1,7.7,4.9
		C213.5,394.6,213.5,395.6,213.5,396.6z"/>
	<path d="M243.6,576.6c1.7,2.6,4.9,5.5,4.5,7.8c-0.4,2.5-4.1,4.5-6.4,6.7c-2.2-2.3-5.9-4.4-6.1-6.9c-0.3-2.3,3.1-5,4.9-7.6
		C241.6,576.6,242.6,576.6,243.6,576.6z"/>
	<path d="M605.7,424c1.7,2.6,5,5.4,4.7,7.7c-0.3,2.5-4.1,6.2-6.4,6.2c-2.2,0-5.9-3.8-6.2-6.3c-0.3-2.3,3.1-5.1,4.8-7.6
		C603.7,424,604.7,424,605.7,424z"/>
	<path d="M668.6,389.8c1.8,2.6,5.1,5.3,4.9,7.6c-0.3,2.5-4,6.3-6.2,6.3c-2.3,0-6-3.7-6.4-6.2c-0.3-2.3,3-5.1,4.7-7.7
		C666.6,389.9,667.6,389.8,668.6,389.8z"/>
	<path d="M178.5,277.5c-1.6-2.7-4.7-5.6-4.3-7.9c0.4-2.5,4.4-6,6.6-5.9c2.3,0.1,5.8,4.1,5.9,6.6c0.2,2.3-3.3,4.9-5.2,7.4
		C180.5,277.7,179.5,277.6,178.5,277.5z"/>
	<path d="M119.1,255.9c-2.6,1.6-5.6,4.9-7.9,4.5c-2.5-0.4-6.1-4.3-6-6.6c0.1-2.2,4-5.8,6.5-6c2.3-0.2,5,3.2,7.5,5.1
		C119.2,253.9,119.1,254.9,119.1,255.9z"/>
	<path d="M669.4,333.2c1.8,2.6,5.1,5.3,4.9,7.6c-0.3,2.5-4,6.3-6.3,6.3c-2.2,0-6-3.7-6.3-6.2c-0.3-2.3,3-5.1,4.7-7.7
		C667.4,333.2,668.4,333.2,669.4,333.2z"/>
	<path d="M440.8,455.7c-2.6,1.7-5.5,4.9-7.8,4.6c-2.5-0.4-6.1-4.2-6.1-6.5c0-2.2,3.9-5.9,6.4-6.1c2.3-0.2,5,3.1,7.5,4.9
		C440.9,453.6,440.8,454.6,440.8,455.7z"/>
	<path d="M347.9,623.7c-1.6-2.6-4.9-5.5-4.5-7.8c0.4-2.5,4.3-6.1,6.5-6c2.2,0.1,5.8,4,6,6.5c0.2,2.3-3.2,5-5,7.5
		C350,623.8,348.9,623.7,347.9,623.7z"/>
	<path d="M124.9,348.5c-2.6,1.6-5.5,4.8-7.8,4.5c-2.5-0.4-4.4-4.2-6.6-6.5c2.3-2.2,4.5-5.8,7-6.1c2.3-0.2,5,3.2,7.5,5
		C125,346.5,125,347.5,124.9,348.5z"/>
	<path d="M126.5,404.5c-2.5,1.8-5.1,5.3-7.5,5.1c-2.5-0.2-4.8-3.8-7.1-5.9c2.1-2.3,4-6.2,6.5-6.6c2.3-0.4,5.3,2.8,7.9,4.4
		C126.4,402.4,126.5,403.4,126.5,404.5z"/>
	<path d="M483.3,83.6c-2.6,1.6-5.5,4.9-7.8,4.5c-2.5-0.4-6.2-4.2-6.1-6.5c0.1-2.3,4-5.9,6.5-6.1c2.3-0.2,5,3.2,7.5,5
		C483.4,81.6,483.4,82.6,483.3,83.6z"/>
	<path d="M411.1,672.9c-1.7-2.6-4.9-5.5-4.6-7.8c0.4-2.5,4.2-6.2,6.4-6.1c2.3,0.1,5.9,3.9,6.2,6.4c0.2,2.3-3.2,5-5,7.6
		C413.1,672.9,412.1,672.9,411.1,672.9z"/>
	<path d="M468.8,246.9c-1.8-2.5-5.2-5.2-5-7.5c0.2-2.5,3.9-4.7,6-7c2.3,2.2,6.1,4.1,6.5,6.6c0.4,2.3-2.8,5.2-4.4,7.9
		C470.9,246.9,469.8,246.9,468.8,246.9z"/>
	<path d="M558.9,224.9c-1.6-2.6-4.9-5.5-4.5-7.9c0.4-2.5,4.2-4.4,6.5-6.6c2.2,2.3,5.8,4.5,6,7c0.2,2.4-3.2,5-5,7.6
		C560.9,225,559.9,225,558.9,224.9z"/>
	<path d="M232.8,534c-1.7-2.6-5-5.3-4.8-7.7c0.3-2.5,4-6.3,6.3-6.3c2.3,0,6,3.8,6.3,6.2c0.3,2.3-3,5.1-4.8,7.7
		C234.8,534,233.8,534,232.8,534z"/>
	<path d="M217.4,106.3c-1.8-2.5-5.2-5.2-5-7.5c0.2-2.5,3.9-6.4,6.1-6.4c2.3-0.1,6.1,3.6,6.5,6c0.4,2.3-2.9,5.2-4.6,7.8
		C219.4,106.2,218.4,106.3,217.4,106.3z"/>
	<path d="M335.2,578.3c-1.7-2.6-4.9-5.5-4.6-7.8c0.4-2.5,4.2-6.1,6.5-6.1c2.2,0,5.8,4,6.1,6.4c0.2,2.3-3.2,5-5,7.5
		C337.3,578.4,336.2,578.3,335.2,578.3z"/>
	<path d="M153.7,232.3c1.8,2.6,5.1,5.3,4.8,7.6c-0.3,2.5-4,4.6-6.2,6.9c-2.3-2.2-6-4.2-6.4-6.7c-0.3-2.3,2.9-5.2,4.6-7.8
		C151.6,232.3,152.6,232.3,153.7,232.3z"/>
	<path d="M508.2,577c-1.7-2.6-5-5.4-4.7-7.7c0.3-2.5,4.1-4.5,6.4-6.7c2.2,2.3,5.9,4.3,6.2,6.8c0.3,2.3-3,5.1-4.8,7.6
		C510.2,577,509.2,577,508.2,577z"/>
	<path d="M117.1,531.3c1.8,2.5,5.1,5.3,4.9,7.6c-0.3,2.5-3.9,4.6-6.1,6.9c-2.3-2.2-6.1-4.2-6.4-6.6c-0.3-2.3,2.9-5.2,4.6-7.8
		C115.1,531.4,116.1,531.4,117.1,531.3z"/>
	<path d="M391.6,578.2c-1.6-2.6-4.8-5.6-4.4-7.9c0.4-2.5,4.2-4.3,6.6-6.4c2.1,2.3,5.7,4.5,5.9,7c0.2,2.3-3.2,5-5.1,7.5
		C393.6,578.3,392.6,578.3,391.6,578.2z"/>
	<path d="M421.5,524.5c-1.8-2.5-5.1-5.3-4.8-7.6c0.3-2.5,3.9-4.6,6.1-6.9c2.3,2.2,6,4.2,6.4,6.6c0.3,2.3-2.9,5.1-4.6,7.8
		C423.5,524.5,422.5,524.5,421.5,524.5z"/>
	<path d="M616.8,185.1c-2.5,1.8-5.2,5.1-7.5,4.9c-2.5-0.3-4.6-3.9-6.9-6.1c2.2-2.3,4.1-6.1,6.6-6.5c2.3-0.4,5.2,2.9,7.8,4.6
		C616.7,183.1,616.7,184.1,616.8,185.1z"/>
	<path d="M232.2,151.8c1.7,2.6,5,5.4,4.7,7.7c-0.3,2.5-4.1,6.2-6.3,6.2c-2.3,0-6-3.8-6.3-6.3c-0.3-2.3,3.1-5.1,4.9-7.7
		C230.2,151.8,231.2,151.8,232.2,151.8z"/>
	<path d="M642.1,507.2c-2.6,1.6-5.5,4.8-7.8,4.4c-2.5-0.4-4.4-4.2-6.5-6.5c2.3-2.1,4.5-5.8,7-6c2.3-0.2,5,3.2,7.5,5
		C642.2,505.2,642.2,506.2,642.1,507.2z"/>
	<path d="M524.7,115c-1.7-2.6-5-5.4-4.6-7.7c0.4-2.5,4.1-4.5,6.3-6.7c2.2,2.3,5.9,4.4,6.2,6.9c0.3,2.3-3.1,5.1-4.8,7.6
		C526.8,115,525.7,115,524.7,115z"/>
	<path d="M534.2,392.8c-2.5,1.8-5.1,5.3-7.5,5.1c-2.5-0.2-6.4-3.8-6.5-6c-0.1-2.2,3.5-6.1,6-6.5c2.3-0.4,5.2,2.8,7.9,4.4
		C534.1,390.8,534.1,391.8,534.2,392.8z"/>
	<path d="M474.1,179.8c1.8,2.5,5.2,5.2,4.9,7.5c-0.2,2.5-3.9,4.7-6,7c-2.3-2.2-6.1-4.1-6.5-6.6c-0.4-2.3,2.8-5.2,4.5-7.8
		C472,179.9,473,179.8,474.1,179.8z"/>
	<path d="M63,372.6c1.7,2.6,5,5.4,4.7,7.7c-0.3,2.5-4.1,4.5-6.4,6.7c-2.2-2.3-5.9-4.3-6.2-6.8c-0.3-2.3,3.1-5.1,4.8-7.6
		C61,372.6,62,372.6,63,372.6z"/>
	<path d="M224.6,277.6c1.8,2.6,5.1,5.3,4.8,7.6c-0.3,2.5-4,4.6-6.1,6.9c-2.3-2.2-6-4.2-6.4-6.7c-0.3-2.3,2.9-5.2,4.6-7.8
		C222.5,277.7,223.6,277.6,224.6,277.6z"/>
	<path d="M568.4,435.5c-2.5,1.8-5.1,5.2-7.5,5c-2.5-0.2-4.7-3.8-7-6c2.1-2.3,4-6.1,6.5-6.5c2.3-0.4,5.2,2.8,7.9,4.4
		C568.4,433.5,568.4,434.5,568.4,435.5z"/>
	<path d="M260,233.7c1.8,2.6,5.1,5.3,4.8,7.6c-0.3,2.5-4,4.6-6.2,6.9c-2.3-2.2-6-4.2-6.4-6.7c-0.3-2.3,2.9-5.1,4.6-7.7
		C258,233.8,259,233.8,260,233.7z"/>
	<path d="M605.5,327.1c-1.6-2.7-4.8-5.6-4.4-7.9c0.4-2.5,4.2-4.3,6.5-6.5c2.1,2.3,5.7,4.5,6,7c0.2,2.3-3.2,5-5,7.5
		C607.6,327.2,606.5,327.1,605.5,327.1z"/>
	<path d="M571,386.8c-1.9-2.5-5.3-5.1-5.1-7.4c0.2-2.5,3.7-6.4,5.9-6.6c2.2-0.1,6.1,3.5,6.6,5.9c0.4,2.3-2.7,5.2-4.3,7.9
		C573,386.7,572,386.8,571,386.8z"/>
	<path d="M545.7,582.2c-2.6,1.7-5.5,4.9-7.8,4.5c-2.5-0.4-4.4-4.1-6.6-6.4c2.3-2.2,4.4-5.8,6.9-6.1c2.3-0.2,5,3.1,7.6,4.9
		C545.7,580.2,545.7,581.2,545.7,582.2z"/>
	<path d="M428.2,128.2c-2.5,1.8-5.2,5.2-7.5,5c-2.5-0.2-4.7-3.9-7-6c2.2-2.3,4.1-6.1,6.5-6.5c2.3-0.4,5.2,2.8,7.8,4.4
		C428.1,126.2,428.1,127.2,428.2,128.2z"/>
	<path d="M524.4,224.4c-2.5,1.8-5.2,5.2-7.5,5c-2.5-0.2-4.7-3.9-7-6c2.1-2.3,4-6.1,6.5-6.5c2.3-0.4,5.2,2.8,7.9,4.4
		C524.4,222.4,524.4,223.4,524.4,224.4z"/>
	<path d="M203.9,552.8c-2.7,1.6-5.6,4.7-7.9,4.3c-2.4-0.5-6-4.4-5.9-6.6c0.1-2.2,4.1-5.8,6.6-5.9c2.3-0.2,4.9,3.3,7.4,5.2
		C204,550.8,204,551.8,203.9,552.8z"/>
	<path d="M307.1,172.9c-1.8-2.5-5.2-5.2-5-7.5c0.2-2.5,3.9-4.7,6-7c2.3,2.1,6.1,4,6.5,6.5c0.4,2.3-2.8,5.2-4.4,7.8
		C309.2,172.9,308.1,172.9,307.1,172.9z"/>
	<path d="M408,605.2c1.6,2.6,4.9,5.5,4.5,7.8c-0.4,2.5-4.2,4.4-6.5,6.6c-2.2-2.3-5.8-4.5-6.1-6.9c-0.2-2.3,3.2-5,5-7.5
		C405.9,605.1,407,605.2,408,605.2z"/>
	<path d="M147.3,206.4c-2.6,1.7-5.3,5.1-7.7,4.8c-2.5-0.3-6.3-4-6.3-6.3c0-2.2,3.8-6,6.3-6.3c2.3-0.3,5.1,3,7.7,4.7
		C147.3,204.4,147.3,205.4,147.3,206.4z"/>
	<path d="M641.2,377.2c1.8,2.5,5.2,5.2,5,7.5c-0.2,2.5-3.9,4.7-6,7c-2.3-2.2-6.1-4.1-6.5-6.5c-0.4-2.3,2.8-5.2,4.5-7.9
		C639.2,377.3,640.2,377.3,641.2,377.2z"/>
	<path d="M389.6,643.7c-2.7,1.5-5.8,4.5-8.1,3.9c-2.4-0.6-4.1-4.4-6.1-6.9c2.4-2,4.8-5.5,7.3-5.6c2.3-0.1,4.8,3.5,7.2,5.4
		C389.8,641.7,389.7,642.7,389.6,643.7z"/>
	<path d="M260.6,391.8c-2.5,1.8-5.2,5.2-7.5,5c-2.5-0.2-4.6-3.9-7-6c2.2-2.3,4.1-6.1,6.5-6.5c2.3-0.4,5.2,2.8,7.9,4.5
		C260.6,389.8,260.6,390.8,260.6,391.8z"/>
	<path d="M472.7,480.5c1.8,2.5,5.2,5.2,5,7.5c-0.2,2.5-3.9,6.4-6.1,6.4c-2.2,0.1-6.1-3.6-6.5-6.1c-0.4-2.3,2.9-5.2,4.5-7.8
		C470.7,480.5,471.7,480.5,472.7,480.5z"/>
	<path d="M136.1,293.1c-2.6,1.6-5.5,4.9-7.8,4.5c-2.5-0.4-4.4-4.1-6.6-6.4c2.3-2.2,4.5-5.8,6.9-6.1c2.3-0.2,5,3.1,7.6,4.9
		C136.2,291,136.2,292,136.1,293.1z"/>
	<path d="M157.9,515.8c-1.7-2.6-5.1-5.3-4.8-7.7c0.3-2.5,4-6.3,6.2-6.3c2.2,0,6,3.8,6.3,6.2c0.3,2.3-3,5.1-4.7,7.7
		C159.9,515.8,158.9,515.8,157.9,515.8z"/>
</g>
</svg>
